<?xml version="1.0" encoding="utf-8"?>
<!-- Generator: Adobe Illustrator 16.0.3, SVG Export Plug-In . SVG Version: 6.00 Build 0)  -->
<!DOCTYPE svg PUBLIC "-//W3C//DTD SVG 1.1//EN" "http://www.w3.org/Graphics/SVG/1.1/DTD/svg11.dtd">
<svg version="1.1" id="Layer_1" xmlns="http://www.w3.org/2000/svg" xmlns:xlink="http://www.w3.org/1999/xlink" x="0px" y="0px"
	 width="120px" height="120px" viewBox="0 0 120 120" enable-background="new 0 0 120 120" xml:space="preserve">
<g opacity="0.33">
	<g>
		<g>
			<polygon fill="#A3CCC4" points="62.002,58.147 62.002,58.147 62.007,58.149 			"/>
			<path fill="#A3CCC4" d="M62.023,58.147l-0.017,0.002l0,0c8.005-0.822,16.069-2.289,23.96-1.9
				c3.922,0.208,7.788,0.97,11.153,2.751c1.683,0.881,3.224,2.017,4.583,3.364c0.68,0.674,1.315,1.398,1.904,2.169
				c0.297,0.382,0.58,0.779,0.854,1.181l0.403,0.615l0.193,0.314l0.096,0.158l0.05,0.078l0.023,0.038l0.013,0.018
				c-0.183-0.228,0.257,0.331,0.214,0.275l0.008,0.007l0.045-0.052l-0.008-0.008c0.177,0.221-0.242-0.307-0.201-0.255l-0.001-0.007
				l-0.013-0.021l-0.025-0.044l-0.043-0.085l-0.096-0.169l-0.188-0.339l-0.392-0.668c-0.271-0.438-0.552-0.867-0.847-1.287
				c-0.591-0.84-1.241-1.631-1.949-2.359c-1.413-1.466-3.055-2.694-4.857-3.628c-3.621-1.884-7.797-2.577-11.954-2.665
				c3.536-0.105,7.087-0.007,10.588,0.809c1.447,0.341,2.886,0.797,4.283,1.403c0.597,0.251,1.196,0.601,1.791,0.842
				c-5.238-3.721-11.664-4.395-17.566-3.882c-1.479,0.121-2.945,0.305-4.406,0.523c1.49-0.302,2.98-0.602,4.48-0.896
				c0.656-0.125,1.376-0.222,2.019-0.404c-4.18,0.09-8.277,0.804-12.285,1.713c-2.845,0.648-5.673,1.369-8.531,1.896
				c-1.096,0.2-2.2,0.371-3.303,0.514v-0.003C62.005,58.148,62.011,58.146,62.023,58.147z"/>
			<polygon fill="#A3CCC4" points="62.002,58.15 62.002,58.15 62.002,58.15 			"/>
			<polygon fill="#A3CCC4" points="62.002,58.15 62.002,58.147 62.002,58.15 			"/>
		</g>
	</g>
	<g>
		<g>
			<path fill="#A3CCC4" d="M62.511,41.967c1.782-0.623,3.339-2.013,4.222-3.787c0.896-1.781,1.059-3.849,0.805-5.767
				c-0.504-3.891-3.224-7.231-6.741-8.313c-3.554-0.923-7.447-0.034-10.641,1.967c-3.223,2.041-5.727,5.118-7.859,8.339
				c-4.267,6.502-7.275,13.775-11.519,20.273c-2.12,3.217-4.6,6.292-7.766,8.374c-3.143,2.125-6.954,2.869-10.547,2.392
				c-0.491-0.068-0.886-0.12-0.886-0.12s0.395,0.056,0.883,0.122c3.592,0.489,7.411-0.251,10.565-2.367
				c3.174-2.08,5.663-5.152,7.792-8.372c4.261-6.493,7.284-13.76,11.555-20.242c2.134-3.21,4.64-6.27,7.84-8.286
				c3.164-1.979,7.048-2.849,10.535-1.928c3.464,1.076,6.132,4.369,6.622,8.194c0.244,1.889,0.079,3.922-0.801,5.649
				c-0.861,1.724-2.379,3.076-4.113,3.679c-0.468,0.177-0.858,0.275-0.848,0.343C61.614,42.163,62.029,42.153,62.511,41.967z"/>
			<g>
				<path fill="#A3CCC4" d="M60.093,37.586c0.92-0.184,1.592-1.348,1.446-2.41c-0.077-1.074-0.835-2.115-1.936-2.411
					c-1.051-0.278-2.256-0.045-3.211,0.701c-0.957,0.721-1.622,1.992-1.683,3.247c-0.215,2.336,1.059,4.46,2.775,5.307
					c1.75,0.865,3.65,0.574,5.138-0.124c0.398-0.195,0.698-0.396,0.699-0.392l-0.008-0.019c-0.001-0.006-0.331,0.128-0.742,0.24
					c-1.528,0.409-3.304,0.344-4.645-0.531c-1.347-0.872-2.215-2.596-2.045-4.412c0.075-1.939,1.87-3.368,3.496-3.075
					c0.761,0.116,1.414,0.763,1.591,1.588c0.218,0.822-0.118,1.781-0.919,2.14c-0.383,0.184-0.742,0.148-0.742,0.16
					C59.309,37.583,59.649,37.696,60.093,37.586z M61.081,34.779c-0.224-0.494-0.673-1-1.285-1.238
					c-1.07-0.388-2.313-0.064-3.175,0.68c-0.895,0.748-1.337,1.942-1.351,3.093c-0.13,2.324,1.642,4.756,4.011,4.987
					c0.688,0.062,1.376,0.037,1.937-0.125c0.19-0.036,0.356-0.106,0.519-0.168c-0.147,0.057-0.305,0.131-0.488,0.171
					c-0.538,0.157-1.223,0.213-1.921,0.156c-2.422-0.162-4.417-2.726-4.157-5.281c0.043-2.629,2.582-4.35,4.585-3.623
					c0.581,0.217,1.052,0.688,1.308,1.222c0.112,0.183,0.24,0.676,0.229,0.703C61.3,35.379,61.178,34.965,61.081,34.779z"/>
			</g>
		</g>
	</g>
	<g>
		<g>
			<path fill-rule="evenodd" clip-rule="evenodd" fill="#A3CCC4" d="M43.666,40.81c-0.033-0.032,0.496,0.081,0.958-0.581
				c0.471-0.607,0.128-2.216-1.242-2.365c-0.638-0.059-1.384,0.23-1.899,0.843c-0.542,0.605-0.756,1.536-0.566,2.42
				c0.266,1.83,2.268,3.217,4.235,2.554c1.94-0.476,3.639-2.469,3.74-4.722c0.135-2.236-0.831-4.455-2.417-5.785
				c-1.582-1.333-3.716-1.815-5.545-1.271c-1.87,0.422-3.482,1.367-4.684,2.475c-3.537,3.309-5.158,8.305-6.811,12.981
				c-1.653,4.71-3.104,9.708-6.205,13.723c-0.783,1.061-2.832,3.103-5.118,3.864c-2.246,0.834-4.279,0.656-4.265,0.587
				c-0.007-0.128,2.011-0.098,4.143-0.981c2.17-0.814,4.09-2.789,4.838-3.823c2.94-3.909,4.387-8.848,6.063-13.563
				c1.68-4.679,3.354-9.74,7.073-13.15c1.259-1.141,2.96-2.108,4.895-2.516c1.938-0.548,4.183-0.008,5.822,1.405
				c1.643,1.417,2.62,3.739,2.454,6.066c-0.134,2.366-1.934,4.416-3.949,4.885c-2.047,0.664-4.13-0.812-4.371-2.704
				c-0.185-0.91,0.051-1.883,0.613-2.496c0.538-0.628,1.311-0.912,1.96-0.847c1.408,0.175,1.729,1.818,1.25,2.426
				C44.16,40.898,43.635,40.773,43.666,40.81z"/>
		</g>
	</g>
	<path fill="#A3CCC4" d="M63.137,79.447c0.338,0.094,0.528,0.465,0.429,0.823c-0.1,0.364-0.452,0.582-0.788,0.489
		c-0.337-0.092-0.531-0.462-0.431-0.823S62.803,79.355,63.137,79.447z"/>
	<path fill="#A3CCC4" d="M26.787,26.087c0.463,0.127,0.731,0.636,0.592,1.138c-0.137,0.5-0.627,0.802-1.09,0.674
		c-0.468-0.128-0.731-0.638-0.594-1.137C25.834,26.259,26.321,25.958,26.787,26.087z"/>
	<path fill="#A3CCC4" d="M43.765,38.878c0.493,0.043,0.848,0.509,0.79,1.038c-0.064,0.531-0.512,0.925-1.007,0.881
		c-0.496-0.044-0.851-0.509-0.79-1.041C42.816,39.227,43.269,38.834,43.765,38.878z"/>
	<g>
		<g>
			<path fill="#A3CCC4" d="M26.932,26.108c-0.014,0.008,0.284,0.155,0.49,0.628c0.228,0.449,0.158,1.29-0.417,1.854
				c-0.677,0.705-1.787,0.867-2.559,0.329c-0.774-0.507-1.269-1.445-1.297-2.427c-0.082-2.042,1.765-3.704,3.557-3.951
				c1.888-0.33,3.631,0.934,4.552,2.563c0.953,1.651,1.119,3.798,0.42,5.647c-1.484,3.692-5.476,5.998-9.116,5.426
				c-3.681-0.521-6.572-3.643-7.904-7.181c-1.349-3.604-1.039-7.916,0.856-11.365c1.912-3.432,4.885-6.199,8.304-7.796
				c3.412-1.621,7.269-2.066,10.839-1.253c3.611,0.761,6.756,2.948,9.327,5.637c5.214,5.372,7.817,13.414,6.994,21.243
				c-0.379,3.917-1.618,7.758-3.537,11.173c-1.96,3.395-4.44,6.467-7.27,9.093C34.505,60.981,27.345,64.328,20,65.217
				c-7.345,0.906-14.847-0.689-21.144-4.496c-1.908-1.166-2.339-1.372-2.361-1.276c-0.032,0.054-0.049,0.082-0.086,0.136
				c-0.056,0.023,0.232,0.454,2.164,1.657c6.404,3.85,14.021,5.441,21.465,4.496c7.444-0.929,14.683-4.341,20.397-9.674
				c2.857-2.667,5.355-5.776,7.33-9.225c1.939-3.473,3.188-7.376,3.559-11.347c0.811-7.94-1.852-16.068-7.137-21.483
				c-2.606-2.711-5.807-4.92-9.472-5.677c-3.625-0.816-7.526-0.353-10.979,1.3c-3.458,1.631-6.454,4.435-8.381,7.914
				c-1.913,3.508-2.21,7.878-0.833,11.519c1.359,3.575,4.281,6.718,8.021,7.236c3.692,0.564,7.713-1.778,9.203-5.519
				c0.707-1.874,0.527-4.042-0.441-5.706c-0.93-1.641-2.696-2.917-4.605-2.573c-1.811,0.253-3.66,1.935-3.576,3.995
				c0.03,0.99,0.532,1.936,1.313,2.444c0.779,0.535,1.896,0.374,2.577-0.339c0.572-0.571,0.638-1.414,0.407-1.867
				C27.216,26.264,26.918,26.117,26.932,26.108L26.932,26.108z"/>
		</g>
	</g>
	<g>
		<g>
			<path fill="#A3CCC4" d="M86.604,34.774c1.086,0.091,2.139,0.474,3.042,1.087c1.488,1.043,2.672,2.788,2.697,4.74
				c0.043,1.943-1.133,3.893-2.838,4.674c-1.691,0.823-3.922-0.298-4.188-2.261c-0.137-0.952,0.373-1.972,1.188-2.443
				c0.806-0.534,1.944-0.058,2.194,0.878c0.149,0.573-0.213,1.271-0.775,1.416c-0.561,0.199-1.186-0.594-0.687-1.079
				c0.11-0.181,0.479-0.193,0.601,0.05c0.123,0.255-0.127,0.415-0.11,0.398c-0.021,0.02,0.247-0.129,0.125-0.409
				c-0.113-0.26-0.52-0.261-0.644-0.066c-0.541,0.513,0.117,1.382,0.727,1.173c0.607-0.144,1.007-0.882,0.854-1.511
				c-0.25-1.011-1.461-1.539-2.348-0.981c-0.871,0.489-1.436,1.57-1.301,2.604c0.262,2.114,2.612,3.338,4.451,2.476
				c1.821-0.808,3.086-2.864,3.043-4.937c-0.026-2.095-1.28-3.901-2.844-4.958c-0.946-0.623-2.052-0.994-3.17-1.023
				c-0.361-0.053-1.344,0.091-1.338,0.137C85.287,34.761,86.257,34.702,86.604,34.774z"/>
		</g>
	</g>
	<path fill="#A3CCC4" d="M20.093,88.377c0.234,0.272,0.206,0.706-0.061,0.963c-0.267,0.26-0.672,0.246-0.904-0.029
		c-0.233-0.272-0.206-0.707,0.063-0.964C19.455,88.088,19.862,88.101,20.093,88.377z"/>
	<path fill="#A3CCC4" d="M95.373,33.96c0,0.011-0.002,0.017-0.002,0.026c-0.199,0.091-0.398,0.178-0.597,0.26l1.318-0.127
		l-2.62,0.595c-0.222,0.063-0.439,0.123-0.657,0.172l4.466,0.836l-4.443-0.201l3.309,1.392l-2.68-0.717
		c0.271,0.145,0.541,0.299,0.803,0.472c-0.002,0.011-0.004,0.016-0.003,0.027c-0.474-0.248-0.952-0.465-1.437-0.667l-1.441-0.388
		c1.035,0.711,1.984,1.793,3.002,2.562c1.306,0.982,2.755,0.986,4.373-0.137c0.436-0.3,0.873-0.554,1.31-0.852
		c0.235-0.158,0.493-0.271,0.729-0.559c-0.48-0.681-0.985-1.288-1.476-1.933c-1.174-1.543-2.551-1.965-4.112-1.414
		c-0.85,0.3-1.721,0.766-2.582,1.146l1.742-0.167C94.709,34.182,95.041,34.071,95.373,33.96z"/>
	<path fill="#A3CCC4" d="M92.189,33.493c-0.002-0.008-0.004-0.013-0.009-0.02c-0.136-0.004-0.272-0.004-0.406-0.005L92.6,33.21
		l-1.704,0.305c-0.145,0.012-0.289,0.032-0.433,0.06l2.571-1.639l-2.672,1.245l1.77-1.683l-1.505,1.114
		c0.139-0.158,0.272-0.32,0.402-0.491c-0.001-0.004-0.003-0.009-0.007-0.017c-0.245,0.271-0.497,0.526-0.755,0.772l-0.809,0.599
		c0.506-0.694,0.885-1.593,1.371-2.318c0.616-0.93,1.5-1.297,2.687-1.023c0.321,0.075,0.633,0.117,0.952,0.188
		c0.173,0.037,0.35,0.04,0.544,0.153c-0.17,0.54-0.368,1.036-0.552,1.555c-0.436,1.237-1.199,1.842-2.25,1.9
		c-0.573,0.031-1.188-0.031-1.78-0.042l1.094-0.342C91.745,33.526,91.967,33.506,92.189,33.493z"/>
	<path fill="#A3CCC4" d="M82.371,86.492c0.006-0.006,0.007-0.012,0.012-0.016c0.142-0.002,0.285,0.001,0.426,0.008l-0.832-0.3
		l1.74,0.381c0.153,0.021,0.3,0.045,0.445,0.077l-2.507-1.802l2.655,1.396l-1.664-1.82l1.449,1.215
		c-0.131-0.165-0.253-0.343-0.369-0.526c0.005-0.005,0.006-0.009,0.01-0.014c0.225,0.289,0.46,0.563,0.701,0.83l0.781,0.655
		c-0.452-0.741-0.753-1.696-1.179-2.467c-0.546-0.991-1.425-1.409-2.693-1.167c-0.342,0.063-0.67,0.102-1.01,0.161
		c-0.185,0.03-0.369,0.028-0.585,0.141c0.118,0.566,0.272,1.089,0.408,1.639c0.324,1.305,1.055,1.962,2.145,2.064
		c0.591,0.057,1.24,0.014,1.861,0.021l-1.105-0.397C82.831,86.543,82.602,86.516,82.371,86.492z"/>
	<path fill="#A3CCC4" d="M84.305,90.286c-0.002-0.009-0.004-0.01-0.005-0.011c0.059-0.114,0.114-0.224,0.176-0.331l-0.54,0.542
		l0.961-1.217c0.077-0.112,0.154-0.218,0.234-0.317l-2.239,1.312l2.02-1.567l-1.912,0.653l1.414-0.698
		c-0.165,0.042-0.335,0.076-0.509,0.103c-0.001-0.005,0-0.008-0.004-0.011c0.289-0.077,0.569-0.163,0.852-0.256l0.759-0.379
		c-0.688,0.093-1.462-0.002-2.158,0.056c-0.899,0.078-1.537,0.615-1.883,1.682c-0.094,0.283-0.201,0.553-0.298,0.837
		c-0.051,0.151-0.127,0.293-0.139,0.502c0.434,0.104,0.857,0.168,1.282,0.255c1.022,0.2,1.767-0.136,2.273-0.942
		c0.278-0.44,0.509-0.956,0.765-1.435l-0.717,0.72C84.528,89.946,84.417,90.115,84.305,90.286z"/>
	<g>
		<g>
			<path fill="#A3CCC4" d="M17.021,16.938c0.97-1.582,1.82-2.273,2.354-2.57c0.532-0.304,0.788-0.226,0.937-0.071
				c0.294,0.32,0.206,0.948,1.078,0.195c0.913-0.631,1.438-2.64,5.169-4.446c1.846-0.818,4.529-1.481,7.998-0.955
				c3.37,0.516,7.854,2.275,11.017,6.861c-0.507-0.989-1.55-2.516-3.348-3.991c-1.786-1.465-4.327-2.846-7.396-3.488
				c-3.044-0.649-6.648-0.586-10.066,0.782C21.354,10.545,18.214,13.451,17.021,16.938z"/>
		</g>
	</g>
	<path fill="#A3CCC4" d="M5.511,63.511c2.522,0.386,5.49-0.907,7.021-3.533c0.76-1.254,1.052-2.831,0.754-4.307
		c-0.279-1.469-1.166-2.811-2.396-3.569c-1.201-0.738-2.818-0.733-4.092,0.075c-1.289,0.787-2.174,2.316-1.933,3.834
		c0.197,1.485,1.468,2.833,2.897,2.632c0.704-0.077,1.388-0.479,1.828-1.107c0.426-0.589,0.546-1.416,0.262-2.105
		c-0.276-0.686-0.906-1.211-1.609-1.153c-0.69,0.031-1.423,0.638-1.499,1.386c-0.117,0.748,0.497,1.575,1.25,1.447
		c0.356-0.059,0.726-0.325,0.862-0.698c0.155-0.375,0.031-0.839-0.276-1.096c0.335,0.248,0.472,0.719,0.347,1.101
		c-0.112,0.388-0.433,0.674-0.753,0.788c-0.682,0.257-1.311-0.188-1.549-0.694c-0.526-1.109,0.195-2.076,0.686-2.417
		c0.54-0.389,0.983-0.438,1.248-0.481c0.271-0.032,0.39-0.049,0.432-0.101c0.086-0.098-0.184-0.281-0.073-0.34
		c0.056-0.024,0.229-0.047,0.586,0.081c0.35,0.146,0.871,0.434,1.342,1.204c0.453,0.772,0.601,1.827,0.232,2.869
		c-0.392,1.032-1.249,1.936-2.47,2.3C7.418,60.013,5.822,59.62,4.9,58.281c-0.959-1.245-1.236-3.509,0.07-5.247
		c0.627-0.852,1.559-1.556,2.664-1.866c1.103-0.31,2.386-0.194,3.472,0.493c1.089,0.684,2.01,1.872,2.419,3.356
		c0.409,1.479,0.302,3.282-0.566,4.845c-0.855,1.564-2.344,2.936-4.194,3.57c-1.839,0.65-4.054,0.523-5.912-0.647L5.511,63.511z"/>
	<g>
		<ellipse fill="#A3CCC4" cx="61.491" cy="58.538" rx="0.104" ry="0.111"/>
		<path fill="#A3CCC4" d="M61.989,58.563c0.008-0.064-0.033-0.116-0.091-0.12c-0.057-0.001-0.109,0.042-0.114,0.104
			c-0.009,0.061,0.036,0.112,0.091,0.118C61.932,58.671,61.981,58.625,61.989,58.563z"/>
		<path fill="#A3CCC4" d="M62.38,58.614c0.012-0.062-0.024-0.117-0.083-0.126c-0.058-0.008-0.111,0.034-0.12,0.098
			c-0.011,0.062,0.03,0.114,0.083,0.123C62.318,58.714,62.37,58.676,62.38,58.614z"/>
		
			<ellipse transform="matrix(0.9757 0.2189 -0.2189 0.9757 14.366 -12.2971)" fill="#A3CCC4" cx="62.667" cy="58.67" rx="0.103" ry="0.112"/>
		<path fill="#A3CCC4" d="M63.019,58.874c0.055,0.015,0.111-0.018,0.129-0.076c0.02-0.062-0.011-0.121-0.067-0.138
			c-0.058-0.017-0.113,0.018-0.129,0.076C62.937,58.795,62.964,58.856,63.019,58.874z"/>
		<path fill="#A3CCC4" d="M63.388,58.996c0.051,0.018,0.112-0.017,0.134-0.072c0.022-0.058-0.008-0.122-0.061-0.139
			c-0.054-0.02-0.113,0.011-0.133,0.068C63.308,58.915,63.335,58.976,63.388,58.996z"/>
		<path fill="#A3CCC4" d="M63.746,59.139c0.052,0.024,0.115-0.002,0.14-0.059s0.002-0.122-0.052-0.147
			c-0.054-0.02-0.116,0.005-0.139,0.063C63.67,59.054,63.696,59.118,63.746,59.139z"/>
		<path fill="#A3CCC4" d="M64.096,59.31c0.051,0.028,0.112,0.007,0.14-0.052c0.03-0.054,0.013-0.117-0.042-0.149
			c-0.048-0.025-0.111-0.003-0.141,0.055C64.027,59.219,64.048,59.284,64.096,59.31z"/>
		<path fill="#A3CCC4" d="M64.433,59.506c0.048,0.026,0.113,0.013,0.145-0.042c0.032-0.05,0.019-0.122-0.031-0.153
			c-0.052-0.03-0.114-0.012-0.146,0.046C64.371,59.406,64.387,59.477,64.433,59.506z"/>
		<path fill="#A3CCC4" d="M64.736,59.57c-0.032,0.05-0.021,0.119,0.021,0.152c0.052,0.029,0.111,0.016,0.146-0.034
			c0.033-0.05,0.025-0.122-0.022-0.155C64.832,59.5,64.765,59.519,64.736,59.57z"/>
		<path fill="#A3CCC4" d="M65.057,59.806c-0.036,0.05-0.03,0.115,0.017,0.154c0.041,0.035,0.105,0.026,0.145-0.022
			c0.036-0.045,0.028-0.117-0.017-0.157C65.159,59.742,65.091,59.756,65.057,59.806z"/>
		<path fill="#A3CCC4" d="M65.366,60.22c0.04,0.038,0.105,0.033,0.146-0.013c0.039-0.044,0.038-0.115-0.005-0.157
			c-0.042-0.042-0.109-0.032-0.147,0.014C65.32,60.112,65.325,60.183,65.366,60.22z"/>
		<path fill="#A3CCC4" d="M65.646,60.345c-0.04,0.044-0.041,0.114-0.003,0.155c0.042,0.039,0.106,0.038,0.147-0.004
			c0.041-0.046,0.047-0.117,0.005-0.156C65.756,60.298,65.686,60.3,65.646,60.345z"/>
		<path fill="#A3CCC4" d="M65.915,60.64c-0.043,0.045-0.047,0.114-0.009,0.156c0.033,0.047,0.103,0.048,0.146,0.01
			c0.045-0.041,0.049-0.111,0.012-0.158S65.961,60.601,65.915,60.64z"/>
		<path fill="#A3CCC4" d="M66.171,60.956c-0.048,0.038-0.057,0.109-0.025,0.158c0.034,0.047,0.1,0.054,0.146,0.015
			c0.048-0.037,0.06-0.108,0.022-0.154C66.28,60.929,66.214,60.918,66.171,60.956z"/>
		<path fill="#A3CCC4" d="M66.4,61.292c-0.048,0.034-0.061,0.104-0.029,0.153c0.029,0.048,0.096,0.061,0.144,0.025
			c0.051-0.033,0.063-0.101,0.03-0.153C66.514,61.265,66.449,61.254,66.4,61.292z"/>
		<path fill="#A3CCC4" d="M66.61,61.64c-0.048,0.034-0.065,0.104-0.036,0.154c0.026,0.049,0.09,0.065,0.138,0.033
			c0.053-0.029,0.071-0.099,0.042-0.149C66.725,61.623,66.66,61.608,66.61,61.64z"/>
		<path fill="#A3CCC4" d="M66.804,62.003c-0.053,0.031-0.077,0.098-0.051,0.149c0.025,0.055,0.088,0.076,0.139,0.044
			c0.053-0.023,0.074-0.09,0.05-0.146S66.854,61.971,66.804,62.003z"/>
		<path fill="#A3CCC4" d="M66.967,62.378c-0.053,0.028-0.077,0.095-0.057,0.152c0.023,0.05,0.085,0.076,0.137,0.053
			c0.054-0.026,0.081-0.091,0.057-0.147C67.081,62.38,67.022,62.353,66.967,62.378z"/>
		<path fill="#A3CCC4" d="M67.111,62.771c-0.054,0.021-0.083,0.084-0.066,0.142c0.02,0.053,0.078,0.086,0.131,0.063
			c0.057-0.021,0.089-0.085,0.071-0.144C67.225,62.774,67.166,62.744,67.111,62.771z"/>
		<path fill="#A3CCC4" d="M67.235,63.165c-0.059,0.019-0.091,0.082-0.075,0.14c0.012,0.058,0.069,0.09,0.125,0.071
			c0.057-0.017,0.088-0.078,0.076-0.137C67.348,63.178,67.289,63.146,67.235,63.165z"/>
		<path fill="#A3CCC4" d="M67.33,63.57c-0.057,0.015-0.095,0.078-0.083,0.133c0.011,0.061,0.065,0.097,0.122,0.082
			c0.056-0.011,0.093-0.07,0.082-0.131C67.438,63.593,67.386,63.559,67.33,63.57z"/>
		<path fill="#A3CCC4" d="M67.399,63.985c-0.058,0.011-0.098,0.068-0.091,0.129c0.009,0.057,0.063,0.095,0.119,0.087
			c0.058-0.01,0.098-0.064,0.089-0.127C67.511,64.013,67.455,63.973,67.399,63.985z"/>
		<path fill="#A3CCC4" d="M67.445,64.402c-0.058,0.008-0.101,0.061-0.094,0.119c0.002,0.061,0.051,0.104,0.107,0.099
			c0.059-0.003,0.102-0.057,0.102-0.12C67.553,64.439,67.503,64.395,67.445,64.402z"/>
		<path fill="#A3CCC4" d="M67.366,64.937c-0.002,0.063,0.043,0.11,0.103,0.109c0.057-0.005,0.105-0.057,0.104-0.117
			c0-0.063-0.047-0.11-0.104-0.105C67.412,64.827,67.365,64.877,67.366,64.937z"/>
		<path fill="#A3CCC4" d="M67.353,65.355c-0.005,0.06,0.041,0.106,0.098,0.113c0.058,0.002,0.11-0.047,0.11-0.111
			c0.006-0.062-0.038-0.112-0.099-0.11C67.408,65.244,67.357,65.292,67.353,65.355z"/>
		<path fill="#A3CCC4" d="M67.316,65.765c-0.01,0.062,0.029,0.115,0.086,0.125c0.057,0.005,0.109-0.038,0.12-0.1
			c0.008-0.064-0.032-0.118-0.089-0.122C67.373,65.661,67.326,65.71,67.316,65.765z"/>
		<path fill="#A3CCC4" d="M67.247,66.179c-0.011,0.056,0.022,0.113,0.078,0.126c0.058,0.012,0.112-0.027,0.126-0.088
			c0.012-0.063-0.026-0.121-0.082-0.128C67.314,66.076,67.256,66.117,67.247,66.179z"/>
		<path fill="#A3CCC4" d="M67.147,66.581c-0.018,0.054,0.014,0.117,0.066,0.134c0.055,0.02,0.114-0.019,0.134-0.076
			c0.016-0.061-0.016-0.123-0.069-0.137C67.22,66.487,67.163,66.523,67.147,66.581z"/>
		<path fill="#A3CCC4" d="M67.016,66.975c-0.017,0.057,0.006,0.118,0.06,0.139c0.054,0.023,0.116-0.008,0.137-0.063
			c0.021-0.062-0.005-0.124-0.059-0.143C67.097,66.89,67.038,66.92,67.016,66.975z"/>
		<path fill="#A3CCC4" d="M66.858,67.359c-0.022,0.053-0.001,0.119,0.05,0.146c0.052,0.024,0.114,0.003,0.139-0.058
			c0.025-0.056,0.003-0.121-0.046-0.146C66.949,67.278,66.886,67.306,66.858,67.359z"/>
		<path fill="#A3CCC4" d="M66.674,67.729c-0.027,0.052-0.013,0.119,0.036,0.151c0.051,0.028,0.114,0.011,0.145-0.046
			c0.034-0.054,0.012-0.121-0.039-0.149C66.766,67.655,66.703,67.678,66.674,67.729z"/>
		<path fill="#A3CCC4" d="M66.463,68.084c-0.03,0.054-0.021,0.119,0.025,0.154c0.047,0.033,0.115,0.022,0.146-0.031
			c0.034-0.056,0.021-0.121-0.028-0.153C66.562,68.02,66.494,68.036,66.463,68.084z"/>
		<path fill="#A3CCC4" d="M66.228,68.422c-0.038,0.046-0.032,0.118,0.013,0.156c0.041,0.039,0.11,0.03,0.148-0.02
			c0.036-0.049,0.032-0.12-0.013-0.157C66.329,68.368,66.263,68.374,66.228,68.422z"/>
		<path fill="#A3CCC4" d="M65.968,68.741c-0.04,0.042-0.039,0.113,0.001,0.153c0.04,0.044,0.106,0.039,0.149-0.008
			c0.04-0.042,0.039-0.116-0.004-0.155C66.07,68.689,66.008,68.696,65.968,68.741z"/>
		<path fill="#A3CCC4" d="M65.687,69.034c-0.042,0.044-0.046,0.116-0.011,0.158c0.037,0.047,0.105,0.048,0.147,0.009
			c0.043-0.045,0.047-0.117,0.007-0.162C65.793,68.995,65.725,68.994,65.687,69.034z"/>
		<path fill="#A3CCC4" d="M65.383,69.31c-0.042,0.035-0.053,0.104-0.02,0.154c0.032,0.049,0.097,0.057,0.146,0.017
			c0.046-0.037,0.057-0.107,0.021-0.153C65.492,69.28,65.428,69.271,65.383,69.31z"/>
		<path fill="#A3CCC4" d="M65.063,69.557c-0.045,0.034-0.062,0.103-0.034,0.154c0.031,0.051,0.098,0.064,0.146,0.029
			c0.048-0.036,0.063-0.104,0.032-0.157C65.173,69.534,65.112,69.521,65.063,69.557z"/>
		<path fill="#A3CCC4" d="M64.726,69.773c-0.049,0.032-0.068,0.1-0.042,0.152c0.024,0.058,0.087,0.075,0.141,0.041
			c0.051-0.03,0.068-0.099,0.043-0.149C64.84,69.764,64.776,69.746,64.726,69.773z"/>
		<path fill="#A3CCC4" d="M64.377,69.967c-0.053,0.026-0.078,0.092-0.056,0.147c0.021,0.057,0.082,0.079,0.136,0.054
			c0.057-0.023,0.078-0.093,0.056-0.146C64.487,69.964,64.43,69.945,64.377,69.967z"/>
		<path fill="#A3CCC4" d="M64.012,70.128c-0.049,0.024-0.082,0.085-0.064,0.146c0.018,0.055,0.077,0.088,0.133,0.063
			c0.057-0.021,0.084-0.086,0.065-0.146C64.124,70.137,64.066,70.107,64.012,70.128z"/>
		<path fill="#A3CCC4" d="M63.641,70.263c-0.054,0.015-0.09,0.077-0.075,0.136c0.011,0.059,0.07,0.095,0.127,0.078
			c0.057-0.019,0.09-0.082,0.075-0.14C63.752,70.279,63.694,70.242,63.641,70.263z"/>
		<path fill="#A3CCC4" d="M63.261,70.363c-0.055,0.012-0.095,0.066-0.086,0.127c0.006,0.06,0.063,0.104,0.122,0.087
			c0.056-0.01,0.095-0.072,0.082-0.132C63.368,70.387,63.316,70.35,63.261,70.363z"/>
		<path fill="#A3CCC4" d="M62.876,70.43c-0.057,0.008-0.097,0.063-0.095,0.123c0.005,0.062,0.053,0.105,0.112,0.097
			c0.059-0.011,0.101-0.063,0.095-0.126C62.98,70.463,62.931,70.424,62.876,70.43z"/>
		<path fill="#A3CCC4" d="M62.383,70.58c0.001,0.063,0.047,0.107,0.105,0.107s0.104-0.056,0.104-0.117
			c-0.002-0.063-0.048-0.106-0.104-0.105C62.432,70.466,62.384,70.517,62.383,70.58z"/>
		<path fill="#A3CCC4" d="M61.986,70.573c-0.004,0.059,0.036,0.115,0.099,0.116c0.058,0.002,0.107-0.047,0.109-0.109
			c0.005-0.062-0.041-0.11-0.095-0.113C62.045,70.466,61.995,70.509,61.986,70.573z"/>
		<path fill="#A3CCC4" d="M61.597,70.526c-0.013,0.058,0.023,0.118,0.082,0.125c0.06,0.009,0.112-0.039,0.121-0.096
			c0.01-0.063-0.029-0.118-0.085-0.126C61.662,70.424,61.607,70.461,61.597,70.526z"/>
		<path fill="#A3CCC4" d="M61.212,70.436c-0.021,0.059,0.014,0.119,0.069,0.136c0.061,0.013,0.115-0.025,0.129-0.084
			c0.018-0.063-0.016-0.122-0.072-0.132C61.286,70.34,61.229,70.374,61.212,70.436z"/>
		<path fill="#A3CCC4" d="M60.974,70.237c-0.053-0.019-0.113,0.009-0.136,0.066c-0.021,0.056,0.004,0.122,0.059,0.146
			c0.058,0.018,0.115-0.015,0.135-0.073C61.053,70.32,61.025,70.255,60.974,70.237z"/>
		<path fill="#A3CCC4" d="M60.619,70.083c-0.048-0.026-0.11-0.002-0.138,0.051c-0.027,0.054-0.009,0.124,0.045,0.149
			c0.053,0.023,0.117,0.003,0.144-0.058C60.689,70.172,60.671,70.109,60.619,70.083z"/>
		<path fill="#A3CCC4" d="M60.288,69.89c-0.048-0.03-0.111-0.014-0.143,0.036c-0.035,0.055-0.022,0.122,0.028,0.153
			c0.049,0.034,0.116,0.015,0.146-0.038C60.347,69.986,60.335,69.918,60.288,69.89z"/>
		<path fill="#A3CCC4" d="M59.99,69.816c0.031-0.049,0.026-0.117-0.019-0.153c-0.044-0.035-0.106-0.026-0.143,0.024
			c-0.038,0.045-0.033,0.116,0.013,0.154C59.89,69.879,59.955,69.868,59.99,69.816z"/>
		<path fill="#A3CCC4" d="M59.683,69.406c-0.038-0.043-0.104-0.039-0.145,0.005c-0.044,0.046-0.044,0.114-0.003,0.158
			c0.044,0.042,0.112,0.036,0.15-0.012C59.724,69.512,59.725,69.442,59.683,69.406z"/>
		<path fill="#A3CCC4" d="M59.407,69.271c0.044-0.045,0.048-0.114,0.009-0.157c-0.032-0.044-0.1-0.049-0.145-0.007
			c-0.045,0.039-0.05,0.112-0.014,0.158C59.297,69.313,59.363,69.31,59.407,69.271z"/>
		<path fill="#A3CCC4" d="M59.156,68.952c0.049-0.04,0.058-0.107,0.027-0.155c-0.033-0.049-0.098-0.06-0.144-0.023
			c-0.05,0.036-0.061,0.106-0.028,0.159C59.044,68.98,59.112,68.989,59.156,68.952z"/>
		<path fill="#A3CCC4" d="M58.94,68.608c0.049-0.034,0.065-0.104,0.039-0.153c-0.026-0.049-0.089-0.067-0.14-0.039
			c-0.052,0.031-0.072,0.101-0.043,0.154C58.824,68.625,58.888,68.64,58.94,68.608z"/>
		<path fill="#A3CCC4" d="M58.886,68.267c-0.021-0.052-0.085-0.07-0.138-0.044c-0.054,0.03-0.076,0.096-0.052,0.151
			c0.025,0.055,0.092,0.073,0.144,0.042C58.891,68.388,58.909,68.319,58.886,68.267z"/>
		<path fill="#A3CCC4" d="M58.671,68.042c0.058-0.028,0.08-0.091,0.063-0.145c-0.021-0.056-0.081-0.081-0.132-0.06
			c-0.055,0.02-0.082,0.086-0.064,0.146C58.557,68.04,58.622,68.065,58.671,68.042z"/>
		<path fill="#A3CCC4" d="M58.543,67.646c0.057-0.018,0.086-0.078,0.075-0.134c-0.017-0.059-0.071-0.094-0.129-0.076
			c-0.056,0.015-0.089,0.079-0.073,0.137C58.43,67.635,58.487,67.667,58.543,67.646z"/>
		<path fill="#A3CCC4" d="M58.537,67.11c-0.009-0.059-0.06-0.1-0.117-0.089c-0.06,0.01-0.098,0.07-0.089,0.131
			c0.008,0.063,0.064,0.102,0.121,0.088C58.509,67.226,58.547,67.169,58.537,67.11z"/>
		<path fill="#A3CCC4" d="M58.386,66.603c-0.055,0.003-0.101,0.06-0.1,0.121c0.004,0.064,0.056,0.108,0.114,0.102
			c0.058-0.008,0.097-0.063,0.096-0.124C58.492,66.645,58.444,66.597,58.386,66.603z"/>
		<path fill="#A3CCC4" d="M58.396,66.18c-0.059-0.004-0.109,0.047-0.111,0.112c-0.006,0.062,0.043,0.11,0.099,0.111
			c0.061-0.006,0.104-0.051,0.106-0.111C58.498,66.233,58.453,66.183,58.396,66.18z"/>
		<path fill="#A3CCC4" d="M58.449,65.761c-0.056-0.008-0.111,0.032-0.121,0.096c-0.012,0.063,0.025,0.118,0.083,0.122
			c0.058,0.005,0.111-0.035,0.12-0.095C58.542,65.825,58.505,65.77,58.449,65.761z"/>
		<path fill="#A3CCC4" d="M58.549,65.348c-0.055-0.016-0.114,0.018-0.131,0.08c-0.018,0.061,0.015,0.122,0.07,0.136
			c0.059,0.011,0.114-0.022,0.13-0.081C58.633,65.428,58.602,65.366,58.549,65.348z"/>
		<path fill="#A3CCC4" d="M58.694,64.948c-0.052-0.022-0.116,0.002-0.138,0.063s0.002,0.128,0.06,0.146
			c0.053,0.021,0.112-0.01,0.134-0.063C58.769,65.038,58.746,64.974,58.694,64.948z"/>
		<path fill="#A3CCC4" d="M58.92,64.721c0.03-0.048,0.016-0.115-0.029-0.146c-0.051-0.033-0.116-0.015-0.147,0.041
			c-0.032,0.056-0.01,0.127,0.038,0.152C58.834,64.796,58.894,64.774,58.92,64.721z"/>
		<path fill="#A3CCC4" d="M59.138,64.376c0.035-0.048,0.028-0.114-0.016-0.153c-0.046-0.037-0.112-0.026-0.148,0.025
			c-0.035,0.052-0.028,0.117,0.02,0.153C59.04,64.435,59.104,64.422,59.138,64.376z"/>
		<path fill="#A3CCC4" d="M59.392,64.063c0.04-0.048,0.038-0.116-0.001-0.162c-0.038-0.044-0.105-0.036-0.145,0.008
			c-0.044,0.048-0.042,0.117-0.002,0.159C59.287,64.107,59.353,64.104,59.392,64.063z"/>
		<path fill="#A3CCC4" d="M59.677,63.774c0.042-0.041,0.053-0.104,0.017-0.153c-0.033-0.045-0.101-0.057-0.146-0.016
			c-0.045,0.041-0.051,0.112-0.014,0.159C59.571,63.81,59.635,63.816,59.677,63.774z"/>
		<path fill="#A3CCC4" d="M59.993,63.53c0.048-0.03,0.063-0.098,0.036-0.151c-0.029-0.052-0.094-0.066-0.146-0.034
			c-0.051,0.033-0.065,0.103-0.032,0.152C59.883,63.551,59.941,63.56,59.993,63.53z"/>
		<path fill="#A3CCC4" d="M60.332,63.327c0.051-0.024,0.075-0.091,0.053-0.146c-0.021-0.058-0.082-0.08-0.136-0.052
			c-0.057,0.026-0.078,0.097-0.054,0.149C60.221,63.332,60.282,63.354,60.332,63.327z"/>
		<path fill="#A3CCC4" d="M60.693,63.169c0.052-0.021,0.082-0.083,0.065-0.14c-0.015-0.061-0.072-0.093-0.128-0.069
			c-0.059,0.021-0.089,0.086-0.068,0.146C60.582,63.158,60.639,63.19,60.693,63.169z"/>
		<path fill="#A3CCC4" d="M61.149,62.932c-0.007-0.062-0.063-0.104-0.122-0.092c-0.058,0.015-0.096,0.077-0.086,0.138
			c0.015,0.059,0.067,0.095,0.121,0.08C61.118,63.044,61.158,62.994,61.149,62.932z"/>
		<path fill="#A3CCC4" d="M61.436,62.779c-0.059-0.003-0.103,0.061-0.099,0.121c0.007,0.057,0.052,0.102,0.107,0.1
			c0.059-0.006,0.099-0.057,0.102-0.12C61.544,62.82,61.494,62.774,61.436,62.779z"/>
		<path fill="#A3CCC4" d="M61.938,62.886c0.009-0.064-0.033-0.114-0.094-0.117c-0.059-0.004-0.11,0.042-0.112,0.104
			c-0.002,0.063,0.043,0.113,0.094,0.116C61.881,62.99,61.934,62.945,61.938,62.886z"/>
		<path fill="#A3CCC4" d="M62.328,62.954c0.018-0.06-0.019-0.121-0.075-0.137c-0.06-0.009-0.116,0.03-0.127,0.09
			c-0.011,0.065,0.022,0.116,0.078,0.128C62.256,63.049,62.312,63.013,62.328,62.954z"/>
		<path fill="#A3CCC4" d="M62.564,63.148c0.051,0.02,0.11-0.009,0.136-0.065c0.026-0.061,0-0.123-0.056-0.145
			c-0.057-0.021-0.116,0.012-0.137,0.068C62.489,63.063,62.516,63.127,62.564,63.148z"/>
		<path fill="#A3CCC4" d="M62.902,63.319c0.049,0.028,0.111,0.009,0.142-0.042c0.032-0.055,0.021-0.121-0.032-0.154
			c-0.048-0.036-0.118-0.009-0.143,0.045C62.84,63.222,62.859,63.285,62.902,63.319z"/>
		<path fill="#A3CCC4" d="M63.199,63.387c-0.035,0.049-0.028,0.12,0.016,0.153c0.043,0.034,0.106,0.028,0.145-0.017
			c0.039-0.046,0.039-0.122-0.01-0.161C63.3,63.329,63.233,63.336,63.199,63.387z"/>
		<path fill="#A3CCC4" d="M63.641,63.658c-0.041-0.044-0.104-0.048-0.147-0.002c-0.04,0.045-0.044,0.116-0.01,0.158
			c0.035,0.044,0.102,0.045,0.147,0.005C63.676,63.779,63.681,63.707,63.641,63.658z"/>
		<path fill="#A3CCC4" d="M63.713,64.127c0.028,0.052,0.089,0.065,0.138,0.032c0.054-0.032,0.069-0.104,0.037-0.157
			c-0.032-0.05-0.1-0.063-0.146-0.027C63.693,64.012,63.682,64.08,63.713,64.127z"/>
		<path fill="#A3CCC4" d="M63.942,64.331c-0.052,0.03-0.077,0.097-0.054,0.149c0.023,0.054,0.085,0.073,0.136,0.051
			c0.058-0.024,0.081-0.091,0.058-0.146C64.058,64.329,63.992,64.304,63.942,64.331z"/>
		<path fill="#A3CCC4" d="M64.085,64.722c-0.055,0.02-0.08,0.078-0.072,0.135c0.012,0.055,0.067,0.091,0.125,0.076
			c0.056-0.016,0.091-0.076,0.079-0.139C64.205,64.73,64.14,64.698,64.085,64.722z"/>
		<path fill="#A3CCC4" d="M64.172,65.128c-0.059,0.012-0.099,0.067-0.093,0.124c0.009,0.059,0.056,0.102,0.112,0.096
			c0.06-0.005,0.104-0.063,0.098-0.125C64.282,65.157,64.227,65.117,64.172,65.128z"/>
		<path fill="#A3CCC4" d="M64.297,65.66c0.006-0.066-0.042-0.113-0.102-0.111c-0.057,0.001-0.1,0.05-0.106,0.107
			c-0.004,0.058,0.037,0.107,0.096,0.111C64.242,65.772,64.291,65.725,64.297,65.66z"/>
		<path fill="#A3CCC4" d="M64.031,66.054c-0.016,0.058,0.018,0.114,0.072,0.13c0.053,0.018,0.112-0.018,0.131-0.082
			c0.017-0.063-0.024-0.125-0.081-0.133C64.099,65.96,64.046,65.999,64.031,66.054z"/>
		<path fill="#A3CCC4" d="M63.904,66.437c-0.025,0.049-0.004,0.116,0.048,0.143c0.047,0.026,0.111,0.007,0.14-0.055
			c0.026-0.06-0.001-0.129-0.052-0.146C63.984,66.356,63.929,66.385,63.904,66.437z"/>
		<path fill="#A3CCC4" d="M63.709,66.787c-0.032,0.044-0.024,0.112,0.021,0.152c0.044,0.039,0.11,0.023,0.148-0.026
			c0.037-0.052,0.022-0.125-0.024-0.158C63.805,66.725,63.744,66.741,63.709,66.787z"/>
		<path fill="#A3CCC4" d="M63.459,67.093c-0.042,0.038-0.045,0.109-0.01,0.154c0.039,0.045,0.102,0.047,0.151,0.005
			c0.042-0.045,0.041-0.12,0-0.159C63.561,67.052,63.5,67.055,63.459,67.093z"/>
		<path fill="#A3CCC4" d="M63.157,67.348c-0.048,0.033-0.063,0.098-0.035,0.151c0.027,0.053,0.089,0.066,0.146,0.031
			c0.053-0.031,0.065-0.108,0.03-0.157C63.266,67.326,63.204,67.318,63.157,67.348z"/>
		<path fill="#A3CCC4" d="M62.82,67.538c-0.051,0.019-0.078,0.079-0.063,0.137c0.017,0.059,0.078,0.09,0.135,0.067
			c0.056-0.022,0.083-0.097,0.061-0.148C62.928,67.537,62.869,67.516,62.82,67.538z"/>
		<path fill="#A3CCC4" d="M62.455,67.652c-0.052,0.009-0.093,0.068-0.085,0.13c0.005,0.057,0.06,0.099,0.121,0.088
			c0.058-0.012,0.095-0.076,0.083-0.135C62.563,67.676,62.508,67.641,62.455,67.652z"/>
		<path fill="#A3CCC4" d="M62.078,67.695c-0.051-0.001-0.101,0.045-0.104,0.106c-0.009,0.061,0.039,0.114,0.1,0.117
			c0.06-0.004,0.107-0.058,0.106-0.12C62.179,67.739,62.134,67.69,62.078,67.695z"/>
		<path fill="#A3CCC4" d="M61.785,67.78c0.013-0.06-0.02-0.115-0.071-0.13s-0.108,0.023-0.128,0.082
			c-0.018,0.058,0.015,0.117,0.07,0.135C61.717,67.883,61.775,67.839,61.785,67.78z"/>
		<path fill="#A3CCC4" d="M61.372,67.513c-0.049-0.023-0.106-0.009-0.142,0.045c-0.032,0.053-0.016,0.126,0.038,0.153
			c0.054,0.031,0.119,0.005,0.144-0.051C61.438,67.604,61.418,67.539,61.372,67.513z"/>
		<path fill="#A3CCC4" d="M60.926,67.301c-0.04,0.044-0.039,0.115,0.002,0.158c0.042,0.048,0.114,0.035,0.152-0.013
			c0.035-0.051,0.029-0.116-0.007-0.155C61.034,67.255,60.968,67.259,60.926,67.301z"/>
		<path fill="#A3CCC4" d="M60.804,67.153c0.047-0.037,0.061-0.108,0.029-0.152s-0.087-0.062-0.14-0.028
			c-0.051,0.03-0.071,0.103-0.033,0.156C60.693,67.182,60.759,67.192,60.804,67.153z"/>
		<path fill="#A3CCC4" d="M60.608,66.798c0.054-0.03,0.073-0.09,0.063-0.146c-0.018-0.055-0.077-0.078-0.131-0.062
			c-0.058,0.018-0.087,0.082-0.069,0.145C60.489,66.795,60.557,66.82,60.608,66.798z"/>
		<path fill="#A3CCC4" d="M60.384,66.301c0.005,0.063,0.059,0.107,0.116,0.093c0.054-0.011,0.097-0.064,0.091-0.122
			c-0.009-0.055-0.052-0.099-0.11-0.093C60.425,66.178,60.372,66.236,60.384,66.301z"/>
		<path fill="#A3CCC4" d="M60.395,65.852c-0.013,0.063,0.033,0.123,0.091,0.121c0.057,0.008,0.105-0.038,0.115-0.095
			c0.009-0.053-0.024-0.107-0.082-0.12C60.463,65.741,60.407,65.787,60.395,65.852z"/>
		<path fill="#A3CCC4" d="M60.717,65.511c0.022-0.055,0.004-0.118-0.042-0.148c-0.05-0.03-0.118-0.011-0.145,0.055
			c-0.03,0.056-0.005,0.126,0.049,0.145C60.633,65.582,60.691,65.556,60.717,65.511z"/>
		<path fill="#A3CCC4" d="M60.93,65.185c0.033-0.042,0.039-0.105,0-0.152c-0.037-0.047-0.109-0.047-0.15,0.005
			c-0.045,0.048-0.04,0.121,0.006,0.157C60.826,65.231,60.89,65.229,60.93,65.185z"/>
		<path fill="#A3CCC4" d="M61.262,64.792c-0.021-0.054-0.087-0.081-0.142-0.043c-0.055,0.036-0.074,0.103-0.038,0.155
			c0.029,0.048,0.092,0.065,0.138,0.036C61.265,64.908,61.286,64.849,61.262,64.792z"/>
		<path fill="#A3CCC4" d="M61.641,64.667c-0.001-0.06-0.058-0.107-0.118-0.089c-0.063,0.017-0.099,0.078-0.082,0.138
			c0.015,0.057,0.069,0.093,0.12,0.078C61.61,64.781,61.649,64.73,61.641,64.667z"/>
		<path fill="#A3CCC4" d="M62.039,64.667c0.015-0.06-0.028-0.116-0.088-0.122c-0.063-0.007-0.118,0.042-0.12,0.105
			c0.002,0.06,0.042,0.113,0.093,0.114C61.975,64.77,62.024,64.73,62.039,64.667z"/>
		<path fill="#A3CCC4" d="M62.217,64.724c-0.021,0.058-0.002,0.118,0.044,0.144c0.047,0.023,0.104,0.006,0.139-0.045
			c0.033-0.05,0.018-0.122-0.037-0.151C62.307,64.638,62.241,64.665,62.217,64.724z"/>
		<path fill="#A3CCC4" d="M62.534,65.099c0.036,0.035,0.093,0.05,0.144,0.012c0.048-0.035,0.062-0.111,0.016-0.161
			c-0.04-0.054-0.107-0.054-0.149-0.004C62.504,64.993,62.502,65.058,62.534,65.099z"/>
		<path fill="#A3CCC4" d="M62.906,65.343c-0.02-0.065-0.087-0.087-0.137-0.061c-0.054,0.026-0.078,0.088-0.063,0.139
			c0.02,0.05,0.068,0.082,0.126,0.067C62.889,65.475,62.928,65.409,62.906,65.343z"/>
		<path fill="#A3CCC4" d="M62.75,65.794c-0.007,0.051,0.034,0.102,0.09,0.113c0.055,0.011,0.113-0.038,0.119-0.109
			c0.007-0.066-0.047-0.119-0.101-0.11C62.797,65.693,62.76,65.741,62.75,65.794z"/>
		<path fill="#A3CCC4" d="M62.648,66.146c-0.023,0.048-0.013,0.111,0.032,0.148c0.047,0.036,0.114,0.021,0.144-0.043
			c0.036-0.059,0.018-0.129-0.038-0.149C62.736,66.082,62.673,66.103,62.648,66.146z"/>
		<path fill="#A3CCC4" d="M62.41,66.419c-0.045,0.028-0.063,0.093-0.039,0.147c0.022,0.055,0.092,0.074,0.149,0.042
			c0.053-0.047,0.064-0.119,0.024-0.169C62.509,66.396,62.445,66.387,62.41,66.419z"/>
		<path fill="#A3CCC4" d="M61.986,66.668c-0.002,0.062,0.048,0.108,0.114,0.101c0.066-0.005,0.106-0.068,0.092-0.129
			c-0.012-0.057-0.063-0.093-0.109-0.092C62.031,66.554,61.991,66.608,61.986,66.668z"/>
	</g>
	<g>
		<path fill="#A3CCC4" d="M35.821,77.391c-0.479-0.151-1.007-0.161-1.486-0.008c-0.461,0.143-0.855,0.422-1.127,0.76
			c-0.26,0.32-0.411,0.688-0.46,1.032c-0.045,0.323-0.001,0.626,0.097,0.862c0.093,0.222,0.229,0.39,0.373,0.491
			c0.307,0.216,0.697,0.203,0.967-0.093c0.199-0.22,0.202-0.568,0.004-0.773c-0.199-0.208-0.526-0.196-0.729,0.025
			c-0.052,0.059-0.092,0.123-0.117,0.192c-0.032-0.108-0.05-0.233-0.047-0.368c0.011-0.238,0.087-0.509,0.252-0.759
			c0.175-0.263,0.447-0.504,0.781-0.645c0.357-0.149,0.768-0.183,1.155-0.1c0.406,0.09,0.786,0.309,1.086,0.604
			c0.639,0.631,0.888,1.593,0.835,2.416c-0.053,0.796-0.356,1.452-0.631,1.892c0.003-0.024,0.01-0.05,0.014-0.078
			c0.049-0.321-0.02-0.72-0.261-1.006c-0.119-0.14-0.273-0.247-0.447-0.302c-0.167-0.055-0.349-0.055-0.518-0.003
			c-0.16,0.047-0.294,0.147-0.39,0.263c-0.091,0.111-0.146,0.242-0.161,0.359c-0.018,0.115-0.003,0.219,0.032,0.302
			c0.032,0.076,0.081,0.133,0.133,0.169c0.104,0.078,0.239,0.072,0.331-0.032c0.075-0.077,0.074-0.198,0.003-0.27
			c-0.068-0.069-0.18-0.067-0.253,0.012c-0.018,0.016-0.03,0.042-0.04,0.065c-0.009-0.038-0.019-0.082-0.014-0.13
			c0.001-0.082,0.029-0.177,0.088-0.264c0.058-0.09,0.151-0.173,0.271-0.224c0.125-0.051,0.266-0.063,0.4-0.032
			c0.143,0.03,0.275,0.105,0.379,0.207c0.224,0.221,0.311,0.556,0.288,0.843c-0.012,0.221-0.081,0.41-0.158,0.556
			c-0.173,0.227-0.282,0.345-0.267,0.374c0.003,0.004,0.006,0.004,0.01,0.004c0.001,0.005-0.002,0.004,0.001,0.005
			c0.001,0.009,0.015,0.005,0.038-0.009c0.097-0.036,0.332-0.194,0.621-0.516c0.37-0.408,0.824-1.112,0.973-2.062
			c0.146-0.922-0.051-2.071-0.748-2.897C36.762,77.861,36.318,77.55,35.821,77.391z"/>
	</g>
	<g>
		<g>
			<path fill="#A3CCC4" d="M74.428,101.856c-0.305-0.066-0.16-0.508,0.069-0.575c0.231-0.095,0.461,0.094,0.562,0.25
				c0.199,0.388,0.017,0.784-0.139,0.98c-0.348,0.414-0.585,0.436-0.593,0.572c-0.025,0.113,0.123,0.199,0.084,0.286
				c-0.024,0.069-0.39,0.246-1.087-0.135c-0.694-0.375-1.091-1.629-0.468-2.606c0.486-1.004,2.132-1.651,3.302-0.526
				c0.551,0.507,0.992,1.375,0.816,2.372c-0.15,0.989-0.785,2.109-1.904,2.717c-1.087,0.639-2.664,0.543-4.042-0.405
				c-1.36-0.894-2.511-2.811-2.247-5.2c-0.046,0.915,0.074,2.506,1.123,3.891c0.958,1.319,3.143,2.471,4.949,1.489
				c0.875-0.473,1.587-1.451,1.688-2.52c0.146-0.976-0.563-1.996-1.516-2.123c-0.829-0.224-1.814,1.119-1.117,1.749
				c0.321,0.346,0.831,0.247,0.952-0.23c0.06-0.179-0.103-0.413-0.294-0.438C74.382,101.377,74.153,101.737,74.428,101.856z"/>
		</g>
	</g>
	<g>
		<path fill="#A3CCC4" d="M24.436,9.166c-0.001-0.002-0.26,0.154-0.751,0.314c-0.484,0.161-1.214,0.318-2.075,0.236
			c-0.854-0.075-1.835-0.412-2.672-1.096c-0.422-0.338-0.798-0.763-1.107-1.25c-0.31-0.489-0.544-1.024-0.596-1.615
			c-0.136-1.174,0.414-2.39,1.262-3.033c0.817-0.729,1.893-0.506,2.355,0.118c0.539,0.608,0.197,1.293-0.144,1.469
			c-0.262,0.126-0.385-0.065-0.397-0.077c-0.09-0.044-0.172-0.28,0.037-0.447c0.028-0.051,0.028-0.125-0.046-0.194
			c-0.06-0.071-0.254-0.097-0.402-0.013c-0.15,0.065-0.319,0.237-0.377,0.486c-0.076,0.24,0.032,0.575,0.171,0.73
			c0.035,0.038,0.144,0.182,0.384,0.297c0.226,0.11,0.63,0.153,1.008-0.093c0.321-0.207,0.638-0.606,0.733-1.13
			c0.049-0.258,0.035-0.544-0.045-0.819c-0.095-0.277-0.242-0.493-0.415-0.704c-0.354-0.409-0.892-0.697-1.486-0.727
			c-0.592-0.052-1.243,0.233-1.699,0.648c-0.979,0.808-1.538,2.246-1.333,3.557c0.084,0.664,0.379,1.263,0.723,1.754
			c0.351,0.498,0.765,0.927,1.219,1.26c0.904,0.677,1.937,0.974,2.816,1.011c0.884,0.044,1.615-0.152,2.099-0.334
			C24.183,9.332,24.435,9.164,24.436,9.166z"/>
		<g>
			<path fill="#A3CCC4" d="M19.707,6.674c0.095-0.009,0.153,0.189,0.189,0.488c0.038,0.311,0.063,0.77,0.401,1.242
				c0.188,0.265,0.44,0.503,0.708,0.688c0.303,0.208,0.628,0.353,0.934,0.44c0.36,0.105,0.689,0.126,0.932,0.113
				c0.309-0.011,0.481-0.063,0.435-0.042c-0.044,0.024-0.298,0.11-0.688,0.137c-0.323,0.021-0.723-0.005-1.136-0.116
				c-0.353-0.095-0.713-0.25-1.037-0.459c-0.286-0.18-0.549-0.411-0.743-0.667C19.041,7.624,19.511,6.7,19.707,6.674z"/>
		</g>
	</g>
	<g>
		<path fill="#A3CCC4" d="M13.357,63.527c3.671-1.6,6.828-4.624,8.725-8.377c0.937-1.886,1.618-3.89,1.856-6.042
			c0.213-2.137-0.087-4.31-0.878-6.25c-1.557-3.901-5.076-6.801-9.161-7.241c-4.186-0.494-8.477,2.83-9.455,7.248l0.041,0.007
			c0.567-2.251,1.951-4.27,3.778-5.535c1.814-1.281,4.057-1.802,6.137-1.437c4.109,0.724,7.536,3.978,8.741,8.118
			c1.325,4.177,0.069,8.82-2.169,12.396c-2.269,3.636-5.797,6.357-9.693,7.505c6.629-1.985,11.757-8.9,11.739-15.881
			c-0.058-2.85-1.162-5.562-2.958-7.452c-0.747-0.805-1.68-1.534-2.611-1.976c2.232,1.299,3.956,3.549,4.722,6.184
			c0.81,2.646,0.507,5.56-0.514,8.263c-1.955,5.43-6.751,9.7-12.181,10.764c-1.331,0.276-2.694,0.371-4.046,0.271
			c-0.651-0.029-1.399-0.169-1.959-0.259c-0.231-0.078-0.447-0.151-0.659-0.219c2.209,0.607,4.582,0.482,6.76-0.045
			c1.152-0.285,2.379-0.758,3.361-1.342c-3.351,1.589-7.305,1.982-10.719,0.719c-2.08-0.729-4.065-1.746-5.871-3.037l-0.236,0.856
			c1.779,1.339,3.751,2.415,5.813,3.21C5.544,65.42,9.706,65.127,13.357,63.527z"/>
	</g>
	<g>
		<path fill="#A3CCC4" d="M13.692,71.115c10.743,2.752,21.937,3.088,32.771,5.343c2.703,0.575,5.385,1.261,7.988,2.197
			c2.407,0.757,5.009,2.216,7.065,4.029c2.107,1.831,3.868,4.104,5.155,6.665c1.297,2.549,2.132,5.413,2.074,8.368
			c0.006,5.913-3.268,11.783-8.202,14.684c-2.414,1.524-5.301,2.154-7.982,1.538c-2.413-0.519-4.602-1.976-6.079-4.035
			c0.325,0.482,0.657,0.899,0.971,1.241c0.994,1.082,1.781,1.543,1.772,1.554c0.005-0.001-0.819-0.39-1.9-1.413
			c-0.262-0.251-0.535-0.546-0.813-0.877c1.509,1.937,3.646,3.295,5.988,3.797c2.744,0.626,5.709-0.036,8.155-1.585
			c5.005-2.956,8.31-8.922,8.293-14.908c0.054-2.996-0.803-5.902-2.112-8.464c-1.302-2.579-3.083-4.866-5.211-6.707
			c-2.075-1.821-4.702-3.286-7.123-4.046c-2.61-0.931-5.303-1.613-8.009-2.182c-10.853-2.235-22.044-2.544-32.786-5.27
			c-5.324-1.387-10.61-3.449-14.864-7.136c-1.023-0.867-1.957-1.837-2.807-2.884l-0.012,0.036c0.846,1.045,1.779,2.011,2.792,2.878
			C3.073,67.644,8.361,69.718,13.692,71.115z"/>
		<path fill="#A3CCC4" d="M52.862,102.845c0,0,0.003,0,0.005-0.004C52.865,102.845,52.865,102.845,52.862,102.845z"/>
		<path fill="#A3CCC4" d="M47.325,111.286c-0.262-0.251-0.535-0.546-0.813-0.877c-0.854-1.027-1.719-2.445-2.153-4.26
			c-0.58-2.381,0.047-5.386,1.723-7.451c1.604-2.083,4.135-3.282,6.137-2.9c2.749,0.379,5.188,3.182,4.494,6.293
			c-0.347,1.472-1.428,2.718-2.768,3.175c-1.381,0.485-2.932-0.301-3.395-1.659c-0.233-0.542-0.201-1.394,0.236-2.05
			c0.425-0.636,1.278-1.084,1.933-0.737c0.645,0.289,0.876,1.083,0.647,1.51c-0.191,0.405-0.47,0.492-0.5,0.512
			c0.03-0.02,0.305-0.125,0.468-0.524c0.199-0.421-0.064-1.144-0.667-1.373c-0.602-0.283-1.334,0.173-1.682,0.754
			c-0.348,0.604-0.329,1.307-0.104,1.744c0.488,1.149,1.827,1.659,2.887,1.205c1.086-0.449,1.923-1.538,2.146-2.725
			c0.469-2.424-1.613-4.769-3.874-5.05c-1.603-0.321-3.778,0.604-5.313,2.419c-1.555,1.776-2.266,4.47-1.847,6.725
			c0.277,1.542,0.917,2.863,1.603,3.889c0.325,0.482,0.657,0.899,0.971,1.241c0.994,1.082,1.781,1.543,1.772,1.554
			C49.23,112.698,48.406,112.31,47.325,111.286z M44.566,103.204c-0.045-0.021,0.519-2.009,1.084-2.81
			c1.323-2.313,3.912-4.174,6.436-3.787c2.352,0.296,4.541,2.696,4.081,5.329c-0.068,0.429-0.336,1.222-0.778,1.777
			c-0.421,0.576-0.935,0.903-0.914,0.937c0.01,0.024,0.564-0.24,1.053-0.809c0.513-0.546,0.853-1.38,0.949-1.843
			c0.641-2.896-1.702-5.6-4.304-5.931c-1.365-0.221-2.826,0.207-3.976,1.013c-1.185,0.773-2.162,1.887-2.804,3.163
			C44.871,101.061,44.463,103.215,44.566,103.204z"/>
		<path fill="#A3CCC4" d="M45.65,100.395c1.323-2.313,3.912-4.174,6.436-3.787c2.352,0.296,4.541,2.696,4.081,5.329
			c-0.068,0.429-0.336,1.222-0.778,1.777c-0.421,0.576-0.935,0.903-0.914,0.937c0.01,0.024,0.564-0.24,1.053-0.809
			c0.513-0.546,0.853-1.38,0.949-1.843c0.641-2.896-1.702-5.6-4.304-5.931c-1.365-0.221-2.826,0.207-3.976,1.013
			c-1.185,0.773-2.162,1.887-2.804,3.163c-0.522,0.816-0.931,2.971-0.827,2.96C44.521,103.183,45.085,101.195,45.65,100.395z"/>
	</g>
	<g>
		<path fill="#A3CCC4" d="M20.604,66.78c7.22-0.962,13.804-4.595,19.937-8.475c4.351-2.739,8.618-5.669,13.177-8.076
			c4.529-2.407,9.461-4.265,14.558-4.458c5.092-0.239,10.102,1.269,14.454,3.783c4.379,2.501,8.211,5.883,11.658,9.563
			c-3.396-3.7-7.188-7.119-11.559-9.668c-4.341-2.563-9.375-4.125-14.515-3.919c-5.149,0.161-10.137,2.02-14.699,4.422
			c-4.588,2.41-8.87,5.341-13.21,8.08c-6.124,3.873-12.653,7.502-19.814,8.493c-7.146,1.08-14.364-0.951-20.445-4.601
			c-1.267-0.747-2.496-1.559-3.693-2.416l-0.021,0.078c1.186,0.861,2.404,1.678,3.663,2.433C6.156,65.726,13.4,67.827,20.604,66.78z
			"/>
	</g>
	<g>
		<path fill="#A3CCC4" d="M117.231,68.67c0.058-0.126,0.116-0.257,0.053-0.116l-0.001-0.003l0.001,0.003
			C117.294,68.531,117.268,68.594,117.231,68.67z"/>
		<polygon fill="#A3CCC4" points="117.283,68.551 117.283,68.551 117.276,68.544 117.283,68.551 		"/>
		<path fill="#A3CCC4" d="M17.947,70.34c6.242,0.09,12.377-1.889,18.021-4.561c5.676-2.677,11.005-6.003,16.396-9.088
			c7.609-4.37,15.695-8.416,24.418-9.23c8.714-0.913,17.36,1.952,24.546,6.723c4.396,2.872,8.39,6.371,12.069,10.139
			c0.672,0.697,1.346,1.396,1.995,2.115c0.329,0.355,0.656,0.715,0.979,1.078l0.479,0.547l0.244,0.271l0.117,0.137l0.06,0.069
			l0.004,0.004l-0.004-0.004l-0.06-0.069l-0.12-0.137l-0.24-0.273l-0.48-0.544c-0.317-0.369-0.647-0.726-0.974-1.084
			c-0.647-0.721-1.316-1.423-1.984-2.126c-3.663-3.794-7.631-7.324-12.017-10.236c-7.161-4.839-15.837-7.79-24.619-6.917
			c-8.792,0.768-16.945,4.82-24.566,9.196c-5.401,3.09-10.714,6.416-16.354,9.093c-5.605,2.667-11.671,4.654-17.855,4.606
			c-6.178,0.01-12.175-2.096-17.324-5.393c-1.637-1.039-3.204-2.178-4.705-3.4l-0.036,0.129c1.47,1.214,3.007,2.352,4.614,3.392
			C5.683,68.128,11.707,70.306,17.947,70.34z"/>
		<polygon fill="#A3CCC4" points="117.092,68.819 117.137,68.82 117.157,68.823 117.137,68.82 		"/>
		<polygon fill="#A3CCC4" points="117.16,68.824 117.157,68.823 117.16,68.824 117.164,68.826 117.164,68.826 		"/>
		<path fill="#A3CCC4" d="M117.164,68.826L117.164,68.826c-0.068,0.149,0.01-0.025,0.067-0.156
			C117.191,68.759,117.151,68.849,117.164,68.826z"/>
	</g>
	<g>
		<path fill="#A3CCC4" d="M16.097,67.997c5.065,0.488,10.261,0.056,15.235-1.393c4.426-1.286,8.506-3.541,12.363-6.224
			c7.636-5.311,14.321-12.039,21.875-17.478c3.687-2.654,7.605-4.986,11.806-6.502c4.351-1.567,8.928-2.097,13.413-1.521
			c0.623,0.079,1.245,0.184,1.861,0.303c0.049,0.01,0.059-0.078,0.009-0.087c-4.403-0.851-8.926-0.668-13.319,0.583
			c-4.176,1.186-8.105,3.287-11.782,5.742c-7.699,5.138-14.378,11.824-21.81,17.371c-3.77,2.817-7.769,5.354-12.111,6.961
			c-4.992,1.853-10.306,2.529-15.503,2.295c-7.78-0.348-15.646-2.854-21.934-7.625l-0.022,0.088
			C1.929,64.861,9.001,67.309,16.097,67.997z"/>
	</g>
	<g>
		<path fill="#A3CCC4" d="M7.337,65.933c6.751,2.152,14.078,1.728,21.073,0.581c7.875-1.294,15.61-3.564,23.357-5.623
			c7.554-2.004,15.219-3.937,22.965-4.369c6.952-0.39,14.02,0.653,19.899,4.563c1.509,1.002,2.912,2.182,4.198,3.482
			c1.431,1.448,2.846,3.064,3.82,4.903c2.611,4.925,2.938,11.016,1.045,16.453c-1.89,5.417-6.243,10.444-11.581,11.938
			c-5.422,1.514-11.262-0.999-14.006-6.031c-1.374-2.521-1.475-5.683-0.42-8.441c1.069-2.79,3.488-5.24,6.334-5.658
			c2.84-0.413,5.978,1.509,6.525,4.573c0.564,3.133-2.664,6.938-5.521,4.813c-0.294-0.218-0.524-0.511-0.726-0.822
			c-0.034-0.057-0.112,0.014-0.076,0.066c0.605,0.943,1.631,1.561,2.743,1.469c1.206-0.099,2.204-0.872,2.906-1.915
			c1.5-2.225,0.811-4.959-0.885-6.648c-1.752-1.738-4.403-2.123-6.668-1.161c-2.341,0.993-4.13,3.4-4.944,5.867
			c-1.786,5.415,1.371,10.617,5.738,12.992c2.179,1.184,4.692,1.625,7.162,1.355c2.605-0.284,5.007-1.474,7.103-3.173
			c4.134-3.349,6.83-8.442,7.49-13.836c0.325-2.695,0.106-5.433-0.594-8.001c-0.653-2.393-1.741-4.517-3.231-6.394
			c-2.261-2.851-4.997-5.253-8.108-6.99c-2.905-1.625-6.099-2.627-9.367-3.145c-7.183-1.136-14.628-0.008-21.771,1.537
			c-7.877,1.705-15.63,4.074-23.47,6.003c-7.398,1.813-15.008,3.348-22.561,2.964C8.707,66.93,1.992,64.523-3.207,59.5
			c-0.09-0.085-0.179-0.176-0.265-0.263l-0.029,0.108c0.601,0.597,1.226,1.173,1.875,1.713C1.031,63.267,4.087,64.896,7.337,65.933z
			"/>
	</g>
	<g>
		<path fill="#A3CCC4" d="M7.248,69.627c3.748,1.45,7.609,2.6,11.287,4.241c3.49,1.573,7.026,3.706,8.923,7.323
			c1.475,2.853,2.07,6.624,0.281,9.611c-0.965,1.728-2.515,3.091-4.295,3.75c-0.095,0.04-0.197,0.066-0.291,0.096
			c-0.404,0.14-0.833,0.215-1.258,0.293c-1.638,0.27-3.344-0.241-4.501-1.434c-1.168-1.165-1.769-2.951-1.546-4.655
			c0.232-1.739,1.685-3.21,3.305-3.4c1.632-0.347,3.189,1.332,2.788,3.028c-0.217,1.041-1.506,1.833-2.366,1.242
			c-0.134-0.084-0.333-0.3-0.438-0.543c-0.106-0.237-0.112-0.476-0.15-0.473c-0.019-0.001-0.06,0.251,0.026,0.528
			c0.086,0.282,0.299,0.55,0.444,0.655c0.996,0.762,2.493-0.107,2.774-1.336c0.492-1.956-1.301-3.825-3.104-3.431
			c-1.763,0.223-3.296,1.844-3.516,3.699c-0.207,1.807,0.459,3.626,1.68,4.797c1.212,1.202,2.964,1.683,4.612,1.383
			c0.42-0.087,0.847-0.168,1.25-0.313c0.784-0.26,1.574-0.653,2.269-1.174c2.172-1.606,3.559-4.391,3.483-7.161
			c-0.199-3.866-2.23-7.38-5.157-9.511c-3.245-2.471-7.09-3.85-10.859-5.204c-3.643-1.305-7.354-2.492-10.768-4.367
			c-2.446-1.342-4.771-3.151-6.252-5.645l-0.003,0.009c0.576,0.971,1.273,1.86,2.069,2.628C0.571,66.817,3.922,68.328,7.248,69.627z
			"/>
	</g>
	<g>
		<path fill="#A3CCC4" d="M12.276,65.886c7.711,0.825,15.544-0.005,23.249,0.837c3.826,0.436,7.69,1.32,10.953,3.462
			c3.213,2.124,5.772,5.566,6.566,9.561c0.646,4.049-1.04,8.487-4.202,11.014c-1.559,1.252-3.436,2.166-5.369,2.203
			c-1.866,0.05-3.702-0.702-5.03-2.044c0.277,0.332,0.526,0.57,0.521,0.575l-0.011,0.018c0.001-0.004-0.313-0.199-0.663-0.498
			c-0.104-0.092-0.205-0.186-0.308-0.282c0.058,0.067,0.122,0.138,0.193,0.209c1.372,1.454,3.319,2.275,5.294,2.219
			c1.989-0.045,3.893-0.984,5.472-2.258c3.209-2.575,4.911-7.081,4.247-11.188c-0.819-4.062-3.403-7.496-6.643-9.639
			c-3.292-2.151-7.175-3.027-11.006-3.456c-7.725-0.824-15.551,0.021-23.258-0.785c-3.828-0.415-7.69-1.268-10.997-3.34
			c-1.763-1.076-3.27-2.546-4.481-4.262L-3.2,58.249c1.21,1.718,2.714,3.187,4.474,4.263C4.576,64.6,8.447,65.462,12.276,65.886z"/>
		<path fill="#A3CCC4" d="M38.291,91.013c-0.104-0.092-0.205-0.186-0.308-0.282c-1.159-1.132-2.117-2.778-2.149-4.811
			c-0.038-2.165,1.255-4.552,3.403-5.573c1.134-0.604,2.552-0.609,3.621-0.041c1.093,0.56,1.851,1.633,2.091,2.829
			c0.243,1.247-0.321,2.554-1.229,3.2c-0.863,0.711-2.193,0.665-2.781-0.159c-0.306-0.382-0.36-0.785-0.372-0.778
			c0.008-0.007,0.143,0.376,0.476,0.665c0.686,0.62,1.698,0.455,2.337-0.201c0.654-0.622,0.936-1.628,0.69-2.473
			c-0.49-1.809-2.609-2.87-4.38-1.901c-1.701,0.802-2.834,2.612-2.975,4.438c-0.151,1.829,0.623,3.642,1.697,4.952
			c0.01,0.017,0.02,0.028,0.031,0.041c0.277,0.332,0.526,0.57,0.521,0.575l-0.011,0.018C38.955,91.507,38.642,91.312,38.291,91.013z
			 M37.402,89.784c0.115,0.168,0.254,0.285,0.37,0.404c-0.128-0.133-0.263-0.262-0.385-0.435c-0.396-0.479-0.732-1.157-0.995-1.878
			c-0.879-2.501,0.444-5.569,2.558-6.681c1.026-0.604,2.286-0.804,3.367-0.302c1.058,0.466,1.924,1.546,2.069,2.835
			c0.074,0.746-0.174,1.47-0.509,1.955c-0.109,0.177-0.389,0.486-0.415,0.512c0.037-0.012,0.407-0.394,0.515-0.598
			c0.356-0.541,0.559-1.265,0.484-1.968c-0.28-2.407-2.985-4.031-5.325-2.669c-2.376,1.103-3.718,4.463-2.752,6.976
			C36.654,88.667,37.016,89.326,37.402,89.784z"/>
	</g>
	<g>
		<path fill="#A3CCC4" d="M10.498,66.8c6.229,0.611,12.434-0.688,18.457-2.169c6.042-1.51,11.996-3.373,18.041-4.648
			c6.002-1.234,12.285-2.007,18.096-0.208c2.88,0.892,5.534,2.493,7.707,4.668c1.058,1.09,2.134,2.272,2.861,3.606
			c0.734,1.376,1.233,2.896,1.49,4.468c1.105,6.312-2.444,13.486-8.249,15.856c-2.873,1.131-6.212,0.633-8.595-1.271
			c-1.195-0.94-2.21-2.186-2.777-3.659c-0.547-1.479-0.59-3.18-0.119-4.737c0.477-1.56,1.469-2.936,2.753-3.858
			c1.286-0.923,2.975-1.115,4.363-0.49c1.354,0.612,2.541,1.979,2.507,3.645c0.005,1.606-1.213,3.313-2.796,3.366
			c-1.277,0.01-1.836-1.056-1.863-1.059c0.028,0.007,0.581,1.073,1.861,1.078c1.599-0.045,2.842-1.756,2.851-3.385
			c0.045-1.697-1.148-3.099-2.523-3.73c-1.409-0.651-3.138-0.47-4.465,0.468c-1.314,0.928-2.34,2.329-2.837,3.918
			c-0.497,1.591-0.465,3.337,0.089,4.869c0.575,1.525,1.598,2.795,2.814,3.771c2.427,1.974,5.855,2.52,8.83,1.379
			c5.99-2.397,9.679-9.72,8.591-16.252c-0.249-1.63-0.759-3.205-1.507-4.637c-0.785-1.448-1.835-2.607-2.922-3.751
			c-2.205-2.242-4.929-3.919-7.879-4.857c-5.953-1.895-12.34-1.148-18.39,0.048c-6.103,1.233-12.077,3.051-18.099,4.504
			c-5.997,1.431-12.139,2.647-18.149,2.002c-2.986-0.329-5.9-1.201-8.462-2.743c-2.049-1.229-3.849-2.866-5.37-4.771l-0.383,1.389
			c1.503,1.735,3.247,3.241,5.199,4.387C4.341,65.603,7.408,66.486,10.498,66.8z"/>
		<polygon fill="#A3CCC4" points="62.373,80.311 62.373,80.311 62.373,80.311 		"/>
		<path fill="#A3CCC4" d="M62.373,80.311l0.001-0.002L62.373,80.311z"/>
	</g>
</g>
</svg>
