<?xml version="1.0" encoding="utf-8"?>
<!-- Generator: Adobe Illustrator 16.0.3, SVG Export Plug-In . SVG Version: 6.00 Build 0)  -->
<!DOCTYPE svg PUBLIC "-//W3C//DTD SVG 1.1//EN" "http://www.w3.org/Graphics/SVG/1.1/DTD/svg11.dtd">
<svg version="1.1" id="Layer_1" xmlns="http://www.w3.org/2000/svg" xmlns:xlink="http://www.w3.org/1999/xlink" x="0px" y="0px"
	 width="120px" height="120px" viewBox="0 0 120 120" enable-background="new 0 0 120 120" xml:space="preserve">
<g opacity="0.33">
	<g>
		<g>
			<g>
				<path fill="#A3CCC4" d="M93.077,50.283l0.039-0.037c-1.26-1.691-3.922-2.628-5.948-2.093l-0.021-0.012
					C88.381,49.834,91.033,50.793,93.077,50.283z"/>
				<path fill="#A3CCC4" d="M88.784,53.824l0.05,0.005c0.435-1.847-0.461-4.223-2.001-5.314v-0.021
					C86.378,50.326,87.249,52.71,88.784,53.824z"/>
				<path fill="#A3CCC4" d="M83.974,52.883l0.027,0.033c1.506-0.759,2.613-2.723,2.475-4.393l0.012-0.017
					C84.98,49.244,83.856,51.201,83.974,52.883z"/>
				<path fill="#A3CCC4" d="M91.966,44.911l-0.008-0.051c-1.892-0.107-4.076,1.186-4.883,2.892l-0.021,0.005
					C88.938,47.886,91.134,46.614,91.966,44.911z"/>
				<path fill="#A3CCC4" d="M87.69,42.525l-0.041-0.024c-1.152,1.225-1.52,3.451-0.817,4.977l-0.01,0.017
					C87.987,46.287,88.375,44.065,87.69,42.525z"/>
				<path fill-rule="evenodd" clip-rule="evenodd" fill="#A3CCC4" d="M86.392,47.695c0.183-0.123,0.431-0.073,0.554,0.106
					c0.121,0.182,0.077,0.428-0.105,0.552c-0.179,0.123-0.428,0.078-0.552-0.106C86.165,48.067,86.213,47.819,86.392,47.695z"/>
			</g>
			<path fill="#A3CCC4" d="M75.659,44.36c0.072-0.165,0.125-0.329,0.161-0.495c0.043-0.198,0.058-0.369,0.053-0.572
				c-0.011-0.198-0.04-0.404-0.123-0.605c-0.08-0.192-0.228-0.387-0.413-0.449l-0.002-0.015c-0.052,0.189-0.166,0.299-0.271,0.405
				c-0.109,0.101-0.217,0.198-0.322,0.304c-0.102,0.101-0.208,0.237-0.29,0.348c-0.098,0.137-0.181,0.286-0.247,0.431
				c-0.275,0.6-0.306,1.204-0.223,1.921l0.006,0.011c0,0,0,0.002,0,0l0.01,0.026c0.003-0.002,0.006-0.004,0.006-0.004l0.004,0.005
				C74.757,45.601,75.387,45.001,75.659,44.36z"/>
			<path fill="#A3CCC4" d="M69.351,48.483c-0.14-0.189-0.3-0.362-0.474-0.517c-0.2-0.18-0.393-0.305-0.632-0.436
				c-0.238-0.12-0.498-0.22-0.785-0.251c-0.28-0.036-0.604,0.01-0.796,0.188l-0.019-0.011c0.188,0.186,0.238,0.388,0.295,0.586
				c0.049,0.192,0.086,0.378,0.145,0.574c0.052,0.185,0.137,0.396,0.214,0.568c0.096,0.204,0.213,0.393,0.342,0.574
				c0.521,0.71,1.2,1.144,2.092,1.522l0.019-0.003c0,0,0,0,0.001,0.002l0.036,0.001c-0.002-0.003-0.002-0.005,0.001-0.005
				l0.01-0.004C70.206,50.352,69.922,49.224,69.351,48.483z"/>
			<g>
				<g>
					<path fill="#A3CCC4" d="M53.148,55.998c0.978-0.939,1.98-1.863,3.021-2.733c3.523-2.913,7.587-5.231,12.022-6.392
						c4.417-1.185,9.133-1.205,13.623-0.231c1.396,0.293,2.769,0.687,4.119,1.149c0.445,0.146,1.354,0.486,1.359,0.481
						c-0.004,0.005-0.896-0.379-1.341-0.535c-1.34-0.5-2.709-0.924-4.104-1.249c-4.485-1.07-9.254-1.153-13.761-0.01
						c-4.515,1.112-8.69,3.442-12.191,6.466c-1.035,0.898-2.024,1.857-2.938,2.874c-0.293,0.325-1.058,1.252-1.016,1.287
						C51.98,57.135,52.834,56.3,53.148,55.998z"/>
				</g>
			</g>
		</g>
		<g>
			<path fill="#A3CCC4" d="M81.613,34.922l0.048,0.018c-0.284,1.842-1.975,3.671-3.776,4.097l-0.01,0.019
				C78.136,37.224,79.806,35.375,81.613,34.922z"/>
			<path fill="#A3CCC4" d="M76.794,33.939l0.04-0.021c1.103,1.26,1.39,3.486,0.64,4.972l0.009,0.019
				C76.364,37.668,76.06,35.445,76.794,33.939z"/>
			<path fill="#A3CCC4" d="M73.431,36.669l0.006-0.04c1.491-0.027,3.17,1.046,3.757,2.409l0.013,0.001
				C75.725,39.092,74.039,38.031,73.431,36.669z"/>
			<path fill="#A3CCC4" d="M82.973,39.58l0.014,0.042c-1.432,0.868-3.673,0.764-5.009-0.231l-0.019,0.003
				C79.376,38.508,81.617,38.592,82.973,39.58z"/>
			<path fill="#A3CCC4" d="M80.625,43.21l-0.02,0.039c-1.412-0.482-2.621-2.067-2.705-3.546l-0.012-0.009
				C79.298,40.156,80.521,41.727,80.625,43.21z"/>
			<path fill-rule="evenodd" clip-rule="evenodd" fill="#A3CCC4" d="M77.47,39.713c0.192,0.022,0.366-0.118,0.388-0.311
				c0.02-0.193-0.12-0.366-0.313-0.386c-0.193-0.024-0.366,0.115-0.386,0.308C77.137,39.518,77.273,39.693,77.47,39.713z"/>
		</g>
		<g>
			<g>
				<path fill="#A3CCC4" d="M65.506,44.871c-0.025,0.002-0.038,0.003-0.064,0.009c4.501-2.989,4.277-8.51,2.586-13.044
					c-0.019-0.017-0.03-0.023-0.047-0.035c2.599,1.234,3.556,4.406,2.973,7.068C70.34,41.688,68.185,43.906,65.506,44.871z"/>
			</g>
		</g>
		<g>
			<g>
				<path fill="#A3CCC4" d="M23.424,98.31c2.986-0.096,5.975,1.304,7.776,3.695c0.922,1.171,1.528,2.583,1.793,4.048
					c0.286,1.457,0.206,3.008-0.547,4.301c-1.303,2.009-4.1,2.698-5.746,1.987c-0.824-0.389-1.437-1.116-1.698-2.017
					c-0.29-0.787-0.064-1.874,1.173-2.412l-0.001-0.023c-0.627-0.201-1.438-0.024-2.008,0.52c-0.596,0.499-0.864,1.482-0.771,2.2
					c0.092,1.553,1.279,2.975,2.772,3.41c3.116,0.717,5.652-1.412,6.58-3.688c0.747-1.359,0.764-2.976,0.469-4.448
					c-0.278-1.485-0.927-2.908-1.871-4.091c-1.846-2.424-4.894-3.828-7.928-3.733L23.424,98.31z"/>
			</g>
		</g>
		<g>
			<g>
				<path fill="#A3CCC4" d="M65.487,44.874c1.188-0.829,2.053-2.082,2.408-3.471c0.438-1.378-0.062-3.003-1.235-3.873
					c-0.461-0.394-1.005-0.717-1.638-0.846c-0.642-0.138-1.382,0.03-1.913,0.498c-0.515,0.459-0.765,1.108-0.67,1.773
					c0.115,0.672,0.725,1.103,1.282,1.119l0.002-0.002c-0.549-0.203-0.827-0.729-0.771-1.174c0.067-0.429,0.318-0.884,0.663-1.214
					c0.697-0.762,2.06-0.744,3.063-0.053c1.134,0.856,1.613,2.446,1.179,3.802c-0.358,1.369-1.244,2.591-2.432,3.35
					C65.448,44.819,65.463,44.841,65.487,44.874z"/>
			</g>
		</g>
		<path fill="#A3CCC4" d="M52.195,59.571c2.056-1.534,4.245-2.986,6.738-3.871c2.434-0.833,4.813-0.776,7.222-0.594l0.001,0.008
			c-2.348,0.546-4.392,1.385-6.706,2.002c-2.38,0.656-4.811,1.267-7.036,2.493c-2.558,1.595-4.832,3.698-6.456,6.25l-0.098,0.035
			C47.459,63.341,49.686,61.222,52.195,59.571z"/>
		<path fill="#A3CCC4" d="M53.893,53.134c0.826-1.772,1.573-3.631,1.844-5.634c0.246-1.947-0.168-3.712-0.675-5.485l-0.008,0.001
			c-0.043,1.836-0.353,3.493-0.453,5.318c-0.12,1.876-0.199,3.789-0.771,5.643c-0.794,2.152-2.012,4.176-3.664,5.787l-0.011,0.08
			C51.812,57.255,53.05,55.264,53.893,53.134z"/>
		<path fill="#A3CCC4" d="M52.799,75.759c0.122-0.104,0.229-0.218,0.325-0.34c0.113-0.14,0.193-0.276,0.268-0.442
			c0.072-0.163,0.128-0.342,0.138-0.539c0.011-0.188-0.03-0.402-0.157-0.527l0.007-0.011c-0.118,0.132-0.254,0.179-0.379,0.222
			c-0.129,0.04-0.256,0.075-0.382,0.118c-0.123,0.044-0.262,0.11-0.374,0.168c-0.132,0.075-0.254,0.159-0.369,0.254
			c-0.459,0.379-0.723,0.854-0.94,1.464l0.004,0.017l0,0l-0.002,0.02c0.001,0.003,0.005,0,0.005,0l0.001,0.008
			C51.577,76.408,52.322,76.172,52.799,75.759z"/>
		<path fill="#A3CCC4" d="M50.106,78.586c-0.084-0.199-0.184-0.383-0.303-0.552c-0.132-0.204-0.273-0.354-0.457-0.521
			c-0.182-0.159-0.387-0.302-0.634-0.393c-0.233-0.091-0.527-0.121-0.735-0.013l-0.015-0.012c0.127,0.205,0.128,0.395,0.13,0.574
			c0,0.18-0.006,0.357,0.002,0.537c0.005,0.173,0.032,0.379,0.063,0.544c0.041,0.198,0.101,0.392,0.173,0.573
			c0.301,0.739,0.801,1.266,1.498,1.789l0.015,0.002c0.003,0.002,0.003,0.002,0.005,0.002l0.027,0.008c0,0,0.003-0.004,0.001-0.005
			l0.013,0.002C50.444,80.409,50.444,79.359,50.106,78.586z"/>
		<g>
			<g>
				<path fill="#A3CCC4" d="M31.173,85.223c1.01-0.888,2.15-1.642,3.369-2.215c2.052-0.939,4.378-1.527,6.6-0.96
					c2.198,0.518,4.172,1.98,5.271,3.964c0.535,0.991,0.93,2.094,0.974,3.217c0.019,1.128-0.366,2.256-1.068,3.143
					c-0.699,0.892-1.724,1.51-2.831,1.749c-1.105,0.243-2.328-0.239-2.978-1.171c-0.389-0.569-0.664-1.305-0.436-1.982
					c0.194-0.674,0.842-1.195,1.543-1.226c0.234-0.012,0.588,0.125,0.779,0.355c0.205,0.225,0.243,0.476,0.251,0.472
					c-0.005,0.007-0.038-0.247-0.24-0.479c-0.19-0.239-0.548-0.39-0.787-0.378c-0.721,0.023-1.389,0.548-1.598,1.24
					c-0.243,0.7,0.033,1.457,0.422,2.043c0.659,0.963,1.914,1.479,3.064,1.235c1.136-0.235,2.195-0.854,2.924-1.767
					c0.732-0.905,1.138-2.067,1.132-3.236c-0.038-1.173-0.43-2.291-0.975-3.313c-1.112-2.043-3.129-3.56-5.395-4.095
					c-2.289-0.588-4.68,0.027-6.742,0.998c-1.233,0.595-2.381,1.376-3.368,2.309c-0.343,0.279-1.115,1.194-1.099,1.202
					C30.009,86.348,30.822,85.483,31.173,85.223z"/>
			</g>
		</g>
		<g>
			<path fill="#A3CCC4" d="M34.881,91.048c0.708-0.549,1.455-1.05,2.013-1.812c0.05-0.073,0.162-0.285,0.095-0.388
				c-0.063-0.095-0.285-0.084-0.353-0.066c-0.933,0.229-1.665,0.752-2.469,1.158c-0.716,0.399-1.443,0.769-2.146,1.182
				c-0.632,0.347-1.242,0.72-1.851,1.109c-0.967,0.627-1.893,1.343-2.887,1.951c-2.505,1.515-5.234,2.705-8.115,3.309
				c2.884-0.588,5.633-1.665,8.42-2.675c1.106-0.404,2.242-0.771,3.313-1.271c0.669-0.313,1.302-0.684,1.93-1.066
				C33.529,92.026,34.222,91.559,34.881,91.048z"/>
			<path fill="#A3CCC4" d="M19.168,97.491c-1.003,0.188-2.022,0.33-3.044,0.29C17.145,97.824,18.164,97.684,19.168,97.491z"/>
		</g>
		<g>
			<g>
				<path fill="#A3CCC4" d="M36.305,80.462c2.353-2.276,4.649-4.613,6.927-6.971c2.245-2.381,4.625-4.642,7.289-6.494
					c5.304-3.794,11.591-5.732,17.835-6.383c3.129-0.401,6.271-0.302,9.407-0.677c3.13-0.348,6.257-0.959,9.289-1.962
					c3.728-1.247,7.456-3.104,10.149-6.198c0.976-0.96,2.251-3.441,2.21-3.458c0.041,0.017-1.244,2.492-2.221,3.444
					c-2.698,3.087-6.424,4.934-10.147,6.174c-3.03,0.99-6.155,1.597-9.285,1.939c-3.133,0.365-6.271,0.264-9.406,0.657
					c-6.253,0.638-12.565,2.568-17.89,6.37c-2.675,1.852-5.066,4.124-7.314,6.501c-2.279,2.35-4.574,4.69-6.929,6.962
					c-4.699,4.536-9.667,8.839-15.152,12.282c-2.729,1.713-5.591,3.208-8.548,4.392l0.378-0.059
					c2.839-1.146,5.597-2.587,8.226-4.233C26.625,89.308,31.6,85.005,36.305,80.462z"/>
			</g>
			<g>
				<path fill="#A3CCC4" d="M64.886,80.072l0.01,0.063c-2.325,0.763-5.474-0.127-7.04-1.985l-0.027-0.003
					C60.13,77.361,63.285,78.222,64.886,80.072z"/>
				<path fill="#A3CCC4" d="M63.175,73.847l0.053,0.029c-0.821,2.044-3.256,3.697-5.446,3.704l-0.015,0.02
					C58.558,75.557,60.977,73.877,63.175,73.847z"/>
				<path fill="#A3CCC4" d="M57.984,71.531l0.05-0.018c0.921,1.725,0.657,4.327-0.59,5.822l0.006,0.021
					C56.511,75.654,56.751,73.047,57.984,71.531z"/>
				<path fill="#A3CCC4" d="M60.24,84.43l-0.04,0.041c-1.867-1.16-3.074-3.849-2.7-6.003l-0.016-0.021
					C59.356,79.581,60.59,82.258,60.24,84.43z"/>
				<path fill="#A3CCC4" d="M54.594,83.837l-0.055-0.003c-0.273-1.936,0.866-4.294,2.546-5.271l0.005-0.021
					C57.387,80.466,56.27,82.832,54.594,83.837z"/>
				<circle fill-rule="evenodd" clip-rule="evenodd" fill="#A3CCC4" cx="57.248" cy="77.902" r="0.461"/>
			</g>
			<g>
				<g>
					<path fill="#A3CCC4" d="M23.626,90.787c1.151-0.709,2.236-1.546,3.271-2.429c3.466-2.99,6.602-6.584,10.738-8.815
						c4.004-2.335,8.705-3.749,13.356-3.22c1.436,0.154,2.845,0.484,4.202,0.958c0.45,0.154,1.346,0.533,1.345,0.538
						c0,0-0.911-0.34-1.365-0.479c-1.363-0.438-2.771-0.738-4.197-0.861c-4.624-0.426-9.212,1.064-13.135,3.42
						c-4.052,2.26-7.084,5.822-10.671,8.785c-1.064,0.873-2.191,1.698-3.415,2.335c-0.387,0.224-1.515,0.67-1.535,0.614
						C22.208,91.591,23.264,91.034,23.626,90.787z"/>
				</g>
			</g>
		</g>
		<g>
			<path fill="#A3CCC4" d="M46.98,109.022c0.333-0.118,0.502-0.491,0.377-0.828c-0.126-0.336-0.495-0.511-0.831-0.393
				c-0.331,0.124-0.503,0.494-0.378,0.831C46.277,108.972,46.649,109.146,46.98,109.022z"/>
			<path fill="#A3CCC4" d="M47.57,108.839l-0.024-0.03c1.3,3.179,5.111,5.771,8.528,5.796l0.078-0.048
				C54.811,111.378,50.972,108.822,47.57,108.839z"/>
			<path fill="#A3CCC4" d="M46.909,109.278l0.006-0.035c-1.417,2.708-0.95,6.822,1.041,9.208l0.079,0.022
				C49.422,115.735,48.92,111.623,46.909,109.278z"/>
			<path fill="#A3CCC4" d="M46.37,109.123c-2.657,0.55-5.176,3.184-5.633,5.884l0.029,0.066c2.663-0.582,5.155-3.241,5.574-5.934
				L46.37,109.123z"/>
			<path fill="#A3CCC4" d="M47.548,108.168c2.913,0.973,6.861-0.146,8.822-2.502l0.011-0.08c-2.945-0.94-6.879,0.215-8.801,2.583
				L47.548,108.168z"/>
			<path fill="#A3CCC4" d="M50.543,100.168l-0.052-0.056c-2.287,1.47-3.715,4.834-3.189,7.525l-0.02,0.022
				C49.576,106.229,51.035,102.875,50.543,100.168z"/>
			<path fill="#A3CCC4" d="M43.776,101.086c0.174-0.271,0.326-0.575,0.403-0.916c0.077-0.332,0.063-0.729-0.123-0.99l0.018-0.018
				c-0.254,0.197-0.505,0.237-0.743,0.269c-0.239,0.031-0.474,0.053-0.712,0.093c-0.228,0.035-0.498,0.108-0.71,0.174
				c-0.26,0.088-0.505,0.202-0.732,0.331c-0.927,0.524-1.534,1.284-2.101,2.308v0.022l-0.005-0.001l-0.006,0.04
				c0.002,0,0.007,0.001,0.01,0.001l-0.002,0.016c1.059,0.625,2.451,0.449,3.418-0.132c0.248-0.145,0.475-0.312,0.678-0.501
				C43.411,101.57,43.592,101.354,43.776,101.086z"/>
			<path fill="#A3CCC4" d="M19.149,101.089c-0.153-0.36-0.337-0.695-0.552-1.008c-0.244-0.363-0.502-0.643-0.828-0.944
				c-0.33-0.289-0.702-0.546-1.146-0.717c-0.423-0.17-0.949-0.226-1.323-0.031l-0.025-0.024c0.224,0.372,0.234,0.719,0.241,1.047
				c0.003,0.324-0.006,0.641,0.007,0.963c0.012,0.314,0.067,0.689,0.121,0.983c0.075,0.362,0.187,0.713,0.32,1.045
				c0.551,1.342,1.456,2.299,2.72,3.257l0.029,0.003c0,0.002,0,0.002,0.002,0.005l0.052,0.015c0-0.005,0-0.007,0.004-0.012
				l0.018,0.004C19.781,104.388,19.765,102.492,19.149,101.089z"/>
			<path fill="#A3CCC4" d="M39.493,103.24c2.086,1.031,4.102,2.211,6.05,3.491c0.649,0.411,1.951,1.315,1.957,1.308
				c-0.001,0.005-1.263-0.959-1.905-1.39c-1.919-1.332-3.919-2.556-5.992-3.636c-6.662-3.512-14.142-5.577-21.679-5.604
				c-4.41-0.047-8.798,0.613-13.014,1.839l0.474,0.681c4.075-1.164,8.289-1.837,12.549-1.854
				C25.354,97.998,32.788,99.882,39.493,103.24z"/>
		</g>
		<g>
			<path fill="#A3CCC4" d="M31.824,84.412c2.938-3.235,5.445-6.769,8.025-10.244c5.106-6.985,10.048-14.099,15.963-20.347
				c5.862-6.243,12.911-11.542,21.143-14.23c0.431-0.149,0.781-0.266,0.781-0.266s-0.354,0.101-0.795,0.224
				c-8.374,2.267-15.745,7.444-21.768,13.659c-6.085,6.223-11.08,13.369-16.148,20.358c-2.555,3.474-5.046,7.034-7.888,10.224
				c-2.857,3.19-6.142,5.982-9.729,8.323c-5.035,3.295-10.597,5.635-16.308,7.596l0.343,0.495c5.699-1.903,11.282-4.181,16.391-7.43
				C25.506,90.44,28.885,87.632,31.824,84.412z"/>
		</g>
	</g>
	<g>
		<path fill="#A3CCC4" d="M30.257,73.937c0.749-2.452,1.378-5.004,1.369-7.65c-0.037-2.575-0.896-4.792-1.882-6.998l-0.007,0.001
			c0.279,2.395,0.181,4.603,0.381,6.989c0.185,2.462,0.434,4.958,0.027,7.466c-0.636,2.945-1.848,5.795-3.701,8.187v0.103
			C28.306,79.668,29.551,76.855,30.257,73.937z"/>
		<g>
			<path fill="#A3CCC4" d="M13.115,50.19l-0.104-0.02c-1.39,3.641-0.214,8.729,2.628,11.369l-0.004,0.043
				C17.064,57.975,15.938,52.879,13.115,50.19z"/>
			<path fill="#A3CCC4" d="M22.901,53.392l-0.044-0.083c-3.317,1.149-6.145,4.903-6.318,8.39l-0.032,0.021
				C19.819,60.622,22.681,56.896,22.901,53.392z"/>
			<path fill="#A3CCC4" d="M26.192,61.841l0.03-0.075c-2.676-1.604-6.848-1.381-9.322,0.49l-0.034-0.011
				C19.508,63.87,23.681,63.693,26.192,61.841z"/>
			<path fill="#A3CCC4" d="M5.816,57.256l-0.074,0.055c1.709,3.066,5.896,5.199,9.361,4.769l0.027,0.025
				C13.472,59.035,9.304,56.865,5.816,57.256z"/>
			<path fill="#A3CCC4" d="M6.325,66.298v0.086c3.063,0.587,6.906-1.046,8.594-3.652l0.031-0.004
				C11.912,62.103,8.053,63.7,6.325,66.298z"/>
			<path fill-rule="evenodd" clip-rule="evenodd" fill="#A3CCC4" d="M15.692,63.199c-0.371-0.161-0.546-0.594-0.384-0.967
				c0.163-0.374,0.594-0.543,0.971-0.384c0.37,0.159,0.54,0.594,0.381,0.965C16.498,63.19,16.065,63.361,15.692,63.199z"/>
		</g>
		<path fill="#A3CCC4" d="M39.649,43.166c-0.365-6.613,1.546-13.361,5.493-18.661c3.895-5.313,9.955-9.063,16.58-9.702
			c0.174-0.02,0.314-0.034,0.314-0.034s-0.142,0.005-0.315,0.019c-6.671,0.295-12.983,4.073-16.893,9.485
			c-3.986,5.405-5.79,12.259-5.373,18.903c0.008,0.175,0.013,0.319,0.133,0.314S39.657,43.341,39.649,43.166z"/>
		<g>
			<g>
				<path fill="#A3CCC4" d="M33.113,18.997c4.058,6.486,5.73,14.135,5.954,21.655c0.21,7.556-1.002,15.114-3.253,22.318
					c-2.273,7.195-5.632,14.076-10.159,20.12c-4.517,6.004-10.338,11.214-17.322,14.094c-0.367,0.15-0.676,0.276-0.578,0.531
					c0.096,0.255,0.373,0.036,0.743-0.119c7.104-2.866,13.058-8.065,17.702-14.092c4.655-6.057,8.134-12.991,10.465-20.269
					c2.31-7.279,3.517-14.959,3.176-22.617c-0.347-7.614-2.303-15.354-6.695-21.644c-0.232-0.327-0.421-0.597-0.421-0.597
					S32.899,18.656,33.113,18.997z"/>
			</g>
		</g>
		<g>
			<path fill="#A3CCC4" d="M27.494,10.204l0.045-0.064c2.748,1.176,4.928,4.537,4.868,7.515l0.026,0.018
				C29.683,16.54,27.473,13.198,27.494,10.204z"/>
			<path fill="#A3CCC4" d="M24.041,17.313l-0.021-0.068c2.402-1.216,5.978-0.774,7.994,0.988l0.031-0.004
				C29.671,19.467,26.092,19.058,24.041,17.313z"/>
			<path fill="#A3CCC4" d="M26.944,23.635l-0.055-0.026c0.543-2.33,2.887-4.513,5.242-4.878l0.01-0.025
				C31.629,21.031,29.307,23.235,26.944,23.635z"/>
			<path fill="#A3CCC4" d="M35.282,9.951l0.069-0.011c0.783,2.577-0.275,6.024-2.36,7.705l0.002,0.031
				C32.182,15.121,33.206,11.666,35.282,9.951z"/>
			<path fill="#A3CCC4" d="M39.997,15.053l0.049,0.046c-1.311,2.001-4.261,3.25-6.597,2.792l-0.02,0.016
				C34.706,15.897,37.646,14.622,39.997,15.053z"/>
			<circle fill-rule="evenodd" clip-rule="evenodd" fill="#A3CCC4" cx="32.767" cy="18.368" r="0.564"/>
		</g>
		<g>
			<path fill="#A3CCC4" d="M69.011,14.991l0.026-0.053c-1.859-1.19-4.813-1.123-6.605,0.144l-0.023-0.005
				C64.241,16.283,67.196,16.249,69.011,14.991z"/>
			<path fill="#A3CCC4" d="M66.107,20.05l0.052-0.016c-0.254-1.969-2.01-3.968-3.92-4.47l-0.009-0.021
				C62.46,17.508,64.193,19.522,66.107,20.05z"/>
			<path fill="#A3CCC4" d="M61.046,20.896l0.039,0.029c1.197-1.302,1.556-3.634,0.806-5.224l0.01-0.019
				C60.692,16.96,60.309,19.293,61.046,20.896z"/>
			<path fill="#A3CCC4" d="M65.939,10.136l-0.025-0.048c-1.896,0.594-3.56,2.667-3.72,4.637l-0.02,0.013
				C64.069,14.172,65.753,12.114,65.939,10.136z"/>
			<path fill="#A3CCC4" d="M60.87,9.374l-0.047-0.01c-0.681,1.63-0.219,3.949,1.031,5.185l-0.002,0.02
				C62.55,12.953,62.111,10.631,60.87,9.374z"/>
			<path fill-rule="evenodd" clip-rule="evenodd" fill="#A3CCC4" d="M61.506,14.923c0.133-0.189,0.391-0.234,0.579-0.101
				c0.189,0.133,0.231,0.39,0.102,0.58c-0.136,0.186-0.394,0.233-0.582,0.098C61.415,15.37,61.373,15.109,61.506,14.923z"/>
		</g>
		<path fill="#A3CCC4" d="M55.428,14.48c0.011-0.187,0.002-0.37-0.026-0.547c-0.029-0.21-0.08-0.383-0.158-0.581
			c-0.083-0.191-0.19-0.381-0.348-0.546c-0.148-0.159-0.363-0.292-0.566-0.288l-0.009-0.016c0.02,0.205-0.051,0.357-0.118,0.5
			c-0.068,0.14-0.14,0.274-0.201,0.415c-0.063,0.141-0.118,0.31-0.156,0.45c-0.046,0.17-0.073,0.342-0.083,0.514
			c-0.047,0.691,0.144,1.29,0.488,1.965l0.011,0.009l0.003,0l0.019,0.02c0.001-0.002,0.003-0.002,0.003-0.004l0.007,0.003
			C54.997,16.029,55.395,15.208,55.428,14.48z"/>
		<path fill="#A3CCC4" d="M52.873,19.925c-0.211-0.137-0.431-0.246-0.654-0.329c-0.264-0.105-0.499-0.157-0.78-0.195
			c-0.277-0.033-0.569-0.032-0.867,0.04c-0.286,0.073-0.583,0.235-0.71,0.48l-0.021-0.005c0.252,0.114,0.38,0.294,0.506,0.463
			c0.116,0.171,0.228,0.347,0.353,0.512c0.118,0.161,0.281,0.342,0.42,0.478c0.171,0.164,0.356,0.312,0.546,0.437
			c0.774,0.506,1.602,0.681,2.613,0.719l0.018-0.006l0,0l0.037-0.011l-0.002-0.005l0.009-0.009
			C54.401,21.444,53.708,20.442,52.873,19.925z"/>
		<path fill="#A3CCC4" d="M37.112,31.98c-1.986-2.053-5.305-3.056-7.893-1.507c0.023-0.011,0.037-0.014,0.059-0.022
			c4.939,1.156,9.876,4.163,9.872,9.825c0.012-0.029,0.018-0.039,0.032-0.06c0.057-0.24,0.104-0.483,0.144-0.725
			c0.145-0.879,0.166-1.773,0.057-2.647C39.165,35.045,38.409,33.323,37.112,31.98z"/>
		<g>
			<g>
				<g>
					<path fill="#A3CCC4" d="M23.368,33.303c5.635,2.183,9.979,6.949,12.053,12.517c2.121,5.57,2.131,11.873,0.232,17.527
						c-0.048,0.149-0.086,0.274,0.015,0.31c0.103,0.036,0.104-0.104,0.152-0.255c1.95-5.666,2.061-12.036-0.071-17.708
						c-2.063-5.66-6.619-10.514-12.372-12.399c-0.151-0.056-0.273-0.099-0.273-0.099S23.225,33.246,23.368,33.303z"/>
				</g>
			</g>
			<g>
				<path fill="#A3CCC4" d="M17.091,31.437l-0.004-0.051c1.901-0.59,4.457,0.178,5.712,1.715l0.021,0
					C20.933,33.708,18.373,32.966,17.091,31.437z"/>
				<path fill="#A3CCC4" d="M18.405,36.534l-0.043-0.024c0.697-1.654,2.706-2.97,4.486-2.947l0.014-0.016
					C22.192,35.199,20.196,36.537,18.405,36.534z"/>
				<path fill="#A3CCC4" d="M22.606,38.491l-0.043,0.011c-0.729-1.415-0.477-3.536,0.558-4.737l-0.003-0.016
					C23.86,35.149,23.632,37.273,22.606,38.491z"/>
				<path fill="#A3CCC4" d="M20.936,27.95l0.034-0.034c1.507,0.972,2.455,3.176,2.123,4.929l0.011,0.014
					C21.593,31.912,20.624,29.715,20.936,27.95z"/>
				<path fill="#A3CCC4" d="M25.532,28.509l0.043,0c0.197,1.584-0.762,3.487-2.146,4.261l-0.002,0.02
					C23.209,31.216,24.148,29.301,25.532,28.509z"/>
				<path fill-rule="evenodd" clip-rule="evenodd" fill="#A3CCC4" d="M23.644,33.184c-0.071-0.199-0.286-0.3-0.48-0.228
					c-0.194,0.069-0.297,0.284-0.229,0.48c0.072,0.195,0.286,0.297,0.483,0.226C23.612,33.591,23.712,33.378,23.644,33.184z"/>
			</g>
			<path fill="#A3CCC4" d="M28.898,34.617c0.034-0.166,0.088-0.32,0.153-0.468c0.075-0.174,0.16-0.313,0.277-0.465
				c0.115-0.147,0.254-0.291,0.432-0.395c0.167-0.104,0.39-0.168,0.565-0.11l0.009-0.014c-0.065,0.175-0.04,0.325-0.019,0.461
				c0.024,0.137,0.057,0.271,0.075,0.413c0.021,0.134,0.027,0.296,0.03,0.426c-0.003,0.162-0.022,0.319-0.052,0.471
				c-0.126,0.61-0.437,1.085-0.897,1.59l-0.014,0.003c0,0,0,0-0.002,0l-0.019,0.013c-0.003,0-0.003-0.005-0.003-0.005l-0.008,0.001
				C28.896,36.067,28.747,35.263,28.898,34.617z"/>
			<path fill="#A3CCC4" d="M29.81,39.969c0.216-0.064,0.433-0.105,0.649-0.129c0.251-0.025,0.472-0.018,0.726,0.018
				c0.248,0.041,0.502,0.112,0.742,0.247c0.232,0.13,0.454,0.345,0.505,0.585l0.021,0.004c-0.247,0.036-0.406,0.161-0.553,0.281
				c-0.144,0.119-0.28,0.242-0.429,0.359c-0.143,0.112-0.329,0.228-0.482,0.316c-0.187,0.1-0.383,0.185-0.579,0.246
				c-0.795,0.256-1.558,0.209-2.448,0.001l-0.013-0.014c0,0-0.001,0.002-0.004,0.002l-0.025-0.018c0-0.003,0.004-0.005,0.004-0.007
				l-0.008-0.006C28.115,40.925,28.959,40.22,29.81,39.969z"/>
		</g>
		<path fill="#A3CCC4" d="M33.912,46.997c-1.207-1.002-2.696-1.651-4.241-1.916c-1.547-0.298-3.23,0.1-4.46,1.099
			c-0.626,0.464-1.163,1.047-1.546,1.708c-0.414,0.733-0.724,1.532-0.744,2.454c-0.007,0.908,0.368,1.852,1.075,2.518
			c0.903,0.83,2.031,1.096,2.943,0.786c0.9-0.34,1.323-1.173,1.317-1.867l-0.011-0.001c-0.214,0.672-0.757,1.205-1.462,1.343
			c-0.669,0.115-1.562-0.155-2.271-0.809c-1.196-1.067-1.186-2.833-0.497-4.239c0.301-0.651,0.753-1.268,1.335-1.767
			c2.494-2.021,6.161-1.039,8.457,0.848c2.419,1.919,3.666,5.148,3.229,8.198l0.183,0.023C37.664,52.26,36.391,48.957,33.912,46.997
			z"/>
		<g>
			<g>
				<path fill="#A3CCC4" d="M20.158,76.501c0.01,0.016,0.012,0.026,0.021,0.04c0.036-3.715,3.302-5.655,6.554-6.381
					c0.013,0.003,0.021,0.009,0.037,0.011c-1.688-1.03-3.873-0.396-5.192,0.939C20.182,72.521,19.713,74.593,20.158,76.501z"/>
			</g>
		</g>
		<path fill="#A3CCC4" d="M17.479,72.745c-1.898-2.133-5.176-3.275-7.823-1.834c0.025-0.008,0.036-0.012,0.06-0.019
			c4.888,1.358,9.697,4.568,9.456,10.222c0.016-0.026,0.021-0.035,0.034-0.06c0.069-0.236,0.124-0.477,0.173-0.714
			c0.182-0.873,0.239-1.768,0.168-2.646C19.399,75.888,18.72,74.138,17.479,72.745z"/>
		<path fill="#A3CCC4" d="M12.742,92.335c1.637-1.997,2.65-4.499,2.861-7.084c0.223-2.621-0.971-5.292-3.023-6.901
			c-1.022-0.808-2.231-1.39-3.515-1.615c-1.268-0.284-2.681-0.08-3.78,0.636c-1.113,0.699-1.915,1.865-2.162,3.144
			c-0.335,1.286,0.304,2.737,1.473,3.346c0.694,0.363,1.639,0.515,2.306-0.022c0.618-0.457,0.998-1.522,0.335-2.113
			c-0.182-0.188-0.626-0.347-0.938-0.176c-0.315,0.171-0.317,0.495-0.326,0.479c0.009,0.014,0.033-0.305,0.339-0.452
			c0.301-0.146,0.715,0.017,0.879,0.198c0.609,0.564,0.223,1.552-0.362,1.966c-0.625,0.488-1.497,0.327-2.151-0.028
			c-1.086-0.604-1.646-1.945-1.311-3.146c0.261-1.21,1.035-2.288,2.088-2.919c2.154-1.332,4.984-0.441,6.84,1.055
			c1.922,1.547,3.001,4.063,2.784,6.513c-0.208,2.467-1.163,4.876-2.702,6.832c-0.899,1.173-2.016,2.173-3.236,3.007
			c-0.386,0.285-1.525,0.921-1.508,0.971c0.022,0.055,1.244-0.46,1.66-0.725C10.602,94.539,11.786,93.532,12.742,92.335z"/>
		<g>
			<path fill="#A3CCC4" d="M3.425,100.42c8.047-1.63,15.485-5.894,21.015-11.806c5.542-5.871,9.739-12.745,13.416-19.748
				c3.669-7.019,7.045-14.161,10.537-21.235c3.499-7.041,7.469-13.933,12.897-19.693c-5.611,5.57-9.847,12.377-13.588,19.315
				c-3.725,6.965-7.333,13.982-11.205,20.827c-3.869,6.824-8.216,13.401-13.708,18.852c-5.433,5.433-12.427,9.121-19.918,10.396l0,0
				L2.853,97.33l-0.035,0.006l-0.001,0.005c-1.298,0.295-2.614,0.524-3.94,0.702l1.896,2.714c0.887-0.085,1.771-0.198,2.653-0.34
				V100.42z"/>
		</g>
		<g>
			<path fill="#A3CCC4" d="M17.224,87.623c3.292-5.357,3.824-12.137,2.009-18.096c-0.552-1.857-1.284-3.653-2.15-5.38
				c-0.308-0.563-0.946-1.705-0.949-1.706c0,0,0.586,1.174,0.878,1.741c0.818,1.746,1.514,3.545,2.024,5.4
				c1.673,5.956,0.995,12.574-2.28,17.748c-3.226,5.202-8.614,8.768-14.431,10.505c-1.01,0.301-2.034,0.562-3.066,0.784l0.303,0.436
				c0.984-0.176,1.965-0.407,2.928-0.669C8.46,96.745,13.998,93.006,17.224,87.623z"/>
		</g>
	</g>
	<g>
		<g>
			<path fill="#A3CCC4" d="M89.796,78.388l-0.018,0.104c-3.9,0.048-8.268-2.813-9.765-6.389l-0.042-0.012
				C83.85,71.993,88.243,74.809,89.796,78.388z"/>
			<path fill="#A3CCC4" d="M90.164,68.098l0.063,0.069c-2.224,2.714-6.72,4.074-10.054,3.036l-0.033,0.024
				C82.316,68.496,86.801,67.095,90.164,68.098z"/>
			<path fill="#A3CCC4" d="M83.366,62.092l0.084-0.002c0.582,3.065-1.063,6.904-3.675,8.582l-0.003,0.033
				C79.157,67.666,80.766,63.813,83.366,62.092z"/>
			<path fill="#A3CCC4" d="M80.646,82.801l-0.08,0.048c-2.289-2.661-2.846-7.326-1.244-10.43l-0.018-0.035
				C81.614,75.001,82.216,79.661,80.646,82.801z"/>
			<path fill="#A3CCC4" d="M72.332,79.204l-0.078-0.028c0.505-3.08,3.363-6.124,6.391-6.808l0.015-0.032
				C78.197,75.406,75.366,78.478,72.332,79.204z"/>
			<circle fill-rule="evenodd" clip-rule="evenodd" fill="#A3CCC4" cx="79.206" cy="71.438" r="0.736"/>
		</g>
		<g>
			<g>
				<path fill="#A3CCC4" d="M67.528,62.696c-0.014-0.011-0.019-0.017-0.032-0.032c3.504,1.251,6.449-1.147,8.252-3.945
					c0-0.018,0.001-0.025,0-0.043c0.389,1.942-0.963,3.775-2.669,4.553C71.271,64.052,69.164,63.776,67.528,62.696z"/>
			</g>
		</g>
		<path fill="#A3CCC4" d="M70.131,66.511c1.346,2.517,1.287,5.984-0.976,7.974c0.015-0.019,0.021-0.028,0.035-0.048
			c0.408-5.057-0.943-10.678-6.331-12.403c0.028-0.001,0.039-0.006,0.064-0.013c0.246,0.019,0.491,0.049,0.733,0.087
			c0.88,0.131,1.737,0.385,2.535,0.754C67.841,63.619,69.249,64.864,70.131,66.511z"/>
		<g>
			<path fill="#A3CCC4" d="M56.075,61.616c6.166-1.239,12.709,0.601,17.682,4.356c1.551,1.158,2.983,2.468,4.307,3.876
				c0.42,0.48,1.274,1.476,1.271,1.479c0,0-0.898-0.956-1.33-1.425c-1.354-1.371-2.806-2.646-4.369-3.761
				c-5.018-3.629-11.463-5.277-17.448-3.986c-5.991,1.233-11.199,5.06-14.836,9.925c-0.632,0.843-1.23,1.714-1.795,2.606
				l-0.303-0.436c0.506-0.863,1.056-1.703,1.639-2.516C44.489,66.692,49.91,62.789,56.075,61.616z"/>
		</g>
	</g>
	<g>
		<g>
			<path fill="#A3CCC4" d="M20.396,61.914c-0.172,0.119-0.403,0.076-0.522-0.093c-0.122-0.174-0.078-0.402,0.091-0.522
				c0.171-0.119,0.406-0.08,0.524,0.094C20.608,61.561,20.564,61.795,20.396,61.914z M20.359,61.865
				c0.142-0.103,0.177-0.296,0.077-0.438c-0.099-0.145-0.293-0.177-0.438-0.079c-0.142,0.102-0.177,0.296-0.077,0.438
				S20.218,61.962,20.359,61.865z"/>
		</g>
		<g>
			<path fill="#A3CCC4" d="M22.031,63.153c-0.192,0.135-0.453,0.088-0.589-0.105c-0.132-0.19-0.088-0.455,0.105-0.586
				c0.19-0.137,0.456-0.087,0.589,0.104C22.27,62.757,22.223,63.021,22.031,63.153z M21.992,63.095
				c0.158-0.109,0.198-0.328,0.088-0.489c-0.113-0.161-0.332-0.2-0.492-0.09c-0.161,0.115-0.201,0.334-0.087,0.493
				C21.612,63.172,21.832,63.209,21.992,63.095z"/>
		</g>
		<g>
			<path fill="#A3CCC4" d="M19.53,65.568c-0.146,0.104-0.353,0.069-0.457-0.081c-0.105-0.153-0.067-0.356,0.082-0.46
				c0.15-0.104,0.354-0.068,0.46,0.082C19.719,65.258,19.681,65.462,19.53,65.568z M19.5,65.522
				c0.126-0.086,0.157-0.258,0.069-0.383c-0.087-0.127-0.259-0.155-0.383-0.066c-0.126,0.089-0.158,0.258-0.069,0.383
				C19.205,65.581,19.375,65.608,19.5,65.522z"/>
		</g>
		<g>
			<path fill="#A3CCC4" d="M21.738,66.525c-0.099,0.068-0.235,0.044-0.304-0.056c-0.068-0.099-0.044-0.235,0.054-0.304
				c0.101-0.07,0.234-0.048,0.306,0.053C21.862,66.32,21.838,66.454,21.738,66.525z M21.719,66.493
				c0.081-0.058,0.103-0.169,0.045-0.254c-0.058-0.082-0.171-0.101-0.254-0.043c-0.084,0.06-0.103,0.169-0.045,0.254
				C21.522,66.534,21.634,66.553,21.719,66.493z"/>
		</g>
		<g>
			<path fill="#A3CCC4" d="M19.75,68.259c-0.151,0.102-0.354,0.065-0.46-0.082c-0.104-0.149-0.066-0.355,0.082-0.458
				c0.149-0.105,0.354-0.07,0.458,0.08C19.934,67.948,19.898,68.152,19.75,68.259z M19.72,68.215
				c0.122-0.088,0.152-0.263,0.067-0.386c-0.087-0.122-0.259-0.155-0.384-0.065c-0.125,0.085-0.155,0.257-0.068,0.383
				C19.421,68.269,19.595,68.301,19.72,68.215z"/>
		</g>
		<g>
			<path fill="#A3CCC4" d="M21.221,69.495c-0.177,0.124-0.424,0.081-0.547-0.098c-0.124-0.178-0.082-0.424,0.096-0.547
				c0.18-0.127,0.426-0.082,0.55,0.096C21.445,69.125,21.4,69.371,21.221,69.495z M21.186,69.445
				c0.146-0.105,0.184-0.314,0.079-0.462s-0.308-0.183-0.458-0.079c-0.146,0.104-0.185,0.308-0.081,0.455
				C20.83,69.506,21.036,69.548,21.186,69.445z"/>
		</g>
		<g>
			<path fill="#A3CCC4" d="M22.676,70.457c-0.065,0.044-0.157,0.03-0.204-0.038c-0.049-0.068-0.031-0.161,0.036-0.207
				c0.065-0.049,0.157-0.032,0.206,0.037C22.761,70.316,22.743,70.407,22.676,70.457z M22.662,70.436
				c0.055-0.04,0.07-0.117,0.03-0.175c-0.037-0.055-0.114-0.067-0.171-0.026c-0.055,0.037-0.07,0.114-0.03,0.169
				C22.528,70.46,22.604,70.476,22.662,70.436z"/>
		</g>
		<g>
			<path fill="#A3CCC4" d="M21.886,73.311c-0.11,0.077-0.265,0.05-0.342-0.062c-0.078-0.109-0.05-0.262,0.062-0.339
				c0.112-0.079,0.264-0.052,0.341,0.058C22.023,73.079,21.998,73.233,21.886,73.311z M21.862,73.278
				c0.093-0.064,0.115-0.19,0.049-0.286c-0.063-0.093-0.191-0.113-0.281-0.049c-0.095,0.066-0.117,0.19-0.055,0.283
				C21.643,73.319,21.77,73.342,21.862,73.278z"/>
		</g>
		<g>
			<path fill="#A3CCC4" d="M23.229,75.723c-0.074,0.05-0.179,0.032-0.229-0.044c-0.053-0.074-0.035-0.176,0.042-0.229
				c0.073-0.054,0.175-0.033,0.229,0.041C23.319,75.563,23.305,75.669,23.229,75.723z M23.213,75.7
				c0.063-0.045,0.076-0.134,0.034-0.194c-0.044-0.063-0.129-0.076-0.191-0.031c-0.063,0.041-0.078,0.126-0.034,0.188
				C23.063,75.726,23.149,75.742,23.213,75.7z"/>
		</g>
		<g>
			<path fill="#A3CCC4" d="M22.191,77.217c-0.19,0.136-0.456,0.086-0.589-0.104c-0.135-0.193-0.086-0.454,0.104-0.588
				c0.194-0.134,0.455-0.09,0.591,0.106C22.429,76.82,22.384,77.085,22.191,77.217z M22.151,77.159
				c0.161-0.112,0.198-0.331,0.087-0.489c-0.112-0.163-0.328-0.2-0.491-0.09c-0.159,0.115-0.198,0.331-0.085,0.493
				C21.772,77.23,21.991,77.273,22.151,77.159z"/>
		</g>
		<g>
			<path fill="#A3CCC4" d="M24.54,79.534c-0.194,0.138-0.46,0.091-0.595-0.105c-0.138-0.193-0.088-0.459,0.105-0.592
				c0.193-0.138,0.457-0.09,0.595,0.104C24.779,79.134,24.733,79.402,24.54,79.534z M24.499,79.48
				c0.161-0.116,0.199-0.341,0.086-0.498c-0.11-0.163-0.334-0.201-0.494-0.09c-0.161,0.115-0.201,0.334-0.089,0.496
				C24.115,79.55,24.339,79.591,24.499,79.48z"/>
		</g>
		<g>
			<path fill="#A3CCC4" d="M21.335,80.383c-0.048,0.033-0.113,0.022-0.146-0.024c-0.035-0.052-0.021-0.116,0.025-0.146
				c0.049-0.035,0.113-0.024,0.146,0.024C21.394,80.286,21.382,80.351,21.335,80.383z M21.325,80.367
				c0.038-0.029,0.048-0.081,0.021-0.122c-0.029-0.038-0.083-0.049-0.124-0.022c-0.041,0.029-0.049,0.083-0.021,0.124
				C21.229,80.385,21.284,80.396,21.325,80.367z"/>
		</g>
		<g>
			<path fill="#A3CCC4" d="M21.796,81.425c-0.097,0.065-0.226,0.043-0.291-0.052c-0.067-0.097-0.046-0.228,0.049-0.295
				c0.096-0.065,0.227-0.04,0.294,0.054C21.914,81.227,21.891,81.357,21.796,81.425z M21.774,81.397
				c0.083-0.058,0.099-0.167,0.043-0.244c-0.053-0.081-0.165-0.103-0.243-0.044c-0.079,0.053-0.095,0.165-0.042,0.242
				C21.587,81.43,21.696,81.452,21.774,81.397z"/>
		</g>
		<g>
			<path fill="#A3CCC4" d="M22.446,83.181c-0.193,0.136-0.463,0.086-0.6-0.107c-0.135-0.194-0.085-0.462,0.107-0.597
				c0.193-0.136,0.463-0.088,0.598,0.105C22.688,82.774,22.642,83.044,22.446,83.181z M22.404,83.121
				c0.163-0.115,0.203-0.334,0.09-0.5c-0.112-0.16-0.337-0.201-0.499-0.088c-0.161,0.115-0.202,0.339-0.089,0.5
				C22.021,83.193,22.243,83.233,22.404,83.121z"/>
		</g>
		<g>
			<path fill="#A3CCC4" d="M22.97,85.79c-0.093,0.064-0.219,0.044-0.283-0.048c-0.064-0.096-0.044-0.223,0.051-0.286
				c0.091-0.065,0.218-0.041,0.282,0.051C23.086,85.6,23.063,85.726,22.97,85.79z M22.952,85.763
				c0.076-0.052,0.095-0.162,0.042-0.238c-0.056-0.076-0.16-0.093-0.238-0.041c-0.077,0.055-0.095,0.16-0.042,0.237
				C22.768,85.795,22.873,85.815,22.952,85.763z"/>
		</g>
		<g>
			<path fill="#A3CCC4" d="M20.301,87.435c-0.114,0.08-0.273,0.054-0.355-0.063c-0.082-0.116-0.054-0.276,0.061-0.355
				c0.12-0.079,0.279-0.054,0.359,0.061C20.446,87.196,20.417,87.355,20.301,87.435z M20.279,87.402
				c0.096-0.071,0.118-0.203,0.053-0.301c-0.071-0.096-0.203-0.12-0.301-0.053c-0.097,0.068-0.119,0.2-0.054,0.298
				C20.046,87.444,20.179,87.468,20.279,87.402z"/>
		</g>
		<g>
			<path fill="#A3CCC4" d="M19.257,88.651c-0.12,0.084-0.287,0.057-0.371-0.063c-0.084-0.122-0.055-0.289,0.068-0.373
				c0.12-0.084,0.287-0.055,0.371,0.068C19.409,88.403,19.38,88.567,19.257,88.651z M19.232,88.618
				c0.101-0.07,0.125-0.21,0.057-0.311c-0.071-0.102-0.21-0.125-0.311-0.055c-0.102,0.068-0.125,0.21-0.054,0.309
				C18.992,88.662,19.132,88.689,19.232,88.618z"/>
		</g>
		<g>
			<path fill="#A3CCC4" d="M18.219,89.71c-0.186,0.131-0.441,0.085-0.57-0.098c-0.128-0.188-0.085-0.444,0.102-0.571
				c0.185-0.131,0.441-0.085,0.571,0.103C18.45,89.326,18.403,89.583,18.219,89.71z M18.182,89.656
				c0.155-0.108,0.19-0.32,0.085-0.475c-0.108-0.155-0.322-0.195-0.478-0.087c-0.155,0.111-0.191,0.323-0.083,0.479
				S18.023,89.765,18.182,89.656z"/>
		</g>
		<g>
			<path fill="#A3CCC4" d="M17.294,91.323c-0.111,0.08-0.266,0.055-0.344-0.058c-0.077-0.111-0.049-0.265,0.063-0.34
				c0.112-0.08,0.264-0.055,0.341,0.06C17.434,91.095,17.403,91.249,17.294,91.323z M17.271,91.296
				c0.091-0.067,0.113-0.196,0.049-0.289c-0.065-0.092-0.193-0.116-0.283-0.049c-0.095,0.064-0.117,0.19-0.054,0.283
				C17.05,91.335,17.177,91.357,17.271,91.296z"/>
		</g>
		<g>
			<path fill="#A3CCC4" d="M14.649,91.567c-0.095,0.067-0.223,0.047-0.285-0.048c-0.067-0.094-0.044-0.22,0.051-0.286
				c0.093-0.064,0.219-0.041,0.285,0.051C14.765,91.377,14.742,91.507,14.649,91.567z M14.629,91.543
				c0.079-0.055,0.098-0.162,0.045-0.237c-0.056-0.08-0.162-0.102-0.241-0.046s-0.098,0.162-0.043,0.241
				C14.443,91.577,14.553,91.6,14.629,91.543z"/>
		</g>
		<g>
			<path fill="#A3CCC4" d="M13.298,92.349c-0.084,0.057-0.199,0.035-0.257-0.047c-0.058-0.081-0.038-0.198,0.044-0.256
				c0.084-0.061,0.199-0.039,0.256,0.046C13.401,92.174,13.379,92.291,13.298,92.349z M13.279,92.324
				c0.071-0.052,0.087-0.146,0.038-0.218c-0.047-0.065-0.144-0.085-0.215-0.036c-0.067,0.049-0.083,0.146-0.036,0.214
				C13.114,92.355,13.209,92.37,13.279,92.324z"/>
		</g>
	</g>
	<g>
		<g>
			<path fill="#A3CCC4" d="M61.319,24.751c-0.132,0.108-0.327,0.088-0.435-0.044c-0.111-0.135-0.089-0.33,0.044-0.438
				c0.132-0.108,0.327-0.091,0.435,0.046C61.473,24.445,61.452,24.643,61.319,24.751z M61.286,24.709
				c0.113-0.092,0.129-0.252,0.039-0.366c-0.09-0.107-0.255-0.127-0.363-0.034c-0.113,0.09-0.13,0.252-0.039,0.363
				C61.013,24.783,61.178,24.803,61.286,24.709z"/>
		</g>
		<g>
			<path fill="#A3CCC4" d="M59.165,25.214c-0.138,0.11-0.341,0.09-0.454-0.048c-0.109-0.138-0.09-0.335,0.049-0.451
				c0.135-0.111,0.337-0.088,0.45,0.048C59.32,24.901,59.3,25.099,59.165,25.214z M59.131,25.173c0.113-0.095,0.13-0.26,0.038-0.376
				c-0.095-0.116-0.263-0.132-0.379-0.038c-0.113,0.095-0.13,0.26-0.037,0.376C58.847,25.251,59.016,25.265,59.131,25.173z"/>
		</g>
		<g>
			<path fill="#A3CCC4" d="M59.265,27.612c-0.187,0.148-0.458,0.121-0.611-0.064c-0.15-0.185-0.123-0.46,0.064-0.608
				c0.185-0.153,0.457-0.126,0.608,0.059C59.48,27.186,59.45,27.458,59.265,27.612z M59.22,27.557
				c0.154-0.129,0.178-0.356,0.052-0.514c-0.124-0.152-0.354-0.175-0.509-0.049c-0.154,0.126-0.18,0.352-0.054,0.508
				C58.838,27.66,59.063,27.68,59.22,27.557z"/>
		</g>
		<g>
			<path fill="#A3CCC4" d="M55.698,27.89c-0.124,0.104-0.305,0.085-0.406-0.041c-0.099-0.122-0.08-0.302,0.041-0.406
				c0.123-0.096,0.305-0.081,0.405,0.046C55.837,27.61,55.822,27.791,55.698,27.89z M55.666,27.854
				c0.105-0.083,0.12-0.234,0.034-0.338c-0.084-0.102-0.233-0.115-0.338-0.034c-0.103,0.085-0.117,0.234-0.034,0.338
				C55.414,27.922,55.563,27.938,55.666,27.854z"/>
		</g>
		<g>
			<path fill="#A3CCC4" d="M54.386,30.76c-0.218,0.175-0.54,0.143-0.719-0.075c-0.18-0.219-0.146-0.544,0.073-0.72
				c0.22-0.18,0.544-0.147,0.722,0.073C54.639,30.259,54.606,30.579,54.386,30.76z M54.332,30.691
				c0.185-0.148,0.212-0.417,0.063-0.601c-0.15-0.185-0.419-0.212-0.602-0.058c-0.185,0.146-0.212,0.417-0.061,0.602
				C53.882,30.815,54.15,30.842,54.332,30.691z"/>
		</g>
		<g>
			<path fill="#A3CCC4" d="M54.348,32.346c-0.248,0.205-0.614,0.168-0.816-0.083c-0.203-0.248-0.166-0.614,0.082-0.817
				c0.251-0.202,0.616-0.166,0.819,0.083C54.636,31.777,54.599,32.143,54.348,32.346z M54.287,32.271
				c0.207-0.169,0.24-0.474,0.071-0.681c-0.17-0.207-0.475-0.238-0.684-0.071c-0.208,0.171-0.238,0.477-0.069,0.687
				C53.774,32.412,54.08,32.44,54.287,32.271z"/>
		</g>
		<g>
			<path fill="#A3CCC4" d="M51.823,32.48c-0.221,0.176-0.541,0.144-0.72-0.075c-0.175-0.215-0.145-0.539,0.075-0.716
				c0.219-0.178,0.539-0.146,0.715,0.072C52.073,31.979,52.041,32.303,51.823,32.48z M51.77,32.415
				c0.182-0.149,0.209-0.417,0.061-0.599c-0.149-0.183-0.417-0.212-0.6-0.063c-0.182,0.148-0.209,0.419-0.061,0.601
				C51.319,32.536,51.587,32.563,51.77,32.415z"/>
		</g>
		<g>
			<path fill="#A3CCC4" d="M50.855,34.322c-0.182,0.149-0.448,0.122-0.597-0.061c-0.146-0.182-0.119-0.447,0.063-0.596
				c0.18-0.147,0.447-0.117,0.595,0.063C51.062,33.908,51.034,34.176,50.855,34.322z M50.811,34.267
				c0.151-0.122,0.174-0.342,0.05-0.496c-0.121-0.149-0.345-0.172-0.496-0.05c-0.151,0.121-0.174,0.346-0.05,0.496
				C50.438,34.371,50.658,34.394,50.811,34.267z"/>
		</g>
		<g>
			<path fill="#A3CCC4" d="M51.862,36.438c-0.053,0.045-0.128,0.035-0.171-0.017c-0.043-0.05-0.035-0.128,0.018-0.17
				c0.052-0.041,0.13-0.033,0.171,0.017C51.923,36.32,51.915,36.398,51.862,36.438z M51.849,36.424
				c0.045-0.039,0.051-0.099,0.017-0.143c-0.035-0.044-0.101-0.051-0.143-0.014c-0.044,0.036-0.053,0.096-0.015,0.143
				C51.742,36.452,51.808,36.458,51.849,36.424z"/>
		</g>
		<g>
			<path fill="#A3CCC4" d="M50.176,37.395c-0.204,0.169-0.505,0.139-0.673-0.07c-0.167-0.205-0.137-0.505,0.067-0.672
				c0.204-0.169,0.507-0.139,0.674,0.068C50.411,36.925,50.381,37.226,50.176,37.395z M50.126,37.334
				c0.171-0.139,0.197-0.393,0.057-0.563c-0.142-0.171-0.392-0.197-0.563-0.057c-0.171,0.14-0.196,0.391-0.057,0.562
				C49.702,37.448,49.953,37.474,50.126,37.334z"/>
		</g>
		<g>
			<path fill="#A3CCC4" d="M48.862,39.614c-0.134,0.113-0.334,0.092-0.444-0.042c-0.11-0.135-0.09-0.336,0.045-0.446
				c0.136-0.111,0.333-0.091,0.445,0.045C49.02,39.306,48.999,39.506,48.862,39.614z M48.83,39.575
				c0.112-0.09,0.132-0.258,0.038-0.371c-0.091-0.116-0.258-0.133-0.371-0.042c-0.113,0.095-0.131,0.265-0.038,0.375
				C48.552,39.648,48.718,39.666,48.83,39.575z"/>
		</g>
		<g>
			<path fill="#A3CCC4" d="M49.315,42.418c-0.148,0.122-0.364,0.098-0.486-0.049c-0.121-0.148-0.098-0.364,0.051-0.483
				c0.146-0.119,0.365-0.1,0.484,0.049C49.483,42.081,49.462,42.297,49.315,42.418z M49.279,42.375
				c0.121-0.099,0.14-0.279,0.041-0.406c-0.102-0.122-0.279-0.14-0.406-0.039c-0.121,0.097-0.14,0.283-0.041,0.404
				C48.975,42.455,49.155,42.474,49.279,42.375z"/>
		</g>
		<g>
			<path fill="#A3CCC4" d="M47.111,43.75c-0.164,0.13-0.399,0.109-0.532-0.054c-0.133-0.16-0.108-0.4,0.054-0.531
				s0.397-0.107,0.532,0.053C47.294,43.382,47.271,43.62,47.111,43.75z M47.069,43.701c0.136-0.108,0.157-0.303,0.045-0.441
				c-0.108-0.132-0.306-0.152-0.441-0.044c-0.134,0.108-0.154,0.309-0.044,0.441C46.736,43.793,46.937,43.814,47.069,43.701z"/>
		</g>
		<g>
			<path fill="#A3CCC4" d="M46.626,46.803c-0.085,0.064-0.208,0.052-0.276-0.031c-0.066-0.083-0.055-0.203,0.03-0.271
				c0.081-0.07,0.203-0.058,0.271,0.025C46.719,46.612,46.706,46.732,46.626,46.803z M46.603,46.775
				c0.07-0.057,0.08-0.157,0.026-0.228c-0.059-0.069-0.162-0.077-0.23-0.023c-0.069,0.059-0.08,0.159-0.022,0.228
				C46.432,46.821,46.534,46.833,46.603,46.775z"/>
		</g>
		<g>
			<path fill="#A3CCC4" d="M44.544,47.542c-0.232,0.194-0.58,0.156-0.774-0.081c-0.191-0.235-0.153-0.581,0.078-0.774
				c0.24-0.188,0.585-0.154,0.777,0.081C44.816,47.002,44.783,47.351,44.544,47.542z M44.488,47.471
				c0.195-0.158,0.227-0.449,0.065-0.647c-0.16-0.196-0.448-0.225-0.647-0.065c-0.195,0.16-0.225,0.45-0.065,0.646
				C44.001,47.601,44.292,47.633,44.488,47.471z"/>
		</g>
		<g>
			<path fill="#A3CCC4" d="M42.551,48.105c-0.104,0.083-0.257,0.068-0.343-0.035c-0.083-0.104-0.067-0.257,0.037-0.343
				c0.102-0.083,0.254-0.068,0.34,0.037C42.669,47.867,42.653,48.019,42.551,48.105z M42.523,48.072
				c0.086-0.072,0.102-0.197,0.028-0.283c-0.069-0.085-0.196-0.104-0.282-0.031c-0.086,0.073-0.099,0.2-0.028,0.286
				C42.311,48.129,42.438,48.145,42.523,48.072z"/>
		</g>
		<g>
			<path fill="#A3CCC4" d="M44.217,51.167c-0.243,0.198-0.602,0.165-0.802-0.083c-0.198-0.243-0.162-0.601,0.08-0.802
				c0.246-0.198,0.604-0.162,0.805,0.081C44.498,50.607,44.46,50.966,44.217,51.167z M44.155,51.092
				c0.205-0.167,0.237-0.465,0.07-0.669c-0.167-0.201-0.465-0.234-0.669-0.067c-0.204,0.167-0.234,0.465-0.069,0.669
				C43.653,51.229,43.954,51.259,44.155,51.092z"/>
		</g>
		<g>
			<path fill="#A3CCC4" d="M41.181,53.333c-0.144,0.119-0.356,0.095-0.477-0.048c-0.117-0.143-0.096-0.356,0.048-0.476
				c0.146-0.117,0.359-0.095,0.477,0.048C41.347,53.003,41.325,53.216,41.181,53.333z M41.147,53.289
				c0.119-0.096,0.137-0.274,0.037-0.396c-0.097-0.121-0.274-0.139-0.396-0.04c-0.119,0.1-0.137,0.275-0.04,0.396
				C40.848,53.371,41.023,53.388,41.147,53.289z"/>
		</g>
		<g>
			<path fill="#A3CCC4" d="M42.213,57.386c-0.177,0.145-0.435,0.116-0.576-0.058c-0.143-0.174-0.116-0.432,0.058-0.576
				c0.177-0.14,0.433-0.116,0.576,0.06C42.412,56.986,42.386,57.247,42.213,57.386z M42.17,57.336
				c0.144-0.122,0.165-0.335,0.048-0.481c-0.119-0.144-0.332-0.165-0.48-0.048c-0.146,0.117-0.165,0.333-0.048,0.479
				C41.806,57.431,42.021,57.453,42.17,57.336z"/>
		</g>
		<g>
			<path fill="#A3CCC4" d="M40.981,59.459c-0.161,0.135-0.399,0.109-0.532-0.054c-0.13-0.16-0.104-0.395,0.054-0.528
				c0.162-0.131,0.398-0.109,0.531,0.053S41.141,59.328,40.981,59.459z M40.94,59.412c0.135-0.11,0.155-0.306,0.045-0.443
				c-0.108-0.133-0.307-0.153-0.441-0.042c-0.136,0.108-0.155,0.306-0.045,0.443C40.606,59.501,40.808,59.522,40.94,59.412z"/>
		</g>
		<g>
			<path fill="#A3CCC4" d="M39.822,60.365c-0.104,0.083-0.255,0.064-0.34-0.034c-0.083-0.103-0.067-0.255,0.034-0.338
				c0.103-0.084,0.256-0.069,0.336,0.036C39.938,60.128,39.924,60.279,39.822,60.365z M39.795,60.332
				c0.085-0.067,0.1-0.193,0.03-0.279c-0.07-0.085-0.195-0.098-0.283-0.03c-0.082,0.072-0.096,0.199-0.026,0.286
				C39.584,60.392,39.711,60.405,39.795,60.332z"/>
		</g>
		<g>
			<path fill="#A3CCC4" d="M35.765,61.313c-0.09,0.071-0.224,0.063-0.301-0.03c-0.074-0.094-0.058-0.226,0.03-0.302
				c0.091-0.076,0.227-0.058,0.302,0.03C35.869,61.104,35.855,61.241,35.765,61.313z M35.742,61.284
				c0.075-0.063,0.088-0.174,0.028-0.25c-0.065-0.077-0.177-0.089-0.254-0.025c-0.075,0.063-0.086,0.174-0.025,0.25
				C35.553,61.334,35.667,61.348,35.742,61.284z"/>
		</g>
		<g>
			<path fill="#A3CCC4" d="M33.306,63.211c-0.083,0.067-0.208,0.055-0.276-0.028c-0.071-0.088-0.058-0.21,0.028-0.28
				c0.085-0.067,0.209-0.055,0.276,0.027C33.406,63.019,33.391,63.141,33.306,63.211z M33.287,63.187
				c0.067-0.062,0.08-0.165,0.021-0.233c-0.057-0.068-0.161-0.082-0.23-0.023s-0.083,0.162-0.022,0.23
				C33.111,63.231,33.214,63.242,33.287,63.187z"/>
		</g>
		<g>
			<path fill="#A3CCC4" d="M32.328,64.925c-0.053,0.04-0.127,0.033-0.171-0.017c-0.041-0.051-0.033-0.125,0.018-0.171
				c0.053-0.04,0.127-0.032,0.17,0.017C32.388,64.81,32.377,64.884,32.328,64.925z M32.313,64.908
				c0.045-0.034,0.051-0.096,0.015-0.14c-0.033-0.042-0.097-0.049-0.141-0.015c-0.043,0.036-0.05,0.102-0.014,0.143
				S32.272,64.944,32.313,64.908z"/>
		</g>
		<g>
			<path fill="#A3CCC4" d="M29.599,66.629c-0.151,0.124-0.379,0.102-0.503-0.051c-0.124-0.153-0.101-0.379,0.054-0.506
				c0.151-0.121,0.376-0.099,0.5,0.054C29.774,66.277,29.754,66.505,29.599,66.629z M29.563,66.582
				c0.127-0.103,0.146-0.291,0.042-0.418c-0.104-0.127-0.291-0.146-0.419-0.042c-0.129,0.103-0.147,0.291-0.043,0.416
				C29.249,66.67,29.435,66.686,29.563,66.582z"/>
		</g>
	</g>
	<g>
		<g>
			<path fill="#A3CCC4" d="M45.173,98.508c-0.158,0.09-0.361,0.034-0.454-0.124c-0.087-0.158-0.031-0.36,0.128-0.453
				c0.157-0.088,0.359-0.035,0.45,0.123C45.39,98.216,45.333,98.417,45.173,98.508z M45.147,98.459
				c0.131-0.075,0.179-0.245,0.101-0.376c-0.075-0.133-0.242-0.18-0.374-0.104c-0.137,0.074-0.18,0.245-0.106,0.376
				C44.845,98.489,45.013,98.535,45.147,98.459z"/>
		</g>
		<g>
			<path fill="#A3CCC4" d="M43.343,98.83c-0.056,0.031-0.126,0.012-0.157-0.042c-0.03-0.054-0.013-0.128,0.043-0.157
				s0.125-0.013,0.156,0.043C43.416,98.729,43.396,98.799,43.343,98.83z M43.334,98.813c0.044-0.026,0.06-0.086,0.034-0.133
				c-0.026-0.043-0.082-0.06-0.131-0.034c-0.045,0.026-0.059,0.085-0.036,0.131C43.227,98.823,43.286,98.839,43.334,98.813z"/>
		</g>
		<g>
			<path fill="#A3CCC4" d="M42.165,95.8c-0.202,0.116-0.456,0.046-0.568-0.156c-0.115-0.199-0.046-0.452,0.155-0.566
				s0.454-0.043,0.568,0.156C42.436,95.433,42.363,95.688,42.165,95.8z M42.13,95.74c0.167-0.094,0.224-0.306,0.132-0.476
				c-0.098-0.164-0.309-0.225-0.475-0.128c-0.17,0.097-0.227,0.309-0.132,0.476C41.753,95.778,41.964,95.836,42.13,95.74z"/>
		</g>
		<g>
			<path fill="#A3CCC4" d="M40.271,96.52c-0.133,0.078-0.3,0.031-0.378-0.104c-0.075-0.129-0.027-0.299,0.104-0.374
				c0.135-0.075,0.303-0.03,0.378,0.102C40.452,96.278,40.404,96.448,40.271,96.52z M40.249,96.48
				c0.11-0.063,0.146-0.201,0.087-0.313c-0.065-0.112-0.206-0.147-0.314-0.088c-0.111,0.065-0.15,0.206-0.088,0.315
				C39.996,96.505,40.138,96.545,40.249,96.48z"/>
		</g>
		<g>
			<path fill="#A3CCC4" d="M38.669,97.756c-0.205,0.116-0.469,0.044-0.588-0.163c-0.121-0.208-0.047-0.47,0.16-0.589
				c0.208-0.118,0.471-0.043,0.589,0.161C38.948,97.371,38.877,97.635,38.669,97.756z M38.633,97.691
				c0.175-0.099,0.235-0.317,0.136-0.492c-0.1-0.173-0.318-0.232-0.49-0.133c-0.174,0.096-0.234,0.317-0.138,0.489
				C38.242,97.73,38.461,97.79,38.633,97.691z"/>
		</g>
		<g>
			<path fill="#A3CCC4" d="M38.083,95.889c-0.193,0.113-0.438,0.048-0.546-0.147c-0.11-0.194-0.043-0.438,0.151-0.548
				c0.19-0.109,0.434-0.044,0.546,0.149C38.345,95.536,38.276,95.78,38.083,95.889z M38.051,95.833
				c0.161-0.09,0.217-0.294,0.127-0.455c-0.095-0.164-0.297-0.218-0.458-0.127c-0.163,0.092-0.218,0.297-0.127,0.457
				C37.683,95.869,37.89,95.926,38.051,95.833z"/>
		</g>
		<g>
			<path fill="#A3CCC4" d="M36.395,94.284c-0.19,0.107-0.432,0.04-0.539-0.15c-0.107-0.188-0.04-0.427,0.148-0.534
				c0.188-0.113,0.431-0.043,0.538,0.145C36.65,93.933,36.582,94.176,36.395,94.284z M36.362,94.228
				c0.156-0.093,0.212-0.293,0.124-0.451c-0.093-0.158-0.293-0.214-0.451-0.123c-0.158,0.09-0.214,0.292-0.123,0.448
				C36.003,94.262,36.204,94.315,36.362,94.228z"/>
		</g>
		<g>
			<path fill="#A3CCC4" d="M34.995,94.465c-0.202,0.116-0.463,0.045-0.582-0.16c-0.116-0.204-0.044-0.466,0.16-0.581
				c0.206-0.116,0.465-0.045,0.581,0.159S35.201,94.348,34.995,94.465z M34.962,94.405c0.171-0.1,0.229-0.316,0.133-0.488
				c-0.097-0.171-0.315-0.229-0.485-0.132c-0.171,0.097-0.23,0.313-0.134,0.485C34.574,94.442,34.791,94.499,34.962,94.405z"/>
		</g>
		<g>
			<path fill="#A3CCC4" d="M32.29,94.603c-0.075,0.042-0.169,0.018-0.212-0.058s-0.018-0.174,0.057-0.212
				c0.078-0.046,0.172-0.018,0.214,0.058C32.393,94.463,32.367,94.56,32.29,94.603z M32.277,94.58
				c0.063-0.033,0.087-0.117,0.051-0.179c-0.036-0.063-0.118-0.086-0.178-0.049c-0.064,0.037-0.085,0.115-0.051,0.18
				C32.137,94.592,32.216,94.614,32.277,94.58z"/>
		</g>
		<g>
			<path fill="#A3CCC4" d="M30.435,93.848c-0.102,0.061-0.234,0.021-0.296-0.08c-0.058-0.103-0.021-0.235,0.081-0.296
				c0.104-0.055,0.237-0.019,0.293,0.08C30.572,93.66,30.537,93.79,30.435,93.848z M30.417,93.817
				c0.084-0.049,0.115-0.157,0.065-0.245c-0.049-0.087-0.157-0.115-0.243-0.068c-0.089,0.053-0.117,0.16-0.068,0.247
				C30.218,93.836,30.329,93.868,30.417,93.817z"/>
		</g>
		<g>
			<path fill="#A3CCC4" d="M28.87,92.624c-0.153,0.089-0.352,0.035-0.437-0.117c-0.088-0.155-0.032-0.35,0.12-0.438
				c0.153-0.088,0.348-0.036,0.436,0.12C29.078,92.342,29.022,92.539,28.87,92.624z M28.844,92.581
				c0.13-0.075,0.174-0.238,0.1-0.366c-0.072-0.129-0.235-0.174-0.364-0.098c-0.129,0.072-0.174,0.235-0.1,0.363
				C28.553,92.605,28.715,92.652,28.844,92.581z"/>
		</g>
		<g>
			<path fill="#A3CCC4" d="M26.824,92.628c-0.118,0.066-0.269,0.026-0.335-0.095c-0.066-0.115-0.026-0.266,0.093-0.332
				c0.117-0.066,0.268-0.026,0.334,0.092C26.98,92.411,26.942,92.56,26.824,92.628z M26.806,92.591
				c0.097-0.056,0.129-0.18,0.073-0.278c-0.057-0.097-0.18-0.132-0.278-0.076c-0.097,0.057-0.13,0.18-0.076,0.281
				C26.58,92.613,26.705,92.646,26.806,92.591z"/>
		</g>
		<g>
			<path fill="#A3CCC4" d="M25.189,95.693c-0.108,0.057-0.241,0.021-0.301-0.083c-0.061-0.105-0.023-0.243,0.081-0.301
				c0.104-0.061,0.24-0.024,0.3,0.083C25.33,95.498,25.294,95.631,25.189,95.693z M25.172,95.661
				c0.086-0.052,0.117-0.163,0.065-0.254c-0.049-0.089-0.159-0.117-0.251-0.068c-0.089,0.052-0.118,0.165-0.068,0.251
				C24.97,95.68,25.08,95.71,25.172,95.661z"/>
		</g>
		<g>
			<path fill="#A3CCC4" d="M24.3,94.976c-0.15,0.081-0.335,0.032-0.419-0.116c-0.084-0.145-0.032-0.334,0.115-0.418
				c0.145-0.081,0.332-0.029,0.416,0.118C24.495,94.707,24.444,94.894,24.3,94.976z M24.273,94.933
				c0.123-0.068,0.164-0.227,0.097-0.35c-0.072-0.124-0.228-0.165-0.351-0.096c-0.123,0.068-0.168,0.227-0.096,0.35
				C23.995,94.958,24.149,95.002,24.273,94.933z"/>
		</g>
		<g>
			<path fill="#A3CCC4" d="M22.168,93.462c-0.121,0.071-0.275,0.025-0.342-0.092c-0.068-0.121-0.025-0.273,0.092-0.341
				c0.121-0.067,0.274-0.028,0.344,0.091C22.33,93.243,22.287,93.396,22.168,93.462z M22.147,93.428
				c0.099-0.056,0.134-0.184,0.078-0.285c-0.058-0.101-0.186-0.136-0.285-0.08c-0.102,0.059-0.136,0.187-0.079,0.285
				C21.919,93.45,22.047,93.483,22.147,93.428z"/>
		</g>
		<g>
			<path fill="#A3CCC4" d="M21.771,96.549c-0.193,0.111-0.435,0.042-0.547-0.148c-0.107-0.19-0.042-0.436,0.15-0.545
				c0.194-0.109,0.436-0.042,0.545,0.146C22.03,96.197,21.964,96.441,21.771,96.549z M21.739,96.492
				c0.161-0.09,0.214-0.295,0.124-0.456c-0.093-0.161-0.294-0.214-0.455-0.124c-0.158,0.09-0.215,0.294-0.125,0.456
				C21.376,96.529,21.577,96.585,21.739,96.492z"/>
		</g>
	</g>
	<g>
		<g>
			<path fill="#A3CCC4" d="M48.904,2.68c0.066-0.051,0.083-0.141,0.034-0.211c-0.047-0.065-0.145-0.081-0.21-0.032
				c-0.067,0.049-0.082,0.144-0.034,0.209C48.744,2.714,48.837,2.729,48.904,2.68z"/>
		</g>
		<g>
			<path fill="#A3CCC4" d="M48.379,3.981c0.101-0.076,0.122-0.213,0.049-0.314c-0.071-0.098-0.213-0.123-0.313-0.052
				c-0.1,0.077-0.123,0.213-0.048,0.314C48.136,4.028,48.277,4.052,48.379,3.981z"/>
		</g>
		<g>
			<circle fill="#A3CCC4" cx="48.065" cy="5.782" r="0.296"/>
		</g>
		<g>
			<path fill="#A3CCC4" d="M45.237,4.915c0.104-0.073,0.124-0.215,0.052-0.319c-0.073-0.101-0.216-0.123-0.316-0.047
				c-0.104,0.07-0.123,0.215-0.05,0.316C44.993,4.966,45.138,4.991,45.237,4.915z"/>
		</g>
		<g>
			<path fill="#A3CCC4" d="M45.135,6.93c0.156-0.116,0.19-0.331,0.076-0.486c-0.11-0.155-0.327-0.188-0.482-0.079
				c-0.152,0.114-0.19,0.328-0.079,0.486C44.763,7.004,44.979,7.038,45.135,6.93z"/>
		</g>
		<g>
			<path fill="#A3CCC4" d="M43.198,8.016c0.158-0.111,0.191-0.33,0.079-0.488c-0.113-0.159-0.333-0.19-0.488-0.08
				c-0.158,0.116-0.192,0.333-0.08,0.493C42.823,8.094,43.042,8.131,43.198,8.016z"/>
		</g>
		<g>
			<path fill="#A3CCC4" d="M42.231,9.366c0.052-0.04,0.065-0.12,0.027-0.172c-0.043-0.057-0.117-0.068-0.172-0.027
				c-0.055,0.038-0.066,0.115-0.027,0.169C42.099,9.393,42.175,9.403,42.231,9.366z"/>
		</g>
		<g>
			<circle fill="#A3CCC4" cx="41.237" cy="10.066" r="0.161"/>
		</g>
		<g>
			<path fill="#A3CCC4" d="M41.794,11.845c0.169-0.122,0.209-0.361,0.087-0.531c-0.127-0.172-0.364-0.208-0.533-0.083
				c-0.173,0.122-0.208,0.358-0.084,0.533C41.386,11.933,41.624,11.97,41.794,11.845z"/>
		</g>
		<g>
			<path fill="#A3CCC4" d="M41.978,12.811c0.096-0.063,0.113-0.194,0.047-0.286c-0.066-0.093-0.193-0.113-0.286-0.047
				c-0.094,0.069-0.113,0.194-0.047,0.287C41.758,12.856,41.886,12.875,41.978,12.811z"/>
		</g>
		<g>
			<path fill="#A3CCC4" d="M39.84,13.754c0.063-0.046,0.077-0.136,0.032-0.196c-0.049-0.066-0.136-0.08-0.198-0.035
				c-0.065,0.044-0.079,0.134-0.033,0.199C39.686,13.784,39.774,13.801,39.84,13.754z"/>
		</g>
		<g>
			<path fill="#A3CCC4" d="M39.66,15.06c0.045-0.036,0.056-0.098,0.022-0.145c-0.034-0.046-0.099-0.056-0.143-0.022
				c-0.048,0.033-0.058,0.095-0.023,0.142C39.549,15.084,39.613,15.093,39.66,15.06z"/>
		</g>
		<g>
			<path fill="#A3CCC4" d="M41.01,17.76c0.168-0.123,0.204-0.357,0.084-0.526c-0.12-0.166-0.356-0.203-0.522-0.083
				c-0.169,0.119-0.209,0.354-0.086,0.522C40.607,17.843,40.841,17.88,41.01,17.76z"/>
		</g>
		<g>
			<path fill="#A3CCC4" d="M41.868,19.313c0.13-0.099,0.161-0.277,0.065-0.411c-0.096-0.128-0.277-0.16-0.409-0.064
				c-0.131,0.093-0.159,0.277-0.066,0.408C41.554,19.377,41.735,19.405,41.868,19.313z"/>
		</g>
		<g>
			<path fill="#A3CCC4" d="M38.796,20.324c0.081-0.06,0.101-0.172,0.04-0.256c-0.06-0.083-0.174-0.101-0.254-0.041
				c-0.084,0.06-0.101,0.175-0.04,0.256C38.599,20.365,38.716,20.381,38.796,20.324z"/>
		</g>
		<g>
			<circle fill="#A3CCC4" cx="42.004" cy="21.65" r="0.282"/>
		</g>
		<g>
			<circle fill="#A3CCC4" cx="39.707" cy="23.691" r="0.249"/>
		</g>
		<g>
			<path fill="#A3CCC4" d="M38.654,25.258c0.164-0.118,0.203-0.347,0.082-0.511c-0.117-0.163-0.346-0.202-0.51-0.081
				c-0.164,0.115-0.2,0.346-0.082,0.51C38.261,25.343,38.493,25.378,38.654,25.258z"/>
		</g>
		<g>
			<path fill="#A3CCC4" d="M40.842,26.76c0.167-0.118,0.203-0.347,0.085-0.513c-0.12-0.162-0.35-0.2-0.513-0.08
				c-0.164,0.115-0.201,0.344-0.082,0.511C40.452,26.844,40.681,26.88,40.842,26.76z"/>
		</g>
		<g>
			<circle fill="#A3CCC4" cx="39.628" cy="28.395" r="0.204"/>
		</g>
		<g>
			<circle fill="#A3CCC4" cx="42.062" cy="29.335" r="0.226"/>
		</g>
		<g>
			<path fill="#A3CCC4" d="M41.56,32.028c0.125-0.094,0.155-0.27,0.065-0.398c-0.094-0.131-0.271-0.156-0.398-0.065
				c-0.128,0.093-0.157,0.271-0.063,0.398C41.254,32.088,41.434,32.119,41.56,32.028z"/>
		</g>
		<g>
			<path fill="#A3CCC4" d="M40.385,33.788c0.093-0.071,0.114-0.204,0.048-0.299c-0.069-0.093-0.201-0.114-0.297-0.045
				c-0.093,0.066-0.116,0.196-0.047,0.293C40.157,33.831,40.289,33.854,40.385,33.788z"/>
		</g>
		<g>
			<path fill="#A3CCC4" d="M40.523,35.341c0.074-0.051,0.089-0.15,0.038-0.222c-0.053-0.073-0.152-0.088-0.227-0.041
				c-0.071,0.056-0.089,0.156-0.035,0.229C40.351,35.379,40.452,35.395,40.523,35.341z"/>
		</g>
		<g>
			<path fill="#A3CCC4" d="M41.934,36.857c0.105-0.075,0.128-0.222,0.053-0.326c-0.075-0.106-0.22-0.128-0.327-0.053
				c-0.104,0.076-0.125,0.223-0.052,0.324C41.682,36.911,41.83,36.931,41.934,36.857z"/>
		</g>
		<g>
			<circle fill="#A3CCC4" cx="42.797" cy="38.582" r="0.162"/>
		</g>
		<g>
			<circle fill="#A3CCC4" cx="42.757" cy="40.732" r="0.071"/>
		</g>
		<g>
			<circle fill="#A3CCC4" cx="42.387" cy="42.906" r="0.25"/>
		</g>
		<g>
			<path fill="#A3CCC4" d="M42.138,45.441c0.083-0.058,0.102-0.167,0.044-0.249c-0.061-0.082-0.173-0.098-0.252-0.041
				c-0.081,0.058-0.101,0.169-0.043,0.251C41.947,45.483,42.06,45.501,42.138,45.441z"/>
		</g>
		<g>
			<path fill="#A3CCC4" d="M41.468,46.725c0.071-0.054,0.086-0.153,0.035-0.224c-0.053-0.073-0.153-0.091-0.227-0.038
				c-0.074,0.051-0.089,0.153-0.039,0.229C41.291,46.763,41.394,46.779,41.468,46.725z"/>
		</g>
		<g>
			<path fill="#A3CCC4" d="M40.886,48.031c0.147-0.109,0.18-0.308,0.073-0.456s-0.311-0.181-0.458-0.077
				c-0.147,0.107-0.178,0.311-0.071,0.458C40.534,48.104,40.737,48.135,40.886,48.031z"/>
		</g>
		<g>
			<path fill="#A3CCC4" d="M40.972,49.708c0.166-0.12,0.205-0.349,0.083-0.518c-0.118-0.164-0.35-0.202-0.516-0.082
				c-0.165,0.12-0.202,0.349-0.083,0.518C40.576,49.79,40.806,49.828,40.972,49.708z"/>
		</g>
		<g>
			<path fill="#A3CCC4" d="M41.52,51.385c0.085-0.064,0.104-0.179,0.041-0.267c-0.059-0.084-0.179-0.104-0.264-0.042
				c-0.085,0.062-0.104,0.182-0.042,0.264C41.314,51.428,41.432,51.445,41.52,51.385z"/>
		</g>
		<g>
			<path fill="#A3CCC4" d="M41.269,53.52c0.172-0.125,0.209-0.369,0.085-0.539c-0.125-0.172-0.366-0.211-0.538-0.084
				c-0.173,0.122-0.211,0.361-0.088,0.536C40.854,53.604,41.095,53.644,41.269,53.52z"/>
		</g>
		<g>
			<circle fill="#A3CCC4" cx="41.264" cy="54.345" r="0.322"/>
		</g>
		<g>
			<circle fill="#A3CCC4" cx="44.693" cy="56.045" r="0.203"/>
		</g>
		<g>
			<path fill="#A3CCC4" d="M44.658,57.303c0.14-0.1,0.172-0.292,0.072-0.433c-0.104-0.137-0.295-0.169-0.434-0.069
				c-0.14,0.101-0.169,0.295-0.069,0.434C44.327,57.372,44.52,57.403,44.658,57.303z"/>
		</g>
		<g>
			<path fill="#A3CCC4" d="M43.655,58.792c0.128-0.088,0.156-0.268,0.065-0.393c-0.092-0.126-0.271-0.156-0.396-0.065
				c-0.128,0.093-0.156,0.27-0.065,0.398C43.354,58.858,43.53,58.886,43.655,58.792z"/>
		</g>
		<g>
			<path fill="#A3CCC4" d="M41.903,59.699c0.065-0.049,0.078-0.142,0.031-0.207c-0.046-0.065-0.14-0.078-0.202-0.031
				c-0.068,0.047-0.082,0.136-0.036,0.202C41.744,59.728,41.836,59.742,41.903,59.699z"/>
		</g>
		<g>
			<path fill="#A3CCC4" d="M44.024,60.904c0.093-0.066,0.114-0.196,0.047-0.288c-0.069-0.093-0.199-0.114-0.291-0.051
				c-0.09,0.072-0.111,0.203-0.045,0.292C43.803,60.952,43.933,60.972,44.024,60.904z"/>
		</g>
		<g>
			<path fill="#A3CCC4" d="M43.804,61.773c0.104-0.076,0.125-0.224,0.051-0.329c-0.076-0.104-0.223-0.128-0.33-0.051
				c-0.104,0.078-0.128,0.223-0.051,0.327C43.55,61.829,43.693,61.849,43.804,61.773z"/>
		</g>
		<g>
			<path fill="#A3CCC4" d="M41.445,62.786c0.047-0.031,0.055-0.093,0.022-0.14c-0.031-0.044-0.097-0.055-0.141-0.023
				c-0.043,0.035-0.055,0.098-0.023,0.144C41.337,62.811,41.399,62.819,41.445,62.786z"/>
		</g>
		<g>
			<path fill="#A3CCC4" d="M43.018,64.938c0.159-0.115,0.196-0.334,0.083-0.49c-0.115-0.155-0.335-0.192-0.49-0.076
				c-0.159,0.11-0.195,0.329-0.08,0.487C42.644,65.015,42.862,65.053,43.018,64.938z"/>
		</g>
		<g>
			<path fill="#A3CCC4" d="M41.507,66.6c0.076-0.051,0.091-0.153,0.038-0.229c-0.056-0.077-0.158-0.092-0.233-0.039
				c-0.074,0.054-0.09,0.158-0.037,0.235C41.33,66.64,41.433,66.657,41.507,66.6z"/>
		</g>
		<g>
			<path fill="#A3CCC4" d="M40.404,67.315c0.153-0.113,0.189-0.327,0.076-0.485c-0.11-0.151-0.327-0.188-0.48-0.074
				c-0.155,0.11-0.189,0.325-0.077,0.48C40.034,67.391,40.249,67.427,40.404,67.315z"/>
		</g>
		<g>
			<path fill="#A3CCC4" d="M39.98,68.655c0.161-0.117,0.199-0.343,0.081-0.506c-0.115-0.158-0.342-0.194-0.503-0.079
				c-0.158,0.119-0.196,0.343-0.078,0.504C39.596,68.733,39.819,68.771,39.98,68.655z"/>
		</g>
		<g>
			<path fill="#A3CCC4" d="M39.566,70.403c0.151-0.111,0.184-0.321,0.075-0.472c-0.108-0.149-0.319-0.186-0.471-0.074
				c-0.149,0.106-0.184,0.319-0.075,0.468C39.205,70.478,39.417,70.509,39.566,70.403z"/>
		</g>
		<g>
			<path fill="#A3CCC4" d="M38.233,70.876c0.067-0.049,0.082-0.144,0.034-0.214c-0.049-0.065-0.146-0.083-0.213-0.032
				c-0.067,0.049-0.082,0.144-0.035,0.209C38.07,70.91,38.165,70.925,38.233,70.876z"/>
		</g>
		<g>
			<path fill="#A3CCC4" d="M37.9,72.063c0.173-0.121,0.208-0.358,0.087-0.532c-0.122-0.17-0.363-0.21-0.536-0.085
				c-0.169,0.125-0.208,0.361-0.084,0.532C37.493,72.147,37.731,72.188,37.9,72.063z"/>
		</g>
		<g>
			<circle fill="#A3CCC4" cx="37.16" cy="74.049" r="0.263"/>
		</g>
		<g>
			<path fill="#A3CCC4" d="M35.945,75.242c0.052-0.036,0.062-0.105,0.023-0.157c-0.035-0.052-0.107-0.064-0.157-0.023
				c-0.052,0.035-0.064,0.105-0.026,0.16C35.823,75.271,35.893,75.282,35.945,75.242z"/>
		</g>
		<g>
			<path fill="#A3CCC4" d="M36.621,78.429c0.079-0.053,0.095-0.162,0.04-0.239c-0.057-0.076-0.163-0.095-0.24-0.039
				c-0.076,0.059-0.095,0.162-0.038,0.238C36.438,78.466,36.545,78.484,36.621,78.429z"/>
		</g>
		<g>
			<path fill="#A3CCC4" d="M33.98,78.666c0.095-0.068,0.116-0.198,0.048-0.297c-0.067-0.092-0.199-0.111-0.295-0.044
				c-0.093,0.069-0.114,0.2-0.045,0.294C33.755,78.712,33.887,78.735,33.98,78.666z"/>
		</g>
		<g>
			<path fill="#A3CCC4" d="M32.69,80.812c0.135-0.098,0.163-0.282,0.067-0.414c-0.096-0.133-0.28-0.164-0.414-0.065
				c-0.134,0.092-0.162,0.278-0.066,0.413C32.376,80.876,32.558,80.905,32.69,80.812z"/>
		</g>
		<g>
			<circle fill="#A3CCC4" cx="33.082" cy="84.327" r="0.246"/>
		</g>
		<g>
			<path fill="#A3CCC4" d="M29.382,83.576c0.128-0.093,0.156-0.268,0.064-0.393c-0.092-0.131-0.269-0.16-0.398-0.065
				c-0.125,0.091-0.155,0.268-0.063,0.393C29.077,83.642,29.254,83.667,29.382,83.576z"/>
		</g>
		<g>
			<path fill="#A3CCC4" d="M29.995,85.803c0.129-0.097,0.16-0.275,0.066-0.406c-0.096-0.131-0.275-0.159-0.408-0.066
				c-0.129,0.098-0.157,0.277-0.063,0.409C29.685,85.87,29.864,85.896,29.995,85.803z"/>
		</g>
		<g>
			<circle fill="#A3CCC4" cx="29.429" cy="86.9" r="0.245"/>
		</g>
		<g>
			<path fill="#A3CCC4" d="M28.176,88.785c0.068-0.051,0.083-0.148,0.037-0.216c-0.051-0.069-0.148-0.086-0.215-0.034
				c-0.067,0.049-0.085,0.144-0.034,0.214C28.011,88.814,28.108,88.831,28.176,88.785z"/>
		</g>
		<g>
			<path fill="#A3CCC4" d="M26.476,88.002c0.06-0.04,0.07-0.122,0.028-0.182c-0.042-0.058-0.124-0.072-0.185-0.032
				c-0.057,0.045-0.07,0.125-0.028,0.185C26.335,88.032,26.417,88.047,26.476,88.002z"/>
		</g>
		<g>
			<path fill="#A3CCC4" d="M24.757,88.487c0.057-0.041,0.069-0.12,0.029-0.175c-0.043-0.056-0.122-0.068-0.177-0.028
				s-0.07,0.12-0.03,0.174C24.621,88.519,24.701,88.529,24.757,88.487z"/>
		</g>
		<g>
			<path fill="#A3CCC4" d="M23.196,89.665c0.052-0.035,0.063-0.104,0.026-0.156c-0.035-0.05-0.105-0.059-0.155-0.023
				c-0.051,0.035-0.061,0.105-0.025,0.154C23.079,89.688,23.15,89.702,23.196,89.665z"/>
		</g>
		<g>
			<circle fill="#A3CCC4" cx="21.412" cy="91.129" r="0.257"/>
		</g>
		<g>
			<path fill="#A3CCC4" d="M19.41,91.271c0.132-0.096,0.162-0.277,0.067-0.411c-0.096-0.132-0.277-0.16-0.409-0.064
				c-0.133,0.096-0.163,0.28-0.068,0.41C19.098,91.338,19.279,91.367,19.41,91.271z"/>
		</g>
		<g>
			<path fill="#A3CCC4" d="M19.035,93.385c0.056-0.04,0.067-0.117,0.027-0.17c-0.04-0.054-0.114-0.064-0.167-0.023
				c-0.055,0.034-0.067,0.114-0.027,0.169C18.906,93.412,18.98,93.423,19.035,93.385z"/>
		</g>
		<g>
			<path fill="#A3CCC4" d="M16.757,92.593c0.064-0.047,0.079-0.133,0.031-0.197c-0.047-0.064-0.134-0.076-0.196-0.031
				c-0.063,0.047-0.079,0.137-0.032,0.196C16.605,92.626,16.696,92.64,16.757,92.593z"/>
		</g>
		<g>
			<circle fill="#A3CCC4" cx="15.512" cy="96.175" r="0.08"/>
		</g>
		<g>
			<path fill="#A3CCC4" d="M13.908,95.052c0.099-0.07,0.12-0.207,0.049-0.303c-0.071-0.099-0.208-0.122-0.307-0.052
				c-0.098,0.071-0.122,0.21-0.052,0.309C13.673,95.104,13.81,95.126,13.908,95.052z"/>
		</g>
		<g>
			<circle fill="#A3CCC4" cx="11.783" cy="95.188" r="0.196"/>
		</g>
		<g>
			<circle fill="#A3CCC4" cx="10.307" cy="96.649" r="0.108"/>
		</g>
	</g>
	<g>
		<path fill="#A3CCC4" d="M103.238,58.234c-0.277-0.334-0.777-0.379-1.109-0.099c-0.334,0.28-0.379,0.777-0.099,1.109
			c0.277,0.334,0.774,0.382,1.11,0.102C103.474,59.066,103.519,58.569,103.238,58.234z M102.13,59.163
			c-0.232-0.281-0.194-0.693,0.083-0.928c0.279-0.23,0.692-0.194,0.926,0.083c0.232,0.279,0.196,0.693-0.084,0.926
			C102.776,59.477,102.362,59.44,102.13,59.163z"/>
		<path fill="#A3CCC4" d="M98.002,62.118c-0.07-0.082-0.195-0.095-0.281-0.028c-0.083,0.073-0.093,0.196-0.022,0.279
			c0.067,0.085,0.193,0.096,0.275,0.025C98.06,62.327,98.072,62.202,98.002,62.118z M97.723,62.349
			c-0.059-0.068-0.051-0.172,0.021-0.23c0.068-0.059,0.175-0.048,0.23,0.021c0.059,0.069,0.048,0.172-0.019,0.233
			C97.884,62.431,97.781,62.421,97.723,62.349z"/>
		<path fill="#A3CCC4" d="M94.018,64.177c-0.22-0.26-0.608-0.294-0.87-0.077c-0.261,0.223-0.298,0.61-0.078,0.873
			c0.22,0.26,0.61,0.297,0.871,0.078C94.202,64.829,94.236,64.442,94.018,64.177z M93.147,64.905
			c-0.184-0.219-0.153-0.543,0.065-0.728c0.218-0.182,0.544-0.152,0.728,0.068c0.183,0.221,0.155,0.542-0.064,0.728
			C93.656,65.153,93.33,65.126,93.147,64.905z"/>
		<path fill="#A3CCC4" d="M90.208,64.224c-0.119-0.145-0.338-0.162-0.48-0.043c-0.145,0.122-0.164,0.338-0.044,0.481
			c0.122,0.144,0.338,0.165,0.481,0.043C90.312,64.583,90.33,64.371,90.208,64.224z M89.728,64.626
			c-0.102-0.122-0.084-0.297,0.035-0.401c0.122-0.099,0.302-0.084,0.402,0.035c0.102,0.122,0.085,0.302-0.036,0.401
			C90.008,64.764,89.829,64.748,89.728,64.626z"/>
		<path fill="#A3CCC4" d="M85.737,64.535c-0.127-0.152-0.354-0.172-0.509-0.047c-0.152,0.129-0.173,0.355-0.044,0.51
			c0.126,0.152,0.354,0.173,0.507,0.046C85.844,64.913,85.864,64.688,85.737,64.535z M85.229,64.958
			c-0.105-0.129-0.087-0.313,0.041-0.422c0.124-0.106,0.315-0.09,0.421,0.037c0.106,0.128,0.09,0.318-0.038,0.427
			C85.525,65.104,85.338,65.087,85.229,64.958z"/>
		<path fill="#A3CCC4" d="M83.301,66.031c-0.074-0.092-0.212-0.103-0.304-0.026c-0.094,0.077-0.104,0.215-0.027,0.304
			c0.076,0.094,0.214,0.107,0.305,0.03C83.369,66.263,83.38,66.125,83.301,66.031z M82.996,66.286
			c-0.064-0.078-0.054-0.188,0.021-0.254c0.08-0.064,0.192-0.053,0.259,0.024c0.063,0.077,0.054,0.189-0.024,0.256
			C83.175,66.375,83.06,66.366,82.996,66.286z"/>
		<path fill="#A3CCC4" d="M79.315,62.313c-0.206-0.246-0.578-0.281-0.823-0.076c-0.249,0.208-0.281,0.58-0.076,0.822
			c0.209,0.249,0.577,0.284,0.823,0.076C79.487,62.931,79.522,62.562,79.315,62.313z M78.491,63
			c-0.172-0.205-0.144-0.514,0.062-0.688c0.207-0.171,0.516-0.142,0.69,0.063c0.171,0.207,0.143,0.516-0.064,0.688
			C78.971,63.232,78.665,63.207,78.491,63z"/>
		<path fill="#A3CCC4" d="M76.578,66.327c-0.216-0.259-0.601-0.296-0.857-0.078c-0.26,0.214-0.294,0.601-0.076,0.858
			c0.215,0.257,0.598,0.29,0.855,0.073C76.76,66.969,76.793,66.585,76.578,66.327z M75.722,67.041
			c-0.18-0.216-0.152-0.536,0.064-0.715c0.214-0.181,0.534-0.151,0.715,0.064c0.179,0.216,0.151,0.534-0.064,0.715
			C76.222,67.284,75.9,67.257,75.722,67.041z"/>
		<path fill="#A3CCC4" d="M73.632,66.927c-0.24-0.29-0.672-0.331-0.963-0.087c-0.29,0.241-0.326,0.674-0.084,0.964
			c0.242,0.287,0.671,0.325,0.961,0.081C73.833,67.646,73.872,67.214,73.632,66.927z M72.671,67.729
			c-0.203-0.241-0.17-0.599,0.071-0.801c0.24-0.203,0.599-0.172,0.805,0.072c0.199,0.239,0.168,0.599-0.073,0.802
			S72.872,67.969,72.671,67.729z"/>
		<path fill="#A3CCC4" d="M68.239,61.62c-0.096-0.112-0.263-0.126-0.376-0.033c-0.11,0.095-0.128,0.261-0.03,0.377
			c0.092,0.113,0.26,0.127,0.374,0.031C68.32,61.903,68.334,61.735,68.239,61.62z M67.866,61.934
			c-0.08-0.092-0.067-0.232,0.025-0.312c0.098-0.078,0.236-0.066,0.314,0.029c0.077,0.095,0.064,0.232-0.029,0.312
			C68.084,62.039,67.945,62.03,67.866,61.934z"/>
		<path fill="#A3CCC4" d="M65.418,65.326c-0.237-0.284-0.663-0.322-0.948-0.082c-0.282,0.236-0.322,0.661-0.082,0.943
			c0.236,0.286,0.661,0.324,0.945,0.085C65.618,66.035,65.657,65.611,65.418,65.326z M64.473,66.117
			c-0.199-0.235-0.168-0.591,0.07-0.79c0.239-0.196,0.591-0.169,0.792,0.072c0.196,0.234,0.166,0.591-0.072,0.789
			C65.025,66.388,64.672,66.355,64.473,66.117z"/>
		<path fill="#A3CCC4" d="M62.154,65.534c0.156,0.186,0.435,0.214,0.623,0.056c0.187-0.153,0.21-0.435,0.054-0.618
			c-0.155-0.189-0.434-0.215-0.621-0.058C62.024,65.07,61.999,65.349,62.154,65.534z M62.776,65.017
			c0.131,0.155,0.107,0.386-0.047,0.518c-0.157,0.131-0.388,0.11-0.52-0.048c-0.129-0.154-0.108-0.386,0.047-0.516
			C62.412,64.839,62.646,64.862,62.776,65.017z"/>
		<path fill="#A3CCC4" d="M59.245,67.001c-0.171-0.21-0.482-0.236-0.689-0.063c-0.21,0.174-0.236,0.485-0.063,0.692
			c0.171,0.207,0.482,0.235,0.69,0.062C59.394,67.517,59.419,67.208,59.245,67.001z M58.554,67.579
			c-0.144-0.177-0.12-0.433,0.054-0.577c0.172-0.145,0.431-0.124,0.577,0.051c0.145,0.173,0.121,0.429-0.051,0.577
			C58.957,67.776,58.702,67.751,58.554,67.579z"/>
		<path fill="#A3CCC4" d="M57.819,71.23c-0.131-0.154-0.359-0.176-0.515-0.047c-0.151,0.129-0.175,0.357-0.046,0.512
			c0.131,0.155,0.359,0.173,0.514,0.047C57.925,71.613,57.945,71.385,57.819,71.23z M57.306,71.657
			c-0.108-0.13-0.089-0.32,0.037-0.43c0.131-0.105,0.321-0.088,0.429,0.043c0.107,0.128,0.09,0.318-0.04,0.424
			C57.604,71.804,57.413,71.787,57.306,71.657z"/>
		<path fill="#A3CCC4" d="M51.72,68.763c-0.092-0.11-0.261-0.128-0.374-0.033c-0.113,0.096-0.127,0.262-0.033,0.375
			c0.093,0.112,0.262,0.127,0.374,0.034C51.798,69.044,51.814,68.876,51.72,68.763z M51.347,69.074
			c-0.079-0.094-0.065-0.231,0.026-0.312c0.096-0.078,0.234-0.064,0.313,0.027c0.079,0.096,0.065,0.234-0.028,0.311
			C51.566,69.183,51.425,69.169,51.347,69.074z"/>
		<path fill="#A3CCC4" d="M50.312,72.405c-0.102-0.119-0.279-0.137-0.4-0.035c-0.122,0.102-0.138,0.279-0.036,0.403
			c0.102,0.119,0.28,0.135,0.402,0.036C50.398,72.705,50.415,72.524,50.312,72.405z M49.912,72.742
			c-0.087-0.101-0.071-0.251,0.03-0.337c0.101-0.086,0.25-0.071,0.334,0.032c0.086,0.102,0.071,0.247-0.029,0.333
			C50.146,72.854,49.995,72.842,49.912,72.742z"/>
		<path fill="#A3CCC4" d="M46.908,72.355c-0.154-0.186-0.433-0.208-0.618-0.055c-0.186,0.158-0.207,0.432-0.055,0.617
			c0.156,0.186,0.433,0.211,0.615,0.055C47.038,72.816,47.061,72.543,46.908,72.355z M46.291,72.873
			c-0.128-0.157-0.108-0.386,0.047-0.517c0.155-0.129,0.383-0.109,0.515,0.047c0.128,0.154,0.107,0.386-0.047,0.515
			C46.651,73.046,46.422,73.028,46.291,72.873z"/>
		<path fill="#A3CCC4" d="M48.824,77.346c-0.214-0.261-0.598-0.294-0.853-0.076c-0.26,0.211-0.293,0.596-0.078,0.853
			c0.214,0.26,0.599,0.293,0.854,0.076C49.005,77.986,49.042,77.603,48.824,77.346z M47.968,78.06
			c-0.178-0.216-0.148-0.537,0.064-0.715c0.219-0.179,0.537-0.151,0.715,0.063c0.181,0.216,0.151,0.535-0.063,0.716
			C48.47,78.302,48.148,78.274,47.968,78.06z"/>
		<path fill="#A3CCC4" d="M43.04,78.074c-0.145-0.172-0.404-0.198-0.576-0.054c-0.174,0.146-0.198,0.405-0.054,0.582
			c0.147,0.172,0.405,0.194,0.58,0.05C43.164,78.506,43.188,78.248,43.04,78.074z M42.463,78.558
			c-0.122-0.147-0.101-0.359,0.044-0.482c0.146-0.122,0.361-0.103,0.484,0.044c0.119,0.144,0.1,0.359-0.044,0.481
			C42.801,78.723,42.585,78.701,42.463,78.558z"/>
	</g>
	<g>
		<g>
			<circle fill="#A3CCC4" cx="59.249" cy="95.256" r="0.247"/>
		</g>
		<g>
			<circle fill="#A3CCC4" cx="58.829" cy="96.432" r="0.067"/>
		</g>
		<g>
			<circle fill="#A3CCC4" cx="56.92" cy="96.794" r="0.326"/>
		</g>
		<g>
			<path fill="#A3CCC4" d="M55.735,96.976c0.106-0.075,0.128-0.22,0.053-0.323c-0.075-0.11-0.222-0.132-0.326-0.057
				c-0.106,0.078-0.128,0.223-0.054,0.329C55.484,97.028,55.631,97.052,55.735,96.976z"/>
		</g>
		<g>
			<path fill="#A3CCC4" d="M54.94,98.037c0.104-0.078,0.125-0.226,0.051-0.33c-0.076-0.105-0.223-0.13-0.33-0.053
				c-0.104,0.078-0.128,0.223-0.053,0.328C54.684,98.087,54.831,98.112,54.94,98.037z"/>
		</g>
		<g>
			<path fill="#A3CCC4" d="M54.1,98.269c0.063-0.049,0.074-0.134,0.029-0.199c-0.045-0.061-0.132-0.074-0.194-0.029
				c-0.063,0.043-0.079,0.13-0.032,0.193C53.949,98.299,54.036,98.31,54.1,98.269z"/>
		</g>
		<g>
			<path fill="#A3CCC4" d="M52.319,96.591c0.081-0.061,0.101-0.177,0.039-0.262c-0.061-0.085-0.178-0.102-0.259-0.042
				c-0.085,0.061-0.104,0.177-0.044,0.262C52.115,96.63,52.234,96.65,52.319,96.591z"/>
		</g>
		<g>
			<circle fill="#A3CCC4" cx="50.558" cy="97.623" r="0.283"/>
		</g>
		<g>
			<path fill="#A3CCC4" d="M49.808,99.299c0.085-0.06,0.104-0.177,0.042-0.259c-0.06-0.087-0.177-0.104-0.261-0.044
				c-0.082,0.06-0.102,0.177-0.043,0.261C49.609,99.342,49.724,99.361,49.808,99.299z"/>
		</g>
		<g>
			<path fill="#A3CCC4" d="M48.005,97.907c0.139-0.097,0.169-0.291,0.07-0.428c-0.1-0.137-0.292-0.167-0.431-0.069
				c-0.137,0.101-0.165,0.292-0.068,0.428C47.677,97.975,47.868,98.01,48.005,97.907z"/>
		</g>
		<g>
			<path fill="#A3CCC4" d="M45.915,100.302c0.089-0.065,0.107-0.189,0.043-0.276c-0.063-0.091-0.187-0.11-0.276-0.044
				c-0.087,0.062-0.107,0.187-0.045,0.274C45.704,100.346,45.825,100.366,45.915,100.302z"/>
		</g>
		<g>
			<path fill="#A3CCC4" d="M44.559,100.253c0.126-0.094,0.154-0.273,0.063-0.399c-0.095-0.125-0.269-0.152-0.399-0.064
				c-0.125,0.094-0.155,0.272-0.065,0.397C44.253,100.315,44.43,100.346,44.559,100.253z"/>
		</g>
		<g>
			<path fill="#A3CCC4" d="M43.189,98.794c0.101-0.071,0.126-0.215,0.053-0.318c-0.075-0.104-0.221-0.127-0.321-0.054
				c-0.104,0.076-0.129,0.22-0.053,0.324C42.944,98.845,43.086,98.87,43.189,98.794z"/>
		</g>
		<g>
			<path fill="#A3CCC4" d="M41.334,99.897c0.055-0.035,0.064-0.109,0.026-0.164c-0.037-0.055-0.111-0.067-0.164-0.026
				c-0.054,0.04-0.067,0.114-0.029,0.166C41.208,99.925,41.282,99.938,41.334,99.897z"/>
		</g>
		<g>
			<path fill="#A3CCC4" d="M40.332,100.095c0.061-0.044,0.072-0.131,0.027-0.191c-0.042-0.061-0.127-0.074-0.189-0.032
				c-0.061,0.047-0.074,0.129-0.029,0.192C40.183,100.126,40.27,100.14,40.332,100.095z"/>
		</g>
		<g>
			<circle fill="#A3CCC4" cx="38.806" cy="98.452" r="0.253"/>
		</g>
		<g>
			<path fill="#A3CCC4" d="M37.23,98.451c0.035-0.023,0.042-0.071,0.018-0.104c-0.024-0.035-0.072-0.042-0.106-0.019
				c-0.031,0.024-0.041,0.069-0.016,0.107C37.149,98.469,37.197,98.474,37.23,98.451z"/>
		</g>
		<g>
			<path fill="#A3CCC4" d="M36.7,96.801c0.058-0.04,0.068-0.118,0.027-0.175c-0.039-0.057-0.116-0.067-0.174-0.027
				c-0.058,0.039-0.07,0.116-0.028,0.177C36.566,96.83,36.644,96.843,36.7,96.801z"/>
		</g>
		<g>
			<path fill="#A3CCC4" d="M34.99,98.173c0.09-0.068,0.11-0.194,0.044-0.287c-0.065-0.093-0.193-0.113-0.283-0.047
				c-0.094,0.067-0.114,0.194-0.047,0.287C34.771,98.218,34.898,98.236,34.99,98.173z"/>
		</g>
		<g>
			<circle fill="#A3CCC4" cx="34.628" cy="95.004" r="0.31"/>
		</g>
		<g>
			<circle fill="#A3CCC4" cx="32.273" cy="97.346" r="0.241"/>
		</g>
		<g>
			<circle fill="#A3CCC4" cx="31.173" cy="94.816" r="0.165"/>
		</g>
		<g>
			<path fill="#A3CCC4" d="M30.249,94.456c0.085-0.062,0.102-0.176,0.042-0.264c-0.061-0.079-0.178-0.098-0.262-0.041
				c-0.082,0.063-0.102,0.18-0.041,0.264C30.048,94.497,30.165,94.52,30.249,94.456z"/>
		</g>
		<g>
			<path fill="#A3CCC4" d="M29.097,95.042c0.096-0.066,0.116-0.198,0.05-0.291c-0.069-0.096-0.201-0.117-0.296-0.051
				c-0.094,0.069-0.114,0.201-0.048,0.295C28.874,95.094,29.004,95.111,29.097,95.042z"/>
		</g>
		<g>
			<circle fill="#A3CCC4" cx="27.724" cy="95.608" r="0.254"/>
		</g>
		<g>
			<path fill="#A3CCC4" d="M26.091,95.703c0.143-0.102,0.175-0.299,0.073-0.44c-0.105-0.145-0.302-0.175-0.443-0.073
				c-0.143,0.103-0.175,0.302-0.07,0.444C25.752,95.775,25.949,95.809,26.091,95.703z"/>
		</g>
		<g>
			<circle fill="#A3CCC4" cx="24.409" cy="93.4" r="0.092"/>
		</g>
		<g>
			<circle fill="#A3CCC4" cx="23.594" cy="95.824" r="0.219"/>
		</g>
		<g>
			<path fill="#A3CCC4" d="M22.938,95.486c0.099-0.07,0.122-0.208,0.052-0.306c-0.071-0.099-0.208-0.119-0.307-0.049
				c-0.096,0.071-0.119,0.206-0.048,0.305C22.706,95.534,22.843,95.558,22.938,95.486z"/>
		</g>
		<g>
			<circle fill="#A3CCC4" cx="21.929" cy="93.251" r="0.301"/>
		</g>
		<g>
			<path fill="#A3CCC4" d="M21.675,95.698c0.093-0.064,0.114-0.195,0.047-0.286c-0.066-0.093-0.196-0.113-0.289-0.047
				c-0.09,0.069-0.111,0.196-0.044,0.29C21.455,95.747,21.582,95.765,21.675,95.698z"/>
		</g>
		<g>
			<path fill="#A3CCC4" d="M20.795,96.169c0.12-0.087,0.145-0.251,0.061-0.37c-0.089-0.121-0.255-0.147-0.371-0.061
				c-0.121,0.086-0.147,0.25-0.063,0.371C20.508,96.229,20.675,96.256,20.795,96.169z"/>
		</g>
		<g>
			<path fill="#A3CCC4" d="M19.03,94.511c0.058-0.045,0.071-0.125,0.028-0.18c-0.039-0.06-0.121-0.07-0.177-0.03
				c-0.057,0.042-0.07,0.122-0.027,0.179C18.894,94.538,18.974,94.551,19.03,94.511z"/>
		</g>
	</g>
	<g>
		<g>
			<path fill="#A3CCC4" d="M97.784,46.672c0.039-0.034,0.045-0.092,0.011-0.131c-0.031-0.043-0.092-0.047-0.131-0.013
				c-0.04,0.031-0.046,0.091-0.013,0.13C97.683,46.697,97.743,46.703,97.784,46.672z"/>
		</g>
		<g>
			<path fill="#A3CCC4" d="M96.991,47.895c0.04-0.034,0.047-0.099,0.014-0.137c-0.037-0.044-0.098-0.051-0.139-0.014
				c-0.041,0.034-0.048,0.096-0.014,0.138C96.886,47.923,96.949,47.929,96.991,47.895z"/>
		</g>
		<g>
			<path fill="#A3CCC4" d="M96.529,48.786c0.153-0.126,0.174-0.355,0.048-0.509c-0.126-0.152-0.354-0.175-0.509-0.049
				c-0.151,0.129-0.175,0.354-0.046,0.509C96.146,48.888,96.374,48.911,96.529,48.786z"/>
		</g>
		<g>
			<path fill="#A3CCC4" d="M96.575,51.369c0.063-0.049,0.072-0.145,0.021-0.21c-0.054-0.066-0.147-0.07-0.214-0.021
				c-0.063,0.054-0.069,0.15-0.019,0.213C96.415,51.414,96.511,51.423,96.575,51.369z"/>
		</g>
		<g>
			<path fill="#A3CCC4" d="M93.896,50.32c0.03-0.027,0.037-0.07,0.01-0.1c-0.024-0.033-0.07-0.038-0.104-0.011
				c-0.027,0.025-0.034,0.067-0.007,0.101C93.82,50.342,93.866,50.347,93.896,50.32z"/>
		</g>
		<g>
			<path fill="#A3CCC4" d="M93.849,53.702c0.13-0.109,0.148-0.299,0.04-0.426c-0.105-0.129-0.298-0.149-0.426-0.043
				c-0.13,0.108-0.148,0.299-0.043,0.426C93.528,53.791,93.719,53.807,93.849,53.702z"/>
		</g>
		<g>
			<path fill="#A3CCC4" d="M91.519,52.308c0.072-0.064,0.083-0.169,0.021-0.246c-0.06-0.072-0.168-0.083-0.242-0.022
				c-0.072,0.061-0.086,0.171-0.025,0.243C91.334,52.357,91.444,52.368,91.519,52.308z"/>
		</g>
		<g>
			<circle fill="#A3CCC4" cx="91.444" cy="54.383" r="0.067"/>
		</g>
		<g>
			<circle fill="#A3CCC4" cx="90.253" cy="54.128" r="0.31"/>
		</g>
		<g>
			<path fill="#A3CCC4" d="M89.596,54.306c0.097-0.076,0.111-0.219,0.032-0.316c-0.079-0.099-0.222-0.113-0.318-0.032
				c-0.096,0.079-0.108,0.222-0.03,0.321C89.359,54.373,89.502,54.387,89.596,54.306z"/>
		</g>
		<g>
			<path fill="#A3CCC4" d="M89.049,55.67c0.154-0.126,0.174-0.354,0.048-0.506c-0.128-0.157-0.356-0.18-0.509-0.049
				c-0.156,0.126-0.177,0.352-0.052,0.506C88.666,55.776,88.894,55.799,89.049,55.67z"/>
		</g>
		<g>
			<circle fill="#A3CCC4" cx="87.031" cy="55.859" r="0.321"/>
		</g>
		<g>
			<path fill="#A3CCC4" d="M86.532,56.622c0.089-0.069,0.1-0.203,0.027-0.288c-0.072-0.088-0.2-0.101-0.291-0.029
				c-0.085,0.072-0.099,0.203-0.026,0.291C86.314,56.683,86.444,56.696,86.532,56.622z"/>
		</g>
		<g>
			<circle fill="#A3CCC4" cx="84.167" cy="56.322" r="0.232"/>
		</g>
		<g>
			<path fill="#A3CCC4" d="M83.275,56.817c0.11-0.093,0.128-0.261,0.035-0.371c-0.095-0.116-0.26-0.132-0.376-0.038
				c-0.111,0.093-0.128,0.26-0.035,0.374C82.994,56.895,83.159,56.912,83.275,56.817z"/>
		</g>
		<g>
			<circle fill="#A3CCC4" cx="81.365" cy="57.631" r="0.14"/>
		</g>
		<g>
			<circle fill="#A3CCC4" cx="80.271" cy="56.087" r="0.29"/>
		</g>
		<g>
			<path fill="#A3CCC4" d="M78.879,56.923c0.097-0.084,0.111-0.229,0.03-0.329c-0.084-0.1-0.232-0.115-0.331-0.033
				c-0.098,0.084-0.112,0.229-0.03,0.329C78.629,56.989,78.776,57.004,78.879,56.923z"/>
		</g>
		<g>
			<path fill="#A3CCC4" d="M78.305,58.695c0.094-0.077,0.108-0.222,0.029-0.316c-0.079-0.097-0.222-0.111-0.318-0.032
				c-0.097,0.082-0.11,0.221-0.029,0.321C78.065,58.763,78.208,58.777,78.305,58.695z"/>
		</g>
		<g>
			<path fill="#A3CCC4" d="M76.789,57.231c0.071-0.054,0.079-0.159,0.023-0.226c-0.059-0.071-0.159-0.082-0.229-0.023
				c-0.069,0.059-0.079,0.159-0.023,0.228C76.619,57.28,76.72,57.29,76.789,57.231z"/>
		</g>
		<g>
			<circle fill="#A3CCC4" cx="74.401" cy="55.973" r="0.357"/>
		</g>
		<g>
			<circle fill="#A3CCC4" cx="72.928" cy="58.232" r="0.161"/>
		</g>
		<g>
			<circle fill="#A3CCC4" cx="70.939" cy="57.605" r="0.298"/>
		</g>
		<g>
			<circle fill="#A3CCC4" cx="68.979" cy="56.451" r="0.149"/>
		</g>
		<g>
			<path fill="#A3CCC4" d="M66.918,56.778c0.062-0.052,0.072-0.14,0.021-0.206c-0.052-0.061-0.143-0.067-0.206-0.019
				c-0.061,0.053-0.069,0.143-0.018,0.204C66.765,56.821,66.855,56.827,66.918,56.778z"/>
		</g>
		<g>
			<path fill="#A3CCC4" d="M64.839,57.538c0.038-0.029,0.041-0.084,0.012-0.118c-0.029-0.039-0.084-0.044-0.122-0.015
				c-0.033,0.032-0.039,0.084-0.01,0.123C64.75,57.565,64.803,57.57,64.839,57.538z"/>
		</g>
		<g>
			<path fill="#A3CCC4" d="M64.147,60.326c0.044-0.036,0.054-0.103,0.014-0.15c-0.037-0.044-0.104-0.051-0.15-0.016
				c-0.045,0.039-0.052,0.106-0.014,0.153C64.033,60.357,64.101,60.367,64.147,60.326z"/>
		</g>
		<g>
			<path fill="#A3CCC4" d="M61.74,59.081c0.052-0.043,0.06-0.118,0.017-0.17c-0.043-0.05-0.115-0.058-0.168-0.012
				c-0.051,0.04-0.059,0.115-0.014,0.166C61.615,59.114,61.689,59.122,61.74,59.081z"/>
		</g>
		<g>
			<path fill="#A3CCC4" d="M60.817,60.046c0.071-0.058,0.085-0.164,0.023-0.235c-0.061-0.077-0.169-0.088-0.24-0.027
				c-0.072,0.061-0.083,0.169-0.024,0.241C60.638,60.099,60.745,60.107,60.817,60.046z"/>
		</g>
		<g>
			<path fill="#A3CCC4" d="M59.056,59.21c0.134-0.113,0.153-0.309,0.042-0.444c-0.112-0.136-0.308-0.155-0.442-0.044
				c-0.133,0.11-0.153,0.308-0.043,0.443C58.724,59.301,58.922,59.318,59.056,59.21z"/>
		</g>
		<g>
			<path fill="#A3CCC4" d="M58.367,60.827c0.06-0.05,0.069-0.14,0.021-0.2c-0.053-0.064-0.144-0.07-0.203-0.021
				c-0.062,0.049-0.073,0.139-0.021,0.202C58.213,60.87,58.306,60.879,58.367,60.827z"/>
		</g>
		<g>
			<path fill="#A3CCC4" d="M56.798,60.396c0.146-0.123,0.168-0.343,0.046-0.487c-0.121-0.149-0.342-0.171-0.488-0.049
				c-0.148,0.122-0.168,0.34-0.05,0.489C56.431,60.494,56.649,60.516,56.798,60.396z"/>
		</g>
		<g>
			<path fill="#A3CCC4" d="M54.436,60.772c0.061-0.047,0.07-0.137,0.021-0.198c-0.052-0.06-0.14-0.069-0.197-0.017
				c-0.062,0.047-0.07,0.138-0.021,0.197C54.287,60.816,54.376,60.825,54.436,60.772z"/>
		</g>
		<g>
			<path fill="#A3CCC4" d="M54.455,63.501c0.059-0.051,0.066-0.136,0.02-0.193c-0.05-0.059-0.136-0.067-0.193-0.02
				c-0.058,0.047-0.066,0.136-0.02,0.193C54.31,63.536,54.396,63.545,54.455,63.501z"/>
		</g>
	</g>
	<g>
		<path fill="#A3CCC4" d="M4.895,74.771c-0.04-0.059-0.12-0.071-0.177-0.031s-0.068,0.122-0.027,0.178
			c0.039,0.054,0.119,0.066,0.177,0.027C4.924,74.904,4.935,74.824,4.895,74.771z"/>
		<circle fill="#A3CCC4" cx="6.786" cy="76" r="0.104"/>
		<path fill="#A3CCC4" d="M7.7,73.652c-0.047-0.064-0.135-0.076-0.197-0.032c-0.064,0.044-0.079,0.134-0.032,0.199
			c0.045,0.061,0.134,0.08,0.199,0.03C7.733,73.803,7.747,73.713,7.7,73.652z"/>
		<path fill="#A3CCC4" d="M9.448,74.89c-0.078-0.104-0.228-0.129-0.336-0.055c-0.107,0.081-0.132,0.23-0.055,0.339
			c0.079,0.104,0.228,0.129,0.337,0.052C9.501,75.148,9.526,74.999,9.448,74.89z"/>
		<circle fill="#A3CCC4" cx="10.59" cy="74.539" r="0.13"/>
		<path fill="#A3CCC4" d="M11.524,75.965c-0.022-0.03-0.062-0.037-0.09-0.014c-0.029,0.017-0.033,0.059-0.014,0.09
			c0.02,0.026,0.06,0.033,0.09,0.014C11.538,76.032,11.545,75.992,11.524,75.965z"/>
		<circle fill="#A3CCC4" cx="11.519" cy="77.994" r="0.159"/>
		<path fill="#A3CCC4" d="M13.865,77.426c-0.082-0.114-0.243-0.142-0.361-0.058c-0.117,0.085-0.142,0.247-0.057,0.364
			c0.084,0.115,0.243,0.142,0.36,0.06C13.924,77.705,13.952,77.546,13.865,77.426z"/>
		<path fill="#A3CCC4" d="M13.149,80.317c-0.073-0.101-0.219-0.126-0.319-0.055c-0.102,0.075-0.125,0.217-0.052,0.318
			c0.072,0.104,0.215,0.128,0.318,0.053C13.197,80.558,13.223,80.418,13.149,80.317z"/>
		<path fill="#A3CCC4" d="M13.747,81.838c-0.093-0.131-0.277-0.159-0.408-0.066s-0.159,0.277-0.066,0.408
			c0.098,0.132,0.28,0.16,0.41,0.067C13.812,82.151,13.843,81.97,13.747,81.838z"/>
		<path fill="#A3CCC4" d="M14.099,83.051c-0.096-0.134-0.277-0.163-0.411-0.067c-0.132,0.096-0.16,0.28-0.064,0.412
			c0.093,0.131,0.277,0.159,0.408,0.066C14.163,83.363,14.191,83.182,14.099,83.051z"/>
		<path fill="#A3CCC4" d="M15.725,84.447c-0.047-0.065-0.139-0.083-0.202-0.035c-0.065,0.049-0.079,0.139-0.033,0.204
			c0.047,0.063,0.137,0.077,0.202,0.03C15.757,84.603,15.771,84.51,15.725,84.447z"/>
		<path fill="#A3CCC4" d="M16.277,85.77c-0.103-0.138-0.297-0.17-0.438-0.07c-0.14,0.102-0.172,0.297-0.072,0.438
			c0.104,0.143,0.299,0.172,0.441,0.069C16.347,86.106,16.379,85.911,16.277,85.77z"/>
		<path fill="#A3CCC4" d="M15.851,88.413c0.069,0.094,0.201,0.117,0.3,0.048c0.095-0.068,0.116-0.203,0.048-0.301
			c-0.072-0.093-0.203-0.117-0.3-0.045C15.803,88.186,15.782,88.315,15.851,88.413z"/>
		<path fill="#A3CCC4" d="M14.399,89.505c-0.089-0.123-0.266-0.153-0.391-0.062c-0.123,0.088-0.151,0.265-0.063,0.388
			c0.091,0.126,0.266,0.153,0.391,0.065C14.463,89.806,14.49,89.634,14.399,89.505z"/>
		<path fill="#A3CCC4" d="M11.276,88.927c-0.029-0.04-0.086-0.052-0.128-0.021c-0.038,0.029-0.049,0.087-0.02,0.125
			c0.031,0.044,0.086,0.05,0.127,0.023C11.297,89.023,11.305,88.968,11.276,88.927z"/>
		<path fill="#A3CCC4" d="M10.728,91.284c-0.078-0.109-0.228-0.132-0.334-0.055c-0.109,0.081-0.136,0.23-0.057,0.336
			c0.08,0.107,0.229,0.133,0.336,0.055C10.782,91.543,10.807,91.394,10.728,91.284z"/>
	</g>
</g>
</svg>
