<?xml version="1.0" encoding="utf-8"?>
<!-- Generator: Adobe Illustrator 16.0.3, SVG Export Plug-In . SVG Version: 6.00 Build 0)  -->
<!DOCTYPE svg PUBLIC "-//W3C//DTD SVG 1.1//EN" "http://www.w3.org/Graphics/SVG/1.1/DTD/svg11.dtd">
<svg version="1.1" id="Layer_1" xmlns="http://www.w3.org/2000/svg" xmlns:xlink="http://www.w3.org/1999/xlink" x="0px" y="0px"
	 width="120px" height="120px" viewBox="0 0 120 120" enable-background="new 0 0 120 120" xml:space="preserve">
<g opacity="0.33">
	<path fill="#A3CCC4" d="M26.757,105.043c0.715,1.7,1.916,3.29,2.838,4.935c0.282,0.5,0.533,1.014,0.762,1.528
		c0.075,0.17,0.152,0.342,0.251,0.513c0.01-0.19,0.038-0.38,0.047-0.568c0.036-0.563,0.087-1.13,0.17-1.697
		c0.278-1.865,0.832-3.78,0.898-5.619c0.064-1.868-0.469-3.567-1.761-5.135c-0.384-0.468-0.813-0.92-1.296-1.353
		c-0.101-0.091-0.279-0.247-0.451-0.359c0.001,0.004-0.003,0.009-0.001,0.008c0.001,0.023-0.166,0.519-0.17,1.286
		c-0.014,0.771,0.24,1.8,0.566,2.804c0.353,0.988,0.755,1.989,0.904,2.779c0.175,0.791,0.026,1.323,0.03,1.319
		c-0.004,0.004,0.108-0.535-0.119-1.302c-0.198-0.768-0.658-1.715-1.085-2.696c-0.395-0.993-0.735-2.033-0.778-2.886
		c-0.036-0.539,0.016-0.966,0.052-1.21c-0.123,0.168-0.24,0.388-0.3,0.504c-0.301,0.572-0.541,1.153-0.732,1.73
		C25.933,101.545,26.034,103.324,26.757,105.043z"/>
	<path fill="#A3CCC4" d="M21.714,97.77c-0.961,0.937-1.724,2.17-2.596,3.235c-0.266,0.321-0.55,0.626-0.833,0.919
		c-0.099,0.097-0.196,0.189-0.285,0.304c0.133-0.041,0.269-0.073,0.399-0.116c0.389-0.125,0.789-0.241,1.193-0.336
		c1.342-0.305,2.786-0.432,4.055-0.875c1.282-0.45,2.296-1.263,3.016-2.549c0.215-0.387,0.413-0.799,0.577-1.241
		c0.033-0.094,0.093-0.254,0.124-0.399c-0.003-0.001-0.005,0.002-0.005,0.002c-0.017,0.003-0.396,0.02-0.92,0.223
		c-0.525,0.193-1.155,0.64-1.749,1.125c-0.58,0.504-1.151,1.038-1.65,1.348c-0.487,0.33-0.891,0.371-0.888,0.372
		c0,0,0.396-0.069,0.854-0.425c0.469-0.337,0.988-0.899,1.542-1.451c0.567-0.527,1.188-1.034,1.752-1.291
		c0.356-0.164,0.661-0.244,0.836-0.284c-0.146-0.038-0.326-0.061-0.421-0.071c-0.471-0.053-0.929-0.063-1.369-0.041
		C23.872,96.287,22.69,96.826,21.714,97.77z"/>
	<path fill="#A3CCC4" d="M31.246,99.722c1.138,0.713,2.521,1.155,3.76,1.748c0.378,0.18,0.74,0.38,1.094,0.591
		c0.116,0.068,0.238,0.14,0.364,0.2c-0.075-0.121-0.139-0.242-0.209-0.358c-0.216-0.351-0.424-0.709-0.611-1.086
		c-0.618-1.228-1.089-2.599-1.821-3.721c-0.743-1.137-1.777-1.927-3.2-2.317c-0.426-0.113-0.876-0.209-1.342-0.263
		c-0.099-0.01-0.27-0.029-0.418-0.023l0.003,0.004c0.009,0.011,0.116,0.378,0.439,0.838c0.313,0.463,0.897,0.969,1.509,1.43
		c0.627,0.444,1.286,0.868,1.705,1.274c0.436,0.401,0.571,0.78,0.57,0.775c0,0.003-0.157-0.363-0.615-0.724
		c-0.436-0.373-1.111-0.747-1.775-1.152c-0.65-0.426-1.29-0.902-1.674-1.391c-0.248-0.307-0.398-0.582-0.477-0.744
		c-0.004,0.153,0.017,0.331,0.032,0.43c0.06,0.465,0.16,0.912,0.285,1.336C29.288,97.983,30.094,99.001,31.246,99.722z"/>
	<g>
		<g>
			<path fill="#A3CCC4" d="M73.219,91.034c1.195,3,0.609,6.026-0.985,7.377c-1.512,1.404-3.09,1.58-4.105,1.594
				c-2.106-0.087-2.538-0.759-2.546-1.136c-0.009-0.418,0.378-0.789,0.304-1.107c-0.056-0.358-0.562-0.47-2.085-1.081
				c-1.462-0.714-3.327-1.132-5.149-3.991c-0.921-1.459-1.848-3.324-2.226-5.814c-0.373-2.463-0.115-5.605,1.464-8.909
				c1.556-3.293,4.397-6.692,8.589-9.378c4.142-2.827,9.969-4.222,16.188-4.714c6.225-0.624,13.271-0.235,20.38-2.934
				c6.927-2.856,14.459-8.579,17.954-18.063c-1.483,3.653-4.896,9.305-11.369,13.726c-3.19,2.201-7.089,4.091-11.492,4.865
				c-4.461,0.878-9.465,0.873-14.986,1.16c-2.757,0.154-5.662,0.415-8.643,1.039c-2.969,0.592-6.159,1.741-8.882,3.362
				c-5.516,3.18-10.632,8.469-12.181,15.539c-0.75,3.479-0.426,7.196,0.789,10.443c0.333,0.878,0.604,1.493,1.024,2.385
				c0.45,0.828,0.946,1.63,1.572,2.336c1.214,1.443,2.769,2.554,4.443,3.262c3.318,1.383,7.281,1.425,10.335-0.698
				c1.52-1.043,2.518-2.83,2.656-4.555C74.393,94.005,73.912,92.413,73.219,91.034z"/>
		</g>
	</g>
	<g>
		<g>
			<path fill="#A3CCC4" d="M27.861,98.282c0.002,0.185,0.004,0.182-0.001,0.002c-0.233-4.957,0.399-10.021,2.346-14.653
				c1.874-4.658,5.029-8.762,8.851-12.048c7.703-6.625,17.594-10.15,27.484-11.933c4.946-0.884,10.133-1.163,15.044-1.23
				c4.946-0.142,9.86-0.397,14.663-1.132c4.787-0.765,9.509-1.997,13.645-4.337c4.138-2.299,7.556-5.854,9.597-10.258
				c1.123-1.375,1.429-1.341,1.277,0.526c-1.634,4.854-5.138,9.155-9.563,11.911c-4.417,2.812-9.473,4.266-14.477,5.118
				c-5.027,0.831-10.083,1.051-15.086,1.099c-5.038-0.032-9.829,0.07-14.725,0.738c-9.646,1.343-19.403,4.228-27.199,10.3
				c-3.863,3.009-7.132,6.877-9.151,11.404C28.477,88.283,27.696,93.319,27.861,98.282z"/>
		</g>
	</g>
	<g>
		<g>
			<path fill="#A3CCC4" d="M99.156,56.416l-1.344,0.152c-4.435,0.423-8.808-0.483-12.911-1.91c-2.837-1-5.587-2.252-8.24-3.671
				c-2.696-1.42-5.297-2.99-7.754-4.749c-2.425-1.753-4.681-3.729-6.612-6.055c-1.591-1.945-2.898-4.164-3.797-6.603
				c0.231,1.001,0.506,2,0.869,2.973c0.516,1.308,1.115,2.59,1.871,3.785c1.529,2.479,3.51,4.664,5.724,6.512
				c2.052,1.697,4.315,3.128,6.584,4.497c1.207,0.701,2.408,1.431,3.652,2.074c0.165,0.087,0.079,0.203-0.089,0.119
				c-1.301-0.645-2.562-1.394-3.828-2.099c-2.352-1.349-4.658-2.794-6.765-4.542c-3.693-3.108-6.707-7.243-8.039-11.971
				c0.374,1.706,0.942,3.384,1.646,5.007c1.132,2.532,2.619,4.949,4.463,7.098c2.106,2.498,4.644,4.695,7.471,6.439
				c2.847,1.733,5.944,2.993,9.108,3.738c3.122,0.757,6.304,1.029,9.397,0.894c1.57-0.071,3.119-0.279,4.637-0.565
				C96.556,57.282,97.915,56.914,99.156,56.416z"/>
		</g>
	</g>
	<path fill="#A3CCC4" d="M48.456,73.774c0.699-2.161,2.597-4,4.706-5.381c2.126-1.415,4.415-2.411,6.405-3.854
		c-0.605,0.78-1.599,1.675-1.489,2.355c2.733-1.833,5.737-4.138,9.032-5.465c-1.181,0.573-1.791,1.434-2.073,2.102
		c2.865-1.229,6.434-2.637,10.036-2.344l0.094,0.006c-1.752-0.454-4.433-0.887-7.216-0.895c-2.776-0.031-5.639,0.404-7.592,1.03
		c-2.844,0.917-5.858,2.613-8.086,4.915C50.013,68.517,48.679,71.358,48.456,73.774z"/>
	<g>
		<g>
			<path fill="#A3CCC4" d="M103.225,69.879c0.117-1.145,0.427-2.3,0.87-3.386c1.509-3.658,4.407-6.528,7.327-9.529
				c2.881-2.962,5.938-5.951,7.883-9.722c0.586-1.14,1.043-2.365,1.292-3.632c0.098-0.419,0.134-0.852,0.199-1.273
				c-0.093,0.417-0.151,0.846-0.267,1.256c-0.314,1.241-0.839,2.428-1.494,3.504c-2.168,3.556-5.434,6.141-8.471,8.991
				c-3.053,2.853-6.107,6.028-7.26,10.138c-0.334,1.205-0.487,2.454-0.414,3.642c0.003,0.44,0.158,1.434,0.194,1.432
				C103.142,71.289,103.155,70.281,103.225,69.879z"/>
			<path fill="#A3CCC4" d="M120.457,43.099c-0.097,0.452-0.247,0.898-0.367,1.354c-0.466,1.496-1.011,2.922-1.601,4.394
				c-0.585,1.458-1.209,2.896-1.962,4.275c-0.227,0.418-0.475,0.834-0.726,1.244l-0.248,0.409l0.315-0.377l0.945-1.148
				c1.031-1.26,2.097-2.579,2.904-4.075c0.814-1.51,1.271-3.166,1.229-4.751c-0.029-0.478-0.043-0.935-0.152-1.373
				c-0.038-0.16-0.114-0.521-0.164-0.51C120.583,42.552,120.493,42.943,120.457,43.099z"/>
			<g>
				<path fill="#A3CCC4" d="M111.956,56.145c-0.379,0.217-0.776,0.465-1.122,0.738c-1.231,0.962-2.235,2.059-3.067,3.479
					c-0.822,1.397-1.243,2.962-1.359,4.327c-0.057,0.426-0.026,0.874-0.013,1.284c0.003,0.139,0.03,0.279,0.049,0.413
					c-0.002-0.16-0.015-0.241-0.006-0.404c0.031-0.403,0.046-0.842,0.163-1.249c0.327-1.362,1.04-2.735,1.95-4.034
					c0.832-1.188,1.825-2.357,2.816-3.509c0.275-0.315,0.549-0.623,0.802-0.915c0.096-0.107,0.311-0.353,0.278-0.371
					C112.416,55.886,112.085,56.067,111.956,56.145z"/>
			</g>
			<g>
				<path fill="#A3CCC4" d="M113.784,53.326c-0.185,0.253-0.393,0.529-0.614,0.759c-0.78,0.822-1.621,1.456-2.652,2.032
					c-1.016,0.572-2.107,0.952-3.129,1.329l-0.992,0.346l-0.333,0.11c0.129-0.056,0.195-0.085,0.32-0.141
					c0.322-0.144,0.652-0.3,0.954-0.459c1.016-0.541,2.011-1.133,2.99-1.79c0.896-0.594,1.798-1.23,2.684-1.855
					c0.24-0.171,0.482-0.345,0.704-0.501c0.083-0.061,0.268-0.199,0.274-0.174C114.004,53.008,113.849,53.233,113.784,53.326z"/>
			</g>
			<g>
				<path fill="#A3CCC4" d="M111.927,55.203c-0.316,0.502-0.678,1.028-1.059,1.495c-1.343,1.659-2.766,3.005-4.419,4.515
					c-1.61,1.496-3.329,2.957-4.641,4.818c-0.427,0.576-0.821,1.219-1.184,1.876l-0.355,0.669c0.125-0.281,0.182-0.422,0.307-0.702
					c0.316-0.692,0.669-1.384,1.039-2.017c1.173-2.129,2.681-3.939,4.276-5.595c1.454-1.524,3.054-2.932,4.629-4.279
					c0.438-0.37,0.862-0.733,1.263-1.071c0.146-0.122,0.479-0.409,0.5-0.368C112.302,54.588,112.041,55.024,111.927,55.203z"/>
			</g>
			<path fill="#A3CCC4" d="M120.687,43.108c-0.025,0.537-0.128,1.091-0.268,1.63c-0.481,1.812-1.521,3.391-2.849,4.639
				c-1.309,1.25-2.795,2.202-4.27,3.174c-0.449,0.297-0.898,0.602-1.35,0.91l-0.453,0.301l0.402-0.376
				c0.403-0.374,0.799-0.75,1.18-1.135c1.259-1.262,2.38-2.612,3.442-3.944c1.074-1.354,2.041-2.622,2.987-4.032
				c0.255-0.425,0.563-0.859,0.791-1.304c0.09-0.164,0.301-0.553,0.356-0.538C120.713,42.451,120.696,42.914,120.687,43.108z"/>
			<path fill="#A3CCC4" d="M115.975,51.919c-0.229,0.234-0.462,0.482-0.686,0.735c-0.762,0.829-1.442,1.703-2.07,2.637
				c-0.624,0.926-1.186,1.875-1.752,2.802l-0.529,0.845l-0.171,0.281l0.212-0.258l0.647-0.768c0.721-0.83,1.505-1.63,2.228-2.496
				c0.736-0.876,1.372-1.802,1.883-2.79c0.15-0.299,0.292-0.6,0.419-0.891c0.046-0.109,0.149-0.364,0.123-0.378
				C116.25,51.627,116.058,51.837,115.975,51.919z"/>
		</g>
	</g>
	<path fill="#A3CCC4" d="M58.345,47.827c0.348,0.566,0.718,1.133,1.1,1.68c1.223,1.823,2.611,3.618,4.374,5.083
		c1.796,1.443,3.954,2.446,6.264,2.607c0.681,0.055,1.372,0.036,2.023-0.061c0.24-0.036,0.787-0.131,0.791-0.225
		c0.003-0.096-0.498-0.335-0.693-0.432c-0.559-0.277-1.124-0.565-1.662-0.878c-1.813-1.012-3.492-2.015-5.341-3.024
		c-1.799-1.021-3.668-2.074-5.308-3.473c-0.503-0.417-0.981-0.881-1.433-1.363l-0.456-0.481L58.345,47.827z"/>
	<path fill="#A3CCC4" d="M45.547,61.301c-0.362,0.396-0.737,0.761-1.058,1.176l-0.324,0.404l0.426-0.299
		c0.399-0.321,0.858-0.563,1.298-0.804c1.517-0.715,3.103-0.858,4.649-0.898c1.57-0.061,3.166-0.134,4.85-0.623
		c0.499-0.144,1-0.316,1.476-0.528c0.171-0.076,0.572-0.262,0.563-0.354C57.42,59.284,57,59.142,56.83,59.084
		c-0.48-0.161-0.97-0.31-1.466-0.439c-1.637-0.433-3.378-0.575-5.193-0.105C48.375,58.985,46.766,60.076,45.547,61.301z"/>
	<path fill="#A3CCC4" d="M50.698,54.669l-0.497,0.241l0.54-0.096c0.53-0.097,1.071-0.092,1.591,0.009
		c1.71,0.292,3.172,1.287,4.758,2.038c1.605,0.774,3.355,1.378,5.322,1.303c0.57-0.013,1.164-0.108,1.701-0.274
		c0.203-0.069,0.645-0.229,0.636-0.329c-0.008-0.095-0.438-0.284-0.6-0.356c-0.471-0.226-0.928-0.456-1.381-0.714
		c-1.493-0.822-3.02-1.566-4.835-1.999c-1.782-0.404-3.742-0.618-5.608-0.293C51.765,54.285,51.204,54.438,50.698,54.669z"/>
	<path fill="#A3CCC4" d="M46.471,81.97c-0.117,0.08-0.248,0.131-0.376,0.197l-0.327,0.124c-0.218,0.088-0.449,0.132-0.679,0.187
		c-0.467,0.082-0.948,0.11-1.428,0.056c-1.917-0.174-3.684-1.68-4.161-3.546c-0.462-1.624-0.367-3.356,0.16-4.873
		c0.525-1.518,1.469-2.82,2.63-3.783c0.708-0.586,1.495-1.065,2.332-1.396c0.277-0.111,0.568-0.205,0.851-0.278
		c-0.27,0.125-0.533,0.263-0.786,0.41c-0.762,0.441-1.433,1.026-1.966,1.69c-1.771,2.225-1.898,5.212-0.896,7.439
		c0.421,0.968,1.241,1.588,2.2,1.796c0.238,0.051,0.481,0.063,0.732,0.063c0.121-0.014,0.25-0.005,0.377-0.035l0.188-0.032
		c0.033-0.012,0.08-0.007,0.115-0.024c0.3-0.063,0.624-0.328,0.739-0.742c0.036-0.123,0.055-0.257,0.047-0.398
		c0.008-0.076,0.011-0.148-0.034-0.237c-0.042-0.081-0.13-0.152-0.237-0.189c-0.049-0.031-0.125-0.022-0.171-0.038
		c-0.028-0.019-0.063-0.018-0.104-0.003c-0.065-0.001-0.124,0.174-0.128,0.222c0.013,0.04,0.079,0.068,0.104,0.077
		c0.042,0.001,0.063-0.056,0.084-0.062c0.013-0.012,0.09,0.032,0.05,0.156c-0.06,0.129-0.222,0.188-0.406,0.138
		c-0.408-0.197-0.372-0.653-0.277-0.875c0.068-0.16,0.193-0.309,0.362-0.398c0.151-0.08,0.276-0.143,0.438-0.168
		c0.309-0.06,0.66-0.02,0.962,0.14c0.307,0.156,0.569,0.44,0.726,0.765c0.132,0.264,0.22,0.558,0.26,0.864
		C47.99,80.24,47.463,81.387,46.471,81.97z"/>
	<g>
		<g>
			<path fill="#A3CCC4" d="M1.363,68.863c0.766,2.043,2.527,3.539,4.324,4.685c1.672,1.056,3.529,1.762,5.422,2.212
				c1.669,0.406,3.375,0.59,5.065,0.604c2.72,0.032,5.385-0.445,7.989-0.975c6.568-1.362,12.859-3.608,18.847-6.482
				c-5.982,2.853-12.404,4.974-18.985,5.535c-2.604,0.222-5.215,0.124-7.754-0.115c-1.586-0.138-3.158-0.324-4.69-0.654
				c-1.741-0.368-3.449-0.878-5.014-1.68c-1.698-0.853-3.152-2.056-4.554-3.43c-0.133-0.131-0.523-0.441-0.671-0.366
				C1.206,68.271,1.308,68.715,1.363,68.863z"/>
			<path fill="#A3CCC4" d="M49.12,65.649c-1.993,1.164-4.032,2.253-6.109,3.258C45.093,67.91,47.13,66.817,49.12,65.649z"/>
		</g>
	</g>
	<g>
		<g>
			<path fill="#A3CCC4" d="M8.691,67.066c-0.047-0.01-0.091-0.01-0.139-0.003l0,0c-0.006-0.025-0.035-0.043-0.063-0.036
				c-0.023,0.014-0.03,0.038-0.023,0.061c-0.044,0.017-0.081,0.042-0.116,0.075l0,0c-0.018-0.019-0.045-0.015-0.063,0.01
				c-0.014,0.023-0.008,0.051,0.012,0.061c-0.025,0.041-0.044,0.088-0.048,0.136l0,0c-0.022-0.006-0.057,0.015-0.051,0.045
				c0.005,0.027,0.025,0.046,0.047,0.049c0.004,0.035,0.007,0.063,0.019,0.099c0.006,0.016,0.013,0.028,0.021,0.043
				c-0.022,0.013-0.028,0.044-0.01,0.073c0.018,0.021,0.045,0.023,0.061,0.008c0.031,0.038,0.073,0.07,0.117,0.089
				c-0.009,0.024,0,0.058,0.029,0.061c0.025,0.007,0.046-0.008,0.056-0.027c0.046,0.01,0.093,0.011,0.141,0.004
				c0.006,0.022,0.03,0.035,0.056,0.026c0.027-0.005,0.041-0.027,0.032-0.051l0,0l0,0c0,0,0.002,0.003,0.002,0.006
				c0.014,0.021,0.045,0.021,0.063-0.001c0.018-0.014,0.021-0.036,0.014-0.053c0.035-0.024,0.069-0.06,0.094-0.1l0,0
				c0.02,0.011,0.052-0.004,0.063-0.028c0.01-0.022-0.008-0.042-0.03-0.048C8.994,67.522,9,67.478,9,67.436
				c0.003-0.001,0.003-0.001,0.005,0c0.026-0.006,0.038-0.03,0.028-0.055c-0.004-0.023-0.021-0.035-0.04-0.03
				c-0.004-0.017-0.005-0.031-0.01-0.043c-0.008-0.026-0.021-0.051-0.038-0.077l0.003,0.001c0.019-0.016,0.021-0.047,0.005-0.066
				c-0.021-0.02-0.045-0.014-0.062,0c-0.032-0.028-0.07-0.057-0.111-0.072v-0.002c0.007-0.026-0.01-0.047-0.039-0.053
				C8.72,67.031,8.696,67.046,8.691,67.066z"/>
			<g>
				<g>
					<g>
						<path fill="#A3CCC4" d="M8.564,67.063c-0.006-0.023,0.014-0.043,0.042-0.042c0.028-0.003,0.047,0.018,0.046,0.043
							c-0.006,0.023-0.022,0.046-0.043,0.044C8.588,67.11,8.568,67.088,8.564,67.063z"/>
					</g>
					<g>
						<path fill="#A3CCC4" d="M8.393,67.137c-0.013-0.018-0.009-0.043,0.012-0.056c0.02-0.012,0.043-0.008,0.053,0.012
							c0.008,0.02,0.003,0.046-0.012,0.055C8.431,67.16,8.407,67.154,8.393,67.137z"/>
					</g>
					<g>
						<path fill="#A3CCC4" d="M8.277,67.294c-0.017-0.006-0.025-0.025-0.021-0.047c0.003-0.044,0.036,0.013,0.038-0.018
							c0.014-0.028,0.035,0.054,0.025,0.047C8.313,67.292,8.296,67.3,8.277,67.294z"/>
					</g>
					<g>
						<path fill="#A3CCC4" d="M8.248,67.48c-0.005,0.017-0.049-0.038-0.017,0.006c-0.021-0.017-0.027-0.044-0.015-0.052
							c0.016-0.011,0.029-0.017,0.03-0.011C8.309,67.487,8.254,67.469,8.248,67.48z"/>
					</g>
					<g>
						<path fill="#A3CCC4" d="M8.314,67.681c0.009,0.014-0.013,0.028-0.041,0.017c-0.028-0.003-0.01-0.029,0.004-0.035l0.029-0.007
							C8.311,67.652,8.312,67.668,8.314,67.681z"/>
					</g>
					<g>
						<path fill="#A3CCC4" d="M8.483,67.835c-0.003,0.013-0.021,0.019-0.036,0.003c-0.022-0.014-0.008-0.034,0.006-0.033h0.026
							C8.479,67.805,8.48,67.821,8.483,67.835z"/>
					</g>
					<g>
						<path fill="#A3CCC4" d="M8.711,67.827c-0.002,0.011-0.021,0.014-0.036,0.006c-0.024-0.02,0.007-0.01-0.001-0.023
							c-0.009-0.014,0.039,0.006,0.036-0.002C8.714,67.807,8.713,67.815,8.711,67.827z"/>
					</g>
					<g>
						<path fill="#A3CCC4" d="M8.859,67.724c0.009,0.005,0.006,0.016,0,0.023C8.85,67.756,8.86,67.73,8.843,67.75
							c-0.008-0.008-0.025,0.023-0.006-0.03C8.843,67.714,8.853,67.712,8.859,67.724z"/>
					</g>
					<g>
						<path fill="#A3CCC4" d="M8.979,67.567c0.002-0.011,0.014-0.013,0.023-0.005c0.011,0.006,0.007,0.018,0,0.024l-0.021-0.001
							L8.979,67.567z"/>
					</g>
					<g>
						<path fill="#A3CCC4" d="M9.003,67.358c-0.001-0.007,0.01-0.013,0.019-0.008c0.008,0.007,0.01,0.017,0.003,0.02l-0.021,0.006
							L9.003,67.358z"/>
					</g>
					<g>
						<path fill="#A3CCC4" d="M8.917,67.165l0.014-0.011c0.012-0.002,0.013,0.004,0.01,0.009l-0.014,0.014L8.917,67.165z"/>
					</g>
					<g>
						<path fill="#A3CCC4" d="M8.73,67.045l0.009-0.014c0.006-0.008,0.01,0.009,0.006,0.012l-0.008,0.008L8.73,67.045z"/>
					</g>
				</g>
			</g>
		</g>
		<g>
			<path fill="#A3CCC4" d="M9.597,68.954c-0.036,0.008-0.076,0.023-0.113,0.043l0.001,0.001C9.47,68.98,9.441,68.975,9.42,68.991
				c-0.012,0.016-0.011,0.042,0.002,0.054c-0.03,0.029-0.054,0.063-0.069,0.099l0,0c-0.021-0.007-0.046,0.006-0.05,0.029
				c-0.006,0.022,0.008,0.045,0.027,0.049c-0.006,0.042-0.004,0.082,0.003,0.124l0,0c-0.017,0.006-0.04,0.034-0.023,0.057
				c0.011,0.021,0.033,0.027,0.05,0.021c0.014,0.027,0.027,0.052,0.046,0.074c0.009,0.011,0.021,0.021,0.029,0.027
				c-0.014,0.018-0.01,0.047,0.013,0.059c0.024,0.015,0.047,0.011,0.055-0.007c0.039,0.018,0.08,0.032,0.121,0.036
				c-0.001,0.022,0.017,0.046,0.043,0.039c0.023-0.003,0.035-0.02,0.037-0.039c0.042-0.008,0.078-0.02,0.116-0.041
				c0.014,0.016,0.037,0.021,0.056,0.008c0.022-0.013,0.026-0.037,0.009-0.055l0,0c0,0,0.001-0.003,0.002-0.002
				c0.005,0.004,0.003,0.006,0.007,0.009c0.017,0.014,0.039,0.001,0.05-0.021c0.011-0.017,0.006-0.037-0.005-0.048
				c0.022-0.033,0.038-0.072,0.045-0.111c0,0,0.001,0.003,0.004,0c0.02,0.004,0.041-0.017,0.043-0.04
				c0.005-0.023-0.021-0.034-0.037-0.036c-0.001-0.036-0.009-0.078-0.021-0.112c0-0.002,0.002-0.003,0.002-0.003
				c0.021-0.009,0.021-0.035,0.009-0.051c-0.014-0.021-0.031-0.023-0.046-0.015c-0.008-0.013-0.014-0.024-0.021-0.033
				c-0.019-0.021-0.036-0.039-0.057-0.053l0,0c0.012-0.019,0.002-0.046-0.017-0.058c-0.019-0.007-0.04,0.006-0.049,0.021
				c-0.038-0.016-0.074-0.021-0.115-0.025c0,0-0.002,0-0.002-0.003c0.003-0.019-0.021-0.035-0.044-0.029
				C9.607,68.919,9.596,68.935,9.597,68.954z"/>
			<g>
				<g>
					<g>
						<path fill="#A3CCC4" d="M9.491,68.995c-0.011-0.021,0-0.04,0.021-0.048c0.021-0.011,0.047,0,0.051,0.021
							c0.008,0.02-0.001,0.043-0.02,0.05C9.527,69.023,9.505,69.015,9.491,68.995z"/>
					</g>
					<g>
						<path fill="#A3CCC4" d="M9.374,69.112c-0.018-0.008-0.02-0.028-0.009-0.046c0.01-0.02,0.034-0.021,0.045-0.009
							c0.015,0.012,0.02,0.035,0.012,0.049C9.413,69.122,9.389,69.124,9.374,69.112z"/>
					</g>
					<g>
						<path fill="#A3CCC4" d="M9.331,69.281c-0.015,0.001-0.031-0.014-0.03-0.03c0.002-0.019,0.014-0.033,0.029-0.029
							c0.017,0.002,0.029,0.015,0.03,0.034C9.361,69.267,9.349,69.279,9.331,69.281z"/>
					</g>
					<g>
						<path fill="#A3CCC4" d="M9.371,69.442c0.002,0.017-0.057-0.014-0.01,0.004c-0.021-0.004-0.037-0.023-0.03-0.034
							c0.009-0.014,0.016-0.023,0.019-0.017C9.42,69.433,9.37,69.426,9.371,69.442z"/>
					</g>
					<g>
						<path fill="#A3CCC4" d="M9.488,69.576c0.013,0.01,0.006,0.026-0.02,0.029s-0.031-0.008-0.02-0.021
							c0.005-0.007,0.019-0.021,0.02-0.026C9.466,69.558,9.479,69.572,9.488,69.576z"/>
					</g>
					<g>
						<path fill="#A3CCC4" d="M9.671,69.646c0.005,0.012,0.002,0.031-0.019,0.024c-0.023-0.006-0.027-0.02-0.017-0.026
							c0.008-0.008,0.022-0.017,0.022-0.017L9.671,69.646z"/>
					</g>
					<g>
						<path fill="#A3CCC4" d="M9.859,69.578c0.003,0.009-0.005,0.018-0.023,0.017c-0.014-0.005-0.019-0.012-0.012-0.02L9.85,69.56
							C9.852,69.558,9.856,69.568,9.859,69.578z"/>
					</g>
					<g>
						<path fill="#A3CCC4" d="M9.947,69.438l0.007,0.024c-0.002,0.02-0.014-0.008-0.016,0.005c-0.008,0.013-0.015-0.023-0.013-0.022
							L9.947,69.438z"/>
					</g>
					<g>
						<path fill="#A3CCC4" d="M9.989,69.274c0.021,0.008-0.005-0.011,0.009-0.006c0.01,0.006,0.013,0.017,0.008,0.024l-0.014,0.005
							C9.991,69.293,9.97,69.263,9.989,69.274z"/>
					</g>
					<g>
						<path fill="#A3CCC4" d="M9.941,69.098l0.009-0.011c0.013,0.001,0.018,0.009,0.015,0.017L9.951,69.11L9.941,69.098z"/>
					</g>
					<g>
						
							<rect x="9.812" y="68.955" transform="matrix(-0.5547 0.8321 -0.8321 -0.5547 72.6474 99.0422)" fill="#A3CCC4" width="0.018" height="0.011"/>
					</g>
					<g>
						<path fill="#A3CCC4" d="M9.622,68.929v-0.02c0.007-0.006,0.011,0.005,0.011,0.01l-0.004,0.009L9.622,68.929z"/>
					</g>
				</g>
			</g>
		</g>
		<g>
			<path fill="#A3CCC4" d="M11.271,70.412c-0.038-0.003-0.073,0.002-0.108,0.008l0,0c-0.006-0.019-0.028-0.024-0.049-0.018
				c-0.015,0.013-0.021,0.029-0.016,0.046c-0.033,0.015-0.062,0.036-0.084,0.064l0,0c-0.017-0.015-0.043-0.008-0.056,0.009
				c-0.009,0.019,0,0.036,0.017,0.046c-0.02,0.032-0.031,0.066-0.035,0.103l-0.001-0.003c-0.02,0-0.034,0.017-0.034,0.039
				c0.001,0.024,0.018,0.033,0.035,0.034c0.006,0.035,0.015,0.069,0.034,0.1l0,0c-0.015,0.01-0.026,0.039-0.007,0.055
				c0.015,0.012,0.032,0.011,0.048,0c0.016,0.02,0.035,0.037,0.057,0.056c0.008,0.004,0.018,0.01,0.032,0.017
				c-0.009,0.019,0.003,0.038,0.026,0.045c0.018,0.006,0.036-0.002,0.038-0.019c0.038,0.008,0.073,0.006,0.109,0.003
				c0.001,0.02,0.024,0.038,0.045,0.025c0.017-0.008,0.027-0.025,0.024-0.043c0.029-0.011,0.061-0.032,0.087-0.061
				c0.015,0.012,0.035,0.01,0.047-0.006c0.019-0.019,0.017-0.036,0-0.049l0,0l0,0c0.002,0.002,0.003,0.005,0.003,0.005
				c0.021,0.009,0.037-0.007,0.043-0.028c0.004-0.019-0.006-0.031-0.017-0.038c0.009-0.033,0.015-0.071,0.016-0.104l0,0
				c0.016-0.005,0.031-0.026,0.026-0.046c-0.001-0.021-0.022-0.028-0.039-0.025c-0.006-0.033-0.022-0.065-0.044-0.097h0.007
				c0.011-0.015,0.009-0.035-0.009-0.051c-0.014-0.01-0.031-0.01-0.042,0.003c-0.009-0.01-0.019-0.015-0.028-0.022
				c-0.017-0.014-0.039-0.023-0.062-0.03l0,0c0.007-0.021-0.009-0.04-0.029-0.044C11.287,70.382,11.273,70.399,11.271,70.412z"/>
			<g>
				<g>
					<g>
						<path fill="#A3CCC4" d="M11.171,70.422c-0.007-0.019,0.009-0.038,0.029-0.041c0.019,0.001,0.035,0.016,0.037,0.033
							c0.001,0.02-0.012,0.036-0.028,0.041C11.191,70.454,11.176,70.44,11.171,70.422z"/>
					</g>
					<g>
						<path fill="#A3CCC4" d="M11.035,70.494c-0.013-0.012-0.01-0.031,0.004-0.04c0.016-0.011,0.034-0.008,0.043,0.004
							c0.009,0.016,0.006,0.035-0.004,0.043C11.065,70.51,11.046,70.507,11.035,70.494z"/>
					</g>
					<g>
						<path fill="#A3CCC4" d="M10.952,70.619c-0.009-0.004-0.018-0.019-0.012-0.035c0.003-0.017,0.019-0.021,0.034-0.017
							c0.011,0.008,0.016,0.024,0.015,0.038C10.983,70.615,10.97,70.625,10.952,70.619z"/>
					</g>
					<g>
						<path fill="#A3CCC4" d="M10.95,70.771c-0.013,0.005-0.027-0.004-0.029-0.019c-0.001-0.015,0.021,0.006,0.011-0.021
							c-0.017-0.031,0.031,0.003,0.035,0.016C10.97,70.756,10.965,70.767,10.95,70.771z"/>
					</g>
					<g>
						<path fill="#A3CCC4" d="M11.016,70.902c-0.026,0.003,0.009,0.011-0.014,0.012c-0.018,0.002-0.029-0.013-0.023-0.02
							c0.006-0.008,0.012-0.021,0.014-0.019C10.983,70.874,11.033,70.893,11.016,70.902z"/>
					</g>
					<g>
						<path fill="#A3CCC4" d="M11.152,70.999c0.008,0.007-0.002,0.019-0.021,0.025c-0.014,0.009-0.017-0.014-0.01-0.02l0.016-0.017
							C11.138,70.983,11.144,70.994,11.152,70.999z"/>
					</g>
					<g>
						<path fill="#A3CCC4" d="M11.322,71.021c0.004,0.012,0.003,0.016-0.013,0.015c-0.019,0.001-0.023-0.007-0.017-0.015
							l0.015-0.015L11.322,71.021z"/>
					</g>
					<g>
						<path fill="#A3CCC4" d="M11.465,70.915c0,0.007-0.006,0.016-0.016,0.017c-0.011,0-0.017-0.007-0.012-0.012l0.015-0.017
							L11.465,70.915z"/>
					</g>
					<g>
						<path fill="#A3CCC4" d="M11.512,70.782l0.01,0.015c0,0.014-0.013-0.004-0.013,0.007c0.002,0.021-0.017-0.008-0.01-0.016
							L11.512,70.782z"/>
					</g>
					<g>
						<path fill="#A3CCC4" d="M11.513,70.626c0.009,0-0.008-0.01,0.009-0.006l0.011,0.017l-0.013,0.007
							C11.525,70.645,11.5,70.625,11.513,70.626z"/>
					</g>
					<g>
						
							<rect x="11.44" y="70.473" transform="matrix(-0.6402 0.7682 -0.7682 -0.6402 72.9206 106.8058)" fill="#A3CCC4" width="0.015" height="0.014"/>
					</g>
					<g>
						
							<rect x="11.292" y="70.384" transform="matrix(-0.4741 0.8805 -0.8805 -0.4741 78.6304 93.8109)" fill="#A3CCC4" width="0.014" height="0.009"/>
					</g>
				</g>
			</g>
		</g>
		<g>
			<path fill="#A3CCC4" d="M13.072,71.473c-0.03,0.005-0.063,0.013-0.088,0.028l-0.002-0.003c-0.007-0.018-0.027-0.016-0.042-0.007
				c-0.015,0.014-0.016,0.027-0.009,0.041c-0.022,0.02-0.045,0.043-0.063,0.071l0,0c-0.015-0.009-0.035-0.001-0.041,0.016
				c-0.003,0.018,0.007,0.03,0.019,0.037c-0.009,0.031-0.015,0.063-0.01,0.096l-0.004,0.001c-0.017,0-0.024,0.02-0.021,0.038
				c0.007,0.019,0.02,0.026,0.036,0.022c0.008,0.028,0.022,0.058,0.044,0.081l0,0c-0.013,0.01-0.018,0.041,0.004,0.046
				c0.011,0.013,0.028,0.008,0.04-0.003c0.019,0.019,0.037,0.029,0.058,0.036c0.009,0.005,0.021,0.007,0.028,0.01
				c-0.003,0.016,0.009,0.031,0.029,0.035c0.02,0.003,0.031-0.012,0.036-0.025c0.03,0.002,0.064-0.005,0.092-0.014
				c0.006,0.013,0.026,0.024,0.042,0.014c0.015-0.01,0.018-0.028,0.014-0.041c0.028-0.019,0.05-0.04,0.067-0.068
				c0.017,0.007,0.034,0.001,0.04-0.015c0.014-0.017,0.006-0.033-0.011-0.04l0.001,0.001l0,0l0.007,0.002
				c0.017,0.003,0.028-0.012,0.03-0.031c0-0.017-0.008-0.023-0.021-0.028c0.005-0.034,0.002-0.066-0.003-0.094l0.003-0.002
				c0.013-0.009,0.021-0.028,0.014-0.043c-0.008-0.02-0.026-0.021-0.037-0.014c-0.013-0.026-0.031-0.055-0.057-0.073l0.004-0.005
				c0.01-0.014,0.006-0.032-0.016-0.042c-0.014-0.003-0.028,0-0.034,0.011c-0.009-0.005-0.02-0.011-0.029-0.015
				c-0.021-0.009-0.039-0.012-0.061-0.02l0,0c0.003-0.015-0.016-0.032-0.031-0.032C13.084,71.446,13.073,71.461,13.072,71.473z"/>
			<g>
				<g>
					<g>
						<path fill="#A3CCC4" d="M12.989,71.5c-0.007-0.016,0.001-0.034,0.018-0.039c0.021-0.005,0.039,0.007,0.038,0.021
							c0.004,0.019-0.006,0.034-0.02,0.04C13.015,71.522,12.997,71.513,12.989,71.5z"/>
					</g>
					<g>
						<path fill="#A3CCC4" d="M12.887,71.588c-0.013-0.01-0.017-0.028-0.003-0.038c0.011-0.014,0.024-0.015,0.036-0.002
							c0.011,0.007,0.013,0.026,0.005,0.034C12.918,71.592,12.897,71.592,12.887,71.588z"/>
					</g>
					<g>
						<path fill="#A3CCC4" d="M12.84,71.705c-0.013-0.001-0.025-0.012-0.02-0.026c0-0.013,0.014-0.024,0.025-0.019
							c0.015,0.003,0.021,0.018,0.023,0.026C12.866,71.699,12.853,71.706,12.84,71.705z"/>
					</g>
					<g>
						<path fill="#A3CCC4" d="M12.86,71.84c-0.01,0.003-0.022-0.001-0.028-0.012c-0.007-0.013,0.022,0.004,0.007-0.021
							c-0.02-0.022,0.028-0.004,0.029,0.005C12.876,71.823,12.871,71.832,12.86,71.84z"/>
					</g>
					<g>
						<path fill="#A3CCC4" d="M12.938,71.941c-0.014,0.007,0.019,0.009-0.008,0.017c-0.018,0.003-0.029-0.008-0.027-0.017
							c0.007-0.007,0.01-0.021,0.016-0.018C12.904,71.924,12.952,71.932,12.938,71.941z"/>
					</g>
					<g>
						<path fill="#A3CCC4" d="M13.07,72.004c0.008,0.003,0.005,0.019-0.01,0.025c-0.012,0.01-0.016-0.009-0.014-0.016l0.01-0.017
							C13.056,71.991,13.062,71.998,13.07,72.004z"/>
					</g>
					<g>
						<path fill="#A3CCC4" d="M13.224,71.983c0.003,0.008,0.011,0.021-0.001,0.018c-0.015-0.002-0.024-0.008-0.022-0.015
							c0.001-0.012,0.004-0.014,0.008-0.01L13.224,71.983z"/>
					</g>
					<g>
						<path fill="#A3CCC4" d="M13.33,71.875c0.007,0.006,0.004,0.011-0.007,0.018c-0.011,0.001-0.016-0.005-0.013-0.011l0.006-0.017
							L13.33,71.875z"/>
					</g>
					<g>
						
							<rect x="13.341" y="71.753" transform="matrix(-0.6 -0.8 0.8 -0.6 -36.05 125.4926)" fill="#A3CCC4" width="0.015" height="0.013"/>
					</g>
					<g>
						<path fill="#A3CCC4" d="M13.322,71.617c0.015,0.002-0.005-0.008,0.004-0.005l0.015,0.014l-0.009,0.006
							C13.328,71.631,13.307,71.616,13.322,71.617z"/>
					</g>
					<g>
						
							<rect x="13.23" y="71.502" transform="matrix(-0.7474 0.6644 -0.6644 -0.7474 70.635 116.1583)" fill="#A3CCC4" width="0.012" height="0.01"/>
					</g>
					<g>
						<rect x="13.091" y="71.444" fill="#A3CCC4" width="0.011" height="0.014"/>
					</g>
				</g>
			</g>
		</g>
		<g>
			<path fill="#A3CCC4" d="M15.311,72.368c0.014-0.009,0.016-0.027,0.008-0.042c-0.006-0.013-0.024-0.013-0.034-0.004
				c-0.016-0.023-0.035-0.046-0.059-0.06l0.003-0.005c0.006-0.012-0.002-0.028-0.018-0.033c-0.013-0.003-0.024,0.001-0.029,0.013
				c-0.009-0.003-0.02-0.006-0.028-0.01c-0.018-0.006-0.036-0.007-0.052-0.005l0,0c-0.003-0.021-0.018-0.029-0.033-0.025
				c-0.017,0.003-0.021,0.015-0.018,0.03c-0.031,0.004-0.054,0.016-0.08,0.03c0,0,0,0,0.001-0.002
				c-0.011-0.013-0.028-0.011-0.039-0.001c-0.011,0.014-0.008,0.026-0.002,0.037c-0.018,0.019-0.035,0.041-0.044,0.068l0,0
				c-0.014-0.005-0.032,0.004-0.036,0.022c-0.001,0.018,0.01,0.026,0.021,0.029c-0.004,0.025-0.002,0.057,0.003,0.085l0,0
				c-0.015,0.002-0.022,0.02-0.015,0.037c0.009,0.013,0.02,0.018,0.031,0.014c0.013,0.021,0.029,0.048,0.053,0.067l0,0
				c-0.01,0.012-0.014,0.031,0.005,0.039c0.014,0.008,0.028,0.003,0.036-0.007c0.015,0.008,0.035,0.017,0.053,0.02
				c0.011,0.004,0.02,0.007,0.029,0.007c-0.002,0.015,0.014,0.025,0.027,0.023c0.016,0.003,0.028-0.007,0.025-0.023
				c0.028-0.004,0.058-0.012,0.08-0.023c0.008,0.01,0.028,0.018,0.043,0.004c0.01-0.008,0.008-0.024,0.002-0.035
				c0.021-0.017,0.039-0.039,0.057-0.067c0.011,0.005,0.024-0.002,0.03-0.014c0.007-0.015-0.003-0.031-0.012-0.035l0,0l-0.004-0.001
				c0.005,0.001,0.005,0.001,0.011,0.002c0.012-0.001,0.023-0.014,0.02-0.032c-0.001-0.014-0.011-0.02-0.021-0.021
				c0-0.031-0.006-0.058-0.017-0.086L15.311,72.368z"/>
			<g>
				<g>
					<g>
						<path fill="#A3CCC4" d="M15.305,72.325c0.008-0.012,0.045-0.022,0.037,0.015c-0.004,0.037-0.026,0.041-0.031,0.028
							c-0.001-0.015-0.019-0.036-0.023-0.025L15.305,72.325z"/>
					</g>
					<g>
						<path fill="#A3CCC4" d="M15.214,72.228c-0.002-0.015,0.019-0.016,0.034,0.016c0.008,0.052-0.016,0.003-0.018,0.021
							c-0.006,0.022-0.023-0.039-0.03-0.016C15.199,72.263,15.211,72.237,15.214,72.228z"/>
					</g>
					<g>
						<path fill="#A3CCC4" d="M15.076,72.202c0.002-0.011,0.022-0.01,0.037,0.007c0.011,0.017-0.016-0.017-0.001,0.013
							c0.017,0.028-0.031,0.002-0.039,0.001C15.068,72.225,15.073,72.215,15.076,72.202z"/>
					</g>
					<g>
						<path fill="#A3CCC4" d="M14.958,72.259c-0.01-0.015,0.046-0.013,0.005-0.019c0.012-0.005,0.022,0,0.027,0.01l-0.008,0.022
							C14.931,72.263,14.968,72.271,14.958,72.259z"/>
					</g>
					<g>
						<path fill="#A3CCC4" d="M14.881,72.361c0.018-0.013-0.008-0.007-0.004-0.018l0.024-0.006l0.005,0.022
							C14.9,72.362,14.861,72.376,14.881,72.361z"/>
					</g>
					<g>
						
							<rect x="14.864" y="72.461" transform="matrix(0.7311 0.6823 -0.6823 0.7311 53.4486 9.3423)" fill="#A3CCC4" width="0.02" height="0.02"/>
					</g>
					<g>
						<rect x="14.912" y="72.578" fill="#A3CCC4" width="0.019" height="0.02"/>
					</g>
					<g>
						
							<rect x="15.013" y="72.655" transform="matrix(0.9285 -0.3714 0.3714 0.9285 -25.9115 10.7755)" fill="#A3CCC4" width="0.016" height="0.014"/>
					</g>
					<g>
						
							<rect x="15.138" y="72.661" transform="matrix(0.4741 -0.8805 0.8805 0.4741 -56.0166 51.551)" fill="#A3CCC4" width="0.014" height="0.012"/>
					</g>
					<g>
						<polygon fill="#A3CCC4" points="15.261,72.601 15.262,72.612 15.249,72.615 15.248,72.598 						"/>
					</g>
					<g>
						<path fill="#A3CCC4" d="M15.324,72.499l-0.003,0.01c-0.004,0.005,0.001-0.016-0.004-0.004
							c-0.007,0.012-0.003-0.017,0.004-0.01L15.324,72.499z"/>
					</g>
					<g>
						<path fill="#A3CCC4" d="M15.311,72.368l0.005,0.002l-0.006,0.009l-0.003-0.004C15.302,72.373,15.311,72.359,15.311,72.368z"/>
					</g>
				</g>
			</g>
		</g>
		<g>
			<path fill="#A3CCC4" d="M17.217,73.109c0.025-0.008,0.045-0.016,0.063-0.029c0.009,0.012,0.029,0.015,0.038,0.003
				c0.009-0.011,0.006-0.025,0-0.032c0.017-0.017,0.032-0.041,0.042-0.064c0.009,0.003,0.021-0.004,0.027-0.016
				c0.003-0.017-0.004-0.03-0.016-0.031l0,0l0,0c0,0,0.003,0,0.005,0.001c0.011-0.002,0.019-0.012,0.017-0.027
				c-0.003-0.014-0.013-0.019-0.022-0.02c-0.003-0.025-0.006-0.049-0.019-0.073l0,0c0.013-0.007,0.012-0.023,0.005-0.034
				c-0.009-0.012-0.024-0.01-0.031-0.001c-0.018-0.02-0.033-0.036-0.057-0.05c0.001,0.001,0.001-0.001,0.001-0.001
				c0.005-0.014-0.003-0.023-0.018-0.03c-0.011,0-0.022,0.005-0.023,0.016c-0.011-0.004-0.017-0.006-0.025-0.005
				c-0.017-0.003-0.034-0.006-0.048-0.006l0,0c-0.005-0.012-0.019-0.021-0.034-0.019c-0.01,0.005-0.014,0.021-0.012,0.029
				c-0.023,0.008-0.048,0.021-0.064,0.036c-0.001-0.003-0.001-0.003-0.001-0.003c-0.01-0.008-0.022-0.004-0.032,0.006
				c-0.009,0.013-0.007,0.021,0,0.029c-0.013,0.021-0.023,0.044-0.03,0.068l-0.002-0.002c-0.011-0.003-0.03,0.01-0.028,0.021
				c0.001,0.016,0.012,0.021,0.021,0.024c-0.001,0.027,0.001,0.053,0.009,0.073l0,0c-0.009,0.005-0.015,0.021-0.008,0.033
				c0.008,0.012,0.018,0.015,0.028,0.01c0.015,0.021,0.031,0.039,0.054,0.053l0,0c-0.01,0.012-0.007,0.033,0.006,0.035
				c0.014,0.004,0.026,0,0.028-0.011c0.018,0.009,0.035,0.014,0.052,0.013c0.011,0.004,0.02,0.003,0.024,0.003
				c0.003,0.016,0.015,0.025,0.028,0.02C17.208,73.13,17.215,73.118,17.217,73.109z"/>
			<g>
				<g>
					<g>
						<path fill="#A3CCC4" d="M17.277,73.083c0.006,0.01,0.002,0.021-0.01,0.029c-0.014,0.003-0.027-0.001-0.031-0.013
							c-0.004-0.015,0-0.026,0.012-0.03C17.258,73.066,17.27,73.071,17.277,73.083z"/>
					</g>
					<g>
						<path fill="#A3CCC4" d="M17.347,73.007c0.011,0.002,0.014,0.015,0.005,0.028c-0.004,0.007-0.017,0.009-0.024,0.003
							c-0.009-0.006-0.013-0.02-0.009-0.026C17.322,73.002,17.336,73.001,17.347,73.007z"/>
					</g>
					<g>
						<path fill="#A3CCC4" d="M17.393,72.916c0.011-0.004,0.018,0.005,0.003,0.03c-0.015,0.013-0.025,0.005-0.023-0.007
							c0.005-0.005,0.004-0.021-0.001-0.025C17.365,72.919,17.383,72.918,17.393,72.916z"/>
					</g>
					<g>
						<path fill="#A3CCC4" d="M17.354,72.802c0.009,0.001,0.018,0.014,0.013,0.027c0.002-0.028-0.002,0.007-0.01,0.005
							c-0.007-0.005-0.024,0.018-0.013-0.027C17.34,72.802,17.346,72.805,17.354,72.802z"/>
					</g>
					<g>
						<path fill="#A3CCC4" d="M17.271,72.734c0.015,0.017,0.002-0.01,0.013-0.006l0.002,0.021l-0.017,0.005
							C17.26,72.749,17.26,72.716,17.271,72.734z"/>
					</g>
					<g>
						
							<rect x="17.166" y="72.704" transform="matrix(-0.7593 0.6508 -0.6508 -0.7593 77.536 116.7414)" fill="#A3CCC4" width="0.018" height="0.016"/>
					</g>
					<g>
						<rect x="17.068" y="72.731" fill="#A3CCC4" width="0.015" height="0.015"/>
					</g>
					<g>
						<rect x="16.994" y="72.807" fill="#A3CCC4" width="0.013" height="0.01"/>
					</g>
					<g>
						
							<rect x="16.968" y="72.906" transform="matrix(0.7809 0.6247 -0.6247 0.7809 49.2672 5.3733)" fill="#A3CCC4" width="0.013" height="0.012"/>
					</g>
					<g>
						<path fill="#A3CCC4" d="M17.009,73.021c0.001,0.006-0.018-0.002-0.003,0.003l-0.01-0.011L17,73.008
							C17.023,73.018,17.006,73.018,17.009,73.021z"/>
					</g>
					<g>
						<rect x="17.075" y="73.094" fill="#A3CCC4" width="0.01" height="0.01"/>
					</g>
					<g>
						<polygon fill="#A3CCC4" points="17.2,73.124 17.199,73.134 17.193,73.13 17.196,73.126 						"/>
					</g>
				</g>
			</g>
		</g>
		<g>
			<path fill="#A3CCC4" d="M19.337,73.337c0.022-0.003,0.04-0.019,0.057-0.029c0.008,0.008,0.023,0.011,0.032,0.003
				c0.008-0.012,0.003-0.023-0.004-0.031c0.014-0.017,0.024-0.039,0.033-0.058c0.01,0,0.018-0.005,0.021-0.019
				c0.002-0.013-0.004-0.021-0.014-0.023l0,0l0,0h0.003c0.011-0.001,0.017-0.013,0.013-0.026c-0.002-0.008-0.012-0.015-0.019-0.015
				c-0.003-0.021-0.013-0.043-0.026-0.061l0,0c0.014-0.009,0.012-0.022,0.002-0.033c-0.005-0.008-0.018-0.007-0.023,0
				c-0.016-0.013-0.036-0.028-0.056-0.038c-0.002,0,0,0,0.003-0.001c0-0.011-0.006-0.021-0.019-0.022
				c-0.012-0.002-0.02,0.003-0.021,0.012c-0.011,0.001-0.015-0.001-0.021-0.001c-0.017-0.002-0.029,0.001-0.046,0.002l0.003-0.001
				c-0.006-0.011-0.02-0.019-0.031-0.012c-0.01,0.002-0.013,0.015-0.008,0.025c-0.02,0.01-0.04,0.021-0.056,0.034l0,0
				c-0.008-0.004-0.022-0.005-0.028,0.009c-0.006,0.012-0.005,0.018,0.003,0.024c-0.011,0.021-0.019,0.039-0.022,0.063l0,0
				c-0.012-0.003-0.025,0.005-0.025,0.021c0.002,0.012,0.014,0.018,0.022,0.019c0,0.021,0.005,0.043,0.016,0.063l0,0
				c-0.013,0.005-0.016,0.02-0.008,0.028c0.009,0.012,0.021,0.012,0.027,0.005c0.014,0.021,0.029,0.033,0.048,0.044l0,0
				c-0.005,0.011-0.002,0.028,0.014,0.03c0.011,0.005,0.019-0.004,0.024-0.01c0.013,0.002,0.028,0.007,0.043,0.006
				c0.005,0,0.016-0.002,0.022-0.002c0.002,0.014,0.012,0.018,0.025,0.02C19.332,73.358,19.339,73.348,19.337,73.337z"/>
			<g>
				<g>
					<g>
						<path fill="#A3CCC4" d="M19.391,73.309c0.009,0.009,0.004,0.021-0.007,0.026c-0.012,0.007-0.024,0.005-0.028-0.006
							l0.007-0.026C19.371,73.297,19.384,73.302,19.391,73.309z"/>
					</g>
					<g>
						<path fill="#A3CCC4" d="M19.444,73.237c0.008,0.002,0.013,0.017,0.01,0.024c-0.006,0.011-0.015,0.014-0.024,0.007
							l-0.006-0.023L19.444,73.237z"/>
					</g>
					<g>
						<path fill="#A3CCC4" d="M19.479,73.153c0.008-0.004,0.018,0.005,0.005,0.024c-0.014,0.015-0.021,0.013-0.021,0.002
							l-0.004-0.021C19.455,73.164,19.472,73.159,19.479,73.153z"/>
					</g>
					<g>
						<path fill="#A3CCC4" d="M19.436,73.058c0.007,0,0.016,0.011,0.01,0.023c-0.008,0.014,0.008-0.018-0.008,0.004
							c-0.005-0.005-0.017,0.019-0.013-0.021L19.436,73.058z"/>
					</g>
					<g>
						<path fill="#A3CCC4" d="M19.357,73.005c0.015,0.013,0.002-0.008,0.01-0.006l0.005,0.019l-0.014,0.008
							C19.351,73.021,19.348,72.991,19.357,73.005z"/>
					</g>
					<g>
						
							<rect x="19.265" y="72.987" transform="matrix(-0.5812 0.8137 -0.8137 -0.5812 89.8741 99.7404)" fill="#A3CCC4" width="0.017" height="0.017"/>
					</g>
					<g>
						<polygon fill="#A3CCC4" points="19.178,73.031 19.184,73.017 19.194,73.021 19.194,73.034 						"/>
					</g>
					<g>
						
							<rect x="19.124" y="73.09" transform="matrix(0.5547 0.8321 -0.8321 0.5547 69.3382 16.6337)" fill="#A3CCC4" width="0.011" height="0.014"/>
					</g>
					<g>
						
							<rect x="19.106" y="73.183" transform="matrix(0.8321 0.5547 -0.5547 0.8321 43.8063 1.6906)" fill="#A3CCC4" width="0.011" height="0.008"/>
					</g>
					<g>
						<path fill="#A3CCC4" d="M19.149,73.279c0.001,0.003-0.014,0.001-0.002,0.002l-0.007-0.007l0.002-0.002
							C19.161,73.272,19.147,73.276,19.149,73.279z"/>
					</g>
					<g>
						<rect x="19.215" y="73.339" fill="#A3CCC4" width="0.005" height="0.01"/>
					</g>
					<g>
						<polygon fill="#A3CCC4" points="19.326,73.355 19.325,73.364 19.318,73.357 19.32,73.354 						"/>
					</g>
				</g>
			</g>
		</g>
		<g>
			<path fill="#A3CCC4" d="M21.566,73.256L21.566,73.256L21.566,73.256c0.001-0.003,0.001-0.003,0.006-0.002
				c0.011-0.003,0.012-0.012,0.008-0.024c-0.003-0.007-0.011-0.009-0.018-0.01c-0.005-0.021-0.014-0.036-0.024-0.052l0,0
				c0.01-0.008,0.006-0.02,0-0.028c-0.009-0.009-0.019-0.006-0.023,0.003c-0.015-0.016-0.031-0.021-0.053-0.03l0.004-0.002
				c0.001-0.011-0.008-0.017-0.019-0.021c-0.01,0.004-0.017,0.008-0.019,0.015c-0.006-0.001-0.014-0.001-0.02-0.001
				c-0.014-0.003-0.022,0.003-0.036,0.004l0,0c-0.004-0.009-0.017-0.015-0.026-0.011c-0.012,0.006-0.012,0.017-0.007,0.025
				c-0.017,0.009-0.033,0.021-0.044,0.033c-0.002-0.001-0.002-0.001-0.002-0.001c-0.01-0.005-0.021-0.001-0.025,0.01
				c-0.003,0.01-0.002,0.015,0.007,0.021c-0.009,0.02-0.015,0.033-0.016,0.056l0,0c-0.013,0-0.021,0.007-0.021,0.02
				c0.001,0.01,0.012,0.018,0.021,0.013c0.002,0.024,0.009,0.041,0.017,0.057l0,0c-0.009,0.006-0.009,0.02-0.004,0.028
				c0.008,0.008,0.018,0.008,0.025,0.002c0.011,0.015,0.028,0.026,0.044,0.037l0,0c-0.002,0.006,0.004,0.021,0.011,0.022
				c0.014,0,0.02-0.006,0.023-0.012c0.011,0.004,0.023,0.005,0.038,0.004c0.005,0.002,0.014,0.001,0.019,0.001
				c0.003,0.008,0.015,0.013,0.025,0.014c0.01-0.007,0.018-0.014,0.012-0.024c0.018-0.005,0.034-0.016,0.049-0.029
				c0.005,0.005,0.021,0.011,0.025-0.002c0.005-0.01,0.005-0.019-0.002-0.025c0.01-0.016,0.018-0.033,0.023-0.055
				c0.008,0,0.02-0.005,0.019-0.013C21.583,73.264,21.578,73.254,21.566,73.256z"/>
			<g>
				<g>
					<g>
						<path fill="#A3CCC4" d="M21.566,73.222c-0.005-0.01,0.011-0.016,0.028-0.001c0.007,0.016-0.016,0.035-0.019,0.021
							c-0.007-0.007-0.019-0.008-0.013-0.006C21.562,73.245,21.569,73.229,21.566,73.222z"/>
					</g>
					<g>
						<path fill="#A3CCC4" d="M21.529,73.141c-0.001-0.006,0.022-0.019,0.022-0.002c0.005,0.019-0.006,0.028-0.013,0.023
							c-0.007-0.008-0.02-0.01-0.016-0.012L21.529,73.141z"/>
					</g>
					<g>
						<path fill="#A3CCC4" d="M21.45,73.095c-0.002-0.007,0.01-0.012,0.024,0.005c0.014,0.023-0.01,0.001-0.01,0.014
							c0,0.012-0.016-0.017-0.019-0.006C21.444,73.113,21.449,73.104,21.45,73.095z"/>
					</g>
					<g>
						<path fill="#A3CCC4" d="M21.359,73.102c0.001-0.007,0.013-0.009,0.023-0.003c-0.024-0.01,0.004,0.003-0.003,0.007
							c-0.003,0.005,0.014,0.023-0.019,0.008L21.359,73.102z"/>
					</g>
					<g>
						<path fill="#A3CCC4" d="M21.294,73.154c0.008-0.006-0.013-0.003,0-0.011l0.014,0.002l0.003,0.014
							C21.313,73.163,21.285,73.161,21.294,73.154z"/>
					</g>
					<g>
						
							<rect x="21.256" y="73.217" transform="matrix(0.5692 0.8222 -0.8222 0.5692 69.3647 14.061)" fill="#A3CCC4" width="0.015" height="0.015"/>
					</g>
					<g>
						
							<rect x="21.262" y="73.299" transform="matrix(0.8944 0.4472 -0.4472 0.8944 35.0277 -1.7725)" fill="#A3CCC4" width="0.013" height="0.009"/>
					</g>
					<g>
						<rect x="21.307" y="73.368" fill="#A3CCC4" width="0.012" height="0.01"/>
					</g>
					<g>
						<rect x="21.381" y="73.408" fill="#A3CCC4" width="0.011" height="0.006"/>
					</g>
					<g>
						<path fill="#A3CCC4" d="M21.473,73.401l-0.003,0.007c0.004-0.009-0.002,0.005-0.003-0.002l-0.004-0.001
							C21.473,73.39,21.47,73.4,21.473,73.401z"/>
					</g>
					<g>
						<rect x="21.539" y="73.351" fill="#A3CCC4" width="0.006" height="0.009"/>
					</g>
					<g>
						<rect x="21.575" y="73.268" fill="#A3CCC4" width="0.007" height="0.005"/>
					</g>
				</g>
			</g>
		</g>
		<g>
			<path fill="#A3CCC4" d="M23.576,73.058c0.002-0.009-0.007-0.016-0.017-0.017c-0.007-0.001-0.015,0.008-0.017,0.015
				c-0.005,0.001-0.011-0.001-0.017-0.004c-0.01,0.004-0.02,0.008-0.029,0.014l-0.001-0.003c-0.004-0.011-0.014-0.015-0.023-0.008
				c-0.01,0.005-0.007,0.017-0.006,0.022c-0.014,0.007-0.024,0.019-0.035,0.034c-0.002,0-0.002,0-0.002,0
				c-0.007-0.006-0.018-0.001-0.023,0.007c0,0.009,0.002,0.017,0.01,0.021c-0.008,0.015-0.01,0.03-0.011,0.048
				c-0.001,0.003-0.002,0-0.002,0c-0.011-0.001-0.018,0.009-0.016,0.019s0.012,0.015,0.02,0.013
				c0.001,0.018,0.008,0.032,0.018,0.048l0,0c-0.011,0.005-0.008,0.013-0.001,0.021c0.006,0.007,0.017,0.008,0.021,0.005
				c0.012,0.01,0.024,0.017,0.041,0.025l0,0c-0.004,0.007,0.001,0.023,0.011,0.02c0.01,0.004,0.019-0.006,0.021-0.013
				c0.011-0.001,0.021,0.005,0.033,0.004c0.005-0.002,0.01-0.003,0.016-0.004h0.002c0,0.008,0.01,0.015,0.019,0.01
				c0.012-0.003,0.012-0.01,0.012-0.02c0.015-0.009,0.026-0.019,0.04-0.029l0,0c0.005,0.005,0.017,0.006,0.023-0.002
				c0.003-0.012,0.002-0.02-0.007-0.026c0.01-0.014,0.014-0.027,0.017-0.045l0,0c0.009,0.003,0.018-0.004,0.019-0.016
				c0.003-0.008-0.004-0.016-0.015-0.016l0,0c0,0,0,0-0.001-0.002c0.003,0,0.003,0,0.003,0c0.011-0.003,0.011-0.013,0.008-0.023
				c-0.004-0.006-0.011-0.009-0.019-0.005c-0.005-0.019-0.014-0.033-0.024-0.045l0.001-0.003c0.006-0.006,0.006-0.017-0.001-0.021
				c-0.007-0.009-0.019-0.004-0.021,0.004c-0.014-0.014-0.028-0.019-0.046-0.024C23.576,73.058,23.576,73.058,23.576,73.058z"/>
			<g>
				<g>
					<g>
						<path fill="#A3CCC4" d="M23.556,73.051c-0.009-0.006,0-0.034,0.016-0.02c0.021,0.016,0.015,0.032,0.005,0.026
							c-0.005-0.005-0.025-0.002-0.015,0.005L23.556,73.051z"/>
					</g>
					<g>
						<path fill="#A3CCC4" d="M23.47,73.057c-0.003-0.007,0.005-0.016,0.022-0.012c0.027,0.011-0.002,0.013,0.007,0.018
							c0.008,0.01-0.026-0.001-0.021,0.007C23.482,73.073,23.477,73.061,23.47,73.057z"/>
					</g>
					<g>
						<path fill="#A3CCC4" d="M23.415,73.114c-0.008-0.003,0.003-0.016,0.017-0.015c-0.024,0.008,0.006-0.004,0.007,0.004
							c-0.004,0.005,0.021,0.013-0.016,0.02C23.42,73.128,23.423,73.12,23.415,73.114z"/>
					</g>
					<g>
						<path fill="#A3CCC4" d="M23.396,73.195c-0.008-0.005,0.014-0.031-0.005-0.008l0.017-0.012l0.008,0.011
							C23.394,73.21,23.405,73.195,23.396,73.195z"/>
					</g>
					<g>
						<path fill="#A3CCC4" d="M23.425,73.266c0.001-0.01-0.012,0.007-0.013-0.004l0.006-0.015l0.01,0.003
							C23.432,73.247,23.428,73.273,23.425,73.266z"/>
					</g>
					<g>
						
							<rect x="23.469" y="73.301" transform="matrix(0.8192 -0.5735 0.5735 0.8192 -37.7956 26.7138)" fill="#A3CCC4" width="0.012" height="0.014"/>
					</g>
					<g>
						
							<rect x="23.541" y="73.321" transform="matrix(0.7593 -0.6508 0.6508 0.7593 -42.0512 32.9761)" fill="#A3CCC4" width="0.009" height="0.01"/>
					</g>
					<g>
						<rect x="23.611" y="73.296" fill="#A3CCC4" width="0.011" height="0.009"/>
					</g>
					<g>
						<rect x="23.659" y="73.239" fill="#A3CCC4" width="0.008" height="0.007"/>
					</g>
					<g>
						<rect x="23.677" y="73.165" fill="#A3CCC4" width="0.007" height="0.01"/>
					</g>
					<g>
						<polygon fill="#A3CCC4" points="23.645,73.093 23.65,73.104 23.644,73.102 23.642,73.098 						"/>
					</g>
					<g>
						<path fill="#A3CCC4" d="M23.576,73.058c0.003-0.001,0.006,0.007,0.003-0.001l0.002,0.005l-0.005,0.004
							C23.567,73.052,23.576,73.058,23.576,73.058z"/>
					</g>
				</g>
			</g>
		</g>
		<g>
			<path fill="#A3CCC4" d="M25.656,72.868c-0.007,0.001-0.012-0.001-0.017,0.001c-0.011-0.001-0.019,0.005-0.025,0.009l-0.003-0.001
				c-0.001-0.01-0.014-0.012-0.018-0.004c-0.011,0.003-0.007,0.012-0.003,0.019c-0.014,0.007-0.024,0.02-0.03,0.029
				c-0.002,0.002-0.004-0.002-0.004-0.002c-0.006-0.001-0.016,0.001-0.019,0.012c-0.002,0.008,0.002,0.016,0.008,0.018
				c-0.005,0.011-0.009,0.025-0.006,0.041l0,0c-0.009,0.003-0.016,0.01-0.016,0.019c0.003,0.009,0.012,0.013,0.02,0.009
				c0.003,0.014,0.009,0.028,0.017,0.04l-0.002,0.002c-0.004,0.006-0.004,0.015,0.004,0.02c0.006,0.008,0.015,0.004,0.019,0.002
				c0.01,0.007,0.023,0.016,0.039,0.02c0,0-0.003,0-0.001,0.003c-0.003,0.004,0.002,0.017,0.011,0.015
				c0.008,0.003,0.016-0.005,0.017-0.015c0.011,0.003,0.02,0.005,0.03,0.004c0.003,0,0.007,0,0.011-0.006l-0.001,0.003
				c0.003,0.007,0.013,0.01,0.022,0.006c0.008-0.002,0.01-0.011,0.009-0.017c0.013-0.01,0.022-0.018,0.031-0.029l0,0
				c0.005,0.006,0.019,0.006,0.02-0.004c0.006-0.008,0.001-0.018-0.004-0.019c0.006-0.014,0.011-0.025,0.011-0.04l0,0
				c0.008-0.001,0.015-0.007,0.016-0.019c-0.001-0.008-0.004-0.013-0.014-0.012l0,0l0,0l0.003,0.001
				c0.008-0.004,0.01-0.015,0.005-0.021s-0.01-0.009-0.02-0.007c-0.004-0.015-0.011-0.026-0.022-0.038l0.003,0.001
				c0.007-0.007,0.003-0.019-0.005-0.023c-0.003-0.005-0.015,0.002-0.018,0.005c-0.013-0.006-0.024-0.012-0.04-0.018l0,0
				c-0.001-0.009-0.005-0.016-0.016-0.016C25.662,72.855,25.654,72.863,25.656,72.868z"/>
			<g>
				<g>
					<g>
						
							<rect x="25.618" y="72.862" transform="matrix(-0.356 0.9345 -0.9345 -0.356 102.8507 74.8643)" fill="#A3CCC4" width="0.022" height="0.02"/>
					</g>
					<g>
						<rect x="25.566" y="72.895" fill="#A3CCC4" width="0.02" height="0.016"/>
					</g>
					<g>
						
							<rect x="25.536" y="72.952" transform="matrix(0.5547 0.8321 -0.8321 0.5547 72.0801 11.2341)" fill="#A3CCC4" width="0.018" height="0.014"/>
					</g>
					<g>
						<path fill="#A3CCC4" d="M25.549,73.028l-0.015-0.007c0.018,0.012-0.008-0.005-0.001-0.008c0.012-0.004-0.006-0.016,0.02,0.003
							L25.549,73.028z"/>
					</g>
					<g>
						<path fill="#A3CCC4" d="M25.583,73.08c-0.009,0.003,0.011,0.003-0.005,0.006c-0.009,0.003-0.017-0.006-0.015-0.007
							l0.007-0.009C25.564,73.071,25.592,73.074,25.583,73.08z"/>
					</g>
					<g>
						<polygon fill="#A3CCC4" points="25.639,73.111 25.635,73.123 25.629,73.117 25.632,73.106 						"/>
					</g>
					<g>
						<rect x="25.698" y="73.103" fill="#A3CCC4" width="0.013" height="0.008"/>
					</g>
					<g>
						<rect x="25.756" y="73.059" fill="#A3CCC4" width="0.009" height="0.007"/>
					</g>
					<g>
						<rect x="25.777" y="72.99" fill="#A3CCC4" width="0.006" height="0.012"/>
					</g>
					<g>
						<path fill="#A3CCC4" d="M25.766,72.941c-0.001-0.004,0.013,0.003,0.005-0.003l0.004,0.008l-0.004,0.001
							C25.754,72.94,25.766,72.943,25.766,72.941z"/>
					</g>
					<g>
						<rect x="25.731" y="72.885" fill="#A3CCC4" width="0.007" height="0.003"/>
					</g>
					<g>
						<rect x="25.667" y="72.855" fill="#A3CCC4" width="0.004" height="0.007"/>
					</g>
				</g>
			</g>
		</g>
		<g>
			<path fill="#A3CCC4" d="M27.755,72.556c-0.007-0.001-0.013-0.003-0.013-0.003c-0.011,0.002-0.019,0.009-0.029,0.011
				c-0.004-0.003-0.006-0.004-0.011,0.002c-0.005,0.002-0.007,0.008-0.005,0.013c-0.013,0.004-0.022,0.016-0.027,0.027l0,0
				c-0.006-0.006-0.01-0.001-0.011,0.01c-0.002,0.002,0.001,0.009,0.005,0.012c-0.006,0.015-0.01,0.025-0.009,0.042
				c-0.006,0.001-0.013,0.007-0.009,0.012c0.002,0.007,0.009,0.006,0.015,0.009c0.004,0.016,0.013,0.025,0.02,0.037
				c0,0.005,0.001,0.008,0.003,0.015c0.006,0.005,0.008,0.004,0.013,0.002c0.011,0.007,0.025,0.013,0.038,0.016
				c0.003,0.006,0.008,0.006,0.012,0.008c0.003-0.001,0.009,0,0.01-0.007c0.011,0.002,0.016,0.002,0.026,0.004
				c0.004-0.002,0.007-0.004,0.013-0.005c0.005,0.004,0.01,0.005,0.013,0.002c0.004-0.006,0.007-0.007,0.009-0.014
				c0.011-0.003,0.02-0.014,0.029-0.025c0.006,0.002,0.019,0.002,0.019-0.006c-0.003-0.006-0.006-0.011-0.009-0.015
				c0.005-0.013,0.009-0.025,0.011-0.039c0.006-0.007,0.007-0.01,0.012-0.015c0-0.009-0.005-0.011-0.012-0.013l0,0l0,0l0,0
				c0.01,0.002,0.009-0.007,0.003-0.015c-0.006-0.002-0.009-0.003-0.013-0.004c-0.004-0.014-0.015-0.025-0.024-0.034
				c0.001-0.008,0.001-0.014,0-0.02c-0.007-0.005-0.015,0.002-0.016,0.007c-0.014-0.007-0.029-0.012-0.042-0.014
				c-0.002-0.005-0.007-0.007-0.013-0.01C27.756,72.546,27.753,72.549,27.755,72.556z"/>
			<g>
				<g>
					<g>
						
							<rect x="27.725" y="72.551" transform="matrix(-0.4472 0.8944 -0.8944 -0.4472 105.0325 80.2006)" fill="#A3CCC4" width="0.015" height="0.013"/>
					</g>
					<g>
						<rect x="27.675" y="72.584" fill="#A3CCC4" width="0.015" height="0.015"/>
					</g>
					<g>
						
							<rect x="27.656" y="72.635" transform="matrix(0.7071 0.7071 -0.7071 0.7071 59.466 1.7176)" fill="#A3CCC4" width="0.008" height="0.012"/>
					</g>
					<g>
						<path fill="#A3CCC4" d="M27.666,72.697l-0.01-0.003c0.014,0.007-0.006-0.007-0.001-0.008c0.005,0.002-0.004-0.011,0.013,0
							L27.666,72.697z"/>
					</g>
					<g>
						<path fill="#A3CCC4" d="M27.699,72.743c-0.01,0.003,0.004,0.002-0.005,0.003l-0.007-0.004l0.003-0.007
							C27.69,72.735,27.709,72.738,27.699,72.743z"/>
					</g>
					<g>
						<path fill="#A3CCC4" d="M27.756,72.76c-0.001,0.007,0.006,0.006-0.002,0.01l-0.008-0.003l0.001-0.008L27.756,72.76z"/>
					</g>
					<g>
						<rect x="27.808" y="72.753" fill="#A3CCC4" width="0.005" height="0.009"/>
					</g>
					<g>
						<rect x="27.857" y="72.71" fill="#A3CCC4" width="0.004" height="0.008"/>
					</g>
					<g>
						<rect x="27.866" y="72.654" fill="#A3CCC4" width="0.005" height="0.008"/>
					</g>
					<g>
						<rect x="27.851" y="72.611" fill="#A3CCC4" width="0.006" height="0.006"/>
					</g>
					<g>
						<rect x="27.819" y="72.565" fill="#A3CCC4" width="0.006" height="0.001"/>
					</g>
					<g>
						<polygon fill="#A3CCC4" points="27.76,72.549 27.764,72.543 27.767,72.55 27.765,72.549 						"/>
					</g>
				</g>
			</g>
		</g>
		<g>
			<path fill="#A3CCC4" d="M29.829,72.118c-0.003,0.003-0.008,0.002-0.012,0.001c-0.006,0.002-0.015,0.005-0.019,0.012
				c-0.005-0.001-0.011-0.005-0.015,0.001c-0.001,0.002-0.005,0.005-0.003,0.008c-0.012,0.007-0.018,0.016-0.021,0.027l-0.001,0.001
				c-0.004-0.005-0.011-0.002-0.01,0.008c0,0.004-0.001,0.008,0.005,0.01c-0.002,0.013-0.006,0.025-0.002,0.035
				c-0.007,0.001-0.013,0.008-0.012,0.015c0.005,0.003,0.01,0.004,0.015,0.008c0.007,0.01,0.011,0.019,0.021,0.028
				c-0.001,0.005,0,0.011,0.003,0.016c0.004,0.003,0.009,0.003,0.01-0.002c0.011,0.005,0.022,0.011,0.034,0.016
				c0.002,0.001,0.006,0.005,0.012,0.006c0.001-0.002,0.006-0.004,0.007-0.006c0.007,0,0.018,0.001,0.023,0
				c0.003-0.005,0.008-0.006,0.013-0.005c0.003,0.003,0.008,0.003,0.014-0.002c0.001-0.002,0.004-0.003,0-0.01
				c0.013-0.005,0.021-0.015,0.028-0.023c0.006,0.001,0.015,0.001,0.016-0.005l-0.008-0.011c0.007-0.011,0.008-0.026,0.008-0.039
				c0.001-0.002,0.007-0.007,0.009-0.011c-0.002-0.006-0.004-0.011-0.013-0.01l0,0l0,0l0.003-0.001
				c0.008-0.001,0.005-0.008,0.001-0.013c-0.004-0.003-0.008-0.005-0.01-0.003c-0.006-0.011-0.017-0.022-0.024-0.029
				c0.003-0.005,0.002-0.011-0.005-0.017c-0.001-0.007-0.009,0-0.011,0.006c-0.013-0.008-0.022-0.011-0.036-0.01
				c-0.004-0.003-0.008-0.008-0.012-0.009C29.834,72.112,29.832,72.113,29.829,72.118z"/>
			<g>
				<g>
					<g>
						<polygon fill="#A3CCC4" points="29.803,72.126 29.807,72.11 29.821,72.12 29.816,72.133 						"/>
					</g>
					<g>
						<rect x="29.763" y="72.147" fill="#A3CCC4" width="0.012" height="0.011"/>
					</g>
					<g>
						
							<rect x="29.746" y="72.193" transform="matrix(0.7071 0.7071 -0.7071 0.7071 59.7666 0.1092)" fill="#A3CCC4" width="0.011" height="0.013"/>
					</g>
					<g>
						<path fill="#A3CCC4" d="M29.762,72.25l-0.01-0.003c0.011,0.003-0.003-0.005,0-0.009c0.005-0.003-0.004-0.011,0.011,0.002
							L29.762,72.25z"/>
					</g>
					<g>
						<path fill="#A3CCC4" d="M29.792,72.285c-0.006,0.006,0.002,0.004-0.003,0.005l-0.008-0.002l0.004-0.009
							C29.785,72.282,29.803,72.282,29.792,72.285z"/>
					</g>
					<g>
						<polygon fill="#A3CCC4" points="29.841,72.301 29.841,72.306 29.834,72.307 29.835,72.296 						"/>
					</g>
					<g>
						<rect x="29.887" y="72.287" fill="#A3CCC4" width="0.007" height="0.01"/>
					</g>
					<g>
						<rect x="29.926" y="72.252" fill="#A3CCC4" width="0.006" height="0.008"/>
					</g>
					<g>
						<rect x="29.935" y="72.201" fill="#A3CCC4" width="0.004" height="0.006"/>
					</g>
					<g>
						<rect x="29.92" y="72.162" fill="#A3CCC4" width="0.004" height="0.007"/>
					</g>
					<g>
						<rect x="29.888" y="72.123" fill="#A3CCC4" width="0.004" height="0.006"/>
					</g>
					<g>
						<rect x="29.836" y="72.11" fill="#A3CCC4" width="0.003" height="0.005"/>
					</g>
				</g>
			</g>
		</g>
	</g>
	<g>
		<path fill="#A3CCC4" d="M88.81,28.53c1.265-0.65,2.815-0.157,3.463,1.106c0.655,1.263,0.158,2.813-1.104,3.466
			c-1.263,0.65-2.812,0.154-3.465-1.107C87.052,30.734,87.549,29.184,88.81,28.53z"/>
		<g>
			<g>
				<path fill="#A3CCC4" d="M91.987,29.331c-0.051,0.064-0.369-0.185-0.813-0.363c-1.18-0.556-2.668-0.18-3.505,0.782
					c-0.864,0.963-1.221,2.342-1.004,3.605c0.423,2.637,3.299,4.197,5.816,4.066c2.658-0.052,4.864-2.008,5.854-4.401
					c1.069-2.368,0.977-5.195-0.146-7.512c-2.36-4.67-8.359-6.796-13.329-5.641c-5.184,1.039-8.92,5.575-10.469,10.48
					c-1.608,4.944-0.954,10.548,1.709,14.977c2.648,4.455,7.252,7.528,12.096,9.295c9.822,3.588,21.569,0.554,28.344-7.317
					c0.748-0.645,1.046-0.221,1.247-0.086l0,0c0.159,0.177,0.647,0.383,0.058,1.256c-7.34,8.318-19.824,11.339-30.114,7.437
					c-5.066-1.917-9.851-5.179-12.646-9.987c-2.775-4.753-3.386-10.688-1.627-15.88c1.668-5.118,5.698-9.901,11.239-10.95
					c5.314-1.135,11.528,1.113,14.033,6.157c1.168,2.491,1.229,5.487,0.066,7.981c-1.054,2.493-3.471,4.588-6.304,4.597
					c-2.674,0.112-5.7-1.568-6.138-4.42c-0.215-1.361,0.18-2.816,1.116-3.833c0.922-1.033,2.534-1.415,3.791-0.801
					C91.737,28.971,92.013,29.308,91.987,29.331L91.987,29.331z"/>
			</g>
		</g>
	</g>
	<g>
		<g>
			<path fill="#A3CCC4" d="M64.765,28.441c0,0.012-0.134,0.021-0.274-0.042c-0.889-0.342-0.735-1.634-0.006-2.046
				c0.718-0.498,1.723-0.185,2.254,0.426c1.207,1.36,0.096,3.536-1.466,4.001c-1.637,0.507-3.432-0.398-4.294-1.804
				c-0.931-1.445-0.708-3.328,0.066-4.768c0.77-1.476,2.216-2.573,3.84-2.959c1.636-0.384,3.365-0.027,4.84,0.699
				c3.006,1.446,4.959,4.824,4.662,8.179c-0.061,0.314-0.209,0.252-0.285,0.252l0,0c-0.065-0.017-0.223,0.008-0.247-0.294
				c0.321-3.139-1.473-6.357-4.315-7.766c-1.397-0.708-3.046-1.064-4.573-0.722c-1.531,0.345-2.912,1.361-3.659,2.753
				c-0.75,1.368-0.981,3.136-0.121,4.499c0.784,1.337,2.504,2.217,4.028,1.757c1.475-0.416,2.549-2.465,1.431-3.748
				c-0.496-0.582-1.44-0.884-2.109-0.426c-0.687,0.384-0.841,1.581-0.021,1.903C64.646,28.401,64.769,28.418,64.765,28.441
				L64.765,28.441z"/>
		</g>
	</g>
	<g>
		<path fill="#A3CCC4" d="M98.331,47.315C98.316,47.327,98.316,47.327,98.331,47.315L98.331,47.315z"/>
		<path fill="#A3CCC4" d="M92.94,43.583c-1.45,1.373-2.229,3.428-2.065,5.438c0.129,2.061,1.308,3.851,2.723,5.172
			c2.905,2.721,7.561,3.2,10.858,1.205c0.501-0.487,0.42-0.57-0.232-0.457c-3.296,1.521-7.324,0.834-9.869-1.574
			c-1.253-1.21-2.267-2.733-2.391-4.438c-0.176-1.69,0.42-3.46,1.627-4.698c1.176-1.282,2.968-1.95,4.646-1.369
			c1.617,0.517,3.019,2.207,2.601,3.967c-0.198,0.849-0.812,1.601-1.604,1.983c-0.802,0.364-1.833,0.127-2.409-0.575
			c-0.656-0.645-0.496-1.872,0.334-2.318c0.396-0.228,0.938-0.162,1.26,0.17c0.347,0.314,0.347,0.93-0.058,1.201
			c-0.016,0.011-0.021,0.019-0.028,0.023c0.007-0.004,0.013-0.012,0.028-0.023c0.409-0.264,0.427-0.893,0.077-1.217
			c-0.323-0.353-0.885-0.435-1.306-0.205c-0.876,0.433-1.104,1.739-0.418,2.465c0.583,0.767,1.695,1.085,2.617,0.714
			c0.899-0.383,1.605-1.166,1.883-2.121c0.564-1.996-0.919-4.015-2.753-4.689C96.576,41.444,94.303,42.171,92.94,43.583z"/>
	</g>
	<g>
		<g>
			<polygon fill="#A3CCC4" points="31.862,54.885 31.862,54.885 31.862,54.885 			"/>
			<path fill="#A3CCC4" d="M45.488,66.745L45.488,66.745c-4.437,3.298-11.432,4.81-17.723,2.179
				c-3.095-1.258-5.704-3.876-6.939-7.132c-1.273-3.217-1.107-7.082,0.555-10.139c1.699-3.048,5.372-4.796,8.768-4.232
				c3.485,0.289,6.141,3.665,5.525,6.958c-0.193,1.625-1.223,3.05-2.712,3.589c-1.425,0.537-3.247,0.297-4.18-0.888
				c-0.926-1.12-0.89-3.089,0.361-3.864c0.597-0.395,1.393-0.419,2.018-0.117c0.622,0.332,0.924,1.119,0.701,1.785
				c0.26-0.652-0.005-1.498-0.664-1.878c-0.655-0.358-1.509-0.356-2.179,0.058c-1.412,0.834-1.518,2.991-0.492,4.28
				c1.058,1.361,3.064,1.666,4.678,1.079c1.678-0.565,2.894-2.255,3.107-4.031c0.303-1.772-0.191-3.7-1.345-5.154
				c-1.136-1.505-2.984-2.341-4.808-2.616c-3.718-0.603-7.736,1.35-9.563,4.716c-1.792,3.354-1.858,7.432-0.462,10.84
				c1.366,3.428,4.2,6.137,7.475,7.363C34.19,72.098,41.259,70.236,45.488,66.745z"/>
		</g>
	</g>
	<path fill="#A3CCC4" d="M18.649,89.583c3.021-0.829,3.83-5.284,7.097-6.231c-0.79-0.072-1.769,0.101-2.397-0.383
		c1.978-1.172,4.821-1.37,7.087-2.014c-0.893,0.16-1.852-0.193-2.555-0.581c1.985-0.779,4.574-1.247,6.045-2.963l0.04-0.045
		c-0.919,2.29-3.359,6.133-5.1,7.796C26.314,87.583,22.548,89.767,18.649,89.583z"/>
	<path fill="#A3CCC4" d="M33.452,91.042c-0.737-2.14,1.591-4.441,0.82-6.779c0.364,0.444,0.663,1.097,1.209,1.275
		c-0.109-1.658-1.153-3.434-1.694-5.049c0.269,0.599,0.87,1.027,1.389,1.287c-0.347-1.504-1.123-3.24-0.701-4.818l0.013-0.041
		c-0.993,1.482-2.286,4.51-2.567,6.227C31.517,85.655,31.75,88.791,33.452,91.042z"/>
	<g>
		<path fill="#A3CCC4" d="M86.415,73.705c0.299,0.846,0.835,1.659,1.236,2.484c0.122,0.252,0.228,0.507,0.325,0.766
			c0.035,0.085,0.068,0.173,0.109,0.256c0.01-0.089,0.025-0.184,0.039-0.274c0.032-0.272,0.075-0.549,0.134-0.822
			c0.19-0.899,0.515-1.812,0.598-2.706c0.087-0.906-0.123-1.749-0.703-2.549c-0.175-0.238-0.369-0.475-0.593-0.697
			c-0.044-0.05-0.129-0.127-0.208-0.188c-0.002,0.002-0.001,0.004-0.001,0.004c-0.002,0.012-0.098,0.247-0.12,0.621
			c-0.031,0.375,0.064,0.882,0.194,1.378c0.142,0.496,0.308,0.992,0.357,1.378c0.061,0.391-0.026,0.646-0.024,0.647
			c-0.002-0.001,0.066-0.259-0.017-0.637c-0.076-0.383-0.274-0.857-0.45-1.348c-0.164-0.492-0.3-1.009-0.295-1.422
			c-0.003-0.265,0.032-0.473,0.061-0.593c-0.066,0.08-0.128,0.183-0.161,0.242c-0.165,0.267-0.298,0.542-0.407,0.814
			C86.117,71.978,86.114,72.846,86.415,73.705z"/>
		<path fill="#A3CCC4" d="M82.591,70.064c-0.521,0.388-0.967,0.931-1.456,1.382c-0.144,0.138-0.299,0.264-0.459,0.386
			c-0.05,0.042-0.105,0.083-0.152,0.127c0.066-0.011,0.134-0.017,0.195-0.028c0.197-0.033,0.396-0.064,0.598-0.081
			c0.661-0.06,1.363-0.027,1.998-0.157c0.644-0.129,1.183-0.452,1.611-1.024c0.127-0.172,0.248-0.356,0.355-0.558
			c0.023-0.042,0.061-0.116,0.086-0.184l0,0c-0.009,0.004-0.193-0.014-0.457,0.051c-0.263,0.057-0.596,0.229-0.909,0.422
			c-0.315,0.202-0.621,0.425-0.877,0.54c-0.257,0.124-0.458,0.118-0.45,0.116c0,0,0.188-0.004,0.432-0.147
			c0.249-0.13,0.533-0.363,0.836-0.594c0.306-0.216,0.636-0.419,0.926-0.502c0.18-0.056,0.328-0.076,0.414-0.081
			c-0.067-0.03-0.152-0.054-0.196-0.065c-0.222-0.053-0.44-0.086-0.651-0.104C83.723,69.495,83.12,69.679,82.591,70.064z"/>
		<g>
			<g>
				<path fill="#A3CCC4" d="M79.808,84.993c-0.01,0.122-0.002,0.223,0.013,0.225c0.016,0.002,0.034-0.098,0.044-0.221
					c0.716-10.658,8.765-20.236,19.052-22.781c0.231-0.106,0.167-0.219,0.158-0.28c-0.024-0.059-0.02-0.192-0.274-0.154
					C88.361,64.507,80.391,74.308,79.808,84.993z"/>
				<path fill="#A3CCC4" d="M78.475,89.496c0.334,1.032,1.017,1.97,1.574,2.873c0.18,0.277,0.338,0.552,0.486,0.831
					c0.049,0.095,0.099,0.187,0.158,0.276l0.011-0.321c0-0.313,0.01-0.628,0.043-0.942c0.128-1.039,0.469-2.062,0.594-3.027
					c0.134-0.98-0.053-1.87-0.598-2.829c-0.166-0.287-0.364-0.577-0.571-0.869c-0.041-0.062-0.123-0.17-0.201-0.251l-0.003,0.004
					c0.002,0.013-0.168,0.259-0.259,0.68c-0.08,0.423-0.072,1.018,0.043,1.601c0.114,0.579,0.282,1.151,0.331,1.593
					c0.057,0.446-0.042,0.735-0.039,0.733c0,0.002,0.072-0.292-0.012-0.725c-0.081-0.434-0.286-0.982-0.437-1.567
					c-0.162-0.582-0.219-1.204-0.156-1.68c0.037-0.302,0.132-0.531,0.184-0.661c-0.089,0.077-0.187,0.18-0.237,0.239
					c-0.249,0.279-0.434,0.576-0.61,0.884C78.193,87.359,78.137,88.453,78.475,89.496z"/>
				<path fill="#A3CCC4" d="M75.529,84.697c-0.742,0.77-1.291,1.861-1.869,2.857c-0.175,0.304-0.362,0.599-0.555,0.884
					c-0.063,0.098-0.131,0.195-0.182,0.302l0.28-0.139c0.277-0.147,0.563-0.283,0.854-0.396c0.967-0.361,2.021-0.563,2.923-0.98
					c0.931-0.418,1.634-1.074,2.186-2.012c0.166-0.286,0.308-0.582,0.446-0.896c0.033-0.066,0.084-0.182,0.115-0.288l-0.008,0.001
					c-0.01,0.005-0.29-0.005-0.685,0.127c-0.404,0.122-0.874,0.438-1.322,0.809c-0.436,0.386-0.865,0.816-1.218,1.078
					c-0.353,0.279-0.648,0.323-0.646,0.324c-0.003-0.001,0.288-0.07,0.619-0.365c0.329-0.285,0.727-0.737,1.147-1.157
					c0.422-0.407,0.899-0.772,1.334-0.935c0.272-0.108,0.497-0.151,0.628-0.169c-0.108-0.038-0.236-0.063-0.308-0.076
					c-0.342-0.063-0.675-0.091-1.002-0.101C77.194,83.539,76.262,83.912,75.529,84.697z"/>
				<path fill="#A3CCC4" d="M81.804,87.124c0.817,0.521,1.798,0.829,2.71,1.177c0.278,0.1,0.544,0.213,0.798,0.329l0.263,0.104
					l-0.145-0.2c-0.152-0.194-0.314-0.398-0.435-0.612c-0.41-0.714-0.684-1.541-1.108-2.28c-0.44-0.748-1.076-1.364-2.052-1.834
					c-0.289-0.139-0.6-0.269-0.931-0.378c-0.069-0.022-0.19-0.064-0.3-0.084l0.004,0.004c0.003,0.01,0.03,0.281,0.197,0.64
					c0.16,0.363,0.516,0.779,0.921,1.148c0.418,0.357,0.839,0.688,1.123,0.977c0.294,0.285,0.366,0.523,0.365,0.521
					c0.001,0.002-0.09-0.234-0.4-0.496c-0.301-0.266-0.745-0.562-1.188-0.901c-0.434-0.349-0.852-0.753-1.051-1.143
					c-0.136-0.243-0.205-0.458-0.242-0.582c-0.021,0.104-0.03,0.234-0.036,0.302c-0.015,0.334-0.02,0.656,0.032,0.97
					C80.47,85.82,81.006,86.596,81.804,87.124z"/>
			</g>
		</g>
	</g>
	<g>
		<g>
			<path fill="#A3CCC4" d="M94.22,77.469c0.018,0.07,0.038,0.125,0.046,0.124c0.012-0.004,0.004-0.06-0.013-0.133
				c-1.475-6.077,1.335-12.837,6.631-16.067c0.109-0.096,0.053-0.149,0.038-0.184c-0.02-0.025-0.045-0.099-0.18-0.035
				C95.395,64.529,92.669,71.399,94.22,77.469z"/>
			<path fill="#A3CCC4" d="M94.267,80.219c0.367,0.517,0.916,0.917,1.386,1.326c0.148,0.122,0.285,0.248,0.418,0.38l0.135,0.124
				l-0.049-0.183c-0.057-0.174-0.104-0.352-0.144-0.532c-0.107-0.604-0.099-1.235-0.2-1.797c-0.098-0.567-0.359-1.034-0.832-1.475
				c-0.138-0.129-0.303-0.258-0.466-0.384c-0.04-0.025-0.103-0.071-0.16-0.102l0,0c0.001,0.008-0.049,0.175-0.024,0.424
				c0.024,0.253,0.136,0.585,0.302,0.886c0.166,0.307,0.359,0.597,0.469,0.837c0.104,0.234,0.104,0.416,0.106,0.413
				c0,0-0.013-0.177-0.136-0.404c-0.118-0.227-0.332-0.497-0.521-0.794c-0.19-0.301-0.332-0.637-0.383-0.914
				c-0.029-0.175-0.018-0.319-0.012-0.4c-0.037,0.058-0.072,0.133-0.09,0.175c-0.088,0.199-0.14,0.4-0.187,0.602
				C93.733,79.075,93.895,79.691,94.267,80.219z"/>
			<path fill="#A3CCC4" d="M91.781,78.054c-0.281,0.563-0.394,1.269-0.542,1.928l-0.154,0.588l-0.05,0.199l0.131-0.126
				c0.133-0.128,0.269-0.256,0.412-0.366c0.474-0.377,1.027-0.674,1.458-1.063c0.444-0.4,0.722-0.886,0.866-1.511
				c0.043-0.188,0.07-0.378,0.094-0.577c0.003-0.045,0.013-0.113,0.01-0.18l0,0c-0.006,0.007-0.162,0.05-0.365,0.19
				c-0.199,0.142-0.409,0.403-0.593,0.687c-0.177,0.291-0.339,0.609-0.49,0.816c-0.15,0.217-0.306,0.293-0.306,0.293
				s0.148-0.089,0.283-0.313c0.133-0.213,0.275-0.537,0.438-0.848c0.162-0.3,0.367-0.585,0.576-0.755
				c0.133-0.105,0.253-0.171,0.322-0.203c-0.061-0.004-0.141,0.007-0.183,0.011c-0.202,0.021-0.396,0.067-0.578,0.116
				C92.505,77.118,92.051,77.488,91.781,78.054z"/>
			<path fill="#A3CCC4" d="M95.709,78.307c0.549,0.149,1.148,0.146,1.718,0.18l0.506,0.042l0.164,0.016l-0.113-0.089
				c-0.118-0.081-0.248-0.166-0.352-0.264c-0.354-0.328-0.654-0.741-1.02-1.08c-0.38-0.335-0.844-0.57-1.466-0.661
				c-0.19-0.028-0.385-0.046-0.589-0.048c-0.044-0.002-0.117-0.001-0.182,0.006l0.003,0.002c0.004,0.005,0.063,0.15,0.223,0.322
				c0.152,0.175,0.424,0.344,0.716,0.479c0.295,0.126,0.585,0.238,0.799,0.347c0.216,0.107,0.297,0.231,0.296,0.229
				c0,0-0.094-0.111-0.311-0.204c-0.219-0.1-0.515-0.188-0.824-0.296c-0.302-0.119-0.605-0.269-0.785-0.454
				c-0.122-0.112-0.197-0.22-0.234-0.282c0.002,0.063,0.019,0.136,0.029,0.175c0.05,0.189,0.104,0.371,0.19,0.534
				C94.736,77.816,95.17,78.151,95.709,78.307z"/>
		</g>
	</g>
	<path fill="#A3CCC4" d="M33.964,68.4c3.241,1.634,7.148,1.138,9.266-0.324c-2.594,0.238-5.725-0.04-8.456-1.396
		c-2.746-1.319-4.888-3.615-6.295-5.791C28.642,63.477,30.676,66.865,33.964,68.4z"/>
	<g>
		<g>
			<g>
				<path fill="#A3CCC4" d="M72.567,77.479c-0.053-0.014-0.096-0.016-0.095-0.011c-0.004,0.005,0.037,0.021,0.09,0.029
					c4.522,1.097,9.609-0.97,12.063-4.976c0.047-0.097-0.007-0.113-0.025-0.127c-0.025-0.015-0.062-0.053-0.135,0.026
					C82.103,76.392,77.094,78.516,72.567,77.479z"/>
				<path fill="#A3CCC4" d="M70.979,76.371c-0.422-0.057-0.894-0.032-1.337-0.121c-0.137-0.019-0.271-0.05-0.403-0.085l-0.139-0.032
					l0.101,0.094l0.3,0.287c0.314,0.35,0.637,0.728,1.039,0.979c0.392,0.284,0.865,0.344,1.354,0.248
					c0.144-0.031,0.29-0.069,0.435-0.144c0.031-0.015,0.084-0.036,0.124-0.067l-0.003-0.002c-0.002-0.003-0.104-0.072-0.271-0.151
					c-0.167-0.09-0.415-0.145-0.668-0.184c-0.258-0.027-0.518-0.069-0.699-0.148c-0.184-0.068-0.277-0.167-0.275-0.166
					c-0.002-0.001,0.097,0.092,0.285,0.145c0.182,0.066,0.435,0.091,0.696,0.099c0.259,0.027,0.515,0.064,0.703,0.146
					c0.122,0.051,0.214,0.088,0.266,0.121c-0.024-0.041-0.065-0.084-0.085-0.111c-0.1-0.109-0.2-0.229-0.301-0.331
					C71.767,76.602,71.396,76.459,70.979,76.371z"/>
				<path fill="#A3CCC4" d="M72.95,75.729c-0.197-0.308-0.441-0.63-0.621-0.94c-0.054-0.1-0.102-0.198-0.143-0.297l-0.045-0.097
					l-0.01,0.121l-0.03,0.367c-0.043,0.412-0.133,0.847-0.11,1.249c0.021,0.4,0.174,0.793,0.527,1.067
					c0.103,0.083,0.221,0.162,0.351,0.234c0.025,0.013,0.074,0.04,0.119,0.056h-0.003c0-0.006,0.009-0.123-0.031-0.291
					c-0.034-0.168-0.136-0.382-0.243-0.579c-0.117-0.196-0.229-0.388-0.274-0.566c-0.056-0.169-0.038-0.292-0.04-0.289
					c0.002-0.003-0.008,0.121,0.057,0.284c0.057,0.17,0.184,0.344,0.308,0.533c0.121,0.192,0.242,0.402,0.295,0.586
					c0.036,0.116,0.051,0.214,0.054,0.27c0.02-0.044,0.031-0.096,0.041-0.128c0.031-0.136,0.048-0.278,0.061-0.411
					C73.247,76.442,73.144,76.061,72.95,75.729z"/>
				<path fill="#A3CCC4" d="M71.413,78.06c-0.358,0.232-0.683,0.577-1.042,0.824c-0.113,0.07-0.229,0.139-0.347,0.202l-0.12,0.063
					l0.149,0.006l0.45,0.001c0.508-0.012,1.033,0.054,1.494-0.046c0.47-0.105,0.824-0.342,1.056-0.729
					c0.073-0.113,0.134-0.241,0.181-0.374c0.013-0.028,0.032-0.081,0.039-0.124l-0.002-0.002c-0.004,0.006-0.125,0.006-0.292,0.058
					c-0.17,0.055-0.377,0.184-0.585,0.32c-0.201,0.141-0.407,0.307-0.583,0.37c-0.177,0.075-0.32,0.068-0.317,0.066
					c0,0,0.142,0.001,0.305-0.085c0.168-0.077,0.361-0.244,0.551-0.403c0.198-0.149,0.402-0.298,0.583-0.365
					c0.117-0.05,0.214-0.071,0.268-0.077c-0.047-0.016-0.101-0.023-0.134-0.029c-0.15-0.023-0.294-0.031-0.433-0.031
					C72.158,77.722,71.771,77.815,71.413,78.06z"/>
			</g>
		</g>
		<path fill="#A3CCC4" d="M75.805,79.093c-0.254,0.496-0.393,1.086-0.596,1.623c-0.063,0.163-0.133,0.322-0.207,0.473
			c-0.027,0.052-0.052,0.104-0.072,0.157c0.046-0.031,0.099-0.062,0.141-0.1c0.139-0.101,0.283-0.196,0.432-0.288
			c0.487-0.294,1.045-0.542,1.485-0.883c0.448-0.348,0.74-0.806,0.854-1.413c0.034-0.179,0.056-0.371,0.064-0.564
			c0-0.039,0.002-0.112-0.005-0.174c0,0,0,0-0.001,0.001c-0.006,0.004-0.156,0.06-0.336,0.211c-0.18,0.147-0.371,0.408-0.542,0.675
			c-0.161,0.274-0.317,0.563-0.472,0.755c-0.148,0.194-0.308,0.262-0.303,0.264c0,0,0.146-0.08,0.28-0.282
			c0.139-0.194,0.271-0.487,0.418-0.78c0.153-0.285,0.33-0.563,0.522-0.742c0.119-0.114,0.227-0.182,0.292-0.221
			c-0.064,0.003-0.137,0.02-0.177,0.025c-0.192,0.042-0.371,0.101-0.545,0.165C76.463,78.218,76.068,78.589,75.805,79.093z"/>
		<path fill="#A3CCC4" d="M75.825,75.805c-0.397-0.072-0.837-0.045-1.246-0.072c-0.126-0.009-0.251-0.023-0.372-0.042
			c-0.041-0.008-0.084-0.014-0.125-0.015c0.033,0.024,0.065,0.051,0.1,0.072c0.096,0.079,0.194,0.154,0.291,0.239
			c0.308,0.274,0.595,0.605,0.924,0.837c0.333,0.235,0.711,0.344,1.152,0.295c0.133-0.016,0.269-0.04,0.408-0.075
			c0.026-0.011,0.077-0.022,0.119-0.04c-0.004-0.003-0.003-0.002-0.003-0.002c-0.004-0.002-0.074-0.092-0.216-0.188
			c-0.141-0.091-0.359-0.168-0.583-0.23c-0.227-0.054-0.456-0.102-0.62-0.167c-0.166-0.061-0.243-0.155-0.243-0.155
			s0.084,0.084,0.252,0.136c0.163,0.058,0.394,0.085,0.627,0.126c0.227,0.046,0.458,0.107,0.62,0.2
			c0.104,0.059,0.178,0.121,0.218,0.155c-0.015-0.041-0.044-0.088-0.059-0.116c-0.068-0.122-0.146-0.237-0.228-0.341
			C76.566,76.072,76.229,75.877,75.825,75.805z"/>
	</g>
	<g>
		<g>
			<g>
				<path fill="#A3CCC4" d="M59.767,90.932c0.284-0.139,0.643-0.034,0.789,0.231c0.146,0.272,0.04,0.627-0.233,0.793
					c-0.278,0.169-0.629,0.063-0.79-0.234C59.372,91.427,59.472,91.069,59.767,90.932z"/>
			</g>
			<g>
				<path fill="#A3CCC4" d="M58.746,87.911c0.275-0.063,0.56,0.098,0.631,0.361c0.068,0.26-0.095,0.543-0.361,0.628
					c-0.273,0.087-0.554-0.074-0.63-0.36C58.309,88.255,58.468,87.969,58.746,87.911z"/>
			</g>
			<g>
				<path fill="#A3CCC4" d="M58.451,84.728c0.249,0.003,0.459,0.201,0.466,0.438c0.005,0.241-0.188,0.446-0.438,0.463
					c-0.248,0.02-0.457-0.18-0.466-0.438C58.008,84.93,58.203,84.723,58.451,84.728z"/>
			</g>
			<g>
				<path fill="#A3CCC4" d="M58.884,81.551c0.208,0.049,0.351,0.259,0.311,0.469c-0.039,0.207-0.244,0.347-0.462,0.313
					c-0.216-0.035-0.36-0.249-0.317-0.469C58.456,81.642,58.665,81.503,58.884,81.551z"/>
			</g>
			<g>
				<path fill="#A3CCC4" d="M59.948,78.522c0.175,0.076,0.259,0.28,0.189,0.454c-0.069,0.177-0.271,0.266-0.453,0.192
					c-0.182-0.072-0.268-0.276-0.193-0.459C59.563,78.528,59.77,78.441,59.948,78.522z"/>
			</g>
			<g>
				<path fill="#A3CCC4" d="M61.542,75.725c0.142,0.091,0.184,0.283,0.095,0.426c-0.084,0.143-0.276,0.185-0.422,0.096
					c-0.143-0.089-0.186-0.278-0.095-0.424C61.21,75.676,61.399,75.629,61.542,75.725z"/>
			</g>
			<g>
				<path fill="#A3CCC4" d="M63.564,73.214c0.111,0.1,0.121,0.273,0.023,0.383c-0.096,0.11-0.266,0.122-0.38,0.022
					c-0.114-0.096-0.125-0.268-0.028-0.383C63.285,73.126,63.451,73.113,63.564,73.214z"/>
			</g>
			<g>
				<path fill="#A3CCC4" d="M65.929,71.019c0.086,0.101,0.074,0.249-0.027,0.331c-0.098,0.085-0.249,0.074-0.335-0.026
					c-0.087-0.099-0.075-0.248,0.025-0.332C65.697,70.904,65.844,70.913,65.929,71.019z"/>
			</g>
			<g>
				<path fill="#A3CCC4" d="M68.571,69.154c0.06,0.096,0.031,0.224-0.063,0.285c-0.103,0.058-0.225,0.035-0.292-0.063
					c-0.062-0.095-0.039-0.232,0.063-0.29C68.375,69.023,68.509,69.053,68.571,69.154z"/>
			</g>
			<g>
				<path fill="#A3CCC4" d="M71.433,67.646c0.044,0.092,0.006,0.204-0.086,0.247c-0.089,0.046-0.199,0.006-0.246-0.084
					c-0.043-0.092-0.005-0.203,0.087-0.249C71.281,67.516,71.391,67.551,71.433,67.646z"/>
			</g>
			<g>
				<path fill="#A3CCC4" d="M74.473,66.523c0.028,0.087-0.019,0.178-0.104,0.206c-0.085,0.026-0.176-0.022-0.205-0.106
					c-0.032-0.085,0.021-0.178,0.106-0.203C74.351,66.393,74.442,66.438,74.473,66.523z"/>
			</g>
			<g>
				<path fill="#A3CCC4" d="M77.63,65.794c0.015,0.076-0.036,0.152-0.114,0.168c-0.076,0.018-0.149-0.034-0.167-0.112
					c-0.015-0.078,0.041-0.15,0.115-0.17C77.544,65.666,77.616,65.713,77.63,65.794z"/>
			</g>
		</g>
	</g>
	<g>
		<g>
			<g>
				<path fill="#A3CCC4" d="M107.969,49.481c0.26,0.109,0.488,0.29,0.78,0.371c-0.856,0.252-1.852,0.242-2.656-0.097
					c-0.817-0.324-1.403-0.966-1.716-1.646c0.049,0.84,0.578,1.824,1.592,2.399c0.993,0.588,2.331,0.705,3.37,0.481
					c-0.421,0.19-0.921,0.45-1.472,0.645c1.322,0.104,2.62-0.363,3.747-0.971c1.139-0.623,2.142-1.4,3.145-2.099
					c-0.332,0.446-0.62,0.841-0.673,1.32c1.087-0.257,2.202-1.266,3.051-2.459c0.868-1.187,1.477-2.541,1.932-3.482l0.045-0.062
					c-0.971,0.908-1.835,2.063-3.058,2.744c-1.431,0.785-3.058,1.148-4.414,1.775c0.157-0.002,0.481,0.136,0.684,0.182
					C110.834,49.094,109.133,49.033,107.969,49.481z"/>
			</g>
		</g>
	</g>
</g>
</svg>
