<?xml version="1.0" encoding="utf-8"?>
<!-- Generator: Adobe Illustrator 16.0.3, SVG Export Plug-In . SVG Version: 6.00 Build 0)  -->
<!DOCTYPE svg PUBLIC "-//W3C//DTD SVG 1.1//EN" "http://www.w3.org/Graphics/SVG/1.1/DTD/svg11.dtd">
<svg version="1.1" id="Layer_1" xmlns="http://www.w3.org/2000/svg" xmlns:xlink="http://www.w3.org/1999/xlink" x="0px" y="0px"
	 width="120px" height="120px" viewBox="0 0 120 120" enable-background="new 0 0 120 120" xml:space="preserve">
<g opacity="0.5">
	<path fill="#597A74" d="M86.958,94.082c4.946-7.387,8.946-15.798,18.315-18.19c-13.279-0.612-20.914,9.354-26.212,20.203
		c-3.556,7.964-10.974,15.38-19.738,17.134C69.855,111.293,81.063,102.885,86.958,94.082z"/>
	<path fill="#597A74" d="M63.881,68.114c-4.461-9.412-15.391-23.451-7.117-33.663c-2.951,1.419-5.141,3.109-6.712,5.003
		c0.914-2.942,1.883-5.959,1.911-9.188c0.021-2.055-0.291-4.256-1.537-6.037c-1.245-1.747-3.247-2.9-5.386-2.918
		c-3.22,0.078-5.55,3.432-4.929,6.368c0.155,0.776,0.557,1.472,1.094,2.037c1.066,2.025,2.429,2.276,3.661,0.657
		c0.628-0.821,0.998-2.043,1.728-2.665c0.585-0.481,1.021,0.003,1.594,0.227c-0.772-2.016-2.395-1.392-3.324-0.496
		c-0.86,0.821-2.23,3.082-3.306,2.545c-0.592-0.547-1.039-1.243-1.237-2.02c-0.691-2.73,1.398-5.744,4.063-6.082
		c1.852-0.218,3.716,0.854,4.862,2.237c1.153,1.449,1.536,3.366,1.51,5.245c0.008,4.232-1.766,8.184-2.842,12.47
		c-0.191,0.815-0.364,1.643-0.489,2.485c-2.933,9.636,4.391,22.077,10.186,30.858c6.105,8.645,12.39,23.845,3.617,32.925
		C70.954,98.544,69.211,79.35,63.881,68.114z"/>
	<path fill="#597A74" d="M83.404,61.102c0.65-0.557,2.317-1.408,1.093-2.029c-4.575-2.318-5.711,9.141-5.86,12.294
		c0.055-0.005,1.454-5.633,1.703-6.174C81.071,63.586,82.138,62.182,83.404,61.102z"/>
	<path fill="#597A74" d="M83.846,66.234c0.676-0.57,2.401-1.454,1.132-2.097c-4.74-2.404-5.916,9.473-6.072,12.739
		c0.054-0.006,1.506-5.836,1.763-6.397C81.43,68.813,82.535,67.357,83.846,66.234z"/>
	<path fill="#597A74" d="M82.469,56.094c0.595-0.504,2.12-1.284,1.001-1.852c-4.188-2.124-5.23,8.367-5.368,11.255
		c0.051-0.007,1.332-5.159,1.561-5.656C80.333,58.37,81.311,57.086,82.469,56.094z"/>
	<path fill="#597A74" d="M81.176,51.534c0.499-0.428,1.789-1.087,0.842-1.568c-3.536-1.792-4.418,7.07-4.533,9.511
		c0.041-0.006,1.126-4.358,1.316-4.776C79.369,53.457,80.192,52.37,81.176,51.534z"/>
	<path fill="#597A74" d="M80.291,47.409c0.424-0.362,1.512-0.917,0.711-1.32c-2.987-1.515-3.727,5.965-3.823,8.025
		c0.033-0.002,0.95-3.677,1.111-4.032C78.769,49.034,79.467,48.117,80.291,47.409z"/>
	<path fill="#597A74" d="M79.683,43.723c0.341-0.29,1.218-0.737,0.573-1.066c-2.407-1.222-3.008,4.814-3.089,6.475
		c0.03-0.005,0.771-2.966,0.898-3.252C78.452,45.034,79.013,44.293,79.683,43.723z"/>
	<path fill="#597A74" d="M67.43,21.736c3.43-0.305,6.165-4.332,6.927-7.378c0.637-2.551,0.756-7.04,4.005-7.709
		c-5.018-1.225-5.974,4.376-6.361,8.083C71.807,17.399,70.597,21.372,67.43,21.736z"/>
	<path fill="#597A74" d="M67.926,14.651c0.221-0.493,0.598-0.896,0.962-1.275c0.179-0.188,0.52-0.648,0.525-0.648
		c0,0,0.04,0.57,0.089,0.827c0.12,0.63,0.242,1.296,0.043,1.944c-0.01,0.021-0.018,0.045-0.024,0.066
		c1.052-1.129,2.091-2.288,2.575-3.835c0.483-1.556,0.197-3.154-0.1-4.666c-0.118-0.615-0.217-1.986-0.217-1.986
		c-0.006,0-0.825,1.099-1.258,1.553c-1.066,1.111-2.172,2.3-2.604,3.871C67.531,11.906,67.687,13.286,67.926,14.651z"/>
	<path fill="#597A74" d="M66.453,21.378c-0.081-0.063-0.155-0.137-0.229-0.206C66.295,21.243,66.372,21.312,66.453,21.378z"/>
	<path fill="#597A74" d="M66.224,21.172c-2.163-2.073-1.064-5.888,0.173-8.157c1.679-3.328,3.9-8.555-0.985-10.239
		c2.377,2.321,0.048,6.162-0.795,8.65C63.636,14.311,63.732,18.967,66.224,21.172z"/>
	<circle fill="#597A74" cx="63.453" cy="59.399" r="1.194"/>
	<path fill="#597A74" d="M63.419,56.802c0.612-0.397,0.785-1.216,0.391-1.828c-0.397-0.61-1.213-0.786-1.824-0.392
		c-0.613,0.397-0.786,1.216-0.392,1.828S62.806,57.197,63.419,56.802z"/>
	<path fill="#597A74" d="M63.613,61.617c-0.467,0.301-0.599,0.926-0.296,1.393c0.301,0.466,0.923,0.597,1.392,0.295
		c0.466-0.302,0.601-0.922,0.295-1.389C64.706,61.449,64.081,61.315,63.613,61.617z"/>
	<path fill="#597A74" d="M64.5,64.487c-0.38,0.245-0.487,0.753-0.242,1.133c0.245,0.379,0.753,0.486,1.129,0.242
		c0.383-0.245,0.49-0.754,0.245-1.133C65.387,64.353,64.879,64.242,64.5,64.487z"/>
	<path fill="#597A74" d="M65.441,66.981c-0.309,0.2-0.397,0.612-0.198,0.921c0.2,0.307,0.609,0.396,0.92,0.196
		c0.305-0.2,0.395-0.609,0.197-0.92C66.157,66.871,65.748,66.784,65.441,66.981z"/>
	<circle fill="#597A74" cx="66.259" cy="69.639" r="0.498"/>
	<circle fill="#597A74" cx="23.255" cy="89.262" r="1.195"/>
	<path fill="#597A74" d="M21.635,85.13c-0.624-0.376-1.434-0.177-1.81,0.448c-0.377,0.624-0.18,1.437,0.448,1.813
		c0.621,0.377,1.434,0.177,1.81-0.448C22.459,86.315,22.263,85.506,21.635,85.13z"/>
	<path fill="#597A74" d="M24.711,92.564c0.479,0.287,1.097,0.135,1.383-0.34c0.287-0.476,0.135-1.094-0.343-1.381
		c-0.475-0.289-1.094-0.134-1.38,0.34C24.084,91.659,24.239,92.278,24.711,92.564z"/>
	<circle fill="#597A74" cx="27.125" cy="93.799" r="0.816"/>
	<path fill="#597A74" d="M29.502,95.896c0.191-0.317,0.09-0.724-0.227-0.915c-0.311-0.188-0.724-0.086-0.911,0.228
		c-0.188,0.313-0.087,0.723,0.224,0.911C28.905,96.311,29.312,96.209,29.502,95.896z"/>
	<circle fill="#597A74" cx="30.266" cy="97.236" r="0.497"/>
	<path fill="#597A74" d="M82.34,103.822c-0.556,0.358-0.711,1.099-0.352,1.651c0.358,0.557,1.096,0.714,1.648,0.353
		c0.557-0.355,0.714-1.097,0.355-1.652C83.634,103.621,82.896,103.463,82.34,103.822z"/>
	<path fill="#597A74" d="M88.297,98.705c-0.616,0.395-0.789,1.213-0.395,1.826c0.397,0.611,1.213,0.785,1.828,0.391
		c0.609-0.397,0.788-1.213,0.388-1.828C89.724,98.484,88.906,98.308,88.297,98.705z"/>
	<path fill="#597A74" d="M76.842,107.582c-0.466,0.303-0.601,0.924-0.295,1.39c0.298,0.469,0.922,0.6,1.389,0.299
		c0.466-0.303,0.6-0.923,0.298-1.389C77.933,107.412,77.311,107.281,76.842,107.582z"/>
	<path fill="#597A74" d="M71.211,110.928c-0.379,0.245-0.489,0.753-0.241,1.132c0.244,0.38,0.749,0.487,1.132,0.242
		c0.376-0.245,0.484-0.752,0.238-1.132C72.096,110.794,71.588,110.684,71.211,110.928z"/>
	<path fill="#597A74" d="M66.229,112.72c-0.309,0.197-0.395,0.61-0.197,0.917c0.199,0.308,0.609,0.397,0.92,0.197
		c0.304-0.2,0.395-0.609,0.196-0.92C66.949,112.609,66.537,112.521,66.229,112.72z"/>
	<circle fill="#597A74" cx="62.007" cy="114.034" r="0.498"/>
	<path fill="#597A74" d="M78.618,113.708c0.021,0.027,3.418-0.765,3.776-0.782c1.063-0.048,2.105,0.141,3.034,0.52
		c0.472,0.198,1.386,0.858,1.383,0.03C86.797,110.391,80.351,112.923,78.618,113.708z"/>
	<path fill="#597A74" d="M75.742,115.363c0.021,0.03,3.54-0.792,3.91-0.81c1.103-0.051,2.186,0.144,3.146,0.537
		c0.492,0.204,1.437,0.889,1.434,0.03C84.217,111.925,77.538,114.551,75.742,115.363z"/>
	<path fill="#597A74" d="M81.618,111.813c0.018,0.026,3.126-0.7,3.452-0.715c0.975-0.044,1.93,0.126,2.778,0.476
		c0.436,0.179,1.271,0.782,1.267,0.027C89.103,108.774,83.2,111.095,81.618,111.813z"/>
	<path fill="#597A74" d="M84.67,109.831c0.018,0.022,2.646-0.591,2.922-0.606c0.82-0.035,1.63,0.107,2.348,0.404
		c0.364,0.151,1.072,0.66,1.068,0.021C90.997,107.263,86.012,109.225,84.67,109.831z"/>
	<path fill="#597A74" d="M87.46,108.195c0.012,0.018,2.229-0.499,2.462-0.509c0.695-0.033,1.376,0.091,1.982,0.338
		c0.311,0.128,0.905,0.559,0.901,0.019C92.801,106.03,88.59,107.684,87.46,108.195z"/>
	<path fill="#597A74" d="M90.124,106.823c0.012,0.016,1.798-0.4,1.989-0.408c0.56-0.027,1.109,0.071,1.596,0.271
		c0.25,0.105,0.734,0.452,0.729,0.016C94.431,105.076,91.038,106.412,90.124,106.823z"/>
	<path fill="#597A74" d="M111.771,60.249c-0.689-0.611-1.634-1.56-2.641-1.437l-0.564-0.104c-2.515-1.804-5.657-3.094-8.957-2.592
		c-1.037,0.149-2.029,0.462-2.967,0.887c0.102-0.134,0.203-0.269,0.299-0.409c0.732-1.09,1.26-2.335,1.487-3.659
		c0.341-1.84,0.048-3.892-1.099-5.523c-0.64-0.869-1.47-1.604-2.482-2.067c-0.989-0.462-2.298-0.588-3.319,0.027
		c-2,1.061-2.209,3.704-1.238,5.338c0.726,1.278,2.596,1.756,3.7,0.803c0.415-0.364,0.592-0.926,0.573-1.451
		c0-0.012-0.003-0.027-0.003-0.039c0.08-1.045-0.791-1.15-1.431-0.971c-0.681,0.191-2.127,1.07-2.27,0.096
		c-0.023,1.249,0.55,1.723,1.541,1.27c0.496-0.228,0.974-0.702,1.467-0.81c0.382-0.075,0.469,0.239,0.672,0.484
		c0,0.024,0,0.044-0.003,0.063c-0.015,0.445-0.2,0.878-0.511,1.18c-0.968,0.902-2.61,0.463-3.244-0.556
		c-0.849-1.466-0.556-3.644,0.845-4.441c1.509-1.021,3.478,0.018,4.675,1.376c1.147,1.264,1.715,3.05,1.649,4.845
		c-0.051,1.318-0.406,2.644-1.046,3.835c-0.131,0.23-0.269,0.458-0.418,0.678c-2.336,1.099-4.363,2.926-6.045,4.907
		c-4.785,5.797-7.809,13.031-10.191,20.56c-2.229,7.445-5.145,14.555-9.535,20.633c-2.204,3.005-4.832,5.74-8.034,7.641
		c-1.717,1.042-3.62,1.774-5.594,2.168c0-0.296-0.03-0.586-0.081-0.869c0.221-0.048,0.441-0.099,0.66-0.149
		c2.2-0.478,4.45-1.203,6.191-2.733c1.774-1.457,3.139-3.324,4.412-5.196c3.67-5.188,6.467-11.082,7.918-17.33
		c1.654-6.86,1.798-14.048,0.979-21.004c-0.636-6.41-1.888-12.823-0.92-19.152c0.382-2.294,1.159-4.552,2.533-6.449
		c1.354-1.902,3.264-3.381,5.383-4.409c1.48-0.714,3.052-1.243,4.656-1.631c1.562,0.478,1.878,2.625,3.536,2.894
		c1.329,0.215,2.446-0.908,3.384-1.807c1.088-1.046,2.234-1.521,3.608-1.906c-1.723,0.421-3.429,0.663-5.074,0.254
		c-1.306-0.266-2.993-0.792-4.328,0.137c-0.347,0.12-0.693,0.242-1.039,0.364c-1.476,0.32-2.934,0.744-4.331,1.335
		c-2.091,0.878-4.057,2.157-5.567,3.896c-1.516,1.732-2.537,3.871-3.102,6.093c-1.537,6.318-0.546,12.796-0.003,19.072
		c0.771,6.923,0.894,13.886-0.397,20.708c-1.152,6.284-3.482,12.35-6.995,17.747c-1.228,2.014-2.526,3.996-4.217,5.631
		c-1.637,1.715-3.845,2.706-6.142,3.25c-0.388,0.102-0.776,0.196-1.165,0.29c-0.005-0.033-0.018-0.066-0.024-0.099
		c0.677-0.252,1.345-0.526,1.996-0.84c4.364-2.145,7.724-6.123,9.576-10.646c2.671-6.359,3.184-13.359,2.934-20.135
		c-0.299-7.523-1.937-14.794-3.113-22.049c-1.161-6.703-2.183-13.423-2.368-20.218c-0.131-4.982,0.2-9.985,1.049-14.917
		c0.331-1.914,0.734-3.817,1.197-5.708c0.176-0.681,0.418-1.63,0.415-1.61c-0.057,0.207-0.358,1.23-0.556,1.933
		c-0.43,1.588-0.833,3.184-1.174,4.794c-1.013,4.698-1.604,9.489-1.792,14.307c-0.284,6.75,0.224,13.521,1.024,20.215
		c0.834,7.377,2.359,14.638,2.979,21.894c0.567,6.688,0.624,13.533-1.288,19.968c-1.395,4.674-4.227,9.076-8.554,11.615
		c-0.759,0.454-1.554,0.851-2.372,1.201c-0.032-0.116-0.065-0.23-0.107-0.344c1.696-0.891,3.256-2.073,4.418-3.273
		c-1.252,1.227-2.686,2.21-4.23,2.975c3.003-1.986,5.816-4.74,6.939-8.545c0.83-2.77,0.63-5.78-0.093-8.492
		c-0.72-2.739-1.891-5.271-3.212-7.658c-2.968-5.239-6.689-9.783-10.316-14.287c-0.092-0.112-0.186-0.227-0.274-0.341
		c1.225-6.737-0.122-13.09-8.333-15.914c2.629,2.557,3.321,5.762,3.044,9.153c-1.345-1.861-2.593-3.782-3.672-5.804
		c-1.786-3.396-3.047-7.208-2.714-11.118c0.128-1.505,0.492-3.002,1.068-4.415c0.206-0.514,0.547-1.204,0.541-1.192
		c-0.081,0.146-0.502,0.878-0.735,1.407c-0.555,1.174-0.952,2.425-1.2,3.713c-0.723,3.781,0.003,7.73,1.297,11.342
		c1.235,3.453,2.914,6.705,4.767,9.836c-1.088,4.396-3.175,8.822-4.287,12.329c-2.754,8.688-2.171,22.88,5.738,29.009
		c-7.175-5.86-4.113-17.532-0.556-24.396c1.356-2.829,2.835-6.123,3.907-9.493c2.626,3.79,5.353,7.45,7.831,11.169
		c2.832,4.295,5.644,8.885,5.377,13.858c-0.186,3.644-2.558,7.011-5.562,9.466c-0.007,0.006-0.012,0.009-0.021,0.015
		c-0.26-0.499-0.607-0.949-1.019-1.335c0.469-0.302,0.931-0.618,1.379-0.962c2.928-2.204,5.461-5.902,4.911-10.087
		c-0.289-2.205-1.303-4.286-2.895-5.875c-1.553-1.595-3.904-2.527-6.057-2.527c-2.017-0.035-4.104,0.535-5.685,1.825
		c-0.063,0.052-0.12,0.103-0.18,0.156c-1.23-1.658-3.99,2.252-4.698,3.372c0.021,0.008,1.718-1.777,1.924-1.925
		c0.605-0.441,1.296-0.737,1.992-0.872c0.06-0.008,0.131-0.018,0.202-0.025c-1.148,1.208-1.91,2.756-1.967,4.474
		c0.044,1.553,1.065,2.829,2.229,3.581c1.189,0.762,2.621,1.133,4.004,0.952c1.072-0.13,2.091-0.675,2.748-1.514
		c0.029-0.039,0.062-0.084,0.095-0.126c1.398-1.445-0.173-2.445-1.618-2.808c-1.551-0.388-5.4-0.51-4.511-2.075
		c-1.547,1.801-1.003,3.056,1.458,3.363c1.229,0.151,2.724-0.078,3.808,0.248c0.84,0.266,0.618,0.82,0.72,1.38
		c-0.038,0.044-0.076,0.087-0.119,0.125c-0.604,0.651-1.445,1.04-2.306,1.168c-2.5,0.346-5.305-1.347-5.688-3.719
		c-0.17-1.57,0.92-3.285,2.145-4.298c1.291-1.066,2.963-1.538,4.605-1.526c3.734-0.132,6.811,2.694,7.695,6.221
		c0.947,3.206-0.515,6.77-3.029,9.302c-0.567,0.589-1.194,1.133-1.849,1.638c-0.367-0.236-0.771-0.434-1.21-0.568
		c-2.532-0.789-5.215,0.573-6.099,3.047c-0.688-0.341-1.348-0.746-1.966-1.228c0.562,0.46,1.225,0.901,1.941,1.291
		c-0.011,0.044-0.033,0.086-0.048,0.133c-0.077,0.246-0.125,0.491-0.161,0.738c-0.003-0.003-0.006-0.003-0.006-0.003
		c-2.96-1.158-5.287-3.542-6.686-6.335c-1.994-3.931-2.661-8.379-2.938-12.757c-0.31-4.839,0.102-9.723,0.102-14.63
		c0.037-4.525-0.102-9.074-0.758-13.561c-0.481-3.291-1.243-6.538-2.304-9.684c-0.415-1.221-0.869-2.428-1.361-3.617
		c-0.183-0.43-0.439-1.024-0.434-1.012c0.054,0.131,0.319,0.786,0.496,1.233c0.389,1.019,0.758,2.04,1.087,3.077
		c0.968,3.022,1.646,6.129,2.028,9.271c0.547,4.403,0.541,8.845,0.392,13.274c-0.107,4.878-0.58,9.764-0.288,14.708
		c0.293,4.528,1.07,9.137,3.155,13.234c1.511,2.98,3.969,5.597,7.12,6.78c0.126,0.051,0.251,0.095,0.377,0.141
		c-0.006,0.026-0.013,0.054-0.013,0.081c-0.083,0.018-0.167,0.041-0.25,0.062c-0.126,0.027-0.239,0.054-0.347,0.075
		c-0.974-0.2-1.918-0.528-2.73-1.104c-1.254-0.819-2.27-1.938-3.231-3.08c-2.764-3.16-4.943-6.798-6.311-10.753
		c-1.554-4.334-2.195-8.934-2.286-13.54c-0.176-4.234,0.01-8.602-1.302-12.736c-0.882-3.059-3.34-5.594-6.392-6.451
		c-1.04-0.326-2.115-0.505-3.196-0.612h0.003c-0.269-0.057-0.535-0.113-0.808-0.17c-0.952-0.499-2.016-0.013-2.852,0.269
		c-1.046,0.409-2.187,0.392-3.352,0.261c0.933,0.137,1.727,0.354,2.527,0.949c0.69,0.514,1.518,1.155,2.371,0.902
		c1.07-0.317,1.096-1.754,2.086-2.195c0.967,0.122,1.935,0.268,2.86,0.567c2.915,0.775,5.312,3.031,6.261,5.862
		c1.384,3.961,1.172,8.244,1.279,12.424c0.014,4.623,0.546,9.321,2.068,13.724c1.384,4.068,3.57,7.858,6.414,11.052
		c1.637,2.04,3.73,4.081,6.337,4.687c-0.196,0.039-0.311,0.06-0.283,0.057c0.026-0.006,0.153-0.021,0.332-0.045
		c0.254,0.058,0.514,0.104,0.776,0.132c-0.006,0.191-0.006,0.379,0.013,0.564c-0.86-0.161-1.703-0.419-2.504-0.771
		c-2.27-0.977-4.238-2.551-5.947-4.338c-3.413-3.622-5.935-8.049-8.025-12.756c-2.198-4.735-4.776-9.227-8.375-12.629
		c-1.23-1.129-2.658-2.139-4.227-2.677c-0.128-0.14-0.254-0.28-0.367-0.433c-0.509-0.69-0.866-1.481-1.024-2.306
		c-0.233-1.146-0.075-2.356,0.505-3.31c0.615-1.016,1.763-1.96,2.861-1.586c1.063,0.283,1.553,1.633,1.222,2.738
		c-0.236,0.795-1.291,1.335-2.078,0.879c-0.29-0.174-0.464-0.496-0.518-0.831c0.113-0.179,0.144-0.392,0.4-0.373
		c0.334,0.029,0.688,0.302,1.029,0.409c0.69,0.212,1.025-0.146,0.906-0.962c-0.013,0.651-1.034,0.194-1.5,0.126
		c-0.436-0.066-1.006,0.077-0.854,0.772c0.003,0.024,0.006,0.049,0.006,0.069c0.035,0.296,0.179,0.582,0.412,0.78
		c0.723,0.582,1.872,0.232,2.336-0.564c0.585-1.103,0.395-2.767-0.879-3.469c-1.464-0.826-3.085,0.29-3.764,1.437
		c-0.722,1.133-0.813,2.542-0.478,3.755c0.251,0.896,0.693,1.721,1.281,2.413c0.128,0.146,0.26,0.288,0.4,0.421
		c-0.685-0.224-1.396-0.361-2.124-0.379c-2.171-0.063-4.109,1.01-5.611,2.378l-0.416,0.131c-0.669,0.004-1.209,0.705-1.612,1.163
		c-0.532,0.66-1.133,0.988-1.912,1.328c0.532-0.209,0.917-0.357,1.487-0.293c0.439,0.043,0.938,0.23,1.416,0.096
		c1.156-0.322,0.621-1.528,1.058-2.317c1.532-1.341,3.471-2.359,5.582-2.255c2.356,0.093,4.483,1.466,6.229,3.105
		c3.5,3.382,6.048,7.851,8.243,12.545c2.118,4.723,4.707,9.164,8.199,12.775c1.747,1.783,3.761,3.349,6.072,4.305
		c0.824,0.353,1.69,0.604,2.574,0.752c0.013,0.126,0.036,0.245,0.054,0.367c-0.048-0.003-0.092,0-0.14-0.003
		c0.048,0.003,0.096,0.003,0.14,0.007c0.084,0.444,0.228,0.875,0.425,1.277c-1.613,0.476-3.291,0.705-4.961,0.694
		c-3.098-0.016-6.129-0.819-9-1.948c-3.199-1.222-6.1-2.938-9.194-4.585c-1.454-0.689-3.004-1.272-4.656-1.413
		c-1.628-0.182-3.452,0.387-4.459,1.739c-0.795,0.902-1.126,2.278-0.64,3.405c0.448,1.116,1.452,1.979,2.61,2.231
		c0.705,0.155,1.452,0.021,2.062-0.338c1.464-0.397,1.822-1.243,0.956-2.273c-0.442-0.523-1.177-0.938-1.477-1.496
		c-0.227-0.451,0.15-0.66,0.377-1.001c-1.413,0.209-1.242,1.347-0.8,2.075c0.412,0.679,1.678,1.897,1.158,2.514
		c-0.58,0.405-1.309,0.591-2.001,0.477c-2.234-0.298-3.728-3.15-2.3-4.939c0.848-1.288,2.354-1.948,3.851-1.847
		c1.502,0.069,2.965,0.619,4.34,1.284c2.95,1.569,5.926,3.556,9.19,4.753c2.995,1.159,6.203,1.908,9.43,1.843
		c1.912-0.033,3.805-0.373,5.598-1.001c0.591,1.103,1.595,1.98,2.879,2.381c2.401,0.746,4.934-0.436,5.947-2.667
		c3.127,0.929,6.442,1.271,9.722,1.012c4.785-0.354,9.425-1.949,13.674-4.13c4.705-2.366,8.907-5.7,12.964-8.794
		c1.93-1.344,3.99-2.548,6.23-3.145c2.207-0.637,4.708-0.335,6.434,1.271c1.323,1.069,2.067,2.812,1.667,4.504
		c-0.361,1.665-1.602,3.158-3.227,3.782c-1.099,0.433-2.377,0.358-3.438-0.186c-0.952-0.809,0.747-2.906,1.236-4.008
		c0.522-1.181,0.565-2.916-1.598-2.96c0.406,0.465,1.01,0.711,0.755,1.425c-0.337,0.896-1.358,1.66-1.92,2.526
		c-1.104,1.712-0.4,2.912,1.876,3.226c0.86,0.374,1.84,0.47,2.754,0.228c1.67-0.433,3.047-1.747,3.68-3.354
		c0.687-1.613,0.347-3.608-0.821-4.953c-1.502-1.956-4.179-2.92-6.628-2.544c-2.461,0.302-4.707,1.367-6.774,2.587
		c-2.297,1.368-4.289,3.064-6.4,4.521c-2.111,1.487-4.269,2.896-6.503,4.167c-4.113,2.348-8.521,4.253-13.214,5.027
		c-3.426,0.563-6.983,0.466-10.392-0.38c0.054-0.132,0.104-0.264,0.146-0.399c0.096-0.303,0.155-0.606,0.191-0.912
		c0.765-0.06,1.526-0.167,2.27-0.315c-0.749,0.137-1.505,0.232-2.264,0.28c0.007-0.094,0.012-0.183,0.015-0.275
		c2.035-0.352,4.006-1.06,5.798-2.097c3.298-1.866,6.033-4.597,8.327-7.604c4.573-6.078,7.635-13.238,9.917-20.727
		c2.397-7.442,5.352-14.61,9.916-20.335c2.285-2.783,5.179-5.238,8.656-5.839c3.14-0.576,6.26,0.58,8.835,2.3
		c0.729,1.112,0.222,2.945,1.98,3.202c0.735,0.108,1.448-0.269,2.1-0.411c0.842-0.209,1.452-0.061,2.288,0.151
		C113.654,61.516,112.69,61.133,111.771,60.249z M46.761,112.625c0.138-0.021,0.286-0.046,0.441-0.075
		c0.019,0,0.03-0.003,0.046-0.006c-0.006,0.057-0.006,0.109-0.01,0.167C47.077,112.684,46.922,112.657,46.761,112.625z"/>
	<path fill="#597A74" d="M32.77,104.261c-4.381-6.682-10.229-12.586-18.895-11.075c6.35,0.785,9.68,5.978,13.546,10.412
		c4.603,5.287,12.667,9.872,19.743,10.263C41.262,113.44,35.772,109.192,32.77,104.261z"/>
	<path fill="#597A74" d="M26.996,81.645c0.924,0.606,1.741,1.437,2.357,2.432c0.205,0.334,1.598,3.913,1.633,3.913
		c-0.361-2.059-2.063-9.487-4.874-7.585C25.355,80.916,26.527,81.337,26.996,81.645z"/>
	<path fill="#597A74" d="M26.217,83.771c-0.78,0.527,0.43,0.965,0.919,1.284c0.957,0.627,1.806,1.487,2.44,2.521
		c0.216,0.347,1.658,4.053,1.694,4.053C30.895,89.497,29.132,81.797,26.217,83.771z"/>
	<path fill="#597A74" d="M27.193,78.281c0.846,0.556,1.593,1.317,2.16,2.228c0.188,0.306,1.46,3.581,1.493,3.581
		c-0.332-1.885-1.891-8.686-4.463-6.943C25.694,77.615,26.761,77.997,27.193,78.281z"/>
	<path fill="#597A74" d="M27.662,75.178c0.714,0.469,1.348,1.11,1.822,1.882c0.162,0.26,1.237,3.025,1.266,3.025
		c-0.28-1.592-1.6-7.338-3.771-5.866C26.396,74.613,27.298,74.938,27.662,75.178z"/>
	<path fill="#597A74" d="M27.896,72.396c0.603,0.395,1.138,0.938,1.541,1.589c0.135,0.219,1.043,2.555,1.066,2.555
		c-0.236-1.345-1.348-6.195-3.184-4.952C26.826,71.922,27.591,72.194,27.896,72.396z"/>
	<path fill="#597A74" d="M29.233,71.206c0.107,0.176,0.839,2.061,0.86,2.061c-0.191-1.085-1.091-4.994-2.568-3.994
		c-0.397,0.269,0.217,0.49,0.466,0.654C28.475,70.243,28.905,70.682,29.233,71.206z"/>
	<path fill="#597A74" d="M29.033,50.201c0.756,1.936,2.889,4.349,5.165,4.266c-2.109,0.024-3.235-2.485-3.585-4.218
		c-0.567-2.401-1.661-6-4.854-4.776C27.949,45.641,28.403,48.579,29.033,50.201z"/>
	<path fill="#597A74" d="M30.3,48.284c0.445,0.977,1.225,1.652,2.011,2.306c-0.007-0.015-0.013-0.027-0.018-0.042
		c-0.189-0.409-0.168-0.857-0.139-1.278c0.012-0.173-0.009-0.553-0.009-0.553s0.263,0.272,0.397,0.382
		c0.272,0.218,0.55,0.451,0.741,0.756c0.038-0.914,0.026-1.837-0.344-2.724c-0.415-0.998-1.24-1.685-2.034-2.324
		c-0.322-0.262-0.95-0.917-0.956-0.914c0,0,0.051,0.908,0.023,1.32C29.909,46.232,29.849,47.304,30.3,48.284z"/>
	<path fill="#597A74" d="M34.81,54.15c1.61-1.616,1.287-4.818,0.377-6.688c-0.762-1.565-2.613-3.895-1.245-5.615
		c-3.071,1.514-1.172,4.761,0.209,6.807C35.184,50.088,36.259,52.618,34.81,54.15z"/>
	<circle fill="#597A74" cx="34.728" cy="77.727" r="0.791"/>
	<path fill="#597A74" d="M35.082,74.413c-0.448-0.183-0.955,0.036-1.138,0.481c-0.183,0.448,0.032,0.958,0.48,1.141
		c0.448,0.179,0.956-0.036,1.142-0.483C35.745,75.104,35.53,74.596,35.082,74.413z"/>
	<path fill="#597A74" d="M35.267,80.056c0.138-0.341-0.026-0.729-0.367-0.866c-0.344-0.141-0.729,0.023-0.869,0.367
		c-0.138,0.341,0.03,0.729,0.37,0.865C34.741,80.56,35.129,80.396,35.267,80.056z"/>
	<path fill="#597A74" d="M34.98,81.868c0.113-0.274-0.021-0.591-0.299-0.702c-0.274-0.113-0.592,0.021-0.705,0.296
		c-0.111,0.277,0.023,0.595,0.299,0.705C34.553,82.281,34.866,82.146,34.98,81.868z"/>
	<path fill="#597A74" d="M34.625,83.476c0.093-0.225-0.019-0.481-0.242-0.57c-0.228-0.094-0.484,0.018-0.573,0.241
		c-0.09,0.225,0.018,0.481,0.242,0.574C34.275,83.81,34.532,83.702,34.625,83.476z"/>
	<path fill="#597A74" d="M33.875,84.61c-0.068,0.167,0.013,0.358,0.179,0.427c0.171,0.069,0.364-0.012,0.431-0.182
		c0.068-0.167-0.012-0.358-0.179-0.428C34.135,84.359,33.941,84.44,33.875,84.61z"/>
	<circle fill="#597A74" cx="30.922" cy="110.32" r="0.79"/>
	<circle fill="#597A74" cx="26.55" cy="107.532" r="0.874"/>
	<circle fill="#597A74" cx="34.899" cy="112.216" r="0.666"/>
	<path fill="#597A74" d="M39.419,114.067c0.131-0.272,0.018-0.595-0.251-0.724c-0.272-0.128-0.594-0.014-0.723,0.254
		c-0.131,0.27-0.019,0.592,0.251,0.721C38.965,114.449,39.29,114.336,39.419,114.067z"/>
	<path fill="#597A74" d="M42.793,114.688c0.103-0.219,0.013-0.481-0.209-0.586c-0.214-0.104-0.479-0.011-0.584,0.206
		c-0.105,0.219-0.013,0.481,0.205,0.586C42.424,114.999,42.687,114.909,42.793,114.688z"/>
	<path fill="#597A74" d="M45.766,114.757c0.078-0.165,0.01-0.361-0.155-0.438c-0.164-0.081-0.361-0.01-0.438,0.151
		c-0.078,0.165-0.013,0.361,0.155,0.442C45.488,114.989,45.686,114.922,45.766,114.757z"/>
	<path fill="#597A74" d="M45.166,91.412c0.585-0.425,1.248-0.708,1.921-0.84c0.343-0.066,1.107-0.033,0.797-0.502
		c-1.159-1.753-3.884,2.104-4.576,3.199C43.328,93.278,44.969,91.555,45.166,91.412z"/>
	<path fill="#597A74" d="M46.005,89.368c0.537-0.391,1.144-0.65,1.76-0.771c0.313-0.06,1.015-0.03,0.731-0.46
		c-1.066-1.604-3.557,1.927-4.19,2.931C44.323,91.077,45.822,89.497,46.005,89.368z"/>
	<path fill="#597A74" d="M46.736,87.358c0.455-0.329,0.968-0.547,1.487-0.648c0.267-0.051,0.86-0.027,0.622-0.389
		c-0.902-1.355-3.009,1.628-3.543,2.474C45.317,88.804,46.588,87.469,46.736,87.358z"/>
	<path fill="#597A74" d="M47.489,85.607c0.383-0.277,0.818-0.463,1.254-0.547c0.228-0.044,0.727-0.021,0.523-0.328
		c-0.759-1.144-2.536,1.374-2.989,2.088C46.292,86.827,47.361,85.704,47.489,85.607z"/>
	<path fill="#597A74" d="M48.26,84.063c0.311-0.224,0.658-0.373,1.013-0.442c0.183-0.032,0.586-0.015,0.421-0.263
		c-0.612-0.922-2.046,1.108-2.41,1.685C47.293,85.047,48.159,84.141,48.26,84.063z"/>
</g>
</svg>
