<?xml version="1.0" encoding="utf-8"?>
<!-- Generator: Adobe Illustrator 16.0.3, SVG Export Plug-In . SVG Version: 6.00 Build 0)  -->
<!DOCTYPE svg PUBLIC "-//W3C//DTD SVG 1.1//EN" "http://www.w3.org/Graphics/SVG/1.1/DTD/svg11.dtd">
<svg version="1.1" id="Layer_1" xmlns="http://www.w3.org/2000/svg" xmlns:xlink="http://www.w3.org/1999/xlink" x="0px" y="0px"
	 width="120px" height="120px" viewBox="0 0 120 120" enable-background="new 0 0 120 120" xml:space="preserve">
<g opacity="0.5">
	<g>
		<path fill="#597A74" d="M77.73,63.057c1.694,0.452,2.907-0.363,3.799-1.784l-0.034-0.016c-1.229,0.006-2.658,0.938-3.813,0.218
			c1.641,0.386,3.636-0.295,4.544-1.752c-1.388,0.275-2.676-0.799-4.165-0.399c-0.682,0.204-1.142,0.846-1.622,1.351
			c-0.563,0.595-0.98,0.96-1.727,1.306C75.925,62.006,76.646,62.748,77.73,63.057z"/>
		<path fill="#597A74" d="M82.622,63.803c0.71-0.576,0.74-1.336,0.417-2.147l-0.018,0.009c-0.375,0.518-0.423,1.409-1.079,1.672
			c0.665-0.573,0.993-1.62,0.658-2.45c-0.311,0.669-1.157,0.88-1.448,1.629c-0.122,0.35,0.006,0.739,0.072,1.098
			c0.076,0.417,0.102,0.707,0.019,1.127C81.625,64.239,82.16,64.163,82.622,63.803z"/>
		<g>
			<g>
				<path fill="#597A74" d="M96.354,43.451c-0.505,0.102-0.564-0.561-0.435-0.823c0.122-0.315,0.368-0.479,0.545-0.568
					c0.36-0.193,0.5-0.27,0.517-0.41c0.053-0.194-0.438-0.619,0.784-0.363c0.582,0.186,1.155,0.772,1.305,1.668
					c0.098,0.813-0.033,1.851-0.74,2.889c-0.682,1.053-2.13,1.832-4.198,1.684c-2.041-0.086-4.466-1.605-6.776-4.302
					c0.523,0.486,1.332,1.313,2.455,2.158c1.11,0.834,2.6,1.72,4.26,1.776c0.785,0.042,1.759-0.143,2.431-0.482
					c0.683-0.359,1.216-1.044,1.411-1.851c0.095-0.402,0.104-0.832,0.021-1.262c-0.047-0.351-0.249-0.637-0.574-0.834
					c-0.281-0.199-0.839-0.239-1.06-0.088C96.021,42.787,95.868,43.437,96.354,43.451z"/>
			</g>
		</g>
		<g>
			<g>
				<path fill="#597A74" d="M89.045,54.206c0.195-0.156,0.829-0.914,1.021-2.392c0.234-1.411-0.205-3.296-0.226-3.271
					c-0.016,0.015-0.336-1.83-1.854-3.924c-0.749-1.052-1.809-2.098-2.809-2.893c2.496,1.684,4.602,4.031,5.797,6.667
					c1.22,2.626,1.599,5.403,1.423,7.732c-0.366,4.739-2.521,7.406-2.442,7.389c-0.001-0.004-0.47,0.795-1.506,1.983
					c-1.034,1.172-2.791,2.677-5.295,3.533c-2.471,0.867-5.677,1.006-8.638-0.163c-2.94-1.129-5.646-3.507-6.64-6.564
					c0.037,0.104,0.088,0.204,0.131,0.308c-0.441-1.545-0.563-2.585-0.39-4.369c0.014-0.962,0.94-3.856,2.743-5.289
					c1.715-1.511,3.368-1.46,3.326-1.504c-0.02-0.006,1.608-0.131,2.581,0.504c1.027,0.587,1.233,1.372,1.25,1.59
					c0.062,0.406,0.104,0.69,0.137,1.06c0.323-0.167,0.559-0.306,0.591-0.76c0.026-0.229-0.046-1.106-1.061-1.909
					c-0.947-0.822-2.756-0.949-2.73-0.905c0.045,0.03-1.782-0.237-3.803,1.254c-1.74,1.204-2.953,3.672-3.178,5.041
					c0.454-2.655,1.948-4.835,3.582-6.062c1.665-1.236,3.373-1.536,4.404-1.593c6.924-0.103,10.135,6.666,6.34,11.182
					c1.973-2.158,2.213-5.101,1.047-7.424c-1.185-2.302-3.85-4.156-7.401-4.049c-1.237,0.067-3.515,0.482-5.432,2.406
					c-1.901,1.833-3.328,5.031-2.909,8.44c0.189,1.686,0.823,3.377,1.854,4.811c1.028,1.438,2.441,2.576,3.964,3.414
					c3.07,1.7,6.678,1.906,9.503,1.108c-1.246,0.446-2.803,0.74-4.227,0.808c-2.77,0.135-4.877-0.515-4.872-0.497
					c0.014,0.028-2.171-0.569-3.859-1.375c-1.779-0.825-2.995-1.523-3.313-1.589c-0.632-0.217-0.715,0.091-0.605,0.813
					c0.689,0.368,1.145,0.589,1.782,0.725c0.33,0.051,1.518,0.483,3.229,1.074c1.659,0.603,3.77,0.997,3.753,0.973
					c-0.001-0.021,2.038,0.438,4.667,0.156c2.622-0.189,5.484-1.52,6.327-2.104c0.968-0.588,1.609-1.125,2.208-1.709
					c1.922-1.745,2.665-3.185,2.686-3.161c-0.053-0.002,1.488-1.94,2.232-5.554c0.775-3.539,0.18-8.913-3.149-13.015
					c-3.26-4.093-8.493-6.577-13.06-6.992c-4.609-0.521-8.322,0.755-10.016,1.49c-3.198,1.383-5.335,3.196-7.036,5.112
					c-1.687,1.933-3.021,4-4.15,6.649c1.215-2.609,2.603-4.62,4.309-6.509c1.723-1.861,3.841-3.625,6.991-4.984
					c1.088-0.468,2.943-1.147,5.373-1.438c2.414-0.296,5.411-0.178,8.406,0.804c0.728,0.273,1.442,0.596,2.365,1.075
					c0.894,0.416,3.417,2.082,4.836,3.969c1.486,1.864,1.89,3.543,1.909,3.527c-0.002-0.017,0.542,1.678,0.41,3.001
					c-0.064,1.373-0.6,2.131-0.762,2.3c-0.324,0.356-0.488,0.626-0.791,1.007C88.423,54.407,88.675,54.539,89.045,54.206z"/>
			</g>
		</g>
		<g>
			<g>
				<path fill="#597A74" d="M82.933,46.722c-0.873-1.277-1.634-1.816-2.106-2.042c-0.477-0.231-0.703-0.154-0.834-0.018
					c-0.255,0.278-0.174,0.798-0.954,0.208c-0.815-0.485-1.297-2.139-4.619-3.482c-1.642-0.601-4.027-1.039-7.096-0.453
					c-2.981,0.572-6.941,2.232-9.705,6.186c0.439-0.846,1.354-2.161,2.933-3.469c1.57-1.295,3.809-2.555,6.523-3.222
					c2.695-0.669,5.887-0.772,8.93,0.222C79.038,41.578,81.846,43.867,82.933,46.722z"/>
			</g>
		</g>
	</g>
	<g>
		<path fill="#597A74" d="M85.395,26.434c0.013,0.846-0.213,1.699-0.654,2.402c-0.423,0.674-1.019,1.173-1.645,1.452
			c-0.595,0.263-1.217,0.33-1.752,0.244c-0.505-0.081-0.934-0.295-1.243-0.568c-0.292-0.255-0.477-0.556-0.568-0.842
			c-0.187-0.59,0.014-1.212,0.573-1.505c0.421-0.22,0.939-0.057,1.157,0.362c0.221,0.421,0.056,0.94-0.363,1.159
			c-0.109,0.057-0.224,0.088-0.341,0.096c0.149,0.105,0.327,0.193,0.529,0.249c0.36,0.105,0.803,0.106,1.248-0.037
			c0.474-0.153,0.952-0.476,1.314-0.951c0.387-0.504,0.621-1.148,0.668-1.811c0.049-0.697-0.103-1.412-0.413-2.041
			c-0.656-1.331-1.982-2.197-3.229-2.5c-1.221-0.299-2.337-0.122-3.121,0.11c0.04,0.003,0.082,0.006,0.126,0.015
			c0.502,0.071,1.068,0.375,1.389,0.902c0.153,0.255,0.247,0.556,0.252,0.862c0.003,0.295-0.074,0.59-0.229,0.836
			c-0.148,0.232-0.355,0.406-0.574,0.503c-0.206,0.093-0.425,0.114-0.609,0.086c-0.176-0.027-0.326-0.103-0.433-0.197
			c-0.101-0.089-0.166-0.196-0.197-0.293c-0.067-0.208,0.003-0.423,0.198-0.525c0.148-0.076,0.328-0.02,0.403,0.127
			c0.076,0.146,0.021,0.328-0.127,0.404c-0.036,0.021-0.078,0.03-0.118,0.031c0.053,0.039,0.113,0.071,0.183,0.088
			c0.128,0.036,0.281,0.039,0.437-0.014c0.163-0.051,0.331-0.167,0.457-0.331c0.134-0.175,0.217-0.399,0.232-0.63
			c0.017-0.242-0.037-0.492-0.143-0.711c-0.229-0.46-0.691-0.765-1.125-0.871c-0.34-0.084-0.652-0.06-0.908-0.007
			c-0.416,0.168-0.641,0.288-0.677,0.25c-0.004-0.003-0.006-0.011-0.005-0.019c-0.004-0.001-0.005,0-0.006-0.001
			c-0.006-0.006,0.004-0.029,0.035-0.059c0.098-0.142,0.436-0.438,1.047-0.753c0.775-0.4,2.034-0.796,3.522-0.581
			c1.442,0.209,3.077,1.078,3.991,2.595C85.119,24.694,85.383,25.561,85.395,26.434z"/>
	</g>
	<g>
		<path fill="#597A74" d="M58.132,43.845c-0.021,0.049-0.037,0.082-0.045,0.096c-0.036,0.066,0.067-0.207,0.187-0.793
			c0.013-0.076,0.025-0.158,0.039-0.243c0.088-0.586,0.145-1.347,0.098-2.159c-0.034-0.612-0.128-1.245-0.279-1.807
			c-0.12-0.452-0.284-0.872-0.472-1.205c-0.299-0.527-0.641-0.737-0.852-0.882c-0.191-0.137-0.306-0.249-0.267-0.314
			c0.063-0.102,0.539-0.143,0.969,0.229c-0.111-0.152-0.238-0.304-0.375-0.442c-0.197-0.201-0.421-0.387-0.643-0.528
			c-0.373-0.236-0.697-0.304-0.909-0.358c-0.194-0.048-0.321-0.095-0.311-0.136c0.021-0.082,0.613-0.19,1.245,0.199
			c0.21,0.131,0.417,0.302,0.604,0.489c0.228,0.231,0.434,0.499,0.598,0.77c0.19,0.317,0.319,0.635,0.394,0.912
			c0.082,0.193,0.157,0.406,0.223,0.63c0.037,0.134,0.072,0.273,0.104,0.416c-0.015-0.147-0.029-0.294-0.047-0.442
			c-0.098-0.815-0.256-1.657-0.466-2.388c-0.378-1.315-0.854-1.927-1.169-2.388c-0.304-0.443-0.492-0.811-0.446-1.007
			c0.08-0.314,0.812-0.322,1.451,0.914c-0.158-0.474-0.348-0.968-0.562-1.457c-0.323-0.737-0.716-1.484-1.124-2.111
			c-0.739-1.132-1.375-1.567-1.812-1.908c-0.418-0.33-0.707-0.62-0.717-0.82c-0.016-0.405,1.135-0.652,2.503,1.51
			c0.403,0.641,0.785,1.4,1.112,2.174c0.367,0.877,0.672,1.792,0.893,2.636c0.234,0.899,0.373,1.719,0.435,2.374
			c0.078,0.433,0.143,0.884,0.188,1.332c0.101,0.963,0.132,1.945,0.102,2.833c-0.033,0.976-0.14,1.841-0.271,2.507
			c-0.152,0.916-0.366,1.47-0.415,1.562C58.072,44.08,58.091,44.013,58.132,43.845z"/>
	</g>
	<g>
		<path fill="#597A74" d="M65.914,45.448c0.351,0.607,0.532,1.313,0.498,1.998c-0.03,0.66-0.261,1.259-0.599,1.715
			c-0.322,0.432-0.743,0.732-1.165,0.885c-0.397,0.145-0.795,0.165-1.129,0.094c-0.313-0.066-0.568-0.208-0.749-0.378
			c-0.375-0.35-0.482-0.881-0.196-1.318c0.213-0.331,0.655-0.421,0.982-0.209c0.329,0.215,0.422,0.657,0.207,0.986
			c-0.058,0.085-0.126,0.153-0.207,0.205c0.149,0.017,0.312,0.007,0.482-0.033c0.302-0.072,0.621-0.249,0.887-0.533
			c0.276-0.304,0.491-0.731,0.562-1.22c0.074-0.52-0.017-1.077-0.25-1.575c-0.247-0.524-0.648-0.978-1.126-1.307
			c-1.012-0.694-2.32-0.781-3.345-0.496c-1.002,0.279-1.734,0.86-2.208,1.346c0.033-0.017,0.064-0.03,0.097-0.042
			c0.393-0.15,0.925-0.16,1.372,0.09c0.213,0.122,0.401,0.303,0.527,0.519c0.122,0.212,0.186,0.456,0.174,0.698
			c-0.012,0.227-0.092,0.437-0.209,0.595c-0.112,0.151-0.261,0.256-0.404,0.309c-0.14,0.052-0.278,0.057-0.395,0.032
			c-0.108-0.022-0.196-0.073-0.262-0.132c-0.129-0.12-0.167-0.306-0.067-0.458c0.075-0.114,0.229-0.146,0.342-0.073
			c0.114,0.075,0.147,0.227,0.073,0.343c-0.019,0.029-0.046,0.054-0.073,0.073c0.052,0.003,0.111,0.002,0.168-0.014
			c0.104-0.025,0.217-0.084,0.31-0.184c0.097-0.106,0.172-0.255,0.194-0.427c0.026-0.18-0.005-0.375-0.088-0.547
			c-0.085-0.183-0.224-0.339-0.391-0.454c-0.351-0.242-0.808-0.274-1.164-0.174c-0.279,0.078-0.496,0.223-0.656,0.362
			c-0.233,0.289-0.348,0.467-0.389,0.456c-0.005-0.002-0.008-0.006-0.011-0.012c-0.004,0-0.004,0.002-0.007,0
			c-0.005-0.001-0.008-0.022,0.002-0.058c0.014-0.139,0.14-0.491,0.452-0.965c0.398-0.604,1.145-1.399,2.307-1.848
			c1.125-0.433,2.656-0.468,3.933,0.256C65.009,44.306,65.549,44.823,65.914,45.448z"/>
	</g>
	<path fill="#597A74" d="M94.266,9.271c-1.425-0.652-2.61-0.115-3.61,0.999l0.028,0.019c1.081,0.178,2.48-0.423,3.387,0.382
		c-1.387-0.586-3.242-0.286-4.263,0.857c1.263-0.033,2.236,1.108,3.604,0.979c0.633-0.077,1.131-0.573,1.63-0.947
		c0.584-0.438,1.007-0.694,1.715-0.89C95.696,10.467,95.173,9.709,94.266,9.271z"/>
	<path fill="#597A74" d="M63.455,29.901c0.916,1.55,0.442,2.972-0.713,4.247l-0.025-0.03c-0.331-1.214,0.192-2.885-0.837-3.826
		c0.834,1.514,0.711,3.673-0.477,4.973c-0.111-1.448-1.529-2.425-1.545-4.004c0.014-0.733,0.521-1.362,0.887-1.977
		c0.434-0.72,0.679-1.234,0.814-2.065C61.922,28.407,62.851,28.917,63.455,29.901z"/>
	<g>
		<g>
			<path fill="#597A74" d="M37.131,81.824c-0.238-0.224-0.513,0.136-0.427,0.365c0.063,0.246,0.354,0.342,0.545,0.342
				c0.436-0.039,0.649-0.405,0.714-0.642c0.129-0.521,0.006-0.731,0.113-0.81c0.076-0.083,0.238-0.003,0.284-0.082
				c0.043-0.06-0.034-0.465-0.768-0.849c-0.726-0.388-1.984-0.054-2.411,0.998c-0.526,0.949-0.062,2.697,1.56,3.083
				c0.748,0.192,1.724,0.103,2.43-0.579c0.722-0.656,1.253-1.797,1.075-3.069c-0.132-1.265-1.166-2.553-2.768-3.216
				c-1.555-0.673-3.815-0.623-5.607,0.883c0.722-0.529,2.093-1.278,3.858-1.132c1.652,0.105,3.913,1.341,4.201,3.398
				c0.141,0.994-0.229,2.128-1.041,2.784c-0.71,0.646-1.972,0.591-2.65-0.148c-0.68-0.585-0.179-2.139,0.759-1.886
				c0.473,0.087,0.702,0.575,0.384,0.932c-0.111,0.147-0.397,0.134-0.533-0.015C36.713,82.041,36.872,81.653,37.131,81.824z"/>
		</g>
	</g>
	<g>
		<g>
			<path fill="#597A74" d="M42.798,114.693c0.561-2.62,0.331-4.22,0.052-5.086c-0.278-0.873-0.645-1.066-0.974-1.066
				c-0.654,0.009-1.211,0.733-1.398-0.952c-0.363-1.605,1.137-4.184-1.138-9.961c-1.204-2.785-3.499-6.304-7.899-9.462
				c-4.277-3.063-11.092-6.06-19.356-4.813c1.586-0.455,4.328-0.878,7.854-0.453c3.503,0.429,7.761,1.739,11.837,4.353
				c4.059,2.588,7.996,6.479,10.381,11.488C44.611,103.658,45.086,109.921,42.798,114.693z"/>
		</g>
	</g>
	<g>
		<path fill="#597A74" d="M57.947,44.785c0.57-1.266,0.614-2.678,0.122-3.978c-0.244-0.642-0.604-1.22-1.06-1.708
			c-0.016-0.019-0.033-0.04-0.049-0.057c-0.064-0.075-0.151-0.158-0.26-0.245c-0.396-0.36-0.854-0.661-1.358-0.889
			c-1.266-0.57-2.679-0.613-3.976-0.121c-1.301,0.491-2.328,1.46-2.899,2.726c-0.569,1.266-0.614,2.678-0.12,3.976
			c0.491,1.299,1.46,2.328,2.728,2.898c1.264,0.57,2.678,0.613,3.975,0.121C56.349,47.02,57.376,46.049,57.947,44.785z
			 M48.903,44.483c-0.952-2.511,0.313-5.321,2.825-6.273c1.084-0.41,2.224-0.408,3.244-0.071c-0.442-0.008-0.915,0.113-1.384,0.442
			c-0.649,0.455-1.093,1.354-0.925,2.208c0.159,0.793,0.907,1.494,1.713,1.505c0.743,0.01,1.437-0.621,1.451-1.275
			c0.01-0.584-0.532-1.032-0.923-0.957c-0.302,0.058-0.326,0.323-0.217,0.333c0.188,0.014,0.536,0.123,0.586,0.46
			c0.057,0.396-0.371,0.86-0.875,0.871c-0.577,0.009-1.154-0.528-1.254-1.161c-0.227-1.47,1.63-2.221,2.526-2.009
			c0.195,0.046,0.37,0.111,0.527,0.186c0.794,0.542,1.437,1.322,1.804,2.292c0.952,2.511-0.313,5.32-2.826,6.273
			C52.664,48.262,49.856,46.996,48.903,44.483z"/>
	</g>
	<g>
		<path fill="#597A74" d="M14.292,49.216c-0.492-2.17,0.602-3.669,2.444-4.733l0.019,0.045c-0.067,1.557-1.314,3.328-0.46,4.824
			c-0.409-2.101,0.551-4.598,2.44-5.68c-0.412,1.749,0.887,3.435,0.311,5.303c-0.293,0.856-1.13,1.405-1.794,1.992
			c-0.784,0.685-1.266,1.198-1.741,2.127C15.536,51.557,14.632,50.607,14.292,49.216z"/>
		<path fill="#597A74" d="M13.581,42.973c0.765-0.873,1.729-0.874,2.744-0.423l-0.014,0.022c-0.678,0.448-1.805,0.467-2.174,1.287
			c0.759-0.818,2.105-1.181,3.141-0.717c-0.862,0.361-1.173,1.427-2.136,1.757c-0.448,0.14-0.938-0.042-1.39-0.143
			c-0.526-0.116-0.891-0.164-1.429-0.077C12.979,44.218,13.1,43.543,13.581,42.973z"/>
		<g>
			<g>
				<path fill="#597A74" d="M40.058,26.535c-0.157,0.636,0.681,0.744,1.021,0.591c0.403-0.14,0.624-0.442,0.743-0.663
					c0.266-0.447,0.369-0.622,0.545-0.637c0.25-0.059,0.766,0.587,0.499-0.978c-0.207-0.746-0.924-1.502-2.053-1.734
					c-1.025-0.161-2.351-0.046-3.699,0.803c-1.368,0.81-2.426,2.61-2.339,5.242c0.013,2.595,1.823,5.742,5.132,8.802
					c-0.591-0.687-1.6-1.75-2.62-3.219c-1.007-1.448-2.055-3.38-2.048-5.487c-0.013-0.999,0.268-2.224,0.73-3.059
					c0.488-0.849,1.382-1.492,2.412-1.703c0.518-0.099,1.064-0.093,1.604,0.032c0.443,0.078,0.8,0.35,1.031,0.77
					c0.237,0.368,0.264,1.079,0.063,1.35C40.882,26.992,40.048,27.15,40.058,26.535z"/>
			</g>
		</g>
		<g>
			<g>
				<path fill="#597A74" d="M26.062,35.289c0.208-0.24,1.199-1.007,3.082-1.181c1.802-0.23,4.175,0.42,4.14,0.444
					c-0.021,0.018,2.305,0.516,4.889,2.541c1.298,1,2.574,2.394,3.531,3.698c-2.017-3.246-4.89-6.03-8.177-7.672
					c-3.268-1.672-6.774-2.287-9.737-2.177c-6.029,0.237-9.517,2.844-9.487,2.742c0.002,0.002-1.032,0.56-2.592,1.816
					c-1.533,1.256-3.529,3.411-4.735,6.548C5.757,45.139,5.426,49.2,6.769,53.014c1.288,3.782,4.174,7.325,8.005,8.735
					c-0.129-0.052-0.255-0.122-0.385-0.182c1.94,0.636,3.256,0.84,5.523,0.702c1.222,0.029,4.937-1.004,6.841-3.222
					c2-2.104,2.015-4.203,2.068-4.146c0.005,0.024,0.241-2.037-0.515-3.298c-0.697-1.333-1.686-1.632-1.958-1.665
					c-0.514-0.096-0.87-0.165-1.34-0.225c0.23-0.399,0.416-0.695,0.995-0.712c0.289-0.022,1.397,0.11,2.368,1.435
					c0.999,1.246,1.071,3.545,1.021,3.509c-0.037-0.059,0.211,2.271-1.777,4.763c-1.608,2.151-4.798,3.571-6.545,3.79
					c3.39-0.445,6.227-2.237,7.861-4.251c1.648-2.053,2.11-4.205,2.232-5.509c0.464-8.777-7.967-13.176-13.879-8.579
					c2.834-2.402,6.576-2.564,9.467-0.973c2.862,1.613,5.089,5.083,4.78,9.583c-0.146,1.566-0.784,4.435-3.315,6.772
					c-2.414,2.326-6.54,3.982-10.843,3.286c-2.131-0.321-4.246-1.21-6.016-2.584c-1.774-1.375-3.151-3.222-4.141-5.191
					c-2.006-3.977-2.095-8.563-0.946-12.107c-0.625,1.562-1.076,3.519-1.226,5.323c-0.305,3.506,0.416,6.209,0.393,6.204
					C5.402,54.451,6.057,57.25,7,59.432c0.96,2.298,1.784,3.872,1.854,4.278c0.244,0.814-0.152,0.903-1.061,0.73
					c-0.434-0.892-0.693-1.48-0.834-2.294c-0.05-0.423-0.54-1.952-1.205-4.148c-0.688-2.136-1.084-4.829-1.056-4.807
					c0.027,0.002-0.457-2.607,0.025-5.928c0.367-3.318,2.189-6.885,2.972-7.924c0.797-1.198,1.509-1.987,2.276-2.719
					c2.306-2.353,4.167-3.228,4.14-3.254c0.001,0.067,2.532-1.794,7.153-2.564c4.523-0.814,11.313,0.201,16.355,4.62
					c5.034,4.333,7.935,11.091,8.241,16.903c0.438,5.87-1.357,10.519-2.371,12.634c-1.908,3.986-4.313,6.61-6.822,8.676
					c-2.536,2.047-5.222,3.64-8.635,4.945c3.371-1.414,5.986-3.076,8.462-5.153c2.444-2.094,4.783-4.697,6.66-8.627
					c0.644-1.356,1.597-3.679,2.081-6.745c0.494-3.05,0.485-6.855-0.614-10.702c-0.313-0.937-0.688-1.86-1.251-3.055
					c-0.484-1.153-2.478-4.431-4.8-6.323c-2.293-1.974-4.405-2.567-4.383-2.591c0.024,0.002-2.101-0.769-3.786-0.665
					c-1.746,0.016-2.731,0.657-2.956,0.856c-0.465,0.394-0.818,0.59-1.314,0.954C25.778,36.07,25.622,35.743,26.062,35.289z"/>
			</g>
		</g>
		<g>
			<g>
				<path fill="#597A74" d="M35.334,43.513c1.577,1.169,2.227,2.159,2.49,2.771c0.271,0.614,0.162,0.896-0.019,1.056
					c-0.365,0.311-1.021,0.183-0.309,1.201c0.578,1.06,2.648,1.749,4.193,6.026c0.687,2.114,1.128,5.159,0.236,9.024
					c-0.87,3.753-3.165,8.696-8.313,12.012c1.093-0.517,2.804-1.613,4.538-3.552c1.716-1.931,3.423-4.713,4.4-8.122
					c0.978-3.386,1.261-7.429,0.148-11.338C41.672,48.7,38.905,45.028,35.334,43.513z"/>
			</g>
		</g>
	</g>
	<g>
		<g>
			<g>
				<path fill="#597A74" d="M53.998,5.927c0.17,0.171,0.385-0.083,0.326-0.258c-0.038-0.185-0.248-0.262-0.391-0.27
					c-0.323,0.015-0.495,0.279-0.551,0.453c-0.111,0.381-0.025,0.541-0.109,0.594c-0.057,0.061-0.175-0.004-0.212,0.052
					c-0.035,0.042,0.011,0.347,0.542,0.656c0.523,0.309,1.47,0.101,1.816-0.666c0.421-0.686,0.133-1.994-1.057-2.332
					c-0.549-0.167-1.276-0.131-1.818,0.352c-0.556,0.463-0.984,1.292-0.894,2.239c0.058,0.941,0.781,1.928,1.949,2.471
					c1.129,0.548,2.806,0.581,4.181-0.477c-0.554,0.369-1.59,0.883-2.894,0.715c-1.221-0.129-2.856-1.115-3.006-2.649
					c-0.072-0.742,0.238-1.569,0.859-2.031c0.546-0.455,1.479-0.375,1.96,0.195c0.484,0.455,0.064,1.589-0.622,1.372
					c-0.348-0.079-0.501-0.447-0.255-0.702c0.086-0.105,0.297-0.087,0.395,0.027C54.315,5.78,54.184,6.062,53.998,5.927z"/>
			</g>
		</g>
		<path fill="#597A74" d="M54.703,11.069c1.354-1.573,3.433-2.755,5.805-3.002c2.358-0.268,5.017,0.453,7.038,2.279
			c2.019,1.821,3.5,4.559,3.738,7.667c0.27,3.088-0.785,6.529-3.247,9.103c0.935-1.035,2.013-2.575,2.639-4.664
			c0.62-2.066,0.755-4.71-0.201-7.332c-0.941-2.563-2.975-5.242-6.006-6.297c-2.981-1.1-6.839-0.383-9.224,2.226
			c-1.169,1.241-1.842,2.975-1.777,4.741c0.041,1.758,0.85,3.525,2.19,4.715c1.308,1.16,3.271,1.572,4.974,0.973
			c1.724-0.564,3.101-2.086,3.111-3.889c0.061-1.758-1.209-3.631-2.982-3.773c-0.867-0.094-1.777,0.188-2.439,0.795
			c-0.633,0.563-0.943,1.484-0.738,2.343c0.195,0.859,0.858,1.626,1.721,1.742c0.843,0.146,1.852-0.357,2.094-1.198
			c0.294-0.828-0.286-1.934-1.226-1.987c-0.443-0.023-0.944,0.187-1.184,0.58c-0.262,0.388-0.206,0.954,0.114,1.33
			c-0.356-0.375-0.428-0.949-0.196-1.354c0.209-0.418,0.657-0.66,1.07-0.709c0.876-0.115,1.549,0.557,1.737,1.199
			c0.415,1.406-0.652,2.331-1.317,2.592c-0.729,0.305-1.28,0.246-1.608,0.228c-0.334-0.033-0.483-0.044-0.544,0.002
			c-0.127,0.091,0.166,0.372,0.019,0.413c-0.073,0.013-0.286-0.007-0.69-0.248c-0.397-0.259-0.971-0.726-1.388-1.729
			c-0.396-1-0.36-2.249,0.293-3.348c0.682-1.084,1.904-1.897,3.456-1.994c1.518-0.135,3.372,0.729,4.222,2.501
			c0.914,1.674,0.797,4.346-1.134,5.998c-0.933,0.814-2.202,1.38-3.607,1.444c-1.397,0.072-2.931-0.393-4.109-1.462
			c-1.182-1.065-2.058-2.668-2.258-4.478C52.846,14.677,53.34,12.637,54.703,11.069z"/>
	</g>
	<path fill="#597A74" d="M18.163,38.184c1.157,1.075,1.116,2.388,0.462,3.749l-0.028-0.019c-0.585-0.938-0.561-2.475-1.662-3.011
		c1.08,1.066,1.518,2.913,0.844,4.304c-0.457-1.188-1.895-1.656-2.303-2.981c-0.17-0.618,0.099-1.275,0.255-1.884
		c0.184-0.715,0.261-1.207,0.166-1.942C16.499,37.31,17.408,37.506,18.163,38.184z"/>
	<g>
		<path fill="#597A74" d="M9.727,83.196c3.446,0.138,8.41,0.092,14.071-1.404c5.665-1.46,11.825-4.818,16.918-9.975
			c5.116-5.134,9.17-11.733,12.743-18.441c3.589-6.722,6.818-13.605,10.478-19.702c3.584-6.13,7.771-11.372,12.115-15.034
			c4.333-3.692,8.653-5.793,11.737-6.97c1.054-0.395,1.964-0.702,2.705-0.938l-0.014-0.02c-0.745,0.225-1.653,0.524-2.71,0.906
			c-3.101,1.147-7.453,3.209-11.845,6.871c-4.403,3.633-8.67,8.863-12.331,14.979c-3.734,6.08-7.041,12.946-10.688,19.609
			c-3.633,6.655-7.721,13.145-12.801,18.132c-5.035,4.994-11.075,8.198-16.575,9.556C18,82.167,13.161,82.162,9.783,81.993
			c-3.387-0.202-5.374-0.539-5.522-0.551C3.746,81.374,0.387,81.237,0,81.266v1.422c0.124,0.022,3.958-0.017,4.089,0.001
			C4.242,82.702,6.264,83.025,9.727,83.196z"/>
	</g>
	<g>
		<path fill="#597A74" d="M78.943,20.299c-4.194,2.697-7.803,6.225-10.948,10.079c-6.26,7.783-10.781,16.718-16.019,25.122
			c-5.187,8.339-11.342,16.601-20.202,21.184c-8.781,4.721-19.281,4.813-28.881,2.793c-0.512-0.108-0.938-0.2-0.976-0.025
			c-0.04,0.174,0.402,0.2,0.916,0.311c9.624,2.062,20.212,2.051,29.147-2.681c9.006-4.59,15.272-12.919,20.491-21.273
			c5.272-8.425,9.77-17.34,15.916-25.112c3.089-3.85,6.621-7.381,10.735-10.123c4.084-2.786,8.732-4.683,13.553-5.804
			c0.239-0.056,0.456-0.105,0.62-0.145l-0.005-0.007c-0.166,0.033-0.383,0.079-0.621,0.127
			C87.825,15.745,83.104,17.555,78.943,20.299z"/>
	</g>
	<g>
		<path fill="#597A74" d="M4.835,80.28c0.466,0.024,0.914,0.042,1.345,0.048c0.412,0.008,0.809,0.009,1.189-0.001
			c0.367-0.005,0.723-0.019,1.064-0.039c0.328-0.019,0.646-0.043,0.954-0.071c0.296-0.029,0.583-0.062,0.862-0.098
			c0.531-0.071,1.03-0.155,1.503-0.253c0.445-0.093,0.865-0.196,1.264-0.308c0.382-0.106,0.739-0.222,1.082-0.349
			c0.328-0.117,0.64-0.242,0.938-0.375c0.285-0.126,0.561-0.259,0.821-0.397c0.253-0.133,0.495-0.272,0.726-0.417
			c0.445-0.274,0.854-0.57,1.228-0.881c0.36-0.296,0.692-0.61,0.992-0.938c0.582-0.631,1.067-1.331,1.434-2.07
			c0.365-0.738,0.626-1.54,0.734-2.359c0.056-0.424,0.075-0.852,0.047-1.275c-0.029-0.437-0.106-0.871-0.237-1.287
			c-0.135-0.424-0.325-0.833-0.579-1.199c-0.257-0.374-0.579-0.702-0.959-0.959c-0.771-0.517-1.799-0.698-2.785-0.391
			c-0.985,0.307-1.886,1.099-2.406,2.05c-0.252,0.465-0.42,0.96-0.503,1.438c-0.078,0.464-0.08,0.909-0.019,1.315
			c0.06,0.383,0.172,0.729,0.326,1.019c0.143,0.276,0.319,0.505,0.514,0.684c0.184,0.167,0.382,0.289,0.583,0.37
			c0.188,0.074,0.378,0.11,0.561,0.113c0.17,0.001,0.336-0.026,0.486-0.082c0.14-0.049,0.27-0.126,0.375-0.219
			c-0.119,0.087-0.267,0.146-0.423,0.177c-0.166,0.029-0.348,0.021-0.529-0.026c-0.193-0.056-0.387-0.156-0.563-0.309
			c-0.188-0.164-0.354-0.384-0.477-0.66c-0.131-0.29-0.213-0.64-0.222-1.022c-0.01-0.406,0.063-0.847,0.224-1.282
			c0.17-0.451,0.437-0.888,0.781-1.256c0.354-0.373,0.785-0.67,1.245-0.85c0.922-0.353,1.924-0.189,2.629,0.346
			c0.348,0.263,0.629,0.607,0.839,0.993c0.202,0.379,0.337,0.803,0.406,1.238c0.135,0.849,0.022,1.747-0.266,2.576
			c-0.287,0.826-0.757,1.615-1.358,2.301c-0.182,0.233-0.38,0.461-0.596,0.683c-0.223,0.225-0.465,0.446-0.727,0.656
			c-0.27,0.219-0.561,0.429-0.874,0.627c-0.328,0.207-0.68,0.406-1.058,0.589c-0.4,0.194-0.835,0.375-1.298,0.538
			c-0.498,0.172-1.036,0.33-1.623,0.46c-0.634,0.142-1.327,0.257-2.085,0.336c-0.837,0.085-1.765,0.128-2.791,0.111
			c-1.159-0.021-2.465-0.117-3.942-0.321c-0.67-0.092-1.378-0.207-2.133-0.351c0.365-0.104,0.713-0.208,1.044-0.313
			c0.346-0.111,0.678-0.22,0.989-0.333c0.301-0.106,0.586-0.213,0.858-0.318c0.258-0.104,0.506-0.208,0.741-0.312
			c0.229-0.097,0.444-0.194,0.651-0.294c0.199-0.095,0.392-0.19,0.575-0.285c0.175-0.091,0.347-0.183,0.509-0.275
			c0.309-0.173,0.593-0.35,0.858-0.521c0.247-0.166,0.477-0.33,0.689-0.491c0.202-0.157,0.391-0.314,0.564-0.467
			c0.166-0.152,0.32-0.298,0.467-0.445c0.137-0.143,0.264-0.285,0.383-0.428c0.117-0.136,0.222-0.272,0.321-0.409
			c0.188-0.267,0.35-0.53,0.484-0.792c0.13-0.254,0.235-0.508,0.318-0.762c0.161-0.49,0.238-0.991,0.23-1.484
			c-0.009-0.492-0.103-0.99-0.298-1.459c-0.099-0.241-0.225-0.477-0.379-0.699c-0.158-0.227-0.346-0.439-0.562-0.63
			c-0.22-0.195-0.472-0.365-0.748-0.496c-0.279-0.135-0.587-0.23-0.907-0.27c-0.646-0.078-1.347,0.091-1.865,0.508
			c-0.517,0.421-0.827,1.079-0.846,1.727c-0.008,0.314,0.045,0.623,0.147,0.903c0.101,0.269,0.242,0.512,0.41,0.712
			c0.161,0.192,0.344,0.349,0.53,0.465c0.18,0.11,0.363,0.189,0.542,0.233c0.167,0.045,0.331,0.059,0.482,0.051
			c0.141-0.009,0.272-0.039,0.386-0.084c0.11-0.043,0.202-0.102,0.279-0.171c0.07-0.063,0.129-0.137,0.163-0.212
			c-0.048,0.077-0.118,0.146-0.206,0.2c-0.098,0.06-0.212,0.105-0.34,0.123c-0.14,0.022-0.292,0.017-0.449-0.019
			c-0.171-0.04-0.347-0.117-0.51-0.231c-0.174-0.124-0.34-0.291-0.467-0.496c-0.138-0.215-0.234-0.47-0.273-0.747
			c-0.038-0.283-0.014-0.59,0.087-0.876c0.099-0.294,0.274-0.564,0.504-0.778c0.463-0.428,1.143-0.598,1.751-0.495
			c0.303,0.054,0.591,0.166,0.845,0.32c0.25,0.153,0.47,0.345,0.651,0.562c0.355,0.42,0.574,0.935,0.663,1.456
			c0.085,0.518,0.043,1.062-0.112,1.587c-0.038,0.172-0.089,0.347-0.153,0.521c-0.065,0.18-0.147,0.36-0.243,0.541
			c-0.098,0.188-0.213,0.375-0.345,0.563c-0.138,0.198-0.294,0.394-0.473,0.591c-0.188,0.207-0.4,0.416-0.638,0.625
			c-0.255,0.222-0.542,0.445-0.867,0.664c-0.35,0.241-0.744,0.483-1.195,0.719c-0.495,0.263-1.061,0.525-1.707,0.782
			c-0.732,0.288-1.578,0.574-2.566,0.845C2.067,78.126,0.516,78.477,0,78.594v1.125c0.383,0.045,2.946,0.415,3.306,0.447
			C3.839,80.215,4.346,80.252,4.835,80.28z"/>
	</g>
	<g>
		<path fill="#597A74" d="M14.783,84.189c1.694,0.245,3.197,0.551,4.531,0.897c1.209,0.313,2.294,0.661,3.271,1.037
			c0.898,0.345,1.712,0.715,2.447,1.101c0.691,0.359,1.316,0.74,1.886,1.129c0.533,0.371,1.021,0.75,1.465,1.144
			c0.425,0.374,0.805,0.759,1.147,1.151c0.329,0.375,0.628,0.763,0.886,1.154c0.255,0.383,0.474,0.771,0.662,1.164
			c0.675,1.161,1.082,2.442,1.171,3.732c0.093,1.295-0.138,2.647-0.752,3.858c-0.313,0.619-0.73,1.204-1.241,1.712
			c-0.519,0.516-1.141,0.945-1.834,1.243c-1.4,0.6-3.124,0.578-4.475-0.183c-0.672-0.381-1.246-0.932-1.652-1.574
			c-0.397-0.631-0.631-1.347-0.702-2.052c-0.009-0.093-0.015-0.185-0.018-0.279c0.158,0.329,0.368,0.633,0.635,0.904
			c1.3,1.318,3.426,1.335,4.747,0.035c1.322-1.304,1.339-3.429,0.039-4.751c-1.303-1.319-3.43-1.337-4.75-0.033
			c-1.539,1.511-2.457,4.197-1.899,6.267c0.412,1.534,1.523,2.934,3.003,3.641c1.479,0.71,3.248,0.714,4.754,0.154
			c0.739-0.271,1.419-0.675,2.013-1.156c0.587-0.472,1.09-1.025,1.509-1.614c0.408-0.578,0.734-1.194,0.98-1.825
			c0.242-0.618,0.411-1.254,0.514-1.887c0.197-1.235,0.143-2.481-0.118-3.664c-0.262-1.185-0.733-2.338-1.398-3.419
			c-0.341-0.56-0.741-1.106-1.196-1.643c-0.47-0.55-1.002-1.092-1.607-1.613c-0.313-0.269-0.646-0.537-1.001-0.799
			c-0.365-0.272-0.75-0.539-1.165-0.803c-0.426-0.273-0.88-0.538-1.366-0.795c-0.504-0.273-1.04-0.538-1.613-0.796
			c-0.602-0.269-1.246-0.53-1.934-0.786c-0.729-0.264-1.511-0.521-2.352-0.764c-0.44-0.125-0.898-0.246-1.372-0.367
			c-0.491-0.122-1.002-0.243-1.536-0.356c-0.551-0.117-1.127-0.23-1.726-0.339c-0.623-0.109-1.275-0.214-1.955-0.313
			c-0.711-0.1-1.451-0.193-2.229-0.275c-0.813-0.092-1.664-0.167-2.562-0.235c-0.939-0.067-1.929-0.124-2.971-0.167
			c-0.36-0.019-0.727-0.029-1.096-0.038L0,82.594v0.797c1.59-0.026,6.803,0.192,8.161,0.237
			C10.683,83.716,12.87,83.918,14.783,84.189z"/>
	</g>
</g>
</svg>
