<?xml version="1.0" encoding="utf-8"?>
<!-- Generator: Adobe Illustrator 16.0.3, SVG Export Plug-In . SVG Version: 6.00 Build 0)  -->
<!DOCTYPE svg PUBLIC "-//W3C//DTD SVG 1.1//EN" "http://www.w3.org/Graphics/SVG/1.1/DTD/svg11.dtd">
<svg version="1.1" id="Layer_1" xmlns="http://www.w3.org/2000/svg" xmlns:xlink="http://www.w3.org/1999/xlink" x="0px" y="0px"
	 width="120px" height="120px" viewBox="0 0 120 120" enable-background="new 0 0 120 120" xml:space="preserve">
<g opacity="0.5">
	<g>
		<g>
			<g>
				<path fill="#597A74" d="M23.132,62.337L23.132,62.337c-0.924-3.095-3.478-5.678-6.579-6.689
					c-1.543-0.528-3.205-0.678-4.814-0.471c-1.594,0.221-3.216,0.724-4.424,1.839c-1.214,1.081-1.99,2.638-2.124,4.265
					c-0.118,1.583,0.254,3.393,1.593,4.443c1.273,1.035,3.289,1.209,4.598,0.115c0.614-0.574,0.878-1.483,0.674-2.292
					c-0.146-0.845-1.116-1.41-1.903-1.094l0.018,0.045c0.778-0.263,1.638,0.303,1.751,1.083c0.164,0.762-0.101,1.595-0.676,2.11
					c-1.201,0.982-3.127,0.83-4.319-0.145c-1.257-0.974-1.646-2.706-1.55-4.253c0.109-1.58,0.841-3.115,2.019-4.188
					c1.17-1.109,2.782-1.603,4.36-1.797c1.592-0.186,3.224-0.003,4.731,0.531C19.52,56.885,21.982,59.334,23.132,62.337z"/>
			</g>
		</g>
		<path fill="#597A74" d="M5.957,60c1.525,0.82,3.178,3.368,5.12,2.593c-1.395,1.261-2.608,0.16-4.058-0.121
			c0.109-0.062,0.129-0.138,0.254-0.206c-0.255-0.062-0.432-0.113-0.702-0.195c0.134-0.062,0.165-0.14,0.252-0.201
			c-0.302-0.117-0.422-0.154-0.164-0.362c-0.598-0.276-0.37-1.153-0.95-1.477c0.44-0.382,1.337-0.217,1.795,0.12
			c-0.099-0.131-0.125-0.217-0.237-0.324c0.163,0.068,0.541,0.205,0.734,0.272c-0.009-0.075,0.077-0.191,0.008-0.354
			c0.267,0.204,0.685,0.507,0.706,0.021c1.209,0.52,2.292,1.434,2.362,2.827C9.058,62.703,7.886,60.41,5.957,60z"/>
		<path fill="#597A74" d="M15.114,61.203c-0.896,0.828-2.972,1.344-2.896,2.822c-0.521-1.217,0.488-1.779,1.004-2.678
			c0.021,0.083,0.064,0.117,0.076,0.215c0.103-0.157,0.179-0.262,0.295-0.421c0.01,0.099,0.058,0.139,0.076,0.213
			c0.148-0.175,0.199-0.249,0.281-0.03c0.321-0.334,0.85,0.017,1.2-0.295c0.151,0.383-0.161,0.94-0.493,1.168
			c0.113-0.031,0.178-0.033,0.271-0.082c-0.083,0.096-0.258,0.312-0.348,0.425c0.054,0.014,0.108,0.099,0.233,0.088
			c-0.198,0.131-0.491,0.343-0.171,0.468c-0.625,0.687-1.482,1.197-2.426,0.93C12.606,62.65,14.401,62.393,15.114,61.203z"/>
	</g>
	<g>
		<path fill="#597A74" d="M95.359,104.958c-1.293-0.052-2.465-0.169-3.533-0.33c-0.986-0.151-1.889-0.341-2.715-0.572
			c-0.777-0.214-1.492-0.46-2.152-0.729c-0.624-0.251-1.202-0.533-1.734-0.826c-0.508-0.288-0.977-0.591-1.41-0.913
			c-0.418-0.309-0.803-0.632-1.15-0.973c-0.34-0.326-0.648-0.673-0.928-1.024c-0.938-1.026-1.63-2.23-2.002-3.512
			c-0.378-1.287-0.441-2.708-0.091-4.063c0.179-0.699,0.47-1.378,0.876-2.007c0.413-0.633,0.943-1.205,1.578-1.659
			c1.287-0.912,3.027-1.271,4.559-0.799c0.766,0.239,1.464,0.664,2.017,1.222c0.539,0.555,0.937,1.223,1.163,1.922
			c0.217,0.674,0.275,1.365,0.202,2.01c-0.073,0.611-0.26,1.173-0.53,1.648c-0.247,0.442-0.563,0.813-0.911,1.09
			c-0.318,0.258-0.668,0.439-1.007,0.54c-0.317,0.098-0.629,0.124-0.912,0.093c-0.265-0.03-0.506-0.112-0.7-0.231
			c0.173,0.131,0.378,0.238,0.611,0.312c0.252,0.071,0.532,0.099,0.824,0.079c0.315-0.022,0.646-0.099,0.979-0.236
			c0.355-0.145,0.715-0.361,1.052-0.64c0.359-0.305,0.695-0.685,0.98-1.134c0.305-0.481,0.551-1.039,0.704-1.655
			c0.164-0.646,0.224-1.354,0.151-2.083c-0.071-0.75-0.288-1.516-0.656-2.229c-0.755-1.462-2.186-2.629-3.838-3.019
			c-1.65-0.391-3.438-0.005-4.835,0.892c-0.686,0.44-1.283,0.994-1.78,1.613c-0.488,0.606-0.874,1.27-1.166,1.963
			c-0.284,0.67-0.478,1.368-0.587,2.058c-0.109,0.68-0.14,1.357-0.104,2.018c0.074,1.292,0.4,2.542,0.927,3.674
			c0.523,1.142,1.259,2.198,2.166,3.148c0.467,0.488,0.992,0.955,1.566,1.393c0.597,0.453,1.258,0.88,1.979,1.277
			c0.379,0.204,0.776,0.402,1.191,0.589c0.43,0.191,0.877,0.378,1.354,0.552c0.488,0.181,1.005,0.351,1.556,0.505
			c0.565,0.166,1.168,0.312,1.804,0.446c0.667,0.14,1.376,0.264,2.127,0.365c0.794,0.106,1.639,0.191,2.541,0.252
			c0.475,0.032,0.966,0.058,1.469,0.067c0.523,0.021,1.068,0.028,1.627,0.026c0.587-0.004,1.191-0.014,1.818-0.038
			c0.658-0.029,1.336-0.064,2.047-0.116c0.493-0.038,1.006-0.081,1.524-0.133l0.587-1.431c-1.619,0.242-3.103,0.406-4.464,0.505
			C98.367,104.989,96.781,105.011,95.359,104.958z"/>
	</g>
	<g>
		<path fill="#597A74" d="M36.256,100.527c0.074,1.51,0.576,3.003,1.443,4.204c0.832,1.15,1.951,1.972,3.101,2.399
			c1.09,0.4,2.204,0.45,3.149,0.231c0.889-0.198,1.635-0.636,2.153-1.154c0.486-0.485,0.783-1.048,0.913-1.564
			c0.266-1.079-0.161-2.164-1.194-2.618c-0.777-0.343-1.682,0.008-2.022,0.778c-0.344,0.776,0.008,1.685,0.781,2.025
			c0.2,0.088,0.412,0.129,0.619,0.13c-0.254,0.206-0.559,0.382-0.915,0.51c-0.629,0.223-1.417,0.28-2.227,0.077
			c-0.861-0.224-1.748-0.747-2.452-1.552c-0.749-0.851-1.24-1.97-1.4-3.146c-0.169-1.237,0.021-2.531,0.502-3.692
			c1.018-2.44,3.279-4.139,5.47-4.826c2.145-0.67,4.152-0.483,5.577-0.159c-0.075,0.012-0.146,0.025-0.223,0.04
			c-0.89,0.186-1.863,0.794-2.376,1.771c-0.24,0.473-0.371,1.018-0.346,1.563c0.028,0.525,0.201,1.043,0.505,1.465
			c0.289,0.396,0.681,0.684,1.08,0.83c0.376,0.143,0.77,0.158,1.096,0.087c0.312-0.074,0.567-0.222,0.749-0.4
			c0.168-0.176,0.271-0.369,0.317-0.551c0.096-0.372-0.057-0.752-0.414-0.909c-0.273-0.117-0.588,0.001-0.707,0.269
			c-0.117,0.272,0.004,0.592,0.272,0.712c0.069,0.028,0.145,0.04,0.216,0.038c-0.087,0.072-0.193,0.139-0.315,0.179
			c-0.221,0.078-0.495,0.099-0.778,0.027c-0.297-0.077-0.611-0.258-0.852-0.536c-0.261-0.298-0.434-0.691-0.488-1.098
			c-0.061-0.432,0.008-0.88,0.174-1.286c0.354-0.848,1.144-1.441,1.906-1.682c0.592-0.185,1.156-0.179,1.614-0.115
			c0.759,0.254,1.175,0.439,1.236,0.365c0.006-0.004,0.009-0.018,0.006-0.029c0.005-0.002,0.008-0.001,0.01-0.008
			c0.011-0.011-0.011-0.047-0.068-0.1c-0.188-0.241-0.827-0.729-1.953-1.221c-1.432-0.621-3.718-1.187-6.347-0.63
			c-2.547,0.533-5.356,2.271-6.817,5.085C36.548,97.393,36.177,98.966,36.256,100.527z"/>
	</g>
	<g>
		<path fill="#597A74" d="M39.75,45.082c-0.805,3.943-1.007,7.619-0.539,11.678c0.08,0.641,0.177,1.278,0.289,1.912
			c-0.709-3.4-0.932-6.903-0.648-10.286c0.045-0.495,0.097-0.993,0.162-1.481c0.636-3.815,1.871-7.342,3.552-10.438
			c-0.45,1.05-0.848,2.12-1.193,3.213C40.704,41.392,40.174,43.157,39.75,45.082z"/>
		<path fill="#597A74" d="M75.371,100.48c0.006,0.002,0.017,0.005,0.025,0.008c0.025,0.012,0.051,0.022,0.072,0.036
			C75.438,100.509,75.404,100.49,75.371,100.48z"/>
		<path fill="#597A74" d="M41.466,67.376c-0.769-2.069-1.421-4.065-1.917-6.124c0.258,0.918,0.55,1.83,0.882,2.731
			c0.802,2.335,1.812,4.611,2.876,6.84c0.74,1.459,1.539,2.884,2.386,4.269c3.8,6.594,9.114,12.682,15.282,17.209
			c0.334,0.253,0.687,0.515,1.056,0.775c1.232,0.935,2.495,1.824,3.78,2.669c3.497,2.279,7.104,4.177,10.719,5.66
			c-7.335-2.793-14.349-6.952-20.416-12.478c-1.815-1.66-3.516-3.467-5.134-5.341C46.785,78.584,43.768,73.313,41.466,67.376z"/>
		<path fill="#597A74" d="M77.89,101.454c6.608,2.399,13.222,3.569,19.019,3.8c-4.816-0.327-10.322-1.204-15.687-3.058
			c-4.147-1.335-8.22-3.221-12.141-5.501c-2.362-1.504-4.725-3.22-7.02-5.159c-0.424-0.386-0.841-0.784-1.256-1.191
			c5.157,4.32,10.964,7.783,16.816,10.155c-5.136-2.233-10.27-5.264-14.833-9.078c-3.302-2.719-6.338-5.753-9.012-9.092
			c-1.761-2.367-3.395-4.903-4.859-7.57c-0.303-0.637-0.603-1.278-0.892-1.927c3.03,5.561,6.936,10.773,11.521,15.187
			c-4.167-4.226-7.813-9.112-10.583-14.456c-2.036-3.875-3.688-7.937-4.851-12.063c-0.673-2.919-1.064-5.895-1.06-8.878
			c0.037-0.661,0.09-1.322,0.164-1.983c-0.061,2.304,0.1,4.64,0.502,6.957c0.696,3.87,2.048,7.881,3.671,11.682
			c-2.279-5.67-3.916-11.627-3.669-17.499c0.102-4.091,0.939-8.103,2.408-11.828c1.503-3.372,3.526-6.517,6.017-9.237
			c0.561-0.62,1.144-1.218,1.743-1.794C48.95,34.055,45.389,41,44.422,48.538c-1.196,8.054,1.225,16.577,4.642,24.343
			c3.413,6.775,8.124,12.886,13.536,17.903c5.794,4.952,12.379,8.639,18.833,11.123c7.038,2.373,13.866,3.268,19.477,3.4
			c6.327-0.106,11.349-1.1,14.401-1.631c-0.527,0.142-0.8,0.212-1.328,0.351c-3.649,0.74-9.049,1.719-14.914,1.595
			c-3.924-0.015-8.096-0.407-12.404-1.27c-2.315-0.578-4.779-1.314-7.327-2.262C78.856,101.884,78.373,101.671,77.89,101.454z"/>
		<path fill="#597A74" d="M65.811,95.745c3.497,2.279,7.104,4.177,10.719,5.66c0.557,0.225,1.11,0.447,1.663,0.651
			c6.01,2.368,12.174,3.529,16.863,4.041c0.632,0.029,0.958,0.046,1.599,0.073c-2.735-0.349-6.16-0.869-9.99-1.818
			c-2.315-0.578-4.779-1.314-7.327-2.262c-0.48-0.207-0.964-0.42-1.447-0.637c-2.841-1.289-5.82-2.858-8.809-4.759
			c-2.362-1.504-4.725-3.22-7.02-5.159c-0.424-0.386-0.841-0.784-1.256-1.191c-2.472-2.398-4.844-5.079-7.028-8.015
			c-1.761-2.367-3.395-4.903-4.859-7.57c-0.303-0.637-0.603-1.278-0.892-1.927c-1.607-3.587-3.011-7.409-3.912-11.333
			c-0.673-2.919-1.064-5.895-1.06-8.878c0.037-0.661,0.09-1.322,0.164-1.983c0.406-3.667,1.397-7.291,2.912-10.688
			c1.503-3.372,3.526-6.517,6.017-9.237c0.561-0.62,1.144-1.218,1.743-1.794c2.512-2.4,5.363-4.407,8.416-5.94
			c3.86-1.886,7.825-3.223,11.623-3.105c0.934-0.008,1.861,0.076,2.799,0.216c0.316,0.059,0.925,0.164,1.195,0.188
			c0.653,0.19,0.97,0.282,1.546,0.448c1.233,0.343,2.716,0.967,3.832,1.579c3.122,1.696,5.993,4.519,7.742,8.138
			c0.413,0.789,0.746,1.605,1.003,2.438c0.912,2.994,0.75,6.193-0.836,9.03c-0.138,0.246-0.285,0.489-0.442,0.728
			c-2.225,3.354-6.687,5.818-10.282,4.519c-3.219-1.081-5.216-5.262-3.182-7.253c0.436-0.498,1.199-0.794,1.665-0.859
			c0.402-0.042,0.787,0.218,0.954,0.519c0.041,0.082,0.085,0.16,0.092,0.25c-0.007,0.083,0.109,0.06,0.17,0.039l0,0l0,0
			l-0.002-0.004l0,0c0,0-0.002-0.004-0.004-0.008c0.001-0.003,0.001-0.003-0.003-0.004l0.001-0.003
			c0.003,0.004,0.003,0.004,0.002,0.008c-0.002-0.008-0.003-0.015-0.007-0.023c-0.012-0.045-0.025-0.094-0.007-0.026
			c-0.035-0.139-0.05-0.183,0.007,0.026c0.004,0.008,0.005,0.016,0.007,0.023c0.002,0.004,0.004,0.008,0.004,0.008
			s-0.002-0.004-0.004-0.008c0.002,0.004,0.004,0.008,0.004,0.008l0,0l0.002,0.004l0,0l0,0l0,0c0,0,0,0-0.001,0.003
			c0.001-0.003,0.001-0.003,0.001-0.003c-0.001,0.003,0.01,0.014,0.026,0.019c0.031,0.003,0.072-0.005,0.093-0.048
			c-0.031-0.375-0.318-0.781-0.721-0.989c-0.714-0.451-2.425,0.293-3.06,1.475c-1.366,2.174,0.402,5.714,3.198,7.075
			c0.385,0.232,0.961,0.461,1.41,0.62c6.251,1.451,13.317-4.785,13.117-12.296c0.037-0.495-0.008-1.208-0.021-1.739
			c-0.822-6.575-5.225-12.931-12.087-16.16c-0.402-0.255-1.159-0.58-1.652-0.827c-3.209-1.375-6.888-1.987-10.628-1.584
			c-3.347,0.397-6.468,1.389-9.616,2.828c-0.391,0.098-1.178,0.487-1.661,0.675c-5.972,2.722-11.581,7.573-15.525,14.295
			c-2.043,3.649-3.426,7.222-4.241,11.4c-1.04,5.605-0.799,11.241,0.73,16.655c0.258,0.918,0.55,1.83,0.882,2.731
			c0.802,2.335,1.812,4.611,2.876,6.84c0.74,1.459,1.539,2.884,2.386,4.269c4.305,7.055,9.921,13.123,16.338,17.984
			C63.263,94.011,64.525,94.9,65.811,95.745z M80.186,39.854L80.186,39.854L80.186,39.854
			C80.186,39.854,80.188,39.855,80.186,39.854z M80.186,39.854L80.186,39.854L80.186,39.854c0,0,0,0,0.003,0.001L80.186,39.854z
			 M80.186,39.854L80.186,39.854L80.186,39.854L80.186,39.854z M43.368,48.194c-0.024,0.135-0.05,0.27-0.071,0.405
			c0.037-0.288,0.075-0.579,0.115-0.866c1.143-7.95,5.087-15.427,10.698-20.758c0.751-0.737,1.522-1.437,2.321-2.076
			c0.282-0.218,0.813-0.661,1.064-0.875c0.6-0.398,0.899-0.618,1.467-1c1.148-0.842,2.676-1.697,3.946-2.373
			c3.529-1.783,7.565-3.198,11.868-2.929c1.242,0.061,2.492,0.249,3.722,0.547c3.001,0.735,5.889,2.169,8.303,4.218
			c0.335,0.282,0.659,0.58,0.975,0.885c3.144,3.043,5.363,7.126,5.917,11.452c0.395,3.993-1.181,7.752-4.121,10.389
			c-1.879,1.587-4.185,2.678-6.427,2.785c2.787-0.187,5.504-1.885,7.417-4.106c1.908-2.34,2.852-5.313,2.667-8.154
			c-0.042-0.665-0.144-1.328-0.293-1.98c-0.22-0.996-0.555-1.973-0.97-2.916c-0.107-0.241-0.212-0.477-0.324-0.708
			c-0.4-0.809-0.851-1.588-1.336-2.328c-1.182-1.759-2.677-3.328-4.303-4.599c-0.989-0.737-2.033-1.377-3.122-1.92
			c-2.999-1.497-6.324-2.239-9.656-2.115c-3.259,0.097-6.629,1.132-9.926,2.692c-1.223,0.58-2.438,1.23-3.631,1.936
			c-3.273,1.999-6.191,4.53-8.672,7.525c-0.407,0.493-0.808,0.998-1.19,1.517C46.434,37.327,44.245,42.662,43.368,48.194z
			 M46.741,70.344c0.095,0.222,0.193,0.444,0.291,0.669c-0.141-0.305-0.274-0.606-0.413-0.914
			c-1.554-3.533-2.835-7.255-3.714-11.009c-0.974-4.48-1.078-9.139-0.339-13.599c0.169-1.087,0.391-2.17,0.653-3.241
			c0.111-0.347,0.285-1.06,0.363-1.437c0.262-0.7,0.367-1.037,0.604-1.751c0.459-1.407,1.214-3.141,1.868-4.49
			c2.396-4.918,6.354-9.479,11.246-12.829c2.645-1.813,5.563-3.271,8.661-4.244c0.3-0.104,0.597-0.198,0.899-0.289
			c4.5-1.345,9.475-1.193,13.852,0.517c3.907,1.535,7.053,3.956,9.565,7.308c1.53,2.161,2.679,4.437,3.316,6.888
			c-0.88-3.044-2.454-5.749-4.656-8.188c-2.749-2.938-6.218-4.978-9.904-5.977c-1.096-0.297-2.213-0.5-3.333-0.611
			c-0.32-0.034-0.642-0.055-0.965-0.071c-0.853-0.042-1.702-0.029-2.55,0.041c-2.268,0.16-4.47,0.777-6.574,1.577
			c-1.173,0.471-2.318,1-3.427,1.583c-6.491,3.402-11.851,8.697-15.412,15.496c-0.665,1.271-1.27,2.589-1.804,3.966
			c-1.429,3.737-2.232,7.745-2.339,11.8c-0.015,0.619-0.014,1.243,0.002,1.865C42.747,59.22,44.466,64.995,46.741,70.344z
			 M58.873,88.664c0.058,0.053,0.113,0.114,0.167,0.169c-0.093-0.089-0.185-0.182-0.279-0.268
			c-6.031-5.8-11.206-13.228-14.601-21.388c-0.414-1.078-0.883-2.133-1.27-3.255c-0.105-0.35-0.373-1.087-0.541-1.488
			c-0.22-0.696-0.32-1.08-0.545-1.835c-0.486-1.523-0.906-3.483-1.139-5.1c-0.915-5.635-0.228-11.799,1.893-17.449
			c1.204-3.215,2.872-6.268,4.973-8.962c0.3-0.391,0.607-0.769,0.925-1.144c2.933-3.512,6.519-6.422,10.481-8.537
			c3.743-1.93,7.256-3.191,11.531-3.682c2.566-0.213,4.961,0.001,7.296,0.595c-3.014-0.689-6.073-0.74-9.23-0.103
			c-4.046,0.96-7.747,2.528-11.054,4.667c-0.957,0.621-1.878,1.288-2.765,2c-0.221,0.173-0.434,0.353-0.647,0.535
			c-0.727,0.615-1.43,1.256-2.109,1.936c-1.676,1.689-3.191,3.549-4.486,5.504c-0.733,1.136-1.4,2.302-2.004,3.5
			c-3.454,6.875-4.712,14.697-3.495,22.501c0.242,1.551,0.577,3.099,1.018,4.641c1.157,4.007,2.695,7.888,4.571,11.576
			c0.301,0.586,0.605,1.164,0.92,1.741C51.307,80.022,54.94,84.7,58.873,88.664z M75.396,100.488
			c0.025,0.012,0.051,0.022,0.072,0.036c-0.031-0.016-0.064-0.034-0.098-0.044c-7.232-3.21-14.791-8.239-21.074-15.009
			c-0.82-0.897-1.637-1.787-2.408-2.705c-0.227-0.303-0.767-0.945-1.082-1.293c-0.459-0.598-0.668-0.908-1.175-1.587
			c-1.05-1.34-2.195-3.047-3.114-4.495c-2.461-3.927-4.491-8.262-5.958-12.769c-0.427-1.291-0.779-2.614-1.06-3.952
			c-0.709-3.4-0.932-6.903-0.648-10.286c0.045-0.495,0.097-0.993,0.162-1.481c0.574-4.572,2.006-8.946,4.159-12.895
			c2.012-3.662,4.375-6.573,7.363-9.371c1.83-1.644,3.656-2.994,5.627-4.181c-2.541,1.619-4.784,3.496-6.96,5.789
			c-2.813,3.091-5.039,6.51-6.638,10.22c-0.45,1.05-0.848,2.12-1.193,3.213c-0.083,0.252-0.159,0.506-0.234,0.76
			c-0.291,0.987-0.543,1.987-0.746,3.003c-0.481,2.448-0.713,4.913-0.695,7.364c0.011,1.786,0.179,3.544,0.468,5.274
			c0.629,3.789,1.841,7.436,3.294,10.891c1.504,3.547,3.297,6.987,5.418,10.271c0.905,1.402,1.869,2.775,2.898,4.113
			c2.547,3.365,5.41,6.438,8.504,9.159c0.484,0.425,0.973,0.847,1.47,1.25C66.055,95.418,70.839,98.332,75.396,100.488z"/>
		<path fill="#597A74" d="M58.761,88.565c0.036,0.032,0.075,0.065,0.112,0.099c0.058,0.053,0.113,0.114,0.167,0.169
			C58.947,88.744,58.855,88.651,58.761,88.565z"/>
		<path fill="#597A74" d="M45.415,72.685c-1.14-2.135-2.22-4.322-3.09-6.59c-2.466-5.915-3.552-12.363-2.74-18.913
			c0.331-2.38,0.837-4.589,1.553-6.743c-0.291,0.987-0.543,1.987-0.746,3.003c-0.481,2.448-0.713,4.913-0.695,7.364
			c0.011,1.786,0.179,3.544,0.468,5.274c1.018,7.458,4.366,14.531,8.231,20.443c0.151,0.232,0.314,0.474,0.48,0.719
			c0.905,1.402,1.869,2.775,2.898,4.113c2.547,3.365,5.41,6.438,8.504,9.159C54.299,85.545,49.269,79.567,45.415,72.685z"/>
		<path fill="#597A74" d="M43.392,36.194c-0.297,0.609-0.573,1.229-0.833,1.856c1.204-3.215,2.872-6.268,4.973-8.962
			c0.3-0.391,0.607-0.769,0.925-1.144c2.678-2.961,5.752-5.336,9.024-7.06c-0.957,0.621-1.878,1.288-2.765,2
			c-1.522,1.064-2.96,2.25-4.37,3.641C47.451,29.435,45.218,32.464,43.392,36.194z"/>
		<path fill="#597A74" d="M58.749,20.874c-0.489,0.278-0.973,0.565-1.447,0.869c2.645-1.813,5.563-3.271,8.661-4.244
			c0.3-0.104,0.597-0.198,0.899-0.289c0.764-0.186,1.529-0.342,2.303-0.467c3.409-0.488,6.816-0.11,9.87,1.016
			c-1.096-0.297-2.213-0.5-3.333-0.611c-1.837-0.301-3.72-0.355-5.691-0.137C65.937,17.572,62.398,18.904,58.749,20.874z"/>
		<path fill="#597A74" d="M46.619,70.099c0.041,0.084,0.084,0.163,0.122,0.245c0.095,0.222,0.193,0.444,0.291,0.669
			C46.892,70.708,46.758,70.406,46.619,70.099z"/>
		<path fill="#597A74" d="M40.801,52.128c-0.099-2.351,0.038-4.714,0.408-7.046c0.98-6.23,3.733-12.023,7.947-17.007
			c1.552-1.774,3.165-3.298,4.912-4.655c-0.727,0.615-1.43,1.256-2.109,1.936c-1.676,1.689-3.191,3.549-4.486,5.504
			c-0.733,1.136-1.4,2.302-2.004,3.5c-3.648,6.747-4.883,14.693-3.673,21.572c0.054,0.295,0.113,0.61,0.178,0.93
			c0.242,1.551,0.577,3.099,1.018,4.641c1.157,4.007,2.695,7.888,4.571,11.576c-1.052-1.905-2.004-3.843-2.868-5.806
			C42.657,62.455,40.999,57.457,40.801,52.128z"/>
		<path fill="#597A74" d="M48.266,31.72c1.213-1.852,2.609-3.603,4.197-5.239c4.21-4.289,9.592-7.414,15.815-8.979
			c2.186-0.479,4.334-0.619,6.459-0.425c-0.853-0.042-1.702-0.029-2.55,0.041c-2.268,0.16-4.47,0.777-6.574,1.577
			c-1.173,0.471-2.318,1-3.427,1.583c-6.671,3.201-12.017,8.645-14.93,14.51c-0.157,0.312-0.319,0.646-0.482,0.986
			c-0.665,1.271-1.27,2.589-1.804,3.966c-1.429,3.737-2.232,7.745-2.339,11.8C42.55,44.438,44.542,37.645,48.266,31.72z"/>
		<path fill="#597A74" d="M89.305,25.803c-2.369-3.19-5.39-5.524-9.142-6.976c-0.547-0.209-1.103-0.394-1.664-0.555
			c3.001,0.735,5.889,2.169,8.303,4.218c0.335,0.282,0.659,0.58,0.975,0.885c2.804,2.955,4.61,6.625,5.16,10.385
			c-0.22-0.996-0.555-1.973-0.97-2.916C91.345,29.084,90.436,27.388,89.305,25.803z"/>
		<path fill="#597A74" d="M43.412,47.733c-0.016,0.153-0.03,0.304-0.044,0.461c-0.024,0.135-0.05,0.27-0.071,0.405
			C43.334,48.312,43.372,48.021,43.412,47.733z"/>
		<path fill="#597A74" d="M66.432,19.691c2.016-0.76,3.988-1.23,6.066-1.379c5.602-0.397,11.47,1.854,15.616,6.351
			c1.484,1.67,2.679,3.504,3.528,5.473c-0.4-0.809-0.851-1.588-1.336-2.328c-1.182-1.759-2.677-3.328-4.303-4.599
			c-0.989-0.737-2.033-1.377-3.122-1.92c-2.394-1.316-5.037-2.103-7.645-2.291c-3.955-0.354-7.617,0.779-10.961,2.381
			c-0.313,0.145-0.64,0.31-0.977,0.486c-1.223,0.58-2.438,1.23-3.631,1.936c-3.273,1.999-6.191,4.53-8.672,7.525
			C55.045,25.975,60.342,22.049,66.432,19.691z"/>
		<path fill="#597A74" d="M91.211,41.912c-0.138,0.246-0.285,0.489-0.442,0.728c-0.414,0.563-0.869,1.083-1.367,1.547
			c-2.36,2.205-5.906,3.535-8.403,2.462c-0.527-0.243-1.286-0.616-1.441-0.942c1.223,0.867,2.73,1.22,4.193,0.987
			c1.575-0.286,3.25-0.99,4.627-2.125c2.782-2.234,4.311-5.624,4.107-9.272c-0.079-0.806-0.229-1.615-0.438-2.415
			C92.959,35.876,92.797,39.075,91.211,41.912z"/>
		<polygon fill="#597A74" points="80.356,40.463 80.35,40.466 80.354,40.467 		"/>
		<polygon fill="#597A74" points="80.354,40.471 80.354,40.471 80.354,40.471 		"/>
		<polygon fill="#597A74" points="80.354,40.467 80.354,40.471 80.354,40.467 		"/>
		<polygon fill="#597A74" points="80.354,40.471 80.352,40.474 80.352,40.474 80.352,40.474 80.354,40.471 		"/>
		<path fill="#597A74" d="M80.186,39.854L80.186,39.854L80.186,39.854L80.186,39.854c-0.002,0.007,0,0.011,0.004,0.012
			c0.024,0.104,0.077,0.289,0.162,0.608l0,0c-0.015-0.055-0.103-0.379-0.162-0.598C80.189,39.876,80.188,39.869,80.186,39.854
			L80.186,39.854L80.186,39.854z"/>
		<path fill="#597A74" d="M80.18,39.842L80.18,39.842L80.18,39.842L80.18,39.842c-0.002-0.008-0.003-0.015-0.007-0.023
			c-0.001-0.011-0.003-0.018-0.007-0.026c0.002,0.007,0.006,0.016,0.007,0.026C80.177,39.824,80.178,39.834,80.18,39.842
			L80.18,39.842L80.18,39.842L80.18,39.842c0.002,0.004,0.002,0.004,0.004,0.008l0,0C80.184,39.85,80.182,39.846,80.18,39.842z"/>
		<polygon fill="#597A74" points="80.35,40.466 80.354,40.467 80.35,40.466 		"/>
		<path fill="#597A74" d="M79.98,40.6c0.004,0.001,0,0,0.004,0.001c-0.004-0.001-0.007-0.002-0.007,0.008
			C79.982,40.618,79.976,40.595,79.98,40.6z"/>
		<path fill="#597A74" d="M80.352,40.474L80.352,40.474C80.354,40.484,80.356,40.485,80.352,40.474z"/>
		<path fill="#597A74" d="M79.984,40.601L79.984,40.601C80.012,40.592,80.034,40.588,79.984,40.601z"/>
		<path fill="#597A74" d="M80.369,40.479c0,0-0.004,0-0.005,0.002C80.365,40.478,80.367,40.471,80.369,40.479z"/>
		<path fill="#597A74" d="M79.984,40.601c-0.05,0.009-0.112,0.025,0.311-0.092c-0.062,0.017-0.164,0.045-0.307,0.09
			C79.988,40.599,79.985,40.598,79.984,40.601z"/>
		<path fill="#597A74" d="M80.361,40.48c0.001-0.003-0.002-0.008-0.004-0.012c-0.002,0.006,0,0.011,0.002,0.015
			c-0.037,0.013-0.038,0.016-0.025,0.013c-0.013,0.003-0.023,0.007-0.039,0.013c0.016-0.005,0.026-0.009,0.042-0.012
			c0.035-0.007,0.126-0.035,0.037-0.013c-0.008,0.001-0.012,0.003-0.013,0.007l0,0c-0.003-0.005,0.001-0.003,0.001-0.003
			c0.001-0.003,0.001-0.003,0.002-0.007C80.361,40.48,80.361,40.48,80.361,40.48z M80.358,40.49L80.358,40.49L80.358,40.49z"/>
		<polygon fill="#597A74" points="80.357,40.469 80.356,40.463 80.356,40.463 		"/>
	</g>
	<g>
		<circle fill="#597A74" cx="20.969" cy="24.322" r="0.615"/>
		<path fill="#597A74" d="M16.664,27.777c0.472-0.073,0.796-0.518,0.723-0.993c-0.074-0.469-0.517-0.796-0.99-0.72
			c-0.472,0.073-0.796,0.517-0.723,0.99C15.748,27.526,16.191,27.85,16.664,27.777z"/>
		<path fill="#597A74" d="M19.535,31.29c0.374-0.057,0.63-0.408,0.572-0.783c-0.057-0.374-0.408-0.629-0.783-0.572
			c-0.375,0.061-0.63,0.409-0.569,0.787C18.813,31.093,19.163,31.352,19.535,31.29z"/>
		<path fill="#597A74" d="M12.745,35.112c-0.483,0.073-0.813,0.527-0.735,1.007c0.073,0.483,0.526,0.813,1.007,0.735
			c0.479-0.075,0.812-0.522,0.735-1.007C13.677,35.368,13.225,35.037,12.745,35.112z"/>
		<path fill="#597A74" d="M9.727,39.33c-0.199,0.03-0.336,0.216-0.306,0.417c0.03,0.197,0.217,0.334,0.419,0.301
			c0.199-0.03,0.335-0.216,0.303-0.419C10.11,39.435,9.925,39.298,9.727,39.33z"/>
		<circle fill="#597A74" cx="13.636" cy="42.51" r="0.54"/>
		<path fill="#597A74" d="M10.402,46.618c-0.294,0.048-0.493,0.323-0.451,0.618c0.048,0.293,0.324,0.494,0.616,0.45
			c0.296-0.046,0.496-0.323,0.449-0.618C10.973,46.775,10.697,46.575,10.402,46.618z"/>
		<circle fill="#597A74" cx="23.409" cy="48.178" r="0.257"/>
		<path fill="#597A74" d="M28.584,47.773c0.134-0.019,0.223-0.144,0.205-0.278c-0.022-0.134-0.147-0.228-0.279-0.205
			c-0.135,0.021-0.227,0.146-0.205,0.282C28.324,47.703,28.448,47.796,28.584,47.773z"/>
		<path fill="#597A74" d="M24.274,50.82c0.384-0.058,0.646-0.417,0.589-0.803c-0.062-0.386-0.421-0.647-0.807-0.587
			c-0.384,0.063-0.645,0.419-0.586,0.805C23.531,50.619,23.892,50.883,24.274,50.82z"/>
		<path fill="#597A74" d="M27.697,51.512c0.214-0.036,0.363-0.239,0.33-0.455c-0.035-0.215-0.235-0.363-0.453-0.328
			c-0.217,0.032-0.366,0.236-0.334,0.452C27.276,51.396,27.479,51.544,27.697,51.512z"/>
		<circle fill="#597A74" cx="23.826" cy="56.35" r="0.228"/>
		<path fill="#597A74" d="M24.795,59.148c0.222-0.034,0.371-0.24,0.339-0.464c-0.034-0.22-0.241-0.37-0.464-0.341
			c-0.223,0.038-0.377,0.246-0.339,0.468C24.361,59.03,24.573,59.186,24.795,59.148z"/>
		<circle fill="#597A74" cx="30.838" cy="59.638" r="0.471"/>
		<path fill="#597A74" d="M21.494,65.981c0.119-0.02,0.2-0.131,0.18-0.247c-0.016-0.119-0.129-0.203-0.249-0.184
			c-0.116,0.02-0.2,0.129-0.178,0.25C21.264,65.919,21.375,65.998,21.494,65.981z"/>
		<path fill="#597A74" d="M31.688,65.316c0.446-0.07,0.752-0.492,0.68-0.936c-0.07-0.446-0.488-0.751-0.931-0.682
			c-0.445,0.07-0.754,0.487-0.684,0.932C30.823,65.082,31.243,65.384,31.688,65.316z"/>
		<path fill="#597A74" d="M35.796,64.797c0.182-0.024,0.303-0.193,0.275-0.372c-0.028-0.182-0.192-0.304-0.376-0.275
			c-0.18,0.025-0.301,0.198-0.271,0.375C35.45,64.703,35.619,64.827,35.796,64.797z"/>
		<path fill="#597A74" d="M31.258,73.215c0.479-0.077,0.81-0.53,0.735-1.011c-0.079-0.479-0.529-0.813-1.011-0.736
			c-0.477,0.075-0.798,0.514-0.736,0.989c0.187,0.235,0.372,0.473,0.561,0.703C30.947,73.215,31.101,73.237,31.258,73.215z"/>
		<path fill="#597A74" d="M36.766,67.792c0.255-0.038,0.431-0.283,0.393-0.537c-0.042-0.256-0.283-0.431-0.537-0.39
			c-0.258,0.037-0.433,0.278-0.393,0.534C36.271,67.655,36.508,67.832,36.766,67.792z"/>
		<circle fill="#597A74" cx="36.961" cy="68.676" r="0.273"/>
		<path fill="#597A74" d="M36.281,72.839c0.431-0.064,0.724-0.464,0.658-0.895c-0.068-0.432-0.47-0.721-0.899-0.656
			c-0.427,0.066-0.723,0.466-0.657,0.9C35.453,72.617,35.854,72.908,36.281,72.839z"/>
		<path fill="#597A74" d="M27.08,82.38c0.123-0.02,0.204-0.129,0.184-0.249c-0.019-0.12-0.13-0.197-0.25-0.178
			c-0.118,0.013-0.2,0.13-0.179,0.243C26.853,82.319,26.963,82.4,27.08,82.38z"/>
		<path fill="#597A74" d="M35.086,81.062c0.127-0.017,0.215-0.138,0.194-0.267c-0.021-0.127-0.14-0.215-0.271-0.195
			c-0.128,0.021-0.215,0.14-0.193,0.267C34.832,80.997,34.954,81.085,35.086,81.062z"/>
		<path fill="#597A74" d="M34.422,85.584c0.366-0.057,0.616-0.402,0.561-0.77c-0.06-0.368-0.405-0.618-0.77-0.561
			c-0.367,0.056-0.617,0.401-0.562,0.771C33.707,85.393,34.049,85.643,34.422,85.584z"/>
		<circle fill="#597A74" cx="32.097" cy="88.719" r="0.68"/>
		<path fill="#597A74" d="M44.854,81.154c0.285-0.042,0.478-0.31,0.436-0.594c-0.048-0.281-0.312-0.475-0.596-0.432
			c-0.28,0.043-0.475,0.311-0.432,0.595C44.306,81.005,44.57,81.198,44.854,81.154z"/>
		<path fill="#597A74" d="M45.975,86.077c0.277-0.041,0.472-0.304,0.429-0.585c-0.049-0.279-0.309-0.472-0.587-0.426
			c-0.285,0.042-0.473,0.305-0.43,0.586C45.429,85.928,45.693,86.121,45.975,86.077z"/>
		<path fill="#597A74" d="M42.618,97.074c0.123-0.021,0.214-0.14,0.193-0.267c-0.021-0.128-0.14-0.215-0.268-0.194
			c-0.127,0.021-0.213,0.136-0.192,0.264S42.491,97.093,42.618,97.074z"/>
		<circle fill="#597A74" cx="46.691" cy="92.789" r="0.175"/>
		<path fill="#597A74" d="M54.942,86.23c0.286-0.047,0.483-0.313,0.438-0.601c-0.046-0.289-0.312-0.486-0.6-0.441
			c-0.286,0.046-0.483,0.313-0.438,0.604C54.389,86.078,54.654,86.275,54.942,86.23z"/>
		<path fill="#597A74" d="M55.109,88.024c0.146-0.021,0.247-0.161,0.225-0.311c-0.024-0.146-0.163-0.25-0.311-0.225
			c-0.146,0.024-0.247,0.161-0.225,0.311C54.82,87.945,54.959,88.046,55.109,88.024z"/>
		<path fill="#597A74" d="M58.69,91.437c0.522-0.085,0.877-0.574,0.794-1.092c-0.08-0.52-0.568-0.876-1.088-0.796
			c-0.521,0.082-0.877,0.566-0.797,1.091C57.683,91.158,58.169,91.517,58.69,91.437z"/>
		<path fill="#597A74" d="M55.628,99.738c0.441-0.071,0.743-0.487,0.675-0.93c-0.068-0.441-0.484-0.743-0.926-0.675
			c-0.442,0.068-0.744,0.484-0.676,0.93C54.771,99.503,55.186,99.807,55.628,99.738z"/>
		<path fill="#597A74" d="M59.169,100.275c0.355-0.053,0.597-0.392,0.543-0.742c-0.058-0.354-0.388-0.597-0.744-0.54
			c-0.352,0.055-0.594,0.386-0.541,0.739C58.483,100.089,58.818,100.329,59.169,100.275z"/>
		<path fill="#597A74" d="M64.717,94.434c0.385-0.065,0.646-0.426,0.588-0.808c-0.063-0.384-0.419-0.645-0.805-0.587
			c-0.386,0.063-0.645,0.422-0.586,0.805C63.976,94.229,64.332,94.491,64.717,94.434z"/>
		<circle fill="#597A74" cx="66.088" cy="94.22" r="0.675"/>
		<path fill="#597A74" d="M65.129,99.887c-0.394,0.062-0.667,0.433-0.605,0.829c0.061,0.397,0.432,0.671,0.83,0.605
			c0.398-0.063,0.667-0.437,0.605-0.829c-0.035-0.232-0.181-0.418-0.368-0.525c-0.053-0.02-0.104-0.04-0.153-0.063
			C65.342,99.879,65.234,99.869,65.129,99.887z"/>
		<circle fill="#597A74" cx="62.093" cy="108.549" r="0.14"/>
		<path fill="#597A74" d="M66.603,104.396c0.267-0.045,0.457-0.3,0.412-0.569c-0.044-0.271-0.296-0.456-0.568-0.414
			c-0.271,0.045-0.452,0.294-0.413,0.569C66.073,104.252,66.329,104.438,66.603,104.396z"/>
		<path fill="#597A74" d="M67.713,109.37c0.274-0.044,0.461-0.303,0.419-0.575c-0.042-0.278-0.298-0.464-0.574-0.423
			c-0.273,0.047-0.461,0.302-0.419,0.578C67.182,109.221,67.438,109.411,67.713,109.37z"/>
		<path fill="#597A74" d="M75.537,100.36c0.343-0.057,0.577-0.375,0.523-0.716c-0.055-0.341-0.376-0.578-0.718-0.521
			c-0.34,0.051-0.575,0.369-0.522,0.713C74.874,100.178,75.197,100.411,75.537,100.36z"/>
		<path fill="#597A74" d="M75.041,111.055c0.259-0.043,0.439-0.29,0.4-0.553c-0.042-0.262-0.289-0.439-0.55-0.396
			c-0.261,0.039-0.441,0.286-0.398,0.545C74.531,110.916,74.778,111.093,75.041,111.055z"/>
		<path fill="#597A74" d="M44.662,86.537c-5.064-3.864-9.79-8.36-13.855-13.377c-0.188-0.23-0.374-0.468-0.561-0.703
			c-6.545-8.281-11.275-17.946-12.768-28.512c-0.025-0.012-0.054-0.025-0.078-0.035c2.059,17.433,13.081,32.705,26.675,43.384
			c6.521,5.119,13.726,9.36,21.362,12.61c0.049,0.022,0.101,0.043,0.153,0.063c7.962,3.377,16.394,5.681,24.999,6.79l1.258-1.699
			C74.851,103.443,58.305,96.934,44.662,86.537z"/>
		<path fill="#597A74" d="M17.342,43.424c0.007,0.092,0.021,0.182,0.031,0.273c0.029,0.032,0.053,0.06,0.083,0.09
			c-0.019-0.123-0.04-0.248-0.055-0.373L17.342,43.424z"/>
		<path fill="#597A74" d="M17.709,44.052c-0.091-0.086-0.171-0.174-0.253-0.265c-0.03-0.031-0.054-0.059-0.083-0.09
			c-2.783-3.247,0.576-8.672,0.806-12.375C19.142,35.594,15.608,40.088,17.709,44.052c2.742-1.431,3.58-4.468,3.511-7.388
			c-1.002,0.411-0.787-0.71-0.612-1.442c-0.266,0.291-0.582,0.224-0.724,0.311c-0.044-0.452-0.121-1.334-0.14-1.732
			c-0.104,0.323-0.255,0.465-0.434,0.784c0.258-1.235-0.244-3.199-1.419-3.737c-0.119,1.475-2.094,1.826-2.102,3.289
			c-0.656-0.327-0.615-0.047-0.565,0.671c-0.212-0.121-0.402-0.112-0.648-0.32c0.084,0.618,0.148,1.019,0.254,1.593
			c-0.248-0.188-0.421-0.159-0.646-0.319c0.752,3.09-0.253,6.451,3.216,8.148c0.024,0.01,0.053,0.023,0.078,0.035
			C17.552,43.982,17.63,44.017,17.709,44.052z"/>
	</g>
	<g>
		<path fill="#597A74" d="M56.022,83.966c0.1,0.103,0.168,0.167,0.202,0.192c0.154,0.126-0.362-0.442-1.229-1.775
			c-0.103-0.171-0.213-0.355-0.327-0.551c-0.784-1.357-1.658-3.175-2.333-5.213c-0.505-1.53-0.888-3.176-1.066-4.706
			c-0.136-1.229-0.14-2.422-0.006-3.413c0.225-1.591,0.864-2.432,1.238-2.999c0.341-0.52,0.51-0.902,0.353-1.026
			c-0.254-0.189-1.463,0.174-2.162,1.502c0.13-0.483,0.294-0.977,0.493-1.453c0.292-0.683,0.663-1.354,1.07-1.922
			c0.686-0.936,1.416-1.413,1.884-1.748c0.434-0.315,0.697-0.554,0.633-0.644c-0.132-0.182-1.69,0.127-2.861,1.699
			c-0.393,0.522-0.739,1.143-1.015,1.786c-0.337,0.789-0.585,1.643-0.723,2.469c-0.161,0.958-0.17,1.864-0.081,2.617
			c-0.018,0.557,0.004,1.149,0.063,1.764c0.036,0.363,0.085,0.74,0.145,1.121c-0.108-0.372-0.214-0.751-0.313-1.132
			c-0.55-2.096-0.976-4.313-1.17-6.313c-0.348-3.599,0.234-5.562,0.563-6.996c0.311-1.381,0.42-2.471,0.113-2.908
			c-0.494-0.696-2.3-0.007-2.675,3.644c-0.065-1.315-0.084-2.706-0.032-4.112c0.082-2.134,0.319-4.341,0.717-6.281
			c0.72-3.488,1.863-5.175,2.604-6.438c0.711-1.214,1.137-2.207,0.964-2.706c-0.354-1.01-3.416-0.506-4.683,6.13
			c-0.371,1.962-0.574,4.2-0.626,6.415c-0.054,2.51,0.08,5.055,0.356,7.343c0.297,2.435,0.749,4.58,1.232,6.248
			c0.226,1.145,0.506,2.312,0.824,3.459c0.686,2.458,1.563,4.9,2.496,7.053c1.027,2.367,2.125,4.385,3.093,5.893
			c1.261,2.104,2.324,3.261,2.533,3.437C56.395,84.482,56.284,84.333,56.022,83.966z"/>
	</g>
	<g>
		<g>
			<path fill="#597A74" d="M84.876,56.486c-0.241-0.245-1.361-1.002-3.405-1.068c-1.96-0.128-4.477,0.731-4.434,0.755
				c0.021,0.018-2.455,0.708-5.107,3.064c-1.334,1.166-2.619,2.756-3.567,4.228c1.96-3.634,4.877-6.833,8.315-8.822
				c3.415-2.023,7.156-2.92,10.364-2.998c6.517-0.143,10.454,2.435,10.414,2.332c0,0,1.152,0.534,2.917,1.785
				c1.736,1.251,4.036,3.447,5.546,6.748c1.52,3.255,2.146,7.616,0.952,11.819c-1.139,4.167-4.02,8.181-8.058,9.959
				c0.136-0.068,0.268-0.148,0.401-0.225c-2.052,0.817-3.456,1.126-5.91,1.125c-1.316,0.115-5.393-0.753-7.596-3.021
				c-2.298-2.137-2.451-4.401-2.507-4.338c-0.006,0.027-0.396-2.18,0.338-3.589c0.662-1.487,1.704-1.873,1.999-1.927
				c0.546-0.141,0.93-0.238,1.431-0.333c-0.276-0.415-0.494-0.722-1.122-0.699c-0.315-0.007-1.499,0.21-2.456,1.704
				c-0.998,1.41-0.924,3.896-0.867,3.853c0.034-0.063-0.079,2.466,2.232,5.021c1.879,2.212,5.415,3.532,7.312,3.655
				c-3.686-0.259-6.865-2.005-8.765-4.066c-1.914-2.105-2.555-4.398-2.774-5.796c-1.083-9.438,7.722-14.747,14.405-10.181
				c-3.216-2.397-7.267-2.326-10.278-0.419c-2.982,1.933-5.154,5.823-4.52,10.658c0.258,1.681,1.137,4.731,4.023,7.089
				c2.761,2.346,7.322,3.858,11.92,2.821c2.276-0.486,4.502-1.587,6.316-3.186c1.828-1.603,3.186-3.688,4.123-5.878
				c1.903-4.424,1.69-9.375,0.216-13.127c0.779,1.646,1.398,3.728,1.679,5.665c0.562,3.758-0.035,6.726-0.013,6.721
				c0.036-0.024-0.479,3.036-1.356,5.453c-0.883,2.542-1.667,4.298-1.718,4.741c-0.206,0.891,0.225,0.96,1.196,0.716
				c0.413-0.989,0.648-1.643,0.747-2.528c0.025-0.46,0.449-2.145,1.022-4.56c0.603-2.349,0.851-5.283,0.82-5.256
				c-0.027,0.006,0.323-2.845-0.422-6.394c-0.616-3.555-2.821-7.283-3.73-8.353c-0.938-1.241-1.761-2.043-2.635-2.781
				c-2.646-2.388-4.713-3.206-4.686-3.24c0.001,0.075-2.851-1.768-7.888-2.288c-4.937-0.578-12.192,0.967-17.342,6.072
				c-5.141,5.01-7.822,12.494-7.767,18.785c-0.082,6.361,2.164,11.262,3.398,13.472c2.322,4.176,5.09,6.848,7.937,8.911
				c2.87,2.037,5.874,3.579,9.647,4.759c-3.732-1.302-6.665-2.921-9.476-4.997c-2.778-2.096-5.473-4.748-7.76-8.863
				c-0.782-1.421-1.966-3.865-2.692-7.144c-0.736-3.256-0.981-7.362-0.05-11.583c0.278-1.036,0.618-2.057,1.146-3.38
				c0.447-1.279,2.381-4.944,4.76-7.142c2.343-2.28,4.583-3.063,4.559-3.085c-0.026,0.002,2.214-0.973,4.042-0.971
				c1.883-0.099,2.989,0.528,3.245,0.725c0.527,0.395,0.92,0.584,1.479,0.944C85.233,57.312,85.38,56.946,84.876,56.486z"/>
		</g>
	</g>
	<g>
		<g>
			<path fill="#597A74" d="M21.689,9.721c0.137-0.029-0.189,9.756,2.704,24.097c2.835,14.224,9.388,33.237,22.114,48.525
				c6.268,7.629,14.102,14.067,22.472,18.349c8.369,4.306,17.128,6.36,24.675,7.002c15.244,1.024,25.252-2.326,25.606-2.229
				c1.555-0.394,2.522-1.731,2.157-2.989c-0.364-1.262-1.854-1.982-3.323-1.616c-0.34-0.084-9.778,3.372-24.169,2.835
				c-7.134-0.391-15.435-2.067-23.506-5.909c-8.071-3.825-15.791-9.76-22.11-16.988C35.479,66.334,28.358,47.71,25.117,33.66
				C21.807,19.491,21.824,9.688,21.689,9.721z"/>
		</g>
	</g>
	<path fill="#597A74" d="M16.914,46.458c-0.025-0.093-0.057-0.177-0.09-0.263c-0.008-0.031-0.021-0.059-0.032-0.088
		c-1.223-3.023-6.072-2.647-8.66-3.788C10.688,44.465,14.967,43.647,16.914,46.458c-1.929,1.354-4.278,0.858-6.229-0.211
		c0.627-0.535-0.205-0.78-0.765-0.92c0.292-0.076,0.355-0.317,0.465-0.379c-0.29-0.191-0.861-0.55-1.125-0.7
		c0.256,0.038,0.403-0.013,0.685-0.021c-0.929-0.258-2.082-1.285-2.035-2.269c1.04,0.432,1.969-0.777,2.961-0.271
		c0.011-0.561,0.19-0.437,0.652-0.149c-0.007-0.184,0.069-0.313,0.013-0.552c0.391,0.276,0.64,0.46,0.991,0.73
		c-0.042-0.234,0.036-0.337,0.011-0.548c1.828,1.595,4.453,2.091,4.39,5.032c0,0.021-0.005,0.045-0.004,0.066
		C16.922,46.329,16.92,46.393,16.914,46.458z"/>
	<path fill="#597A74" d="M18.234,46.277c0.073,0.029,0.141,0.054,0.212,0.077c0.026,0.008,0.048,0.015,0.072,0.022
		c2.519,0.751,4.727-2.489,6.749-3.542C22.628,43.363,20.988,46.467,18.234,46.277c0.12-1.899,1.617-3.127,3.272-3.818
		c0.02,0.667,0.598,0.266,0.962-0.012c-0.098,0.22,0.021,0.381,0.007,0.48c0.266-0.085,0.78-0.262,1.008-0.351
		c-0.153,0.14-0.198,0.259-0.333,0.438c0.631-0.452,1.86-0.659,2.455-0.135c-0.799,0.435-0.505,1.627-1.323,1.999
		c0.349,0.287,0.181,0.338-0.233,0.486c0.117,0.087,0.161,0.2,0.338,0.284c-0.365,0.106-0.609,0.17-0.957,0.257
		c0.168,0.088,0.196,0.194,0.34,0.281c-1.923,0.35-3.56,1.753-5.378,0.229c-0.012-0.011-0.023-0.025-0.038-0.037
		C18.317,46.345,18.273,46.314,18.234,46.277z"/>
</g>
</svg>
