<?xml version="1.0" encoding="utf-8"?>
<!-- Generator: Adobe Illustrator 16.0.3, SVG Export Plug-In . SVG Version: 6.00 Build 0)  -->
<!DOCTYPE svg PUBLIC "-//W3C//DTD SVG 1.1//EN" "http://www.w3.org/Graphics/SVG/1.1/DTD/svg11.dtd">
<svg version="1.1" id="Layer_1" xmlns="http://www.w3.org/2000/svg" xmlns:xlink="http://www.w3.org/1999/xlink" x="0px" y="0px"
	 width="120px" height="120px" viewBox="0 0 120 120" enable-background="new 0 0 120 120" xml:space="preserve">
<g opacity="0.5">
	<g>
		<path fill="#597A74" d="M59.03,26.448c0.46-0.483,0.88-0.995,1.271-1.537c1.656-2.294,2.672-5.048,2.878-7.874
			c0.372-3.503-1.092-7.184-3.832-9.446c-2.708-2.221-6.573-3.295-9.997-1.926c-3.339,1.385-5.501,5.302-4.419,8.901
			c-0.04-0.008-0.078-0.009-0.111,0.001l-0.064,0.039c-1.098-3.714,1.119-7.692,4.538-9.112c3.514-1.394,7.419-0.293,10.175,1.966
			c2.781,2.295,4.267,6.046,3.886,9.595c-0.184,2.541-1.018,5.028-2.381,7.179c-0.529,0.834-1.133,1.619-1.811,2.336L59.03,26.448z"
			/>
		<g>
			<path fill="#597A74" d="M48.261,7.69c-1.51,0.646-2.678,1.845-3.289,3.373c-0.609,1.525-0.589,3.199,0.06,4.709
				c0.648,1.513,1.846,2.68,3.373,3.291c1.527,0.609,3.201,0.588,4.711-0.06c1.511-0.649,2.68-1.846,3.288-3.374
				c0.245-0.606,0.387-1.239,0.429-1.875c0.021-0.161,0.026-0.305,0.02-0.419c-0.001-0.032-0.004-0.061-0.006-0.09
				c-0.013-0.791-0.181-1.578-0.501-2.327c-0.647-1.511-1.846-2.679-3.373-3.289S49.773,7.041,48.261,7.69z M48.534,7.755
				c2.925-1.255,6.312,0.1,7.568,3.022c0.483,1.128,0.58,2.323,0.348,3.44c-0.073,0.191-0.168,0.387-0.298,0.589
				c-0.587,0.918-2.788,1.804-3.804,0.365c-0.436-0.621-0.385-1.553,0.115-2.021c0.438-0.406,1.183-0.361,1.46,0.025
				c0.235,0.324,0.029,0.707-0.12,0.875c-0.085,0.095,0.154,0.304,0.458,0.105c0.397-0.262,0.49-1.086-0.001-1.576
				c-0.548-0.546-1.658-0.514-2.284,0.105c-0.678,0.675-0.739,1.886-0.222,2.692c0.559,0.867,1.676,1.27,2.605,1.124
				c0.669-0.105,1.172-0.395,1.543-0.76c-0.593,1.126-1.562,2.063-2.823,2.604c-2.924,1.253-6.312-0.099-7.568-3.021
				C44.258,12.398,45.61,9.01,48.534,7.755z"/>
		</g>
	</g>
	<g>
		<path fill="#597A74" d="M108.928,99.252c4.144-0.555,8.002-2.27,11.403-4.591l0.135-3.455c-4.585,3.679-9.42,5.288-13.692,5.512
			c-4.878,0.263-9.017-0.807-12.815-1.9c-4.93-1.445-9.756-4.023-14.521-6.676c-4.781-2.615-9.564-5.502-14.823-6.88
			c-2.648-0.662-5.552-0.986-8.276-0.077c-2.719,0.857-4.965,3.03-5.992,5.672c-1.05,2.646-0.972,5.645-0.035,8.284
			c0.863,2.681,2.883,5.045,5.486,6.242c2.58,1.234,5.687,1.342,8.343,0.252c2.749-1.023,4.751-3.82,4.792-6.756
			c0.037-1.467-0.333-2.908-1.164-4.155c-0.849-1.229-2.235-2.05-3.694-2.208c-1.441-0.147-2.992,0.234-4.008,1.341
			c-1.003,1.087-1.208,2.769-0.547,4.016c-0.551-1.304-0.206-2.87,0.771-3.806c0.979-0.943,2.432-1.211,3.712-1.015
			c1.304,0.204,2.486,0.98,3.188,2.071c0.682,1.098,1.001,2.44,0.933,3.732c-0.1,2.621-1.864,5.049-4.321,5.963
			c-2.431,0.995-5.271,0.917-7.659-0.196c-2.409-1.086-4.291-3.216-5.139-5.734c-0.914-2.487-1.009-5.312-0.036-7.791
			c0.955-2.476,3.046-4.487,5.587-5.254c2.541-0.817,5.293-0.459,7.826,0.28c4.997,1.554,9.527,4.208,14.058,6.742
			c4.528,2.564,9.012,5.204,13.825,7.451C97.272,98.67,103.092,100.094,108.928,99.252z"/>
	</g>
	<g>
		<g>
			<g>
				<path fill="#597A74" d="M77.912,102.698c0.435,0.093,0.233,1.132,0.248,1.39c0.024-0.047,0.075-0.092,0.108-0.144
					c0.013,0.354,0.104,0.712,0.459,0.861c-0.051-0.085-0.076-0.181-0.107-0.268c0.312,0.354,0.875,0.655,1.376,0.476
					c-0.078-0.018-0.147-0.061-0.221-0.082c0.33-0.007,0.68-0.053,1.014-0.089c-0.078-0.014-0.142-0.05-0.213-0.066
					c0.315-0.066,0.624-0.061,0.921-0.085c-0.212-0.055-0.341-0.18-0.431-0.329c0.067,0.027,0.154,0.042,0.218,0.068
					c-0.157-0.128-0.286-0.278-0.382-0.451c0.05,0.015,0.117,0.02,0.166,0.033c-0.111-0.12-0.228-0.245-0.303-0.389
					c0.072,0.026,0.167,0.036,0.238,0.063c-0.357-0.352-0.797-0.601-1.47-0.737c0.077-0.004,0.152-0.021,0.23-0.021
					c-0.502-0.183-1.301,0.035-1.762-0.291L77.912,102.698z"/>
			</g>
			<g>
				<path fill="#597A74" d="M79.445,98.822c0.44,0.227-0.069,1.279-0.103,1.538c0.042-0.04,0.102-0.073,0.147-0.119
					c-0.074,0.38-0.053,0.749,0.294,1.011c-0.039-0.099-0.038-0.201-0.054-0.297c0.241,0.454,0.817,0.915,1.382,0.964
					c-0.079-0.047-0.14-0.112-0.221-0.163c0.363,0.13,0.73,0.243,1.096,0.378c-0.082-0.049-0.141-0.109-0.216-0.159
					c0.339,0.092,0.662,0.261,0.99,0.403c-0.229-0.159-0.34-0.322-0.434-0.512c0.066,0.063,0.156,0.123,0.221,0.183
					c-0.166-0.204-0.255-0.403-0.344-0.636c0.047,0.044,0.111,0.086,0.159,0.129c-0.107-0.187-0.175-0.365-0.236-0.564
					c0.066,0.068,0.155,0.13,0.22,0.198c-0.301-0.581-0.617-1.087-1.264-1.521c0.079,0.027,0.16,0.039,0.241,0.074
					c-0.439-0.424-1.362-0.483-1.762-0.946L79.445,98.822z"/>
			</g>
			<g>
				<path fill="#597A74" d="M77.717,103.359c-0.452,0.304-1.223-0.024-1.71,0.157c0.077,0.009,0.15,0.046,0.224,0.059
					c-0.638,0.134-1.124,0.549-1.303,1.469c0.056-0.082,0.142-0.126,0.202-0.202c-0.041,0.326-0.068,0.646-0.078,0.974
					c0.032-0.059,0.087-0.103,0.118-0.161c0.01,0.421,0.033,0.831,0.062,1.248c0.018-0.117,0.068-0.215,0.091-0.328
					c0.069,0.382,0.096,0.759,0.076,1.107c0.179-0.283,0.357-0.575,0.636-0.725c-0.035,0.093-0.036,0.203-0.067,0.294
					c0.24-0.239,0.509-0.447,0.767-0.676c-0.043,0.079-0.061,0.187-0.098,0.272c0.477-0.174,0.689-0.893,0.806-1.381
					c0.002,0.112,0.031,0.222,0.04,0.333c0.195-0.329,0.174-0.705,0.072-1.074c0.04,0.047,0.094,0.079,0.135,0.121
					c-0.099-0.236-0.354-1.374,0.114-1.419L77.717,103.359z"/>
			</g>
			<g>
				<path fill="#597A74" d="M85.802,95.243c-0.347,0.615-1.322,0.83-1.769,1.266c-0.261,0.25-0.425,0.63-0.479,0.979
					c0.047-0.048,0.118-0.078,0.164-0.125c-0.04,0.38-0.03,0.711,0.1,1.105c0.01-0.087,0.063-0.224,0.073-0.281
					c0.089,0.383,0.238,0.734,0.366,1.107c0.001-0.073,0.027-0.137,0.03-0.211c0.148,0.286,0.246,0.583,0.362,0.874l0.002-0.174
					c0.14,0.213,0.258,0.442,0.374,0.672c0.016-0.077,0.011-0.175-0.011-0.284c-0.006-0.154-0.002-0.306,0.022-0.451
					c0.017,0.062,0.055,0.135,0.071,0.194c0.003-0.275,0.1-0.449,0.213-0.636c0.002,0.09,0.028,0.18,0.023,0.27
					c0.123-0.244,0.306-0.479,0.422-0.767c-0.006,0.111-0.001,0.22-0.019,0.331c0.155-0.202,0.259-0.529,0.357-0.836
					c0.03,0.118,0.071,0.19,0.076,0.322c0.103-0.326,0.205-0.742,0.156-1.146c0.035,0.057,0.099,0.107,0.132,0.168
					c0.005-0.799-0.692-1.572-0.538-2.396L85.802,95.243z"/>
			</g>
			<g>
				<path fill="#597A74" d="M87.856,108.112c-0.192-0.329-0.05-0.831-0.191-1.126c-0.064-0.17-0.221-0.32-0.389-0.418l0.033,0.094
					c-0.18-0.101-0.352-0.166-0.574-0.211c0.046,0.022,0.105,0.072,0.135,0.09c-0.208-0.059-0.406-0.092-0.615-0.146l0.107,0.062
					c-0.166-0.027-0.329-0.078-0.493-0.124l0.093,0.045c-0.123-0.021-0.251-0.056-0.374-0.095c0.04,0.025,0.091,0.052,0.147,0.078
					c0.075,0.04,0.148,0.085,0.214,0.133l-0.101-0.04c0.121,0.077,0.216,0.167,0.28,0.26L86,106.634
					c0.096,0.109,0.177,0.251,0.282,0.393l-0.141-0.122c0.064,0.122,0.188,0.279,0.289,0.422c-0.056-0.029-0.094-0.041-0.15-0.085
					c0.118,0.158,0.263,0.346,0.445,0.46c-0.031-0.002-0.069,0.005-0.102,0.001c0.328,0.28,0.859,0.196,1.206,0.476L87.856,108.112z
					"/>
			</g>
			<g>
				<path fill="#597A74" d="M86.212,102.427c-0.318-0.094-0.525-0.532-0.835-0.666c-0.178-0.082-0.43-0.151-0.66-0.102l0.105,0.049
					c-0.236,0.051-0.458,0.09-0.664,0.244c0.056-0.021,0.153-0.028,0.193-0.032c-0.211,0.114-0.369,0.281-0.542,0.423
					c0.044-0.019,0.092-0.024,0.137-0.042c-0.116,0.125-0.231,0.257-0.33,0.398l0.095-0.055c-0.046,0.122-0.103,0.238-0.156,0.352
					c0.053-0.018,0.1-0.048,0.144-0.089c0.074-0.049,0.149-0.091,0.23-0.123c-0.021,0.026-0.035,0.063-0.055,0.086
					c0.122-0.081,0.266-0.081,0.4-0.072c-0.039,0.022-0.069,0.054-0.115,0.072c0.176,0,0.346,0.031,0.502,0.006
					c-0.046,0.024-0.085,0.056-0.134,0.073c0.142,0.009,0.301,0.008,0.441-0.007c-0.032,0.039-0.044,0.071-0.089,0.1
					c0.155-0.017,0.314-0.071,0.456-0.145l-0.027,0.089c0.262-0.156,0.5-0.536,0.922-0.503L86.212,102.427z"/>
			</g>
			<g>
				<path fill="#597A74" d="M82.35,109.896c0.38-0.195,0.946,0.013,1.325-0.078c0.219-0.055,0.421-0.19,0.553-0.361
					c-0.04,0.016-0.089,0.008-0.128,0.018c0.134-0.181,0.221-0.373,0.255-0.615c-0.029,0.045-0.095,0.103-0.116,0.132
					c0.058-0.229,0.063-0.456,0.084-0.688c-0.018,0.038-0.046,0.065-0.067,0.102c-0.009-0.19,0.006-0.375,0.009-0.56l-0.041,0.09
					c-0.026-0.15-0.042-0.305-0.054-0.458c-0.025,0.035-0.045,0.086-0.057,0.149c-0.029,0.077-0.064,0.164-0.111,0.222
					c0.005-0.036,0.002-0.087,0.006-0.121c-0.062,0.125-0.154,0.198-0.258,0.262c0.021-0.048,0.031-0.104,0.051-0.149
					c-0.119,0.086-0.264,0.136-0.394,0.261c0.032-0.055,0.055-0.112,0.092-0.168c-0.124,0.058-0.255,0.186-0.385,0.313
					c0.019-0.069,0.018-0.119,0.05-0.192c-0.137,0.142-0.295,0.319-0.391,0.545c-0.002-0.037-0.017-0.084-0.016-0.126
					c-0.235,0.416-0.128,1.025-0.481,1.395L82.35,109.896z"/>
			</g>
			<g>
				<path fill="#597A74" d="M79.231,107.65c0.464-0.091,1.006,0.314,1.41,0.352c0.246,0.011,0.494-0.063,0.7-0.196
					c-0.044,0-0.084-0.019-0.125-0.021c0.216-0.145,0.389-0.294,0.564-0.52c-0.051,0.034-0.146,0.072-0.181,0.092
					c0.182-0.199,0.331-0.41,0.508-0.615c-0.042,0.032-0.09,0.052-0.131,0.081c0.115-0.172,0.259-0.329,0.399-0.488l-0.105,0.077
					c0.081-0.135,0.18-0.28,0.281-0.412c-0.059,0.021-0.118,0.058-0.18,0.104c-0.095,0.06-0.192,0.112-0.293,0.15
					c0.031-0.029,0.062-0.074,0.09-0.104c-0.166,0.09-0.331,0.125-0.496,0.135c0.054-0.032,0.1-0.076,0.154-0.105
					c-0.199,0.023-0.414,0.009-0.65,0.063c0.07-0.038,0.133-0.08,0.209-0.111c-0.2,0-0.444,0.064-0.656,0.117
					c0.056-0.059,0.078-0.106,0.154-0.155c-0.244,0.066-0.526,0.166-0.727,0.35c0.013-0.04,0.014-0.093,0.03-0.134
					c-0.443,0.31-0.548,0.998-1.026,1.282L79.231,107.65z"/>
			</g>
			<g>
				<path fill="#597A74" d="M88.433,105.056c-0.232-0.113-0.352-0.465-0.524-0.613c-0.105-0.088-0.246-0.137-0.374-0.145
					l0.051,0.057c-0.139-0.001-0.256,0.013-0.398,0.078c0.037-0.002,0.088,0.014,0.107,0.015c-0.134,0.047-0.251,0.112-0.385,0.177
					c0.028-0.006,0.053,0.002,0.079,0.001c-0.097,0.063-0.199,0.111-0.298,0.164l0.061-0.006c-0.072,0.059-0.148,0.111-0.227,0.161
					c0.029,0.004,0.063-0.002,0.103-0.014c0.055-0.008,0.107-0.011,0.161-0.008l-0.065,0.033c0.096-0.009,0.169,0.02,0.238,0.055
					l-0.097,0.019c0.092,0.036,0.186,0.094,0.294,0.128c-0.041,0.002-0.081,0.006-0.122,0.003c0.081,0.051,0.201,0.077,0.314,0.104
					c-0.04,0.016-0.066,0.032-0.112,0.038c0.121,0.027,0.272,0.051,0.417,0.021l-0.054,0.054c0.288-0.023,0.54-0.308,0.844-0.276
					L88.433,105.056z"/>
			</g>
			<g>
				<path fill="#597A74" d="M84.148,95.424c-0.668-0.517-0.519-1.555-1.026-2.16c-0.001,0.074-0.043,0.16-0.049,0.229
					c-0.23-0.334-0.686-0.534-1.137-0.602c0.111,0.082,0.115,0.167,0.178,0.271c-0.389-0.06-0.865-0.126-1.3,0.012
					c0.145,0.017,0.249,0.068,0.369,0.112c-0.451,0.011-0.952,0.209-1.42,0.346c0.117,0.012,0.198,0.065,0.299,0.091
					c-0.364,0.116-0.694,0.258-1.058,0.272c0.06,0.027,0.112,0.089,0.172,0.116c-0.214,0.039-0.426,0.06-0.636,0.069
					c-0.131-0.024-0.263-0.014-0.395,0.044c0.198,0.154,0.39,0.316,0.542,0.514l-0.235,0.034c0.294,0.135,0.586,0.252,0.83,0.459
					c-0.1,0-0.192,0.049-0.287,0.055c0.375,0.146,0.703,0.358,1.083,0.51c-0.07,0.002-0.262,0.052-0.371,0.056
					c0.392,0.187,0.756,0.242,1.16,0.287c-0.07,0.04-0.134,0.107-0.209,0.149c0.399,0.017,0.81-0.066,1.193-0.185
					c0.607-0.234,1.499-0.901,2.181-0.615L84.148,95.424z"/>
			</g>
			<g>
				<path fill="#597A74" d="M79.517,108.241c-0.336,0.487-1.114,0.389-1.555,0.691c0.055,0.006,0.123,0.04,0.173,0.045
					c-0.24,0.14-0.392,0.434-0.446,0.719c0.065-0.067,0.131-0.063,0.212-0.101c-0.052,0.256-0.082,0.552,0.007,0.856
					c0.018-0.095,0.062-0.16,0.097-0.239c-0.022,0.299,0.179,0.67,0.32,1.007c0.003-0.078,0.05-0.126,0.063-0.195
					c0.117,0.271,0.246,0.511,0.279,0.759c0.022-0.037,0.075-0.064,0.097-0.104c0.048,0.15,0.076,0.296,0.096,0.441
					c-0.016,0.086,0,0.174,0.056,0.269c0.14-0.118,0.277-0.236,0.449-0.327l0.044,0.164c0.105-0.19,0.197-0.389,0.354-0.548
					c0.016,0.064,0.06,0.138,0.071,0.204c0.106-0.259,0.252-0.48,0.335-0.747c0.008,0.049,0.077,0.184,0.097,0.261
					c0.108-0.271,0.105-0.532,0.093-0.824c0.04,0.051,0.105,0.098,0.148,0.148c-0.038-0.292-0.159-0.577-0.3-0.854
					c-0.278-0.429-0.802-1.08-0.637-1.55L79.517,108.241z"/>
			</g>
			<g>
				<path fill="#597A74" d="M83.097,110.274c0.237,0.482-0.124,1.035,0.005,1.519c0.021-0.042,0.069-0.082,0.091-0.119
					c0.047,0.248,0.263,0.478,0.512,0.649c-0.043-0.079-0.021-0.128-0.033-0.204c0.215,0.139,0.484,0.279,0.785,0.322
					c-0.083-0.047-0.135-0.108-0.196-0.163c0.279,0.117,0.633,0.112,0.948,0.144c-0.065-0.03-0.101-0.086-0.158-0.123
					c0.253,0.011,0.491,0.014,0.716,0.085c-0.029-0.028-0.047-0.076-0.075-0.107c0.142,0.028,0.273,0.062,0.403,0.096
					c0.074,0.038,0.157,0.061,0.254,0.058c-0.085-0.137-0.163-0.276-0.21-0.427l0.156,0.033c-0.149-0.144-0.303-0.285-0.4-0.457
					c0.057,0.016,0.129,0.013,0.188,0.032c-0.193-0.177-0.343-0.368-0.533-0.538c0.043,0.015,0.166,0.02,0.232,0.038
					c-0.189-0.187-0.393-0.299-0.621-0.427c0.05-0.007,0.104-0.029,0.156-0.038c-0.231-0.107-0.489-0.152-0.74-0.177
					c-0.405,0.003-1.089,0.131-1.399-0.198L83.097,110.274z"/>
			</g>
			<g>
				<path fill="#597A74" d="M87.556,108.914c0.352,0.191,0.342,0.717,0.589,0.991c-0.002-0.037,0.014-0.084,0.012-0.119
					c0.116,0.152,0.32,0.223,0.523,0.247c-0.051-0.039-0.056-0.085-0.083-0.134c0.178,0.018,0.393-0.01,0.601-0.11
					c-0.069,0.001-0.118-0.021-0.176-0.035c0.22-0.035,0.445-0.194,0.657-0.321c-0.053,0.004-0.091-0.021-0.139-0.024
					c0.17-0.104,0.323-0.207,0.485-0.253c-0.027-0.011-0.055-0.044-0.08-0.054c0.095-0.045,0.191-0.076,0.286-0.102
					c0.059,0,0.121-0.016,0.179-0.06c-0.095-0.078-0.187-0.158-0.266-0.263l0.107-0.041c-0.139-0.053-0.283-0.096-0.404-0.185
					c0.043-0.015,0.086-0.05,0.13-0.064c-0.185-0.047-0.345-0.125-0.531-0.157c0.03-0.01,0.113-0.063,0.162-0.084
					c-0.189-0.052-0.362-0.028-0.556,0.003c0.029-0.032,0.053-0.077,0.084-0.109c-0.183,0.052-0.377,0.146-0.546,0.265
					c-0.262,0.212-0.65,0.641-0.985,0.569L87.556,108.914z"/>
			</g>
			<g>
				<path fill="#597A74" d="M88.365,104.399c0.228-0.21,0.621-0.065,0.889-0.176c-0.028-0.01-0.062-0.031-0.087-0.042
					c0.142-0.044,0.246-0.179,0.309-0.325c-0.041,0.028-0.074,0.019-0.119,0.027c0.056-0.128,0.108-0.283,0.086-0.446
					c-0.018,0.046-0.049,0.074-0.072,0.11c0.027-0.154-0.007-0.354-0.032-0.527c-0.013,0.037-0.04,0.057-0.057,0.088
					c-0.029-0.136-0.049-0.268-0.028-0.392c-0.016,0.015-0.045,0.026-0.063,0.042c0-0.079,0.012-0.15,0.024-0.225
					c0.021-0.04,0.028-0.085,0.017-0.136c-0.082,0.047-0.166,0.089-0.263,0.118l0.006-0.085c-0.08,0.083-0.156,0.171-0.256,0.232
					c0.004-0.034-0.006-0.073,0-0.106c-0.093,0.114-0.199,0.207-0.282,0.328c0.004-0.026-0.008-0.098-0.004-0.138
					c-0.098,0.119-0.14,0.247-0.178,0.39l-0.05-0.088c-0.023,0.143-0.017,0.302,0.013,0.453c0.063,0.246,0.274,0.62,0.129,0.852
					L88.365,104.399z"/>
			</g>
			<g>
				<path fill="#597A74" d="M78.97,99.463c-0.634-0.239-0.727-1.145-1.16-1.577c0.007,0.063-0.013,0.15-0.007,0.209
					c-0.211-0.243-0.562-0.339-0.902-0.341c0.089,0.061,0.103,0.138,0.158,0.221c-0.289,0.008-0.624,0.046-0.936,0.23
					c0.109-0.003,0.19,0.032,0.282,0.053c-0.341,0.07-0.67,0.341-0.984,0.552c0.082-0.006,0.146,0.035,0.222,0.04
					c-0.245,0.181-0.491,0.343-0.738,0.416c0.049,0.019,0.092,0.071,0.138,0.092c-0.145,0.071-0.294,0.12-0.44,0.159
					c-0.094-0.005-0.188,0.021-0.278,0.089c0.159,0.139,0.317,0.275,0.454,0.45l-0.173,0.065c0.233,0.095,0.47,0.17,0.683,0.323
					c-0.066,0.022-0.133,0.082-0.199,0.101c0.306,0.087,0.581,0.217,0.892,0.267c-0.051,0.018-0.179,0.113-0.257,0.144
					c0.321,0.081,0.604,0.038,0.918-0.025c-0.043,0.055-0.077,0.132-0.123,0.189c0.301-0.097,0.599-0.273,0.863-0.491
					c0.405-0.377,0.938-1.142,1.517-1.086L78.97,99.463z"/>
			</g>
			<path fill="#597A74" d="M85.405,102.461c0.006,0.063,0.107,0.1,0.229,0.098c1.851,0.053,3.049,1.942,2.932,3.604
				c-0.044,1.769-1.481,3.158-3.03,3.68c-1.573,0.573-3.415,0.318-4.774-0.661c-1.34-1.006-2.252-2.478-2.622-4.085
				c-0.386-1.604-0.204-3.334,0.505-4.823c0.691-1.511,1.936-2.694,3.313-3.542c2.773-1.748,6.366-2.051,9.399-0.814
				c0.108,0.034,0.213,0.025,0.235-0.03l0,0c0.026-0.059-0.04-0.142-0.151-0.182c-3.099-1.261-6.769-0.951-9.604,0.832
				c-1.401,0.867-2.681,2.08-3.396,3.639c-0.73,1.536-0.919,3.319-0.521,4.972c0.387,1.659,1.313,3.167,2.712,4.219
				c1.418,1.021,3.339,1.286,4.98,0.69c1.605-0.537,3.13-2.002,3.182-3.883c0.12-1.754-1.135-3.773-3.156-3.841
				C85.505,102.335,85.401,102.397,85.405,102.461L85.405,102.461z"/>
		</g>
	</g>
	<g>
		<g>
			<path fill="#597A74" d="M51.629,96.509c0.585,0.402,1.222,0.692,1.897,0.838c0.662,0.163,1.417,0.13,2.03-0.224
				c0.624-0.345,1.102-0.932,1.303-1.609c0.249-0.661,0.069-1.498-0.534-1.926c-0.291-0.206-0.646-0.345-1.017-0.299
				c-0.369,0.046-0.686,0.326-0.794,0.677c-0.147,0.353,0.103,0.804,0.483,0.828c0.188,0.027,0.37-0.12,0.385-0.294
				c0.043-0.188-0.259-0.313-0.277-0.135c0.053-0.156,0.267,0.004,0.213,0.122c-0.031,0.139-0.177,0.228-0.306,0.196
				c-0.3-0.058-0.461-0.38-0.338-0.665c0.098-0.287,0.36-0.509,0.659-0.549c0.292-0.043,0.635,0.077,0.89,0.257
				c0.542,0.378,0.733,1.108,0.506,1.749c-0.185,0.642-0.657,1.198-1.258,1.483c-1.175,0.589-2.815,0.101-3.672-0.852
				c-0.331-0.374-0.658-0.795-0.921-1.359c-0.257-0.562-0.45-1.286-0.334-2.159c-0.486-0.056-0.077-0.035-0.563-0.094
				C49.791,94.003,50.372,95.659,51.629,96.509z"/>
		</g>
	</g>
	<g>
		<path fill="#597A74" d="M66.972,104.943c-0.28-1.196-1.172-2.114-2.078-2.558c-0.936-0.457-1.847-0.463-2.443-0.365
			c-0.47,0.078-0.757,0.2-0.852,0.272c-0.026,0.014-0.036,0.026-0.036,0.031c0.002,0.002,0.004,0.003,0.006,0.004
			c-0.004,0.004-0.004,0.01-0.001,0.013c0.015,0.033,0.189,0.001,0.499-0.02c0.179,0.018,0.391,0.07,0.596,0.196
			c0.264,0.161,0.504,0.46,0.557,0.812c0.023,0.167,0.006,0.343-0.057,0.499c-0.06,0.149-0.162,0.278-0.287,0.364
			c-0.119,0.083-0.253,0.122-0.371,0.124c-0.113-0.001-0.215-0.034-0.291-0.084c-0.041-0.028-0.075-0.063-0.102-0.096
			c0.027,0.006,0.058,0.006,0.085,0.003c0.114-0.019,0.189-0.127,0.171-0.24c-0.02-0.113-0.128-0.188-0.24-0.168
			c-0.149,0.024-0.242,0.154-0.243,0.302c0,0.073,0.021,0.156,0.068,0.236c0.051,0.083,0.134,0.166,0.243,0.223
			c0.116,0.058,0.266,0.088,0.42,0.072c0.165-0.018,0.34-0.088,0.484-0.211c0.152-0.13,0.268-0.307,0.328-0.502
			c0.063-0.203,0.065-0.418,0.018-0.62c-0.098-0.415-0.407-0.735-0.722-0.89c-0.028-0.015-0.055-0.026-0.083-0.036
			c0.567,0.013,1.341,0.132,2.083,0.588c0.756,0.466,1.445,1.318,1.595,2.333c0.072,0.48,0.02,0.985-0.16,1.434
			c-0.173,0.427-0.463,0.801-0.825,1.051c-0.341,0.235-0.724,0.347-1.067,0.347c-0.324,0.002-0.616-0.096-0.83-0.237
			c-0.122-0.081-0.221-0.179-0.296-0.277c0.079,0.019,0.161,0.021,0.245,0.007c0.323-0.055,0.541-0.362,0.485-0.686
			c-0.055-0.323-0.362-0.54-0.687-0.485c-0.43,0.073-0.694,0.443-0.695,0.871c-0.001,0.207,0.057,0.446,0.193,0.675
			c0.146,0.244,0.385,0.479,0.699,0.638c0.335,0.17,0.758,0.259,1.207,0.211c0.471-0.05,0.968-0.252,1.392-0.605
			c0.439-0.371,0.77-0.884,0.941-1.443C67.099,106.146,67.108,105.52,66.972,104.943z"/>
	</g>
	<g>
		<g>
			<path fill="#597A74" d="M57.818,87.597c-0.073,0.214-0.359,0.354-0.538,0.255c-0.484-0.219-0.469-0.819-0.026-1.121
				c0.842-0.673,2.049,0.682,1.618,1.579c-0.36,1.06-1.619,1.678-2.632,1.343c-1.119-0.309-2.004-1.295-2.306-2.37
				c-0.629-2.224,1.119-4.491,2.754-5.342c1.73-0.941,3.461-0.792,4.434-0.577c-2.499-0.728-4.825,0.233-6.104,1.615
				c-1.334,1.393-1.808,3.165-1.376,4.513c0.39,1.376,1.439,2.297,2.468,2.643c1.023,0.378,2.059,0.033,2.735-0.5
				c1.476-1.119,1.167-3.106,0.204-3.835c-0.902-0.883-2.336-0.656-2.898,0.061c-0.575,0.722-0.472,1.17-0.4,1.211
				c0.08,0.058,0.211-0.096,0.324-0.045c0.146,0.031,0.113,0.302,0.477,0.772c0.172,0.211,0.555,0.488,1.016,0.334
				c0.194-0.087,0.447-0.313,0.397-0.591c-0.013-0.273-0.454-0.514-0.596-0.183C57.557,87.067,57.894,87.394,57.818,87.597z"/>
		</g>
	</g>
	<g>
		<g>
			<circle fill="#597A74" cx="97.254" cy="100.804" r="1.136"/>
			<circle fill="#597A74" cx="97.254" cy="100.804" r="0.908"/>
		</g>
		<circle fill="#597A74" cx="97.254" cy="100.804" r="0.568"/>
	</g>
	<g>
		<g>
			<circle fill="#597A74" cx="97.189" cy="90.439" r="0.441"/>
			<circle fill="#597A74" cx="97.19" cy="90.438" r="0.352"/>
		</g>
		<path fill="#597A74" d="M97.294,90.635c0.105-0.062,0.146-0.193,0.088-0.3c-0.056-0.108-0.189-0.148-0.297-0.091
			c-0.108,0.059-0.147,0.192-0.089,0.299C97.052,90.65,97.186,90.69,97.294,90.635z"/>
	</g>
	<g>
		<g>
			<circle fill="#597A74" cx="101.207" cy="87.712" r="0.934"/>
			<circle fill="#597A74" cx="101.207" cy="87.712" r="0.746"/>
		</g>
		<circle fill="#597A74" cx="101.207" cy="87.712" r="0.467"/>
	</g>
	<path fill="#597A74" d="M61.394,95.196c0.357-0.008,0.716-0.073,1.063-0.18c0.001,0.004,0.001,0.004,0.002,0.007
		c-0.569,0.255-1.222,0.384-1.865,0.264c0.041,0.055,0.08,0.109,0.124,0.164c0.273,0.352,0.577,0.681,0.927,0.957
		c0.348,0.272,0.75,0.504,1.205,0.542c0.001,0.008,0.001,0.013,0,0.019c-0.465,0.019-0.914-0.18-1.299-0.428
		c-0.072-0.047-0.143-0.094-0.211-0.145c0.072,0.26,0.084,0.526,0.107,0.788l-0.006-0.001c-0.084-0.323-0.125-0.667-0.301-0.936
		c0,0,0.004,0,0.004-0.004c-0.229-0.187-0.443-0.396-0.642-0.612c-0.192-0.211-0.372-0.428-0.542-0.653
		c0.007,0.47-0.076,0.93-0.209,1.367l-0.008-0.001c0.082-0.564,0.131-1.148-0.014-1.682c-0.107-0.154-0.211-0.308-0.31-0.466
		c-0.957,2.86,0.673,4.655,3.718,4.072l0.002-0.002c1.119-2.935-0.406-4.843-3.387-4.38c0.191,0.386,0.404,0.764,0.645,1.121
		C60.703,95.15,61.051,95.201,61.394,95.196z"/>
	<path fill="#597A74" d="M34.059,68.428c0.192-0.251,0.343-0.537,0.458-0.836c0.001-0.001,0.003,0,0.007,0.001
		c-0.136,0.536-0.405,1.063-0.84,1.442c0.06,0.003,0.121,0.005,0.182,0.006c0.394,0.002,0.792-0.028,1.175-0.12
		c0.379-0.093,0.761-0.248,1.039-0.544c0.004,0.004,0.007,0.007,0.013,0.011c-0.244,0.333-0.626,0.539-1.012,0.67
		c-0.07,0.025-0.144,0.048-0.217,0.067c0.222,0.093,0.414,0.231,0.607,0.357l-0.002,0.004c-0.272-0.12-0.533-0.279-0.816-0.304
		c0-0.003,0-0.004,0-0.005c-0.257,0.056-0.519,0.091-0.779,0.11c-0.25,0.02-0.5,0.025-0.752,0.021
		c0.331,0.251,0.605,0.562,0.838,0.896l-0.005,0.002c-0.348-0.364-0.727-0.719-1.18-0.91c-0.165-0.01-0.329-0.024-0.493-0.04
		c1.467,2.232,3.612,2.084,4.875-0.357h-0.001c-1.432-2.39-3.594-2.374-4.906-0.045c0.375,0.079,0.753,0.137,1.135,0.166
		C33.647,68.885,33.874,68.672,34.059,68.428z"/>
	<g>
		<path fill="#597A74" d="M78.313,87.796c-6.237-5.355-11.817-11.155-17.496-16.865c-5.694-5.663-11.336-11.505-18.134-15.904
			c-3.466-2.157-7.42-3.838-11.545-3.68c-4.106,0.083-8.063,2.21-10.517,5.501c-2.483,3.289-3.519,7.536-3.19,11.623
			c0.213,4.106,2.13,8.064,5.265,10.688c3.096,2.655,7.292,3.955,11.333,3.482c4.04-0.336,7.682-3.22,8.923-7.082
			c0.639-1.9,0.723-4.032,0.166-5.95c-0.591-1.916-2.03-3.566-3.886-4.417c-1.827-0.826-4.105-1.029-5.955-0.033
			c-1.848,0.985-3.015,3.176-2.738,5.348c-0.461-2.134,0.545-4.551,2.491-5.754c1.977-1.226,4.444-1.149,6.53-0.327
			c2.107,0.844,3.833,2.642,4.587,4.829c0.717,2.205,0.668,4.509,0,6.676c-1.281,4.358-5.432,7.693-9.954,8.069
			c-4.413,0.52-8.999-0.935-12.327-3.853c-3.378-2.868-5.403-7.232-5.574-11.585c-0.295-4.326,0.837-8.824,3.505-12.331
			c2.633-3.509,6.885-5.811,11.292-5.954c4.439-0.22,8.629,1.473,12.302,3.563c7.261,4.246,13.185,10.54,19.22,16.43
			c5.998,5.935,12.112,11.79,18.853,15.995c5.208,3.218,10.931,6.532,18.306,8.177c6.459,1.445,14.335,1.063,22.702-2.507
			l-1.641,5.096c-6.037,2.038-12.5,2.985-18.907,2.084C92.878,97.938,84.801,93.393,78.313,87.796z"/>
	</g>
	<path fill="#597A74" d="M20.794,79.435c0.667,1.297,1.143,2.98,1.058,4.576c-0.042,2.231-1.217,5.071-3.642,6.787
		c-0.591,0.431-1.247,0.786-1.935,1.055c-0.71,0.283-1.548,0.452-2.342,0.425c-1.613-0.034-3.132-0.796-4.115-1.919
		c-0.498-0.561-0.864-1.198-1.101-1.859c-0.263-0.741-0.282-1.533-0.104-2.227c0.364-1.41,1.447-2.335,2.482-2.654
		c1.245-0.388,2.269,0.206,2.714,0.698c0.47,0.517,0.546,0.913,0.558,0.901c-0.023,0.044-0.164-0.747-1.199-1.334
		c-0.501-0.273-1.25-0.428-2.015-0.167c-0.677,0.235-1.318,0.691-1.796,1.389c-0.467,0.686-0.721,1.613-0.573,2.555
		c0.175,0.978,0.626,1.711,1.251,2.425c1.243,1.39,3.379,2.087,5.287,1.546c-0.7,0.146-1.784,0.067-2.461-0.278
		c-0.691-0.341-0.959-0.762-0.547-0.879c0.245-0.093,0.332,0.223,0.449,0.353c0.211,0.282,0.58,0.523,1.068,0.683
		c0.119,0.063,1.277,0.16,1.776,0.034c0.481-0.154,0.892-0.353,1.311-0.583c-0.756,0.322-1.693,0.498-2.307,0.374
		c-0.613-0.112-0.844-0.38-0.539-0.653c0.221-0.212,0.468,0.064,0.673,0.171c0.372,0.182,0.936,0.258,1.535,0.15
		c0.11-0.016,0.775-0.209,1.333-0.48c0.533-0.366,1.015-0.797,1.433-1.266c-0.726,0.647-1.644,1.109-2.301,1.226
		c-0.666,0.119-1.021-0.032-0.832-0.474c0.135-0.346,0.55-0.148,0.811-0.13c0.494,0.042,1.118-0.079,1.753-0.428
		c0.108-0.06,0.72-0.492,1.208-1.002c0.561-0.809,0.952-1.683,1.191-2.534c-0.426,1.13-1.29,2.236-2.071,2.728
		c-0.786,0.507-1.34,0.485-1.292-0.11c0.009-0.432,0.543-0.346,0.832-0.427c0.558-0.134,1.196-0.509,1.734-1.155
		c0.121-0.122,0.763-1.166,1.014-2.063c0.048-0.306,0.069-0.608,0.085-0.901c0.022-0.653-0.031-1.31-0.157-1.951
		c0.185,1.325-0.151,3.008-0.794,3.955c-0.636,0.975-1.299,1.232-1.49,0.563c-0.153-0.434,0.407-0.548,0.677-0.734
		c0.51-0.342,1.011-0.968,1.286-1.833c0.106-0.19,0.299-1.88,0.081-2.873c-0.24-0.708-0.519-1.358-0.864-2.002
		c0.549,1.202,0.926,2.919,0.653,4.076c-0.246,1.169-0.794,1.646-1.222,1.079c-0.317-0.357,0.19-0.673,0.376-0.955
		c0.362-0.52,0.607-1.315,0.53-2.256c0.003-0.223-0.402-1.909-0.844-2.822l-1.229-2.465C19.243,76.831,20.134,78.075,20.794,79.435z
		"/>
	<g>
		<g>
			<path fill="#597A74" d="M17.577,71.111c0.703,0.842,1.531,1.539,2.475,2.038c0.917,0.518,2.06,0.787,3.119,0.514
				c1.074-0.255,2.032-0.929,2.613-1.854c0.644-0.885,0.726-2.206,0.006-3.094c-0.346-0.431-0.817-0.785-1.39-0.87
				c-0.571-0.084-1.16,0.2-1.467,0.678c-0.365,0.463-0.183,1.242,0.375,1.438c0.268,0.117,0.6-0.028,0.696-0.283
				c0.145-0.259-0.255-0.572-0.357-0.312c0.144-0.211,0.397,0.114,0.267,0.269c-0.104,0.197-0.358,0.266-0.534,0.167
				c-0.425-0.212-0.532-0.762-0.229-1.134c0.267-0.387,0.748-0.61,1.21-0.542c0.454,0.058,0.914,0.379,1.218,0.753
				c0.651,0.788,0.631,1.955,0.025,2.814c-0.542,0.883-1.477,1.517-2.491,1.688c-1.998,0.388-4.238-1.024-5.118-2.8
				c-0.338-0.693-0.651-1.457-0.808-2.408c-0.148-0.944-0.133-2.106,0.403-3.357c-0.702-0.285-0.1-0.083-0.8-0.373
				C15.881,66.609,16.055,69.319,17.577,71.111z"/>
		</g>
	</g>
	<g>
		<g>
			<path fill="#597A74" d="M86.514,50.132c-0.215-0.142-0.52-0.054-0.634,0.164c-0.117,0.213-0.123,0.479-0.021,0.695
				c0.309,0.55,1.149,0.607,1.612,0.247c0.472-0.36,0.662-1.046,0.584-1.624c-0.105-0.838-0.718-1.449-1.513-1.688
				c-0.77-0.269-1.619-0.237-2.347,0.062c-1.607,0.626-2.373,2.548-2.444,4.283c-0.066,1.62,0.578,3.284,1.806,4.445
				c0.867,0.825,2.01,1.414,3.174,1.815c0.402,0.132,0.82,0.235,1.238,0.317c0.26,0.042,0.492,0.08,0.517,0.083
				c0.023,0.003-0.17-0.016-0.431-0.042c-0.506-0.057-1.009-0.144-1.502-0.278c-1.27-0.335-2.503-0.864-3.561-1.739
				c-1.406-1.206-2.259-3.107-2.158-5.028c0.058-1.036,0.382-2.061,0.926-2.942c0.56-0.926,1.524-1.605,2.572-1.821
				c0.953-0.2,1.965-0.031,2.781,0.446c0.867,0.439,1.421,1.447,1.308,2.392c-0.076,0.651-0.396,1.348-1.048,1.615
				c-0.599,0.242-1.474,0.037-1.647-0.648c-0.141-0.424,0.248-1.023,0.714-0.809c0.246,0.052,0.226,0.403,0.164,0.431
				C86.613,50.525,86.706,50.237,86.514,50.132z"/>
		</g>
	</g>
	<g>
		<path fill="#597A74" d="M36.215,92.745c-0.489,0.761-1.194,1.39-2.003,1.757c-0.776,0.353-1.604,0.443-2.328,0.323
			c-0.686-0.116-1.281-0.423-1.708-0.815c-0.403-0.371-0.66-0.818-0.776-1.243c-0.109-0.4-0.096-0.781-0.009-1.087
			c0.182-0.64,0.729-1.077,1.402-1.009c0.505,0.054,0.874,0.507,0.82,1.011c-0.051,0.506-0.505,0.871-1.008,0.819
			c-0.133-0.013-0.255-0.054-0.362-0.116c0.07,0.182,0.177,0.365,0.324,0.538c0.26,0.303,0.653,0.567,1.136,0.703
			c0.514,0.14,1.133,0.135,1.737-0.074c0.644-0.221,1.232-0.658,1.667-1.223c0.456-0.594,0.742-1.323,0.837-2.068
			c0.198-1.574-0.473-3.131-1.407-4.141c-0.915-0.987-2.017-1.489-2.856-1.747c0.037,0.028,0.071,0.056,0.106,0.089
			c0.405,0.36,0.733,0.968,0.707,1.628c-0.013,0.317-0.108,0.643-0.285,0.917c-0.171,0.266-0.416,0.483-0.698,0.61
			c-0.27,0.123-0.557,0.156-0.811,0.113c-0.239-0.039-0.446-0.147-0.595-0.283c-0.14-0.13-0.229-0.286-0.271-0.433
			c-0.037-0.139-0.033-0.271-0.001-0.38c0.061-0.221,0.253-0.375,0.486-0.35c0.178,0.018,0.305,0.176,0.287,0.351
			c-0.018,0.176-0.175,0.307-0.353,0.288c-0.043-0.006-0.087-0.021-0.125-0.042c0.025,0.061,0.063,0.128,0.113,0.187
			c0.093,0.105,0.228,0.199,0.397,0.245c0.178,0.049,0.394,0.048,0.604-0.025c0.223-0.078,0.43-0.229,0.58-0.427
			c0.16-0.205,0.258-0.46,0.292-0.72c0.068-0.547-0.164-1.091-0.491-1.442c-0.252-0.272-0.547-0.439-0.806-0.541
			c-0.471-0.097-0.742-0.121-0.753-0.178c0-0.007,0.002-0.014,0.007-0.018c-0.002-0.004-0.004-0.004-0.004-0.008
			c-0.001-0.01,0.021-0.022,0.065-0.032c0.169-0.067,0.649-0.132,1.382-0.05c0.928,0.099,2.286,0.489,3.489,1.56
			c1.166,1.039,2.112,2.78,2.031,4.678C36.996,91.025,36.72,91.954,36.215,92.745z"/>
	</g>
	<g>
		<g>
			<path fill="#597A74" d="M30.056,59.907c0.35-0.436,0.904,0.106,0.812,0.519c-0.045,0.438-0.516,0.667-0.84,0.717
				c-0.753,0.04-1.207-0.536-1.374-0.922c-0.349-0.853-0.186-1.246-0.391-1.35c-0.148-0.125-0.407,0.054-0.502-0.07
				c-0.088-0.088-0.055-0.799,1.102-1.637c1.138-0.833,3.368-0.574,4.346,1.118c1.13,1.487,0.764,4.577-1.904,5.629
				c-1.229,0.512-2.915,0.596-4.282-0.395c-1.388-0.943-2.568-2.755-2.576-4.965c-0.081-2.188,1.364-4.634,3.933-6.151
				c2.482-1.526,6.348-1.987,9.768,0.138c-1.362-0.725-3.877-1.671-6.848-0.988c-2.792,0.584-6.34,3.235-6.333,6.812
				c0.001,1.728,0.911,3.567,2.452,4.493c1.365,0.922,3.501,0.523,4.479-0.902c1.018-1.159-0.216-3.682-1.751-3.028
				c-0.787,0.265-1.057,1.152-0.428,1.682c0.224,0.222,0.709,0.132,0.907-0.157C30.82,60.173,30.455,59.554,30.056,59.907z"/>
		</g>
	</g>
	<path fill="#597A74" d="M32.787,73.262c0.533,0.14,1.094,0.191,1.656,0.177c0.001,0.003,0.002,0.007,0.001,0.011
		c-0.954,0.142-1.981,0.059-2.888-0.385c0.037,0.098,0.075,0.196,0.116,0.293c0.26,0.639,0.576,1.258,0.98,1.816
		c0.406,0.55,0.909,1.063,1.573,1.311c-0.003,0.011-0.006,0.017-0.008,0.025c-0.701-0.165-1.287-0.646-1.761-1.178
		c-0.087-0.099-0.17-0.201-0.251-0.304c-0.003,0.419-0.096,0.82-0.171,1.216l-0.006-0.002c0.011-0.516,0.095-1.044-0.059-1.521
		c0.003,0,0.005,0,0.009-0.001c-0.264-0.376-0.494-0.772-0.703-1.18c-0.197-0.393-0.375-0.792-0.535-1.198
		c-0.184,0.7-0.501,1.353-0.88,1.949l-0.011-0.005c0.356-0.807,0.673-1.658,0.679-2.513c-0.097-0.271-0.185-0.548-0.269-0.822
		c-2.615,3.863-0.933,7.219,3.844,7.616h0.003c2.891-3.91,1.416-7.386-3.221-7.939c0.123,0.656,0.284,1.307,0.495,1.939
		C31.773,72.902,32.269,73.127,32.787,73.262z"/>
	<path fill="#597A74" d="M76.688,61.813c1.98-0.006,4.018,0.695,5.399,2.167c1.388,1.437,2.12,3.48,1.938,5.474
		c-0.121,2-1.385,3.895-3.217,4.73c-1.781,0.844-4.145,0.752-5.629-0.666c-1.521-1.323-2.018-3.716-0.981-5.456
		c1.033-1.899,4.118-2.543,5.677-0.669c0.753,0.876,0.956,2.224,0.377,3.31c-0.574,1.084-2.019,1.654-3.218,1.109
		c-1.607-0.67-1.602-3.168-0.056-3.634c0.666-0.253,1.509-0.03,1.867,0.589c0.375,0.573,0.234,1.429-0.351,1.783
		c-0.554,0.368-1.408,0.099-1.552-0.551c-0.229-0.627,0.553-1.277,1.093-0.894c0.255,0.172,0.327,0.525,0.171,0.777
		c-0.157,0.255-0.56,0.279-0.725,0.037c-0.187-0.247,0.109-0.616,0.358-0.467c0.332,0.186-0.179,0.584-0.2,0.203l0.011,0.003
		c0.068,0.32,0.399-0.053,0.155-0.139c-0.182-0.071-0.34,0.171-0.21,0.317c0.338,0.326,0.693-0.332,0.296-0.512
		c-0.335-0.172-0.755,0.197-0.591,0.576c0.111,0.369,0.603,0.49,0.941,0.258c0.767-0.518-0.056-1.912-1.06-1.423
		c-0.995,0.294-1.003,2.015,0.122,2.494c0.851,0.394,1.973-0.01,2.421-0.829c0.452-0.799,0.344-1.948-0.266-2.675
		c-1.197-1.589-3.983-1.202-4.978,0.513c-0.981,1.513-0.645,3.781,0.738,5.105c1.414,1.388,3.704,1.531,5.453,0.728
		c1.803-0.788,3.042-2.618,3.189-4.572c0.509-4.011-3.117-7.759-7.136-7.529c-3.967-0.066-7.684,2.966-8.399,6.87
		c-0.827,3.86,0.725,8.089,3.833,10.517l-0.098,0.122c-3.147-2.458-4.728-6.735-3.894-10.647
		C68.888,64.859,72.654,61.767,76.688,61.813z"/>
	<g>
		<g>
			<path fill="#597A74" d="M100.69,43.317c0.566-0.525-0.188-1.176-0.619-1.25c-0.489-0.124-0.905,0.028-1.166,0.168
				c-0.55,0.27-0.767,0.374-0.951,0.273c-0.283-0.105-0.369-1.076-1.127,0.635c-0.283,0.868-0.07,2.079,0.889,3.042
				c0.904,0.829,2.281,1.578,4.161,1.621c1.874,0.097,4.086-0.985,5.717-3.631c1.678-2.556,1.949-6.836,0.688-11.999
				c0.132,1.061,0.433,2.763,0.479,4.873c0.046,2.083-0.183,4.663-1.562,6.731c-0.64,0.991-1.713,2.013-2.714,2.532
				c-1.032,0.517-2.33,0.568-3.481,0.101c-0.573-0.238-1.106-0.6-1.555-1.074c-0.386-0.366-0.56-0.865-0.516-1.428
				c0.009-0.518,0.446-1.232,0.82-1.367C100.176,42.331,101.1,42.716,100.69,43.317z"/>
		</g>
	</g>
	<g>
		<g>
			<path fill="#597A74" d="M84.626,20.12c-0.22-0.376-1.362-1.655-3.85-2.367c-2.366-0.762-5.718-0.485-5.677-0.447
				c0.023,0.03-3.229,0.113-7.216,2.186c-1.998,1.017-4.066,2.569-5.684,4.084c3.531-3.859,8.097-6.876,12.933-8.258
				c4.817-1.422,9.688-1.366,13.643-0.471c8.051,1.841,12.08,6.223,12.068,6.081c-0.005,0,1.245,1.012,3.026,3.097
				c1.746,2.072,3.887,5.472,4.717,9.995c0.859,4.465,0.28,10.008-2.485,14.8c-2.688,4.76-7.462,8.798-12.971,9.729
				c0.189-0.037,0.373-0.1,0.565-0.147c-2.771,0.366-4.593,0.311-7.604-0.449c-1.651-0.267-6.387-2.594-8.39-6.057
				c-2.158-3.333-1.647-6.16-1.734-6.1c-0.016,0.035,0.188-2.796,1.523-4.304c1.274-1.614,2.677-1.768,3.051-1.741
				c0.717-0.003,1.215-0.004,1.858,0.032c-0.208-0.595-0.382-1.037-1.156-1.207c-0.384-0.104-1.909-0.205-3.548,1.333
				c-1.657,1.42-2.336,4.493-2.254,4.46c0.062-0.07-0.859,3,1.186,6.855c1.623,3.294,5.553,6.008,7.846,6.744
				c-4.445-1.456-7.808-4.579-9.497-7.7c-1.7-3.177-1.779-6.188-1.613-7.971c1.588-11.921,14.034-15.71,20.828-8.038
				c-3.206-3.944-8.198-5.103-12.487-3.695c-4.258,1.449-8.126,5.555-8.846,11.682c-0.198,2.144-0.063,6.16,2.751,9.945
				c2.661,3.736,7.791,7.002,13.753,7.152c2.945,0.104,6.016-0.554,8.739-1.959c2.737-1.401,5.051-3.536,6.879-5.936
				c3.701-4.841,4.976-10.986,4.327-16.046c0.446,2.258,0.56,5.004,0.307,7.471c-0.474,4.787-2.126,8.243-2.094,8.244
				c0.052-0.019-1.529,3.58-3.352,6.276c-1.872,2.846-3.376,4.756-3.573,5.286c-0.531,1.03-0.024,1.252,1.244,1.248
				c0.809-1.088,1.304-1.815,1.698-2.875c0.173-0.554,1.218-2.487,2.668-5.275c1.463-2.695,2.676-6.221,2.631-6.196
				c-0.036-0.005,1.273-3.393,1.459-7.978c0.347-4.554-1.208-9.812-1.994-11.407c-0.771-1.812-1.529-3.052-2.375-4.228
				c-2.51-3.749-4.792-5.394-4.749-5.421c-0.019,0.089-2.953-3.051-8.972-5.251c-5.88-2.236-15.263-2.586-23.16,2.086
				c-7.863,4.558-13.467,12.915-15.345,20.653c-2.068,7.785-0.826,14.491,0.003,17.588c1.559,5.844,4.131,9.979,6.984,13.389
				c2.895,3.391,6.104,6.212,10.367,8.826c-4.177-2.75-7.276-5.646-10.081-9.063c-2.759-3.433-5.247-7.523-6.78-13.281
				c-0.523-1.987-1.22-5.35-1.098-9.597c0.105-4.226,1.075-9.341,3.522-14.236c0.66-1.181,1.396-2.331,2.455-3.791
				c0.939-1.43,4.448-5.337,8.049-7.297c3.579-2.072,6.571-2.341,6.548-2.377c-0.032-0.001,3.019-0.506,5.259,0.06
				c2.342,0.464,3.507,1.572,3.76,1.896c0.527,0.646,0.948,1.001,1.525,1.615C84.809,21.243,85.102,20.842,84.626,20.12z"/>
		</g>
	</g>
	<g>
		<g>
			<path fill="#597A74" d="M70.206,28.709c-2.416,1.177-3.538,2.342-4.046,3.102c-0.521,0.756-0.446,1.166-0.243,1.425
				c0.413,0.51,1.328,0.502,0.113,1.693c-1.044,1.275-4.005,1.684-7.161,7.047c-1.455,2.667-2.815,6.652-2.591,12.075
				c0.224,5.266,2.063,12.493,8.15,18.248c-1.34-0.97-3.364-2.874-5.207-5.922c-1.823-3.03-3.417-7.195-3.871-12.03
				c-0.463-4.8,0.175-10.308,2.659-15.285C60.375,34.09,65.024,29.85,70.206,28.709z"/>
		</g>
	</g>
	<g>
		<path fill="#597A74" d="M63.482,44.424c0.748,0.382,1.389,0.963,1.814,1.611c0.41,0.621,0.589,1.247,0.565,1.755
			c-0.025,0.489-0.234,0.916-0.529,1.25c-0.288,0.327-0.653,0.563-1.014,0.697c-0.344,0.127-0.686,0.16-0.97,0.125
			c-0.592-0.071-1.047-0.456-1.064-1.001c-0.014-0.407,0.345-0.741,0.803-0.746c0.457-0.004,0.837,0.323,0.852,0.719
			c0.002,0.103-0.022,0.202-0.062,0.29c0.151-0.071,0.305-0.169,0.438-0.296c0.241-0.226,0.433-0.541,0.493-0.915
			c0.066-0.393-0.015-0.864-0.271-1.328c-0.277-0.493-0.736-0.951-1.294-1.272c-0.581-0.334-1.27-0.519-1.945-0.52
			c-1.426,0-2.731,0.818-3.517,1.728c-0.822,0.957-1.124,1.933-1.237,2.598c-0.112,0.673-0.067,1.062-0.135,1.08
			c-0.068,0.019-0.247-0.336-0.267-1.008c-0.019-0.666,0.167-1.717,0.975-2.87c0.783-1.114,2.208-2.242,3.915-2.383
			C61.853,43.869,62.721,44.039,63.482,44.424z"/>
	</g>
	<g>
		<path fill="#597A74" d="M52.666,42.69c-0.009,0,0.243-0.524,0.47-1.502c0.228-0.971,0.415-2.419,0.136-4.11
			c-0.265-1.685-1.033-3.601-2.428-5.207c-0.692-0.803-1.536-1.517-2.482-2.093c-0.956-0.58-1.986-1.005-3.086-1.07
			c-2.199-0.187-4.378,0.977-5.445,2.695c-1.238,1.665-0.663,3.772,0.56,4.642c1.211,1.028,2.434,0.302,2.706-0.38
			c0.196-0.526-0.181-0.759-0.197-0.78c-0.096-0.174-0.546-0.325-0.829,0.103c-0.088,0.059-0.225,0.068-0.362-0.074
			c-0.143-0.119-0.22-0.496-0.086-0.8c0.103-0.302,0.398-0.641,0.852-0.774c0.433-0.169,1.072,0.022,1.377,0.286
			c0.082,0.072,0.364,0.275,0.607,0.736c0.237,0.441,0.378,1.234-0.023,1.996c-0.333,0.651-1.031,1.302-1.99,1.527
			c-0.472,0.115-1.004,0.107-1.524-0.036c-0.535-0.166-0.955-0.44-1.366-0.768c-0.816-0.672-1.425-1.713-1.571-2.888
			c-0.182-1.163,0.252-2.469,0.957-3.395c1.355-1.98,3.938-3.191,6.409-2.874c1.237,0.123,2.39,0.666,3.356,1.313
			c0.978,0.653,1.834,1.445,2.521,2.318c1.389,1.745,2.091,3.754,2.289,5.487c0.21,1.744-0.043,3.199-0.314,4.164
			C52.933,42.179,52.657,42.69,52.666,42.69z"/>
		<g>
			<path fill="#597A74" d="M47.345,33.527c-0.006,0.19,0.373,0.29,0.931,0.343c0.581,0.052,1.438,0.072,2.367,0.706
				c0.518,0.353,0.996,0.833,1.381,1.352c0.428,0.579,0.75,1.218,0.956,1.813c0.245,0.699,0.335,1.349,0.351,1.833
				c0.022,0.609-0.051,0.948-0.018,0.86c0.034-0.086,0.16-0.595,0.153-1.366c-0.006-0.64-0.116-1.429-0.38-2.235
				c-0.229-0.689-0.568-1.394-1.001-2.016c-0.383-0.55-0.849-1.053-1.354-1.42C49.013,32.15,47.364,33.137,47.345,33.527z"/>
		</g>
	</g>
	<path fill="#597A74" d="M92.566,36.846c0.424,0.37,0.91,0.673,1.427,0.915c0,0.003,0,0.006-0.002,0.012
		c-0.935-0.306-1.832-0.846-2.455-1.665c-0.012,0.108-0.023,0.216-0.03,0.322c-0.054,0.699-0.046,1.407,0.072,2.097
		c0.118,0.686,0.343,1.381,0.836,1.907c-0.008,0.009-0.013,0.013-0.02,0.021c-0.563-0.47-0.879-1.173-1.069-1.871
		c-0.031-0.13-0.063-0.26-0.091-0.392c-0.191,0.38-0.458,0.706-0.707,1.029l-0.006-0.001c0.244-0.466,0.56-0.909,0.639-1.411
		c0.002,0,0.005,0.001,0.007,0.001c-0.069-0.461-0.099-0.929-0.103-1.395c-0.004-0.446,0.017-0.891,0.056-1.333
		c-0.487,0.557-1.069,1.004-1.687,1.376l-0.006-0.01c0.688-0.572,1.362-1.201,1.758-1.979c0.034-0.292,0.078-0.583,0.127-0.872
		c-4.134,2.332-4.123,6.149,0.046,8.681l0.003,0c4.407-2.248,4.639-6.083,0.669-8.69c-0.186,0.654-0.334,1.319-0.43,1.991
		C91.808,36.062,92.156,36.491,92.566,36.846z"/>
	<path fill="#597A74" d="M95.742,32.923c0.292-0.123,0.564-0.298,0.814-0.502c-0.001,0.004,0.002,0.003,0.005,0.004
		c-0.385,0.4-0.88,0.723-1.446,0.839c0.051,0.03,0.104,0.062,0.154,0.093c0.342,0.198,0.703,0.368,1.081,0.479
		c0.376,0.107,0.784,0.162,1.174,0.043c0.001,0.006,0.003,0.008,0.006,0.014c-0.376,0.169-0.811,0.158-1.212,0.084
		c-0.074-0.017-0.148-0.033-0.223-0.05c0.148,0.189,0.245,0.405,0.351,0.611l-0.004,0.002c-0.177-0.237-0.325-0.506-0.558-0.669
		c0-0.001,0-0.001,0.002-0.004c-0.252-0.078-0.496-0.177-0.732-0.29c-0.229-0.107-0.447-0.227-0.663-0.356
		c0.163,0.386,0.246,0.791,0.286,1.195l-0.008,0.002c-0.12-0.493-0.276-0.987-0.573-1.38c-0.139-0.087-0.276-0.183-0.41-0.277
		c0.168,2.669,2.107,3.6,4.413,2.107l0.002-0.001c-0.06-2.788-1.947-3.849-4.243-2.474c0.285,0.255,0.585,0.495,0.902,0.708
		C95.157,33.114,95.461,33.042,95.742,32.923z"/>
	<g>
		<path fill="#597A74" d="M96.75,93.953c0.007-0.013-0.765-0.143-2.015-0.661c-1.239-0.508-2.973-1.438-4.611-3.064
			c-1.633-1.608-3.129-3.947-3.799-6.731c-0.341-1.383-0.461-2.867-0.355-4.354c0.113-1.5,0.451-2.959,1.244-4.216
			c1.514-2.553,4.492-4.028,7.208-3.854c2.79-0.057,4.649,2.221,4.646,4.241c0.177,2.13-1.574,2.899-2.534,2.663
			c-0.73-0.192-0.689-0.789-0.701-0.823c-0.112-0.239,0.073-0.85,0.761-0.827c0.135-0.05,0.251-0.193,0.203-0.454
			c-0.016-0.249-0.366-0.628-0.808-0.723c-0.412-0.122-1.013-0.062-1.514,0.329c-0.521,0.343-0.813,1.192-0.76,1.731
			c0.013,0.145,0.015,0.614,0.327,1.24c0.3,0.607,1.057,1.381,2.203,1.535c0.974,0.144,2.235-0.108,3.228-0.985
			c0.498-0.426,0.906-1.016,1.154-1.696c0.236-0.715,0.267-1.389,0.226-2.098c-0.097-1.417-0.761-2.901-1.93-3.976
			c-1.133-1.11-2.904-1.657-4.466-1.607c-3.233-0.066-6.576,1.818-8.162,4.772c-0.834,1.45-1.139,3.14-1.186,4.7
			c-0.049,1.584,0.147,3.138,0.566,4.573c0.825,2.886,2.479,5.228,4.221,6.797c1.744,1.595,3.536,2.452,4.807,2.912
			C95.979,93.844,96.755,93.94,96.75,93.953z"/>
		<g>
			<path fill="#597A74" d="M90.873,80.96c0.212,0.143,0.027,0.634-0.352,1.288c-0.396,0.681-1.048,1.63-1.081,3.146
				c-0.017,0.842,0.137,1.741,0.404,2.567c0.299,0.919,0.746,1.773,1.236,2.465c0.576,0.812,1.216,1.422,1.733,1.817
				c0.649,0.499,1.078,0.682,0.954,0.651c-0.123-0.032-0.776-0.292-1.615-0.901c-0.696-0.506-1.473-1.242-2.147-2.165
				c-0.577-0.786-1.084-1.708-1.427-2.673c-0.304-0.85-0.488-1.75-0.497-2.592C88.061,81.712,90.433,80.678,90.873,80.96z"/>
		</g>
	</g>
	<path fill="#597A74" d="M55.208,71.455c-0.264,0.495-0.448,1.039-0.566,1.598c-0.005,0.001-0.007,0.001-0.011-0.001
		c0.084-0.979,0.41-1.975,1.064-2.768c-0.107,0.014-0.212,0.028-0.32,0.045c-0.692,0.105-1.379,0.274-2.027,0.541
		c-0.642,0.272-1.266,0.648-1.669,1.248c-0.009-0.008-0.014-0.01-0.024-0.016c0.33-0.653,0.945-1.12,1.583-1.462
		c0.117-0.064,0.237-0.123,0.359-0.178c-0.414-0.102-0.789-0.288-1.163-0.457l0.001-0.007c0.509,0.132,1.012,0.341,1.519,0.303
		c0,0.004,0,0.006,0,0.008c0.434-0.171,0.882-0.307,1.335-0.415c0.434-0.104,0.871-0.184,1.311-0.246
		c-0.651-0.349-1.218-0.817-1.721-1.333l0.006-0.008c0.714,0.542,1.481,1.057,2.327,1.265c0.293-0.031,0.583-0.054,0.878-0.07
		c-3.205-3.502-6.922-2.631-8.445,2.002v0.004c3.184,3.786,6.972,3.146,8.617-1.31c-0.68-0.033-1.36-0.027-2.038,0.029
		C55.801,70.538,55.464,70.976,55.208,71.455z"/>
	<path fill="#597A74" d="M89.494,67.397c-0.218-0.382-0.488-0.724-0.793-1.022c0.004-0.002,0.003-0.004,0.006-0.007
		c0.567,0.429,1.073,1.047,1.346,1.835c0.026-0.084,0.051-0.17,0.074-0.256c0.157-0.563,0.271-1.141,0.313-1.729
		c0.035-0.584,0.005-1.194-0.229-1.721c0.004-0.004,0.007-0.007,0.014-0.012c0.294,0.492,0.383,1.129,0.39,1.736
		c0.003,0.113-0.002,0.226-0.006,0.336c0.191-0.272,0.424-0.485,0.645-0.704l0.006,0.006c-0.242,0.332-0.529,0.632-0.665,1.028
		c-0.004-0.001-0.004-0.001-0.006-0.003c-0.033,0.391-0.093,0.778-0.17,1.158c-0.075,0.366-0.163,0.727-0.265,1.081
		c0.417-0.361,0.882-0.613,1.355-0.797l0.001,0.009c-0.556,0.334-1.11,0.716-1.506,1.276c-0.075,0.229-0.15,0.46-0.233,0.685
		c3.145-1.101,3.791-4.222,1.454-7.103h-0.002c-3.313,0.981-4.123,4.069-1.931,6.973c0.234-0.498,0.447-1.014,0.627-1.544
		C89.865,68.19,89.705,67.77,89.494,67.397z"/>
	<path fill="#597A74" d="M62.017,64.916c-0.224-0.435-0.506-0.823-0.825-1.163c0.002-0.003,0.002-0.004,0.004-0.007
		c0.604,0.494,1.131,1.197,1.4,2.083c0.031-0.095,0.063-0.188,0.09-0.283c0.189-0.618,0.339-1.255,0.405-1.905
		c0.063-0.646,0.053-1.325-0.185-1.917c0.007-0.006,0.01-0.01,0.018-0.013c0.3,0.556,0.375,1.265,0.357,1.939
		c-0.002,0.126-0.008,0.251-0.019,0.373c0.22-0.296,0.481-0.522,0.731-0.757l0.005,0.005c-0.277,0.359-0.601,0.684-0.765,1.119
		c-0.002-0.004-0.003-0.005-0.005-0.006c-0.051,0.432-0.132,0.859-0.229,1.28c-0.096,0.402-0.206,0.797-0.33,1.188
		c0.47-0.384,0.986-0.647,1.509-0.836l0.002,0.011c-0.618,0.351-1.239,0.756-1.691,1.362c-0.088,0.255-0.182,0.506-0.282,0.754
		c3.474-1.11,4.297-4.552,1.857-7.829l-0.003,0c-3.648,0.973-4.65,4.367-2.37,7.666c0.275-0.545,0.526-1.107,0.742-1.69
		C62.391,65.807,62.232,65.336,62.017,64.916z"/>
	<path fill="#597A74" d="M46.615,52.764c-0.291-0.322-0.626-0.594-0.979-0.816c0-0.001,0.003-0.004,0.002-0.007
		c0.635,0.29,1.25,0.776,1.686,1.477c0.005-0.087,0.01-0.175,0.013-0.265c0.021-0.574,0.004-1.16-0.087-1.737
		c-0.093-0.569-0.258-1.154-0.6-1.61c0.005-0.007,0.008-0.009,0.012-0.017c0.388,0.413,0.613,1.007,0.755,1.592
		c0.026,0.111,0.047,0.22,0.068,0.328c0.122-0.308,0.296-0.563,0.457-0.822l0.005,0.005c-0.157,0.375-0.36,0.728-0.404,1.14
		c0,0-0.003-0.003-0.004-0.003c0.055,0.384,0.083,0.772,0.094,1.159c0.011,0.367,0.007,0.732-0.012,1.1
		c0.317-0.441,0.703-0.787,1.111-1.069l0.004,0.01c-0.455,0.443-0.897,0.934-1.148,1.562c-0.02,0.24-0.042,0.477-0.071,0.715
		c2.741-1.752,2.664-4.91-0.191-7.177l-0.003,0c-2.924,1.673-3.009,4.833-0.287,7.155c0.113-0.532,0.2-1.076,0.252-1.627
		C47.141,53.444,46.898,53.076,46.615,52.764z"/>
	<g>
		<g>
			<circle fill="#597A74" cx="20.492" cy="48.916" r="0.291"/>
		</g>
		<g>
			<circle fill="#597A74" cx="23.246" cy="47.032" r="0.511"/>
		</g>
		<g>
			<circle fill="#597A74" cx="25.364" cy="46.782" r="0.461"/>
		</g>
		<g>
			<circle fill="#597A74" cx="29.429" cy="48.474" r="0.447"/>
		</g>
		<g>
			<circle fill="#597A74" cx="31.206" cy="47.69" r="0.516"/>
		</g>
		<g>
			<circle fill="#597A74" cx="33.458" cy="48.053" r="0.318"/>
		</g>
		<g>
			<circle fill="#597A74" cx="36.263" cy="50.474" r="0.435"/>
		</g>
		<g>
			<circle fill="#597A74" cx="41.282" cy="50.107" r="0.336"/>
		</g>
		<g>
			<circle fill="#597A74" cx="42.234" cy="50.743" r="0.577"/>
		</g>
		<g>
			<circle fill="#597A74" cx="45.761" cy="52.932" r="0.595"/>
		</g>
		<g>
			<path fill="#597A74" d="M47.475,54.173c-0.081-0.258-0.354-0.399-0.613-0.32c-0.257,0.082-0.4,0.354-0.319,0.612
				c0.08,0.26,0.354,0.402,0.611,0.32C47.412,54.704,47.556,54.429,47.475,54.173z"/>
		</g>
		<g>
			<circle fill="#597A74" cx="49.398" cy="56.424" r="0.335"/>
		</g>
		<g>
			<circle fill="#597A74" cx="51.237" cy="58.648" r="0.44"/>
		</g>
		<g>
			<path fill="#597A74" d="M54.774,61.968c-0.058-0.183-0.249-0.28-0.431-0.224c-0.179,0.056-0.278,0.247-0.223,0.427
				c0.057,0.181,0.249,0.281,0.43,0.225C54.729,62.338,54.83,62.146,54.774,61.968z"/>
		</g>
		<g>
			<circle fill="#597A74" cx="56.681" cy="65.676" r="0.364"/>
		</g>
		<g>
			<circle fill="#597A74" cx="58.455" cy="68.726" r="0.382"/>
		</g>
		<g>
			<circle fill="#597A74" cx="59.258" cy="72.631" r="0.44"/>
		</g>
		<g>
			<circle fill="#597A74" cx="61.205" cy="72.274" r="0.385"/>
		</g>
		<g>
			<circle fill="#597A74" cx="62.279" cy="77.041" r="0.538"/>
		</g>
		<g>
			<circle fill="#597A74" cx="66.686" cy="77.938" r="0.28"/>
		</g>
		<g>
			<circle fill="#597A74" cx="66.17" cy="80.364" r="0.472"/>
		</g>
		<g>
			<circle fill="#597A74" cx="67.32" cy="81.16" r="0.543"/>
		</g>
		<g>
			<circle fill="#597A74" cx="69.624" cy="81.336" r="0.365"/>
		</g>
		<g>
			<path fill="#597A74" d="M72.009,81.973c-0.092-0.288-0.397-0.446-0.688-0.356c-0.285,0.09-0.446,0.396-0.355,0.683
				c0.09,0.289,0.396,0.448,0.686,0.358C71.938,82.566,72.099,82.26,72.009,81.973z"/>
		</g>
		<g>
			<path fill="#597A74" d="M74.105,86.67c-0.072-0.231-0.319-0.361-0.554-0.288c-0.229,0.072-0.357,0.318-0.284,0.552
				c0.071,0.232,0.316,0.361,0.55,0.286C74.051,87.148,74.179,86.902,74.105,86.67z"/>
		</g>
		<g>
			<path fill="#597A74" d="M75.212,88.589c-0.056-0.177-0.242-0.273-0.419-0.217c-0.175,0.055-0.272,0.24-0.217,0.418
				c0.053,0.176,0.241,0.272,0.418,0.217C75.17,88.952,75.269,88.764,75.212,88.589z"/>
		</g>
		<g>
			<path fill="#597A74" d="M76.587,88.904c-0.07-0.222-0.308-0.346-0.531-0.276c-0.22,0.07-0.345,0.308-0.272,0.528
				c0.067,0.224,0.306,0.347,0.525,0.276C76.533,89.363,76.656,89.126,76.587,88.904z"/>
		</g>
		<g>
			<circle fill="#597A74" cx="78.708" cy="88.104" r="0.554"/>
		</g>
		<g>
			<path fill="#597A74" d="M82.103,92.383c-0.082-0.266-0.368-0.414-0.636-0.328c-0.266,0.084-0.412,0.366-0.328,0.632
				c0.082,0.268,0.366,0.415,0.632,0.33C82.038,92.935,82.188,92.65,82.103,92.383z"/>
		</g>
		<g>
			<circle fill="#597A74" cx="86.275" cy="94.36" r="0.543"/>
		</g>
		<g>
			<path fill="#597A74" d="M91.137,97.026c-0.058-0.186-0.259-0.29-0.445-0.233c-0.186,0.062-0.29,0.26-0.231,0.445
				c0.058,0.188,0.257,0.291,0.444,0.233C91.093,97.415,91.194,97.213,91.137,97.026z"/>
		</g>
		<g>
			<circle fill="#597A74" cx="92.432" cy="98.077" r="0.478"/>
		</g>
		<g>
			<path fill="#597A74" d="M97.146,98.01c-0.092-0.302-0.411-0.468-0.714-0.372c-0.301,0.094-0.468,0.414-0.375,0.715
				c0.096,0.302,0.417,0.469,0.718,0.374C97.075,98.633,97.243,98.312,97.146,98.01z"/>
		</g>
		<g>
			<path fill="#597A74" d="M98.466,96.404c-0.055-0.166-0.231-0.258-0.399-0.206c-0.164,0.053-0.259,0.232-0.206,0.396
				c0.052,0.168,0.229,0.261,0.396,0.208C98.425,96.75,98.518,96.573,98.466,96.404z"/>
		</g>
		<g>
			<circle fill="#597A74" cx="101.675" cy="98.099" r="0.345"/>
		</g>
	</g>
	<g>
		<g>
			<path fill="#597A74" d="M57.224,30.969c-0.044-0.184-0.232-0.3-0.421-0.254c-0.185,0.046-0.3,0.23-0.255,0.418
				c0.046,0.188,0.233,0.302,0.42,0.255C57.153,31.346,57.271,31.159,57.224,30.969z"/>
		</g>
		<g>
			<path fill="#597A74" d="M53.388,34.224c-0.033-0.135-0.168-0.218-0.304-0.185c-0.134,0.032-0.217,0.167-0.184,0.302
				c0.03,0.135,0.167,0.219,0.302,0.185C53.337,34.493,53.419,34.357,53.388,34.224z"/>
		</g>
		<g>
			<circle fill="#597A74" cx="52.004" cy="38.78" r="0.4"/>
		</g>
		<g>
			<circle fill="#597A74" cx="54.139" cy="42.384" r="0.578"/>
		</g>
		<g>
			<circle fill="#597A74" cx="53.55" cy="44.374" r="0.416"/>
		</g>
		<g>
			<path fill="#597A74" d="M54.985,48.804c-0.069-0.292-0.364-0.469-0.659-0.402c-0.292,0.073-0.474,0.367-0.403,0.659
				c0.069,0.296,0.365,0.476,0.658,0.407C54.876,49.395,55.057,49.099,54.985,48.804z"/>
		</g>
		<g>
			<circle fill="#597A74" cx="55.158" cy="50.078" r="0.47"/>
		</g>
		<g>
			<circle fill="#597A74" cx="54.569" cy="52.65" r="0.391"/>
		</g>
		<g>
			<circle fill="#597A74" cx="54.709" cy="55.345" r="0.39"/>
		</g>
		<g>
			<circle fill="#597A74" cx="55.931" cy="58.138" r="0.52"/>
		</g>
		<g>
			<circle fill="#597A74" cx="58.516" cy="61.432" r="0.322"/>
		</g>
		<g>
			<circle fill="#597A74" cx="61.148" cy="64.712" r="0.498"/>
		</g>
		<g>
			<circle fill="#597A74" cx="61.708" cy="68.3" r="0.395"/>
		</g>
		<g>
			<circle fill="#597A74" cx="65.104" cy="72.373" r="0.573"/>
		</g>
		<g>
			<path fill="#597A74" d="M66.944,74.018c-0.04-0.159-0.203-0.26-0.364-0.221c-0.163,0.039-0.264,0.202-0.225,0.362
				c0.039,0.164,0.203,0.264,0.366,0.225C66.884,74.345,66.981,74.181,66.944,74.018z"/>
		</g>
		<g>
			<circle fill="#597A74" cx="69.661" cy="74.548" r="0.315"/>
		</g>
		<g>
			<path fill="#597A74" d="M72.593,76.652c-0.034-0.151-0.184-0.242-0.334-0.208c-0.15,0.038-0.242,0.188-0.206,0.335
				c0.036,0.151,0.187,0.243,0.336,0.208C72.539,76.951,72.631,76.801,72.593,76.652z"/>
		</g>
		<g>
			<path fill="#597A74" d="M75.369,80.018c-0.036-0.139-0.175-0.226-0.316-0.192c-0.138,0.034-0.225,0.176-0.189,0.313
				c0.032,0.142,0.173,0.227,0.312,0.193C75.316,80.298,75.401,80.158,75.369,80.018z"/>
		</g>
		<g>
			<circle fill="#597A74" cx="78.046" cy="82.748" r="0.48"/>
		</g>
		<g>
			<circle fill="#597A74" cx="80.787" cy="82.888" r="0.482"/>
		</g>
		<g>
			<path fill="#597A74" d="M84.862,84.406c-0.047-0.197-0.243-0.318-0.442-0.271c-0.195,0.047-0.316,0.244-0.269,0.441
				c0.045,0.197,0.244,0.317,0.439,0.271C84.787,84.8,84.91,84.603,84.862,84.406z"/>
		</g>
	</g>
	<g>
		<g>
			<circle fill="#597A74" cx="47.638" cy="98.072" r="0.33"/>
		</g>
		<g>
			<circle fill="#597A74" cx="47.412" cy="96.167" r="0.577"/>
		</g>
		<g>
			<circle fill="#597A74" cx="45.937" cy="93.301" r="0.361"/>
		</g>
		<g>
			<circle fill="#597A74" cx="47.299" cy="91.981" r="0.266"/>
		</g>
		<g>
			<circle fill="#597A74" cx="48.479" cy="87.654" r="0.356"/>
		</g>
		<g>
			<circle fill="#597A74" cx="50.455" cy="86.899" r="0.272"/>
		</g>
		<g>
			<circle fill="#597A74" cx="51.138" cy="84.528" r="0.586"/>
		</g>
		<g>
			<circle fill="#597A74" cx="53.429" cy="82.182" r="0.559"/>
		</g>
		<g>
			<path fill="#597A74" d="M57.955,82.715c-0.057-0.241-0.3-0.391-0.543-0.331c-0.242,0.059-0.391,0.3-0.332,0.542
				c0.058,0.244,0.3,0.393,0.543,0.333C57.865,83.202,58.015,82.958,57.955,82.715z"/>
		</g>
		<g>
			<circle fill="#597A74" cx="60.906" cy="82.41" r="0.275"/>
		</g>
		<g>
			<circle fill="#597A74" cx="64.968" cy="81.356" r="0.355"/>
		</g>
		<g>
			<circle fill="#597A74" cx="67.31" cy="83.346" r="0.427"/>
		</g>
		<g>
			<circle fill="#597A74" cx="72.555" cy="83.201" r="0.572"/>
		</g>
		<g>
			<circle fill="#597A74" cx="75.723" cy="85.599" r="0.323"/>
		</g>
		<g>
			<circle fill="#597A74" cx="77.305" cy="86.796" r="0.543"/>
		</g>
		<g>
			<circle fill="#597A74" cx="77.672" cy="87.986" r="0.283"/>
		</g>
		<g>
			<circle fill="#597A74" cx="79.7" cy="86.684" r="0.502"/>
		</g>
		<g>
			<path fill="#597A74" d="M81.88,89.577c-0.064-0.266-0.332-0.43-0.598-0.365c-0.267,0.063-0.431,0.331-0.364,0.598
				c0.062,0.267,0.331,0.429,0.597,0.366C81.779,90.112,81.945,89.844,81.88,89.577z"/>
		</g>
	</g>
	<g>
		<g>
			<circle fill="#597A74" cx="105.667" cy="37.246" r="0.585"/>
		</g>
		<g>
			<path fill="#597A74" d="M107.154,33.998c-0.06-0.241-0.301-0.39-0.543-0.331c-0.238,0.057-0.388,0.299-0.331,0.54
				c0.059,0.244,0.301,0.392,0.542,0.332C107.063,34.482,107.212,34.239,107.154,33.998z"/>
		</g>
		<g>
			<circle fill="#597A74" cx="104.75" cy="30.777" r="0.415"/>
		</g>
		<g>
			<path fill="#597A74" d="M105.443,29.737c-0.035-0.148-0.186-0.239-0.336-0.204c-0.147,0.035-0.239,0.185-0.204,0.333
				c0.036,0.15,0.186,0.241,0.335,0.205C105.386,30.039,105.479,29.885,105.443,29.737z"/>
		</g>
		<g>
			<circle fill="#597A74" cx="106.083" cy="26.546" r="0.321"/>
		</g>
		<g>
			<path fill="#597A74" d="M105.685,22.625c-0.034-0.134-0.169-0.219-0.303-0.186c-0.137,0.034-0.219,0.169-0.186,0.304
				c0.032,0.132,0.166,0.217,0.302,0.184C105.634,22.895,105.715,22.759,105.685,22.625z"/>
		</g>
		<g>
			<path fill="#597A74" d="M103.828,20.358c-0.046-0.196-0.243-0.316-0.44-0.271c-0.197,0.047-0.318,0.247-0.271,0.44
				c0.047,0.2,0.245,0.32,0.44,0.271C103.755,20.752,103.877,20.554,103.828,20.358z"/>
		</g>
		<g>
			<circle fill="#597A74" cx="102.022" cy="20.381" r="0.317"/>
		</g>
		<g>
			<circle fill="#597A74" cx="100.544" cy="19.392" r="0.253"/>
		</g>
		<g>
			<circle fill="#597A74" cx="98.188" cy="17.941" r="0.564"/>
		</g>
		<g>
			<circle fill="#597A74" cx="95.301" cy="15.556" r="0.249"/>
		</g>
		<g>
			<circle fill="#597A74" cx="91.6" cy="12.618" r="0.289"/>
		</g>
		<g>
			<circle fill="#597A74" cx="90.379" cy="11.915" r="0.479"/>
		</g>
		<g>
			<path fill="#597A74" d="M87.102,13.273c-0.032-0.132-0.166-0.213-0.298-0.183c-0.133,0.034-0.215,0.167-0.185,0.299
				c0.034,0.133,0.168,0.215,0.301,0.184C87.052,13.541,87.134,13.407,87.102,13.273z"/>
		</g>
		<g>
			<circle fill="#597A74" cx="85.575" cy="11.27" r="0.441"/>
		</g>
		<g>
			<circle fill="#597A74" cx="84.749" cy="11.903" r="0.541"/>
		</g>
		<g>
			<circle fill="#597A74" cx="82.824" cy="12.396" r="0.407"/>
		</g>
		<g>
			<circle fill="#597A74" cx="80.548" cy="12.65" r="0.317"/>
		</g>
		<g>
			<circle fill="#597A74" cx="79.563" cy="12.058" r="0.416"/>
		</g>
		<g>
			<path fill="#597A74" d="M75.873,13.057c-0.057-0.228-0.288-0.37-0.519-0.313c-0.227,0.055-0.369,0.285-0.314,0.515
				c0.055,0.231,0.286,0.373,0.515,0.315C75.785,13.52,75.927,13.289,75.873,13.057z"/>
		</g>
		<g>
			<path fill="#597A74" d="M71.886,14.313c-0.058-0.24-0.295-0.386-0.537-0.329c-0.236,0.058-0.383,0.295-0.325,0.535
				c0.057,0.239,0.297,0.384,0.535,0.327C71.797,14.79,71.944,14.547,71.886,14.313z"/>
		</g>
		<g>
			<circle fill="#597A74" cx="67.439" cy="16.077" r="0.37"/>
		</g>
		<g>
			<circle fill="#597A74" cx="66.316" cy="17.783" r="0.402"/>
		</g>
		<g>
			<path fill="#597A74" d="M64.038,21.965c-0.075-0.314-0.391-0.508-0.704-0.433c-0.312,0.075-0.506,0.391-0.429,0.703
				c0.074,0.313,0.39,0.507,0.701,0.433C63.92,22.591,64.112,22.278,64.038,21.965z"/>
		</g>
		<g>
			<path fill="#597A74" d="M60.138,25.386c-0.036-0.153-0.191-0.248-0.347-0.21c-0.152,0.036-0.248,0.192-0.21,0.344
				c0.036,0.156,0.19,0.249,0.344,0.214C60.08,25.696,60.175,25.542,60.138,25.386z"/>
		</g>
		<g>
			<circle fill="#597A74" cx="56.905" cy="27.049" r="0.289"/>
		</g>
		<g>
			<circle fill="#597A74" cx="56.566" cy="31.853" r="0.347"/>
		</g>
	</g>
</g>
</svg>
