<?xml version="1.0" encoding="utf-8"?>
<!-- Generator: Adobe Illustrator 16.0.3, SVG Export Plug-In . SVG Version: 6.00 Build 0)  -->
<!DOCTYPE svg PUBLIC "-//W3C//DTD SVG 1.1//EN" "http://www.w3.org/Graphics/SVG/1.1/DTD/svg11.dtd">
<svg version="1.1" id="Layer_1" xmlns="http://www.w3.org/2000/svg" xmlns:xlink="http://www.w3.org/1999/xlink" x="0px" y="0px"
	 width="120px" height="120px" viewBox="0 0 120 120" enable-background="new 0 0 120 120" xml:space="preserve">
<g opacity="0.5">
	<g>
		<g>
			<path fill="#597A74" d="M20.998,64.304c0.044-0.114-0.013-0.242-0.127-0.287c-0.115-0.044-0.244,0.014-0.285,0.125
				c-0.046,0.118,0.013,0.245,0.125,0.289C20.827,64.474,20.956,64.417,20.998,64.304z"/>
		</g>
		<g>
			<circle fill="#597A74" cx="21.23" cy="64.492" r="0.588"/>
		</g>
		<g>
			<circle fill="#597A74" cx="21.207" cy="60.858" r="0.313"/>
		</g>
		<g>
			<path fill="#597A74" d="M24.769,60.785c0.007-0.207-0.155-0.383-0.366-0.388c-0.208-0.01-0.382,0.154-0.392,0.365
				c-0.005,0.207,0.157,0.383,0.368,0.39C24.586,61.161,24.764,60.995,24.769,60.785z"/>
		</g>
		<g>
			<circle fill="#597A74" cx="24.175" cy="61.701" r="0.336"/>
		</g>
		<g>
			<path fill="#597A74" d="M21.276,62.849c0.268,0.041,0.517-0.144,0.556-0.411c0.039-0.266-0.146-0.517-0.411-0.554
				c-0.269-0.041-0.516,0.142-0.558,0.412C20.826,62.562,21.009,62.812,21.276,62.849z"/>
		</g>
		<g>
			<path fill="#597A74" d="M20.584,59.59c0.057-0.285-0.129-0.559-0.416-0.616c-0.283-0.052-0.562,0.133-0.612,0.417
				c-0.058,0.282,0.129,0.56,0.413,0.616C20.253,60.062,20.53,59.876,20.584,59.59z"/>
		</g>
		<g>
			<circle fill="#597A74" cx="22.383" cy="65.012" r="0.631"/>
		</g>
		<g>
			<circle fill="#597A74" cx="22.928" cy="63.068" r="0.261"/>
		</g>
		<g>
			<circle fill="#597A74" cx="21.521" cy="65.167" r="0.279"/>
		</g>
		<g>
			<circle fill="#597A74" cx="25.887" cy="66.947" r="0.707"/>
		</g>
		<g>
			<path fill="#597A74" d="M21.93,66.017c0.008-0.129-0.088-0.241-0.217-0.25c-0.129-0.013-0.242,0.085-0.252,0.212
				c-0.013,0.131,0.088,0.242,0.215,0.252C21.807,66.242,21.919,66.146,21.93,66.017z"/>
		</g>
		<g>
			<path fill="#597A74" d="M22.554,71.466c0.111-0.103,0.12-0.278,0.015-0.392c-0.104-0.113-0.281-0.121-0.393-0.014
				c-0.113,0.102-0.12,0.279-0.018,0.392C22.265,71.566,22.439,71.572,22.554,71.466z"/>
		</g>
		<g>
			<path fill="#597A74" d="M18.896,67.521c0.05-0.174-0.051-0.352-0.223-0.398c-0.173-0.048-0.351,0.051-0.4,0.224
				c-0.048,0.172,0.054,0.348,0.224,0.4C18.672,67.792,18.85,67.691,18.896,67.521z"/>
		</g>
		<g>
			<path fill="#597A74" d="M16.998,67.763c0.164-0.063,0.24-0.246,0.176-0.409c-0.063-0.161-0.247-0.24-0.408-0.178
				c-0.161,0.066-0.241,0.249-0.178,0.413C16.652,67.749,16.836,67.828,16.998,67.763z"/>
		</g>
		<g>
			<path fill="#597A74" d="M13.13,68.864c0.338-0.219,0.432-0.666,0.214-1c-0.216-0.337-0.665-0.43-0.999-0.212
				c-0.333,0.218-0.431,0.664-0.212,0.997C12.35,68.983,12.797,69.079,13.13,68.864z"/>
		</g>
		<g>
			<path fill="#597A74" d="M14.562,63.662c0.212-0.337,0.111-0.783-0.228-0.992c-0.338-0.214-0.785-0.108-0.996,0.229
				c-0.21,0.337-0.109,0.781,0.228,0.994C13.905,64.104,14.349,64.001,14.562,63.662z"/>
		</g>
		<g>
			<circle fill="#597A74" cx="11.284" cy="63.717" r="0.65"/>
		</g>
		<g>
			<path fill="#597A74" d="M9.688,61.057c0.061-0.172-0.028-0.367-0.203-0.429c-0.175-0.067-0.367,0.026-0.431,0.202
				c-0.064,0.173,0.026,0.366,0.2,0.431C9.431,61.323,9.623,61.232,9.688,61.057z"/>
		</g>
		<g>
			<path fill="#597A74" d="M7.908,57.703c0.262-0.131,0.369-0.453,0.236-0.718c-0.133-0.264-0.453-0.372-0.717-0.239
				C7.16,56.88,7.054,57.2,7.188,57.465C7.32,57.728,7.642,57.836,7.908,57.703z"/>
		</g>
		<g>
			<circle fill="#597A74" cx="11.751" cy="54.548" r="0.39"/>
		</g>
		<g>
			<path fill="#597A74" d="M12.467,52.917c0.004-0.188-0.146-0.344-0.332-0.351c-0.189-0.006-0.349,0.145-0.354,0.334
				c-0.004,0.188,0.146,0.344,0.335,0.35C12.303,53.256,12.46,53.106,12.467,52.917z"/>
		</g>
		<g>
			<circle fill="#597A74" cx="12.321" cy="48.358" r="0.516"/>
		</g>
		<g>
			<circle fill="#597A74" cx="15.875" cy="45.614" r="0.462"/>
		</g>
		<g>
			<path fill="#597A74" d="M21.133,47.145c0.298,0.056,0.582-0.138,0.639-0.433s-0.137-0.58-0.434-0.637
				c-0.292-0.057-0.58,0.137-0.636,0.431C20.646,46.801,20.839,47.087,21.133,47.145z"/>
		</g>
		<g>
			<path fill="#597A74" d="M24.463,47.043c0.246,0.031,0.471-0.143,0.502-0.39c0.029-0.246-0.145-0.472-0.391-0.503
				c-0.249-0.03-0.474,0.146-0.505,0.393C24.042,46.788,24.215,47.014,24.463,47.043z"/>
		</g>
		<g>
			<circle fill="#597A74" cx="27.741" cy="45.814" r="0.391"/>
		</g>
		<g>
			<path fill="#597A74" d="M28.521,45.689c0.231,0.008,0.427-0.173,0.437-0.407c0.006-0.228-0.176-0.422-0.405-0.43
				c-0.233-0.008-0.425,0.173-0.434,0.404C28.111,45.487,28.291,45.682,28.521,45.689z"/>
		</g>
		<g>
			<path fill="#597A74" d="M31.476,49.176c0.172-0.104,0.232-0.327,0.128-0.5c-0.103-0.174-0.322-0.231-0.497-0.13
				c-0.176,0.103-0.232,0.326-0.128,0.499C31.078,49.217,31.301,49.275,31.476,49.176z"/>
		</g>
		<g>
			<circle fill="#597A74" cx="33.573" cy="48.495" r="0.452"/>
		</g>
		<g>
			<circle fill="#597A74" cx="34.615" cy="48.571" r="0.71"/>
		</g>
		<g>
			<circle fill="#597A74" cx="36.296" cy="49.994" r="0.647"/>
		</g>
		<g>
			<circle fill="#597A74" cx="35.624" cy="53.532" r="0.438"/>
		</g>
		<g>
			<circle fill="#597A74" cx="38.498" cy="52.675" r="0.4"/>
		</g>
		<g>
			<path fill="#597A74" d="M37.548,55.671c0.246-0.064,0.395-0.318,0.333-0.564c-0.065-0.25-0.317-0.399-0.566-0.332
				c-0.247,0.062-0.397,0.315-0.334,0.563C37.046,55.586,37.296,55.735,37.548,55.671z"/>
		</g>
		<g>
			<path fill="#597A74" d="M42.77,53.342c0.253-0.086,0.389-0.359,0.304-0.613c-0.085-0.255-0.36-0.393-0.615-0.306
				c-0.253,0.086-0.391,0.362-0.307,0.615C42.24,53.291,42.515,53.429,42.77,53.342z"/>
		</g>
		<g>
			<path fill="#597A74" d="M43.574,54.708c0.153,0.019,0.288-0.09,0.307-0.239c0.015-0.151-0.091-0.286-0.24-0.304
				c-0.15-0.019-0.287,0.09-0.305,0.239C43.318,54.556,43.427,54.691,43.574,54.708z"/>
		</g>
		<g>
			<circle fill="#597A74" cx="42.05" cy="58.59" r="0.244"/>
		</g>
		<g>
			<circle fill="#597A74" cx="43.257" cy="58.878" r="0.308"/>
		</g>
		<g>
			<circle fill="#597A74" cx="41.722" cy="60.256" r="0.621"/>
		</g>
		<g>
			<circle fill="#597A74" cx="43.219" cy="62.864" r="0.522"/>
		</g>
		<g>
			<circle fill="#597A74" cx="48.085" cy="62.892" r="0.712"/>
		</g>
		<g>
			<path fill="#597A74" d="M43.886,66.252c0.288-0.023,0.502-0.274,0.481-0.562c-0.024-0.288-0.274-0.506-0.563-0.482
				c-0.29,0.023-0.503,0.274-0.48,0.564C43.344,66.06,43.597,66.275,43.886,66.252z"/>
		</g>
		<g>
			<circle fill="#597A74" cx="48.617" cy="67.644" r="0.437"/>
		</g>
		<g>
			<circle fill="#597A74" cx="45.594" cy="69.692" r="0.723"/>
		</g>
		<g>
			<path fill="#597A74" d="M43.892,73.787c0.222,0.031,0.431-0.12,0.466-0.342c0.031-0.22-0.121-0.429-0.342-0.463
				c-0.223-0.033-0.432,0.119-0.462,0.341C43.519,73.544,43.671,73.753,43.892,73.787z"/>
		</g>
		<g>
			<circle fill="#597A74" cx="44.562" cy="76.877" r="0.453"/>
		</g>
		<g>
			<path fill="#597A74" d="M43.422,79.468c0.096-0.346-0.108-0.702-0.455-0.796c-0.351-0.093-0.705,0.111-0.799,0.457
				c-0.094,0.347,0.11,0.704,0.457,0.797C42.973,80.02,43.328,79.815,43.422,79.468z"/>
		</g>
		<g>
			<circle fill="#597A74" cx="42.56" cy="81.524" r="0.456"/>
		</g>
		<g>
			<circle fill="#597A74" cx="40.405" cy="84.325" r="0.614"/>
		</g>
		<g>
			<circle fill="#597A74" cx="41.462" cy="85.903" r="0.677"/>
		</g>
		<g>
			<path fill="#597A74" d="M42.533,88.522c0.23-0.16,0.287-0.48,0.124-0.708c-0.163-0.23-0.48-0.284-0.711-0.124
				c-0.229,0.164-0.285,0.48-0.12,0.71C41.989,88.633,42.307,88.686,42.533,88.522z"/>
		</g>
		<g>
			<path fill="#597A74" d="M38.466,90.644c0.116-0.364-0.087-0.753-0.452-0.868c-0.363-0.113-0.752,0.088-0.867,0.452
				c-0.113,0.366,0.088,0.751,0.452,0.87C37.963,91.209,38.352,91.011,38.466,90.644z"/>
		</g>
		<g>
			<path fill="#597A74" d="M33.928,90.089c0.057-0.181-0.049-0.376-0.23-0.43c-0.186-0.056-0.377,0.047-0.429,0.23
				c-0.056,0.186,0.046,0.377,0.231,0.431C33.679,90.375,33.875,90.27,33.928,90.089z"/>
		</g>
		<g>
			<path fill="#597A74" d="M32.767,93.085c0.038-0.35-0.22-0.66-0.565-0.696c-0.352-0.031-0.66,0.221-0.694,0.569
				c-0.037,0.351,0.219,0.66,0.567,0.696C32.423,93.688,32.733,93.434,32.767,93.085z"/>
		</g>
		<g>
			<circle fill="#597A74" cx="32.938" cy="96.875" r="0.621"/>
		</g>
		<g>
			<circle fill="#597A74" cx="29.575" cy="98.455" r="0.277"/>
		</g>
		<g>
			<path fill="#597A74" d="M27.104,97.003c0.094-0.235-0.021-0.504-0.257-0.6c-0.235-0.091-0.503,0.025-0.597,0.261
				c-0.096,0.236,0.022,0.502,0.258,0.596C26.745,97.357,27.014,97.24,27.104,97.003z"/>
		</g>
		<g>
			<path fill="#597A74" d="M27.112,99.522c0.137,0.012,0.254-0.091,0.266-0.221c0.013-0.136-0.085-0.257-0.222-0.269
				c-0.135-0.011-0.254,0.09-0.266,0.226C26.881,99.393,26.979,99.511,27.112,99.522z"/>
		</g>
		<g>
			<path fill="#597A74" d="M25.174,97.41c0.236,0.06,0.477-0.087,0.533-0.324c0.063-0.239-0.083-0.479-0.323-0.538
				c-0.235-0.061-0.478,0.088-0.536,0.321C24.787,97.11,24.934,97.35,25.174,97.41z"/>
		</g>
		<g>
			<path fill="#597A74" d="M25.522,100.07c0.087-0.102,0.077-0.26-0.024-0.349c-0.103-0.091-0.258-0.082-0.347,0.02
				c-0.093,0.105-0.081,0.261,0.021,0.351C25.275,100.181,25.432,100.174,25.522,100.07z"/>
		</g>
		<g>
			<path fill="#597A74" d="M21.465,97.732c0.019-0.126-0.063-0.246-0.19-0.266c-0.124-0.023-0.244,0.062-0.267,0.188
				c-0.019,0.125,0.063,0.245,0.189,0.266C21.321,97.939,21.44,97.858,21.465,97.732z"/>
		</g>
		<g>
			<path fill="#597A74" d="M17.382,97.505c0.058-0.101,0.023-0.231-0.081-0.293c-0.1-0.059-0.233-0.026-0.288,0.077
				c-0.062,0.104-0.026,0.233,0.077,0.295C17.19,97.643,17.32,97.607,17.382,97.505z"/>
		</g>
		<g>
			<path fill="#597A74" d="M15.84,99.209c0.289-0.166,0.384-0.53,0.219-0.82c-0.162-0.284-0.531-0.382-0.818-0.217
				c-0.288,0.164-0.384,0.532-0.221,0.817C15.187,99.278,15.556,99.373,15.84,99.209z"/>
		</g>
		<g>
			<path fill="#597A74" d="M14.077,102.461c0.008-0.249-0.192-0.456-0.441-0.462c-0.249-0.005-0.457,0.192-0.461,0.441
				c-0.008,0.252,0.188,0.457,0.441,0.463C13.863,102.911,14.07,102.711,14.077,102.461z"/>
		</g>
		<g>
			<circle fill="#597A74" cx="11.364" cy="101.941" r="0.716"/>
		</g>
		<g>
			<path fill="#597A74" d="M9.541,97.572c0.271,0.09,0.566-0.058,0.653-0.329c0.089-0.271-0.055-0.568-0.33-0.656
				c-0.271-0.09-0.563,0.058-0.653,0.329C9.122,97.191,9.268,97.481,9.541,97.572z"/>
		</g>
		<g>
			<circle fill="#597A74" cx="6.41" cy="97.208" r="0.634"/>
		</g>
		<g>
			<circle fill="#597A74" cx="4.856" cy="99.445" r="0.629"/>
		</g>
		<g>
			<circle fill="#597A74" cx="3.341" cy="102.324" r="0.493"/>
		</g>
	</g>
	<g>
		<g>
			<path fill="#597A74" d="M65.19,59.542c1.155,0.736,2.021,1.887,2.636,3.237c2.115,4.601,1.197,11.899-3.013,18.677
				c-4.064,6.882-11.971,12.831-20.771,15.86l-0.235,0.077c5.436-1.604,10.695-4.013,15.372-7.294
				c4.619-3.228,8.548-7.233,11.66-11.523c9.707-13.107,13.373-28.461,23.042-42.893c2.841-4.206,6.237-8.222,10.095-11.462
				c1.223-1.111,4.799-3.534,4.815-3.382c-0.003,0.069-3.464,2.707-4.608,3.843c-3.691,3.342-6.913,7.266-9.641,11.39
				c-8,12.148-11.885,25.129-19.136,37.09c1.325-1.909,2.599-3.864,3.903-5.81c4.95-7.433,10.027-15.181,16.024-21.358
				c5.872-6.189,12.944-10.485,18.559-10.396c1.646,0.005,3.145,0.299,4.345,1.024c0.418,0.194,1.293,1.021,1.097,1.268
				c-0.183,0.209-1.458,0.072-1.947,0.066c-1.456-0.156-2.911-0.179-4.477,0.018c-5.266,0.672-11.389,4.292-17.019,9.851
				c-5.69,5.522-10.876,12.684-16.072,19.842c-1.617,2.227-3.246,4.458-4.931,6.662c-0.303,0.395-0.786,1.016-1.17,1.5
				c-0.679,0.987-1.352,1.992-2.09,2.956c-4.853,6.656-11.739,12.646-19.891,16.204c-8.052,3.587-16.788,5.301-25.35,5.4
				c-5.301-0.004-10.567-0.739-15.257-2.346c-1.619-0.429-4.47-1.933-4.472-1.894c0.012-0.04,2.943,1.397,4.567,1.803
				c4.721,1.542,9.965,2.214,15.226,2.159c3.277-0.096,6.585-0.355,9.845-0.953c2.535-0.614,5.007-1.409,7.385-2.353
				c8.387-3.291,15.378-9.023,18.944-15.252c3.687-6.183,4.417-12.399,3.084-16.961c-0.399-1.355-0.994-2.549-1.654-3.741
				c-0.176-0.413-0.816-1.422-0.592-1.721C63.637,58.905,64.844,59.271,65.19,59.542z"/>
		</g>
	</g>
	<g>
		<g>
			<path fill="#597A74" d="M101.921,42.149c-0.153,0.097-0.194,0.299-0.098,0.453c0.095,0.15,0.299,0.195,0.45,0.095
				c0.151-0.095,0.194-0.299,0.098-0.447C102.274,42.096,102.071,42.055,101.921,42.149z"/>
		</g>
		<g>
			<path fill="#597A74" d="M97.349,37.802c0.067,0.216,0.299,0.332,0.515,0.263c0.214-0.07,0.331-0.3,0.261-0.51
				c-0.068-0.218-0.297-0.334-0.514-0.267C97.396,37.357,97.278,37.588,97.349,37.802z"/>
		</g>
		<g>
			<path fill="#597A74" d="M96.868,37.176c-0.032,0.16,0.076,0.314,0.237,0.341c0.162,0.033,0.313-0.076,0.345-0.238
				c0.028-0.16-0.077-0.313-0.24-0.345C97.05,36.907,96.894,37.014,96.868,37.176z"/>
		</g>
		<g>
			<path fill="#597A74" d="M93.681,40.479c-0.247,0.337-0.177,0.814,0.162,1.065c0.339,0.25,0.816,0.175,1.063-0.162
				c0.252-0.339,0.181-0.815-0.159-1.066C94.407,40.065,93.932,40.14,93.681,40.479z"/>
		</g>
		<g>
			<path fill="#597A74" d="M87.874,36.197c-0.026,0.375,0.258,0.701,0.632,0.727c0.376,0.024,0.699-0.258,0.727-0.634
				c0.027-0.373-0.259-0.7-0.633-0.726C88.225,35.539,87.901,35.825,87.874,36.197z"/>
		</g>
		<g>
			<circle fill="#597A74" cx="84.226" cy="41.763" r="0.649"/>
		</g>
		<g>
			<path fill="#597A74" d="M81.317,41.795c0.092,0.348,0.444,0.564,0.795,0.475c0.35-0.086,0.561-0.438,0.476-0.79
				c-0.086-0.35-0.443-0.564-0.791-0.475C81.447,41.089,81.232,41.444,81.317,41.795z"/>
		</g>
		<g>
			<path fill="#597A74" d="M76.721,41.249c-0.037,0.353,0.218,0.669,0.573,0.706c0.354,0.038,0.667-0.218,0.706-0.572
				c0.039-0.354-0.221-0.671-0.569-0.707C77.075,40.639,76.761,40.895,76.721,41.249z"/>
		</g>
		<g>
			<path fill="#597A74" d="M73.806,44.259c-0.124,0.068-0.169,0.222-0.1,0.35c0.067,0.122,0.225,0.168,0.346,0.1
				c0.127-0.067,0.172-0.225,0.103-0.349C74.087,44.234,73.932,44.192,73.806,44.259z"/>
		</g>
		<g>
			<path fill="#597A74" d="M69.758,46.77c-0.16,0.185-0.139,0.463,0.042,0.622c0.186,0.162,0.462,0.141,0.625-0.045
				c0.16-0.181,0.138-0.461-0.045-0.619C70.196,46.566,69.915,46.585,69.758,46.77z"/>
		</g>
		<g>
			<path fill="#597A74" d="M70.185,49.153c-0.215,0.276-0.168,0.678,0.11,0.892c0.275,0.221,0.677,0.17,0.895-0.106
				c0.218-0.282,0.168-0.681-0.112-0.896C70.801,48.827,70.399,48.873,70.185,49.153z"/>
		</g>
		<g>
			<path fill="#597A74" d="M63.557,54.116c-0.07,0.143-0.012,0.313,0.131,0.38c0.141,0.067,0.314,0.01,0.379-0.132
				c0.068-0.14,0.009-0.311-0.131-0.377C63.794,53.915,63.623,53.974,63.557,54.116z"/>
		</g>
		<g>
			<path fill="#597A74" d="M66.894,61.398c0.168,0.297,0.551,0.403,0.85,0.231c0.297-0.175,0.403-0.555,0.23-0.852
				c-0.173-0.299-0.55-0.4-0.852-0.23C66.826,60.717,66.723,61.1,66.894,61.398z"/>
		</g>
		<g>
			<path fill="#597A74" d="M66.344,65.062c-0.179,0.157-0.198,0.434-0.043,0.614c0.158,0.18,0.433,0.197,0.613,0.04
				c0.178-0.158,0.199-0.43,0.041-0.608C66.798,64.927,66.525,64.905,66.344,65.062z"/>
		</g>
		<g>
			<path fill="#597A74" d="M61.148,68.048c-0.182,0.187-0.183,0.486,0.005,0.668c0.185,0.183,0.484,0.181,0.664-0.008
				C62,68.525,62,68.227,61.813,68.045C61.631,67.862,61.332,67.863,61.148,68.048z"/>
		</g>
		<g>
			<circle fill="#597A74" cx="64.304" cy="74.442" r="0.625"/>
		</g>
		<g>
			<path fill="#597A74" d="M61.512,74.874c0.218,0.347,0.675,0.45,1.021,0.233c0.344-0.218,0.451-0.676,0.233-1.022
				c-0.219-0.344-0.677-0.449-1.021-0.23C61.399,74.072,61.295,74.527,61.512,74.874z"/>
		</g>
		<g>
			<path fill="#597A74" d="M61.512,77.274c0.078,0.16,0.27,0.227,0.43,0.151c0.163-0.078,0.228-0.273,0.152-0.435
				c-0.078-0.161-0.27-0.228-0.43-0.152C61.502,76.919,61.435,77.11,61.512,77.274z"/>
		</g>
		<g>
			<path fill="#597A74" d="M58.551,76.745c0.024,0.308,0.295,0.536,0.604,0.508c0.309-0.026,0.537-0.297,0.508-0.605
				c-0.024-0.308-0.295-0.536-0.602-0.511C58.75,76.166,58.523,76.434,58.551,76.745z"/>
		</g>
		<g>
			<path fill="#597A74" d="M61.244,78.791c-0.104,0.146-0.074,0.342,0.068,0.449c0.143,0.104,0.342,0.073,0.447-0.069
				s0.074-0.341-0.069-0.446C61.548,78.621,61.347,78.651,61.244,78.791z"/>
		</g>
		<g>
			<circle fill="#597A74" cx="58.891" cy="82.267" r="0.408"/>
		</g>
		<g>
			<path fill="#597A74" d="M56.63,83.991c-0.156,0.08-0.215,0.277-0.132,0.434c0.083,0.154,0.277,0.216,0.435,0.136
				c0.158-0.085,0.214-0.28,0.135-0.437C56.983,83.967,56.787,83.908,56.63,83.991z"/>
		</g>
		<g>
			<path fill="#597A74" d="M56.452,91c0.005,0.313,0.264,0.562,0.577,0.557c0.312-0.005,0.561-0.259,0.556-0.57
				c-0.001-0.314-0.262-0.564-0.572-0.561C56.7,90.431,56.447,90.688,56.452,91z"/>
		</g>
		<g>
			<path fill="#597A74" d="M55.088,92.12c-0.186,0.106-0.25,0.342-0.144,0.527c0.104,0.183,0.339,0.245,0.524,0.14
				c0.185-0.105,0.25-0.342,0.144-0.521C55.505,92.081,55.271,92.018,55.088,92.12z"/>
		</g>
		<g>
			<circle fill="#597A74" cx="55.256" cy="94.444" r="0.446"/>
		</g>
		<g>
			<path fill="#597A74" d="M50.957,97.538c0.174,0.415,0.651,0.617,1.067,0.442c0.422-0.172,0.622-0.65,0.448-1.069
				c-0.173-0.417-0.651-0.617-1.069-0.445C50.986,96.64,50.784,97.116,50.957,97.538z"/>
		</g>
		<g>
			<path fill="#597A74" d="M44.974,98.29c0.195,0.35,0.646,0.475,0.995,0.275c0.352-0.198,0.477-0.643,0.277-0.994
				c-0.197-0.354-0.645-0.475-0.994-0.277C44.897,97.491,44.774,97.937,44.974,98.29z"/>
		</g>
		<g>
			<path fill="#597A74" d="M44.444,98.887c-0.015,0.2,0.138,0.373,0.336,0.386c0.201,0.014,0.374-0.14,0.388-0.338
				c0.013-0.199-0.137-0.371-0.34-0.386C44.632,98.537,44.457,98.688,44.444,98.887z"/>
		</g>
		<g>
			<path fill="#597A74" d="M39.527,96.057c-0.12,0.244-0.019,0.543,0.226,0.664c0.245,0.123,0.543,0.022,0.663-0.225
				c0.125-0.245,0.021-0.542-0.223-0.661C39.946,95.711,39.65,95.813,39.527,96.057z"/>
		</g>
		<g>
			<circle fill="#597A74" cx="36.382" cy="103.094" r="0.859"/>
		</g>
		<g>
			<path fill="#597A74" d="M34.419,99.949c0.048,0.356,0.374,0.609,0.73,0.566c0.357-0.043,0.613-0.37,0.564-0.727
				c-0.043-0.358-0.368-0.611-0.724-0.568C34.631,99.265,34.375,99.593,34.419,99.949z"/>
		</g>
		<g>
			<path fill="#597A74" d="M33.378,96.585c0.017,0.242,0.229,0.427,0.472,0.409c0.246-0.019,0.426-0.231,0.41-0.476
				c-0.019-0.242-0.231-0.428-0.477-0.408C33.543,96.131,33.36,96.342,33.378,96.585z"/>
		</g>
		<g>
			<path fill="#597A74" d="M26.754,101.273c-0.314,0.266-0.35,0.735-0.081,1.047c0.268,0.311,0.734,0.347,1.046,0.08
				c0.311-0.267,0.349-0.737,0.082-1.046C27.53,101.041,27.064,101.005,26.754,101.273z"/>
		</g>
		<g>
			<path fill="#597A74" d="M24.36,103.059c0.202,0.27,0.588,0.32,0.852,0.115c0.271-0.204,0.32-0.586,0.116-0.852
				c-0.202-0.269-0.583-0.32-0.854-0.114C24.209,102.409,24.156,102.795,24.36,103.059z"/>
		</g>
		<g>
			<path fill="#597A74" d="M18.412,99.071c0.231,0.299,0.659,0.356,0.959,0.125c0.303-0.228,0.356-0.658,0.127-0.96
				c-0.229-0.299-0.659-0.354-0.958-0.126C18.24,98.342,18.184,98.77,18.412,99.071z"/>
		</g>
		<g>
			<path fill="#597A74" d="M12.046,100.105c0.046,0.315,0.339,0.527,0.652,0.479c0.312-0.045,0.525-0.336,0.479-0.647
				c-0.048-0.313-0.343-0.529-0.653-0.481C12.212,99.503,11.997,99.798,12.046,100.105z"/>
		</g>
	</g>
	<g>
		<g>
			<path fill="#597A74" d="M52.278,89.063c3.385-0.624,4.341,0.969,5.305,2.723c-1.872-1.684-4.239-2.691-7.249-1.089
				c1.729,2.872,5.61,4.343,9.618,3.798C60.241,90.394,57.164,85.649,52.278,89.063z"/>
			<path fill="#597A74" d="M18.541,101.244c1.468,1.647,2.29,3.569,1.978,5.619c-0.175,1.093-0.982,2.232-1.69,3.358
				c1.182-3.647,1.042-7.571-2.968-9.571c-1.827,3.704-1.456,9.085,1.935,12.383C23.052,109.668,24.854,103.2,18.541,101.244z"/>
			<path fill="#597A74" d="M34.714,97.357c7.082-2.879,4.776-9.363,0.599-12.228c-2.455,3.729-4.235,8.136-3.768,12.6
				c4.488-1.694,5.347-5.685,4.771-9.119c0.478,0.989,0.964,1.978,1.021,2.95C37.453,93.645,36.681,95.819,34.714,97.357z"/>
			<path fill="#597A74" d="M47.525,70.947c0.785-0.04,1.577-0.081,2.23,0.117c1.688,0.519,3.05,1.594,3.663,3.261
				c0.514-4.959-5.898-5.904-8.875-3.891c1.209,3.244,4.825,5.777,8.308,6.229C52.907,73.479,50.229,71.743,47.525,70.947z"/>
			<path fill="#597A74" d="M59.156,59.588c-3.024-0.093-6.831,2.586-4.771,5.86c-0.672-2.522,1.236-3.321,2.93-4.373
				c-1.71,1.557-3.06,3.602-1.953,5.748C57.753,65.158,59.035,62.435,59.156,59.588z"/>
			<path fill="#597A74" d="M74.209,57.954c-0.458-0.596-0.924-1.166-1.448-1.412c-1.379-0.645-2.794-0.481-4.207,0.348
				c2.479-4.023,7.359-1.777,7.637,2.831c-3.027,2.029-6.588,0.945-8.786-0.887C69.395,56.72,72.084,56.737,74.209,57.954z"/>
			<path fill="#597A74" d="M66.766,23.524c-0.688-0.017-1.368-0.014-1.901,0.208c-1.371,0.574-2.38,1.652-2.793,3.058
				c-0.741-3.991,4.236-5.973,7.239-3.713c-0.708,3.192-4.074,5.218-6.811,5.61C62.613,26.095,64.442,24.358,66.766,23.524z"/>
			<path fill="#597A74" d="M83.303,42.34c-0.328-0.673-0.646-1.328-1.092-1.672c-1.108-0.901-2.331-1.057-3.459-0.447
				c2.057-3.511,6.168-0.179,6.075,4.324c-2.406,1.172-5.272-0.526-7.009-2.583C79.479,40.131,81.662,40.654,83.303,42.34z"/>
			<path fill="#597A74" d="M67.258,38.951c3.243-0.51,7.115,4.221,4.007,7.703c1.304-2.876-0.463-4.586-2.1-5.927
				c1.495,1.99,2.647,5.133,0.603,7.206C68.086,45.194,67.466,42.128,67.258,38.951z"/>
			<path fill="#597A74" d="M51.81,15.031c2.267-2.286,7.56-1.869,7.396,2.285c-0.739-2.639-2.985-2.475-4.998-2.288
				c2.273,0.291,4.886,1.464,4.676,4.076C56.031,18.598,53.598,17.099,51.81,15.031z"/>
			<path fill="#597A74" d="M48.31,33.99c0.297-0.508,0.602-1.021,1.032-1.384c1.113-0.935,2.512-1.535,4.012-1.484
				c-3.468-1.666-6.986,2.235-6.711,4.544c2.951,0.195,6.563-1.317,8.213-3.518C52.508,31.225,50.047,32.52,48.31,33.99z"/>
			<path fill="#597A74" d="M45.306,23.015c-1.72,2.001-1.377,5.4,1.854,5.016c-1.985-0.338-1.919-1.82-1.766-3.291
				c0.278,1.625,1.205,3.156,3.22,3.032C48.55,25.689,47.081,24.074,45.306,23.015z"/>
			<path fill="#597A74" d="M83.387,34.979c0.131-0.095,0.235-0.173,0.235-0.173s-0.108,0.063-0.245,0.134
				c-5.255,2.696-9.389,8.33-12.779,14.088c-2.652,4.636-4.817,9.466-6.633,14.323c2.54-12.06,0.265-23.083-2.029-33.429
				c-0.994-4.541-1.94-9.099-1.662-13.892c0.022-0.77,0.152-1.968,0.5-2.899c0.326-0.95,0.894-1.53,0.875-1.543
				c0.015,0.008-0.576,0.565-0.938,1.514c-0.388,0.929-0.555,2.136-0.592,2.911c-0.376,4.806,0.513,9.449,1.427,13.991
				c0.729,3.361,1.309,6.696,1.861,10.093c-1.327-4.979-5.231-8.808-9.628-10.474c-5.39-2.048-11.579-0.944-16.811,1.68
				c-0.139,0.065-0.25,0.119-0.25,0.119s0.113-0.044,0.259-0.102c5.434-2.337,11.278-3.039,16.479-1.124
				c5.113,1.82,9.344,6.493,10.125,12.499c0.019,0.143,0.039,0.258,0.196,0.265c1.519,10.668,0.109,23.187-5.591,33.922
				c-2.389,4.887-5.923,9.28-9.661,12.877c4.048-4.366,6.924-10.313,6.903-16.034c0.207-7.253-4.213-13.26-10.112-16.501
				c-0.151-0.09-0.271-0.165-0.271-0.165s0.116,0.084,0.261,0.187c5.691,3.704,9.384,9.577,9.284,16.538
				c0.041,6.944-3.798,14.277-9.851,18.789c-0.153,0.117-0.279,0.218-0.177,0.388c-1.132,0.831-2.384,1.563-3.637,2.254
				c-7.726,4.184-17.578,5.622-26.189,3.367C9.635,97.28,5.172,94.703,1.763,91.62c-1.205-0.918-3.745-3.919-3.837-3.797
				c-0.125,0.016,2.159,3.279,3.333,4.264c3.266,3.326,7.788,6.087,13.016,7.526c8.841,2.515,19.156,1.087,27.2-3.299
				C49.608,91.855,55.1,85.105,59.18,77.283c1.577-3.164,2.897-6.455,3.811-9.861c0.046-0.047,0.044-0.145,0.076-0.248
				c1.878-6.208,4.744-12.023,8.079-17.703C74.594,43.848,78.313,38.356,83.387,34.979z"/>
		</g>
	</g>
	<path fill="#597A74" d="M17.058,99.961c-2.179-0.021-6.13-0.956-6.128-0.984c0.01,0.032,4.057,0.954,6.242,0.962
		c6.391,0.353,13.296-1.533,18.983-5.466c3.549-2.442,6.616-5.647,8.913-9.355c1.756-2.938,3.035-6.135,3.742-9.401
		c1.346-5.761,0.496-11.795-1.932-16.607c-2.387-4.861-6.241-8.485-10.24-10.571c-4.013-2.08-8.156-2.767-11.362-2.438
		c-3.255,0.318-5.622,1.561-7.019,2.676c-0.828,0.677-1.311,1.313-1.716,1.914c-0.175,0.24-0.444,0.739-0.815,1.01
		c-0.297,0.19-0.902,0.286-0.969,0.179c-0.325-0.192-0.189-0.807,0.354-1.587c0.906-1.311,3.098-3.256,6.643-4.292
		c3.497-1.101,8.331-0.882,12.992,1.087c4.672,1.942,9.16,5.735,11.912,10.898c2.809,5.106,3.758,11.541,2.361,17.516l-0.069,0.315
		c1.87-7.261,0.29-15.298-4.057-21.232c-4.261-6.019-11.138-9.822-18.09-10.427c-5.328-0.445-10.711,1.343-14.674,4.754
		c-3.98,3.376-6.537,8.359-6.869,13.491c-0.319,5.122,2.119,10.284,6.265,13.291c2.049,1.5,4.511,2.501,7.031,2.806
		c2.503,0.303,5.1-0.238,7.304-1.521c2.6-1.489,4.596-4.006,5.438-6.877c0.899-2.839,0.407-5.967-1.292-8.324
		c-0.529-0.768-1.703-2.061-3.017-2.762c-1.279-0.752-2.519-1.008-2.46-1.032c0.021,0.019,1.335,0.266,2.657,1.048
		c1.337,0.76,2.547,2.067,3.052,2.862c1.693,2.399,2.101,5.554,1.196,8.373c-0.863,2.853-2.834,5.347-5.409,6.852
		c-1.874,1.111-4.043,1.694-6.207,1.679c-2.157-0.009-4.342-0.638-6.297-1.614c-3.931-1.964-6.922-5.704-8.02-9.992
		c-1.155-4.299-0.227-9.002,1.958-12.93c2.183-3.953,5.788-7.154,10.071-8.877c-2.88,1.123-5.517,2.915-7.651,5.201
		C5.858,54.93,3.49,61.249,4.779,67.232c1.192,5.968,5.889,10.951,11.56,12.634c2.792,0.906,5.897,0.894,8.634-0.004
		c2.756-0.875,5.141-2.573,6.846-4.646c1.715-2.104,2.775-4.437,3.222-6.836c0.436-2.397,0.171-4.668-0.368-6.486
		c-0.606-2.157-1.578-3.712-1.834-4.521c-0.178-0.316,0.031-0.611,0.564-0.037c0.513,0.508,1.413,2.154,1.648,2.87
		c0.73,1.915,1.146,3.985,0.993,6.372c-0.117,2.036-0.712,4.172-1.748,6.13c-1.038,1.992-2.589,3.895-4.6,5.38
		c-2.002,1.485-4.476,2.531-7.142,2.856c-2.668,0.354-5.492-0.154-8.001-1.254c-5.112-2.146-9.227-7.101-10.176-12.915
		c-0.993-5.831,1.317-11.942,5.346-16.26c2.526-2.686,5.779-4.69,9.333-5.733c0.631-0.195,1.652-0.437,2.467-0.566
		c1.559-0.292,3.163-0.379,4.762-0.295c5.447,0.338,10.823,2.638,15.027,6.404c4.195,3.77,7.173,9.017,8.152,14.693
		c1.063,5.7-0.077,11.637-2.481,16.771c-2.392,5.192-6.25,9.644-10.88,12.807C30.362,98.526,23.416,100.359,17.058,99.961z"/>
</g>
</svg>
