<?xml version="1.0" encoding="utf-8"?>
<!-- Generator: Adobe Illustrator 16.0.3, SVG Export Plug-In . SVG Version: 6.00 Build 0)  -->
<!DOCTYPE svg PUBLIC "-//W3C//DTD SVG 1.1//EN" "http://www.w3.org/Graphics/SVG/1.1/DTD/svg11.dtd">
<svg version="1.1" id="Layer_1" xmlns="http://www.w3.org/2000/svg" xmlns:xlink="http://www.w3.org/1999/xlink" x="0px" y="0px"
	 width="120px" height="8px" viewBox="0 0 120 8" enable-background="new 0 0 120 8" xml:space="preserve">
<path fill="#ECE2DD" d="M0,0h120v5.172c0,0-15.416-1.705-21-1.498C88.52,4.064,68.763,6.588,58,6.211
	c-8.536-0.299-25.082-1.955-33.666-2.993C17.378,2.375,7.241,2.837,0,3.333"/>
<path opacity="0.5" fill="#ABBD8C" d="M0,0h120c0,0-4.063,1.534-4.625,1.625C108.64,2.712,102.334,4.26,91.083,4.51
	c-6.003,0.133-15-1.705-25.833-1.58c-11.73,0.135-35.186,4.05-46.916,3.908C8.002,6.713,0,4.833,0,4.833V0z"/>
<path opacity="0.5" fill="#407A61" d="M0,0h120v5.203c0,0-7.501,0.873-12.334,0.748C95.275,5.631,73.517,1.775,60,1.629
	C40.666,1.42,18.75,6.242,6.442,6.921C2.271,7.15,0,6.833,0,6.833V0z"/>
<path opacity="0.5" fill="#275362" d="M0,0h120v3.031c0,0-5.71-0.474-7.833-0.374C105.833,2.955,95.61,4.923,89.25,4.985
	C77.473,5.103,51.196,0.662,39.417,0.662C26.583,0.662,14.973,4.207,6.5,4.07C3.331,4.02,0,3.708,0,3.708V0z"/>
</svg>
