<?xml version="1.0" encoding="utf-8"?>
<!-- Generator: Adobe Illustrator 16.0.3, SVG Export Plug-In . SVG Version: 6.00 Build 0)  -->
<!DOCTYPE svg PUBLIC "-//W3C//DTD SVG 1.1//EN" "http://www.w3.org/Graphics/SVG/1.1/DTD/svg11.dtd">
<svg version="1.1" id="Layer_1" xmlns="http://www.w3.org/2000/svg" xmlns:xlink="http://www.w3.org/1999/xlink" x="0px" y="0px"
	 width="120px" height="8px" viewBox="0 0 120 8" enable-background="new 0 0 120 8" xml:space="preserve">
<path fill="#ECE2DD" d="M-9.751-6.145c0,0,6.88-1.54,16.393-0.748c12.5,1.041,18.399,0.783,27.25,0.396
	c14.75-0.644,18.767-2.687,33.75-2.825c21.5-0.198,34.25,2.528,44.75,2.379c10.5-0.149,12.857-0.937,14.357-1.234
	c1.5-0.298,0.584,23.807,0.584,23.807s-15.416-1.704-21-1.496c-10.48,0.389-30.237,2.913-41,2.536
	c-8.536-0.299-25.082-1.954-33.666-2.993c-6.956-0.842-17.843-0.332-25.084,0.166c-6.667,0.457-15.916-1.33-15.916-1.33"/>
<path opacity="0.5" fill="#ABBD8C" d="M-6.169-8.051c0,0,5.765-1.62,18.25-1.388c16,0.298,26.98,3.759,46.75,3.519
	c12.25-0.149,11.75-0.892,23.25-0.892c7.75,0,13.5,1.239,26.25,2.577c11.277,1.183,19.25,0.297,19.25,0.297l-0.249,15.494
	c0,0-10.044-0.918-14.583-0.748c-6.817,0.256-18.416,3.7-29.667,3.95c-6.003,0.133-15-1.705-25.833-1.581
	c-11.73,0.136-35.186,4.051-46.916,3.909C0.001,16.962-7.001,15.216-7.001,15.216L-6.169-8.051z"/>
<path opacity="0.5" fill="#407A61" d="M-1.584-8.924c0,0,7.25-0.644,14-0.1c6.75,0.545,31.25,5.848,51.25,5.253
	s37.524-4.277,50-4.46c6.75-0.099,11.5,0.785,11.5,0.785l-0.083,22.326c0,0-7.501,0.873-12.334,0.749
	c-12.391-0.319-34.149-4.176-47.666-4.322c-19.334-0.209-41.25,4.614-53.558,5.292c-4.171,0.229-12.666-0.582-12.666-0.582
	L-1.584-8.924z"/>
<path opacity="0.5" fill="#275362" d="M-3.418-8.378c0,0,2.25-0.446,11.75,0c9.5,0.446,16,4.312,34.5,4.163
	c18.277-0.146,29.406-4.267,45-4.708c14-0.396,20.429,1.087,27.5,1.437c3,0.149,6.001-0.083,6.001-0.083l0.75,20.914
	c0,0-5.71-0.475-7.833-0.375c-6.334,0.298-16.557,2.266-22.917,2.328c-11.777,0.117-38.054-4.324-49.833-4.324
	c-12.834,0-24.444,3.547-32.917,3.41c-3.169-0.051-12.167-0.79-12.167-0.79L-3.418-8.378z"/>
</svg>
